G04 #@! TF.FileFunction,Soldermask,Bot*
%FSLAX46Y46*%
G04 Gerber Fmt 4.6, Leading zero omitted, Abs format (unit mm)*
G04 Created by KiCad (PCBNEW 4.0.6-e0-6349~53~ubuntu16.04.1) date Thu Jul 27 09:56:00 2017*
%MOMM*%
%LPD*%
G01*
G04 APERTURE LIST*
%ADD10C,0.100000*%
%ADD11C,2.127200*%
%ADD12R,1.400000X1.400000*%
%ADD13O,1.400000X1.400000*%
%ADD14C,1.920000*%
%ADD15C,3.100000*%
%ADD16C,3.400000*%
G04 APERTURE END LIST*
D10*
D11*
X116750000Y-115160000D03*
X119290000Y-115160000D03*
X121830000Y-115160000D03*
X124370000Y-115160000D03*
X126910000Y-115160000D03*
X129450000Y-115160000D03*
X131990000Y-115160000D03*
X134530000Y-115160000D03*
X137070000Y-115160000D03*
X139610000Y-115160000D03*
X142150000Y-115160000D03*
X144690000Y-115160000D03*
X147230000Y-115160000D03*
X149770000Y-115160000D03*
X152310000Y-115160000D03*
X154850000Y-115160000D03*
X157390000Y-115160000D03*
X159930000Y-115160000D03*
X162470000Y-115160000D03*
X165010000Y-115160000D03*
X167550000Y-115160000D03*
X170090000Y-115160000D03*
X172630000Y-115160000D03*
X175170000Y-115160000D03*
X177710000Y-115160000D03*
X180250000Y-115160000D03*
X180250000Y-94840000D03*
X177710000Y-94840000D03*
X175170000Y-94840000D03*
X172630000Y-94840000D03*
X170090000Y-94840000D03*
X167550000Y-94840000D03*
X165010000Y-94840000D03*
X162470000Y-94840000D03*
X159930000Y-94840000D03*
X157390000Y-94840000D03*
X154850000Y-94840000D03*
X152310000Y-94840000D03*
X149770000Y-94840000D03*
X147230000Y-94840000D03*
X144690000Y-94840000D03*
X142150000Y-94840000D03*
X139610000Y-94840000D03*
X137070000Y-94840000D03*
X134530000Y-94840000D03*
X131990000Y-94840000D03*
X129450000Y-94840000D03*
X126910000Y-94840000D03*
X124370000Y-94840000D03*
X121830000Y-94840000D03*
X119290000Y-94840000D03*
X116750000Y-94840000D03*
D12*
X88163400Y-109372400D03*
D13*
X88163400Y-110642400D03*
X88163400Y-111912400D03*
X88163400Y-113182400D03*
D12*
X95402400Y-109372400D03*
D13*
X95402400Y-110642400D03*
X95402400Y-111912400D03*
X95402400Y-113182400D03*
D12*
X102666800Y-109372400D03*
D13*
X102666800Y-110642400D03*
X102666800Y-111912400D03*
X102666800Y-113182400D03*
D12*
X109931200Y-109372400D03*
D13*
X109931200Y-110642400D03*
X109931200Y-111912400D03*
X109931200Y-113182400D03*
D12*
X113563400Y-109359700D03*
D13*
X113563400Y-110629700D03*
X113563400Y-111899700D03*
X113563400Y-113169700D03*
D12*
X106299000Y-109372400D03*
D13*
X106299000Y-110642400D03*
X106299000Y-111912400D03*
X106299000Y-113182400D03*
D12*
X99034600Y-109372400D03*
D13*
X99034600Y-110642400D03*
X99034600Y-111912400D03*
X99034600Y-113182400D03*
D12*
X91782900Y-109372400D03*
D13*
X91782900Y-110642400D03*
X91782900Y-111912400D03*
X91782900Y-113182400D03*
D12*
X99034600Y-93853000D03*
D13*
X99034600Y-95123000D03*
X99034600Y-96393000D03*
X99034600Y-97663000D03*
D12*
X95402400Y-93853000D03*
D13*
X95402400Y-95123000D03*
X95402400Y-96393000D03*
X95402400Y-97663000D03*
D12*
X91770200Y-93853000D03*
D13*
X91770200Y-95123000D03*
X91770200Y-96393000D03*
X91770200Y-97663000D03*
D12*
X88138000Y-93853000D03*
D13*
X88138000Y-95123000D03*
X88138000Y-96393000D03*
X88138000Y-97663000D03*
D12*
X102641400Y-93853000D03*
D13*
X102641400Y-95123000D03*
X102641400Y-96393000D03*
X102641400Y-97663000D03*
D12*
X106273600Y-93853000D03*
D13*
X106273600Y-95123000D03*
X106273600Y-96393000D03*
X106273600Y-97663000D03*
D12*
X109905800Y-93853000D03*
D13*
X109905800Y-95123000D03*
X109905800Y-96393000D03*
X109905800Y-97663000D03*
D12*
X113538000Y-93853000D03*
D13*
X113538000Y-95123000D03*
X113538000Y-96393000D03*
X113538000Y-97663000D03*
D14*
X174500000Y-106040000D03*
X174500000Y-103500000D03*
X176500000Y-103500000D03*
X176500000Y-106040000D03*
D15*
X179200000Y-110770000D03*
X179200000Y-98770000D03*
D16*
X162500000Y-106000000D03*
M02*
