M48
;DRILL file {KiCad 4.0.6-e0-6349~53~ubuntu16.04.1} date Thu Jul 27 09:56:09 2017
;FORMAT={-:-/ absolute / metric / decimal}
FMAT,2
METRIC,TZ
T1C0.400
T2C0.650
T3C0.810
T4C1.016
T5C2.000
T6C2.300
%
G90
G05
M71
T1
X86.639Y-116.053
X89.967Y-107.645
X90.272Y-116.053
X93.599Y-107.645
X93.878Y-116.053
X97.206Y-107.798
X97.511Y-116.053
X101.143Y-116.053
X104.445Y-107.848
X104.775Y-116.053
X108.026Y-107.975
X108.356Y-116.103
X112.014Y-116.205
X115.037Y-110.617
X115.138Y-109.347
X116.637Y-106.426
X122.453Y-105.435
X122.479Y-107.569
X129.845Y-104.343
X130.556Y-98.527
X131.267Y-104.394
X131.597Y-113.614
X132.105Y-104.394
X132.41Y-113.589
X132.944Y-104.394
X133.274Y-113.589
X141.503Y-104.089
X142.418Y-113.081
X142.519Y-107.848
X142.57Y-112.243
X142.646Y-111.379
X142.951Y-110.439
X143.18Y-99.085
X143.383Y-108.941
X143.459Y-101.651
X143.459Y-109.779
X143.561Y-102.972
X143.637Y-110.998
X143.916Y-108.229
X143.993Y-100.99
X144.018Y-99.593
X144.272Y-102.133
X144.526Y-100.33
X145.364Y-103.429
X145.669Y-109.791
X145.796Y-110.998
X146.787Y-103.81
X146.812Y-110.68
X147.637Y-98.996
X149.352Y-98.552
X149.352Y-105.918
X149.415Y-100.012
X149.415Y-101.663
X150.876Y-107.061
X154.114Y-105.918
X154.178Y-104.838
X157.48Y-106.934
X157.607Y-105.219
X160.21Y-110.998
X161.036Y-112.141
X161.925Y-113.411
X162.243Y-101.663
X162.814Y-100.457
X164.211Y-101.473
X165.29Y-100.52
X167.513Y-111.569
X168.402Y-104.267
X168.402Y-107.251
T2
X88.138Y-93.853
X88.138Y-95.123
X88.138Y-96.393
X88.138Y-97.663
X88.163Y-109.372
X88.163Y-110.642
X88.163Y-111.912
X88.163Y-113.182
X91.77Y-93.853
X91.77Y-95.123
X91.77Y-96.393
X91.77Y-97.663
X91.783Y-109.372
X91.783Y-110.642
X91.783Y-111.912
X91.783Y-113.182
X95.402Y-93.853
X95.402Y-95.123
X95.402Y-96.393
X95.402Y-97.663
X95.402Y-109.372
X95.402Y-110.642
X95.402Y-111.912
X95.402Y-113.182
X99.035Y-93.853
X99.035Y-95.123
X99.035Y-96.393
X99.035Y-97.663
X99.035Y-109.372
X99.035Y-110.642
X99.035Y-111.912
X99.035Y-113.182
X102.641Y-93.853
X102.641Y-95.123
X102.641Y-96.393
X102.641Y-97.663
X102.667Y-109.372
X102.667Y-110.642
X102.667Y-111.912
X102.667Y-113.182
X106.274Y-93.853
X106.274Y-95.123
X106.274Y-96.393
X106.274Y-97.663
X106.299Y-109.372
X106.299Y-110.642
X106.299Y-111.912
X106.299Y-113.182
X109.906Y-93.853
X109.906Y-95.123
X109.906Y-96.393
X109.906Y-97.663
X109.931Y-109.372
X109.931Y-110.642
X109.931Y-111.912
X109.931Y-113.182
X113.538Y-93.853
X113.538Y-95.123
X113.538Y-96.393
X113.538Y-97.663
X113.563Y-109.36
X113.563Y-110.63
X113.563Y-111.9
X113.563Y-113.17
T3
X174.5Y-103.5
X174.5Y-106.04
X176.5Y-103.5
X176.5Y-106.04
T4
X116.75Y-94.84
X116.75Y-115.16
X119.29Y-94.84
X119.29Y-115.16
X121.83Y-94.84
X121.83Y-115.16
X124.37Y-94.84
X124.37Y-115.16
X126.91Y-94.84
X126.91Y-115.16
X129.45Y-94.84
X129.45Y-115.16
X131.99Y-94.84
X131.99Y-115.16
X134.53Y-94.84
X134.53Y-115.16
X137.07Y-94.84
X137.07Y-115.16
X139.61Y-94.84
X139.61Y-115.16
X142.15Y-94.84
X142.15Y-115.16
X144.69Y-94.84
X144.69Y-115.16
X147.23Y-94.84
X147.23Y-115.16
X149.77Y-94.84
X149.77Y-115.16
X152.31Y-94.84
X152.31Y-115.16
X154.85Y-94.84
X154.85Y-115.16
X157.39Y-94.84
X157.39Y-115.16
X159.93Y-94.84
X159.93Y-115.16
X162.47Y-94.84
X162.47Y-115.16
X165.01Y-94.84
X165.01Y-115.16
X167.55Y-94.84
X167.55Y-115.16
X170.09Y-94.84
X170.09Y-115.16
X172.63Y-94.84
X172.63Y-115.16
X175.17Y-94.84
X175.17Y-115.16
X177.71Y-94.84
X177.71Y-115.16
X180.25Y-94.84
X180.25Y-115.16
T5
X154.432Y-100.076
X162.5Y-106.
T6
X179.2Y-98.77
X179.2Y-110.77
T0
M30
