%FSLAX45Y45*%
G04 Gerber Fmt 4.5, Leading zero omitted, Abs format (unit mm)*
G04 Created by KiCad (PCBNEW 4.0.6-e0-6349~53~ubuntu16.04.1) date Thu Jul 27 09:56:11 2017*
%MOMM*%
%LPD*%
G01*
G04 APERTURE LIST*
%ADD10C,0.127000*%
%ADD11C,0.150000*%
%ADD12C,0.200000*%
%ADD13C,0.300000*%
G04 APERTURE END LIST*
D10*
D11*
X18211800Y-11785600D02*
X8534400Y-11785600D01*
X18211800Y-9118600D02*
X18211800Y-11785600D01*
X8534400Y-9118600D02*
X18211800Y-9118600D01*
X8534400Y-11785600D02*
X8534400Y-9118600D01*
D12*
X8643940Y-11585260D02*
X8683940Y-11625260D01*
X8683940Y-11585260D02*
X8643940Y-11625260D01*
X8976680Y-10744520D02*
X9016680Y-10784520D01*
X9016680Y-10744520D02*
X8976680Y-10784520D01*
X9007160Y-11585260D02*
X9047160Y-11625260D01*
X9047160Y-11585260D02*
X9007160Y-11625260D01*
X9339900Y-10744520D02*
X9379900Y-10784520D01*
X9379900Y-10744520D02*
X9339900Y-10784520D01*
X9367840Y-11585260D02*
X9407840Y-11625260D01*
X9407840Y-11585260D02*
X9367840Y-11625260D01*
X9700580Y-10759760D02*
X9740580Y-10799760D01*
X9740580Y-10759760D02*
X9700580Y-10799760D01*
X9731060Y-11585260D02*
X9771060Y-11625260D01*
X9771060Y-11585260D02*
X9731060Y-11625260D01*
X10094280Y-11585260D02*
X10134280Y-11625260D01*
X10134280Y-11585260D02*
X10094280Y-11625260D01*
X10424480Y-10764840D02*
X10464480Y-10804840D01*
X10464480Y-10764840D02*
X10424480Y-10804840D01*
X10457500Y-11585260D02*
X10497500Y-11625260D01*
X10497500Y-11585260D02*
X10457500Y-11625260D01*
X10782620Y-10777540D02*
X10822620Y-10817540D01*
X10822620Y-10777540D02*
X10782620Y-10817540D01*
X10815640Y-11590340D02*
X10855640Y-11630340D01*
X10855640Y-11590340D02*
X10815640Y-11630340D01*
X11181400Y-11600500D02*
X11221400Y-11640500D01*
X11221400Y-11600500D02*
X11181400Y-11640500D01*
X11483660Y-11041700D02*
X11523660Y-11081700D01*
X11523660Y-11041700D02*
X11483660Y-11081700D01*
X11493820Y-10914700D02*
X11533820Y-10954700D01*
X11533820Y-10914700D02*
X11493820Y-10954700D01*
X11643680Y-10622600D02*
X11683680Y-10662600D01*
X11683680Y-10622600D02*
X11643680Y-10662600D01*
X12225340Y-10523540D02*
X12265340Y-10563540D01*
X12265340Y-10523540D02*
X12225340Y-10563540D01*
X12227880Y-10736900D02*
X12267880Y-10776900D01*
X12267880Y-10736900D02*
X12227880Y-10776900D01*
X12964480Y-10414320D02*
X13004480Y-10454320D01*
X13004480Y-10414320D02*
X12964480Y-10454320D01*
X13035600Y-9832660D02*
X13075600Y-9872660D01*
X13075600Y-9832660D02*
X13035600Y-9872660D01*
X13106720Y-10419400D02*
X13146720Y-10459400D01*
X13146720Y-10419400D02*
X13106720Y-10459400D01*
X13139740Y-11341420D02*
X13179740Y-11381420D01*
X13179740Y-11341420D02*
X13139740Y-11381420D01*
X13190540Y-10419400D02*
X13230540Y-10459400D01*
X13230540Y-10419400D02*
X13190540Y-10459400D01*
X13221020Y-11338880D02*
X13261020Y-11378880D01*
X13261020Y-11338880D02*
X13221020Y-11378880D01*
X13274360Y-10419400D02*
X13314360Y-10459400D01*
X13314360Y-10419400D02*
X13274360Y-10459400D01*
X13307380Y-11338880D02*
X13347380Y-11378880D01*
X13347380Y-11338880D02*
X13307380Y-11378880D01*
X14130340Y-10388920D02*
X14170340Y-10428920D01*
X14170340Y-10388920D02*
X14130340Y-10428920D01*
X14221780Y-11288080D02*
X14261780Y-11328080D01*
X14261780Y-11288080D02*
X14221780Y-11328080D01*
X14231940Y-10764840D02*
X14271940Y-10804840D01*
X14271940Y-10764840D02*
X14231940Y-10804840D01*
X14237020Y-11204260D02*
X14277020Y-11244260D01*
X14277020Y-11204260D02*
X14237020Y-11244260D01*
X14244640Y-11117900D02*
X14284640Y-11157900D01*
X14284640Y-11117900D02*
X14244640Y-11157900D01*
X14275120Y-11023920D02*
X14315120Y-11063920D01*
X14315120Y-11023920D02*
X14275120Y-11063920D01*
X14297980Y-9888540D02*
X14337980Y-9928540D01*
X14337980Y-9888540D02*
X14297980Y-9928540D01*
X14318300Y-10874060D02*
X14358300Y-10914060D01*
X14358300Y-10874060D02*
X14318300Y-10914060D01*
X14325920Y-10145080D02*
X14365920Y-10185080D01*
X14365920Y-10145080D02*
X14325920Y-10185080D01*
X14325920Y-10957880D02*
X14365920Y-10997880D01*
X14365920Y-10957880D02*
X14325920Y-10997880D01*
X14336080Y-10277160D02*
X14376080Y-10317160D01*
X14376080Y-10277160D02*
X14336080Y-10317160D01*
X14343700Y-11079800D02*
X14383700Y-11119800D01*
X14383700Y-11079800D02*
X14343700Y-11119800D01*
X14371640Y-10802940D02*
X14411640Y-10842940D01*
X14411640Y-10802940D02*
X14371640Y-10842940D01*
X14379260Y-10079040D02*
X14419260Y-10119040D01*
X14419260Y-10079040D02*
X14379260Y-10119040D01*
X14381800Y-9939340D02*
X14421800Y-9979340D01*
X14421800Y-9939340D02*
X14381800Y-9979340D01*
X14407200Y-10193340D02*
X14447200Y-10233340D01*
X14447200Y-10193340D02*
X14407200Y-10233340D01*
X14432600Y-10013000D02*
X14472600Y-10053000D01*
X14472600Y-10013000D02*
X14432600Y-10053000D01*
X14516420Y-10322880D02*
X14556420Y-10362880D01*
X14556420Y-10322880D02*
X14516420Y-10362880D01*
X14546900Y-10959150D02*
X14586900Y-10999150D01*
X14586900Y-10959150D02*
X14546900Y-10999150D01*
X14559600Y-11079800D02*
X14599600Y-11119800D01*
X14599600Y-11079800D02*
X14559600Y-11119800D01*
X14658660Y-10360980D02*
X14698660Y-10400980D01*
X14698660Y-10360980D02*
X14658660Y-10400980D01*
X14661200Y-11048050D02*
X14701200Y-11088050D01*
X14701200Y-11048050D02*
X14661200Y-11088050D01*
X14743750Y-9879650D02*
X14783750Y-9919650D01*
X14783750Y-9879650D02*
X14743750Y-9919650D01*
X14915200Y-9835200D02*
X14955200Y-9875200D01*
X14955200Y-9835200D02*
X14915200Y-9875200D01*
X14915200Y-10571800D02*
X14955200Y-10611800D01*
X14955200Y-10571800D02*
X14915200Y-10611800D01*
X14921550Y-9981250D02*
X14961550Y-10021250D01*
X14961550Y-9981250D02*
X14921550Y-10021250D01*
X14921550Y-10146350D02*
X14961550Y-10186350D01*
X14961550Y-10146350D02*
X14921550Y-10186350D01*
X15067600Y-10686100D02*
X15107600Y-10726100D01*
X15107600Y-10686100D02*
X15067600Y-10726100D01*
X15391450Y-10571800D02*
X15431450Y-10611800D01*
X15431450Y-10571800D02*
X15391450Y-10611800D01*
X15397800Y-10463850D02*
X15437800Y-10503850D01*
X15437800Y-10463850D02*
X15397800Y-10503850D01*
X15728000Y-10673400D02*
X15768000Y-10713400D01*
X15768000Y-10673400D02*
X15728000Y-10713400D01*
X15740700Y-10501950D02*
X15780700Y-10541950D01*
X15780700Y-10501950D02*
X15740700Y-10541950D01*
X16001050Y-11079800D02*
X16041050Y-11119800D01*
X16041050Y-11079800D02*
X16001050Y-11119800D01*
X16083600Y-11194100D02*
X16123600Y-11234100D01*
X16123600Y-11194100D02*
X16083600Y-11234100D01*
X16172500Y-11321100D02*
X16212500Y-11361100D01*
X16212500Y-11321100D02*
X16172500Y-11361100D01*
X16204250Y-10146350D02*
X16244250Y-10186350D01*
X16244250Y-10146350D02*
X16204250Y-10186350D01*
X16261400Y-10025700D02*
X16301400Y-10065700D01*
X16301400Y-10025700D02*
X16261400Y-10065700D01*
X16401100Y-10127300D02*
X16441100Y-10167300D01*
X16441100Y-10127300D02*
X16401100Y-10167300D01*
X16509050Y-10032050D02*
X16549050Y-10072050D01*
X16549050Y-10032050D02*
X16509050Y-10072050D01*
X16731300Y-11136950D02*
X16771300Y-11176950D01*
X16771300Y-11136950D02*
X16731300Y-11176950D01*
X16820200Y-10406700D02*
X16860200Y-10446700D01*
X16860200Y-10406700D02*
X16820200Y-10446700D01*
X16820200Y-10705150D02*
X16860200Y-10745150D01*
X16860200Y-10705150D02*
X16820200Y-10745150D01*
X8846300Y-9385300D02*
G75*
G03X8846300Y-9385300I-32500J0D01*
G01*
X8846300Y-9512300D02*
G75*
G03X8846300Y-9512300I-32500J0D01*
G01*
X8846300Y-9639300D02*
G75*
G03X8846300Y-9639300I-32500J0D01*
G01*
X8846300Y-9766300D02*
G75*
G03X8846300Y-9766300I-32500J0D01*
G01*
X8848840Y-10937240D02*
G75*
G03X8848840Y-10937240I-32500J0D01*
G01*
X8848840Y-11064240D02*
G75*
G03X8848840Y-11064240I-32500J0D01*
G01*
X8848840Y-11191240D02*
G75*
G03X8848840Y-11191240I-32500J0D01*
G01*
X8848840Y-11318240D02*
G75*
G03X8848840Y-11318240I-32500J0D01*
G01*
X9209520Y-9385300D02*
G75*
G03X9209520Y-9385300I-32500J0D01*
G01*
X9209520Y-9512300D02*
G75*
G03X9209520Y-9512300I-32500J0D01*
G01*
X9209520Y-9639300D02*
G75*
G03X9209520Y-9639300I-32500J0D01*
G01*
X9209520Y-9766300D02*
G75*
G03X9209520Y-9766300I-32500J0D01*
G01*
X9210790Y-10937240D02*
G75*
G03X9210790Y-10937240I-32500J0D01*
G01*
X9210790Y-11064240D02*
G75*
G03X9210790Y-11064240I-32500J0D01*
G01*
X9210790Y-11191240D02*
G75*
G03X9210790Y-11191240I-32500J0D01*
G01*
X9210790Y-11318240D02*
G75*
G03X9210790Y-11318240I-32500J0D01*
G01*
X9572740Y-9385300D02*
G75*
G03X9572740Y-9385300I-32500J0D01*
G01*
X9572740Y-9512300D02*
G75*
G03X9572740Y-9512300I-32500J0D01*
G01*
X9572740Y-9639300D02*
G75*
G03X9572740Y-9639300I-32500J0D01*
G01*
X9572740Y-9766300D02*
G75*
G03X9572740Y-9766300I-32500J0D01*
G01*
X9572740Y-10937240D02*
G75*
G03X9572740Y-10937240I-32500J0D01*
G01*
X9572740Y-11064240D02*
G75*
G03X9572740Y-11064240I-32500J0D01*
G01*
X9572740Y-11191240D02*
G75*
G03X9572740Y-11191240I-32500J0D01*
G01*
X9572740Y-11318240D02*
G75*
G03X9572740Y-11318240I-32500J0D01*
G01*
X9935960Y-9385300D02*
G75*
G03X9935960Y-9385300I-32500J0D01*
G01*
X9935960Y-9512300D02*
G75*
G03X9935960Y-9512300I-32500J0D01*
G01*
X9935960Y-9639300D02*
G75*
G03X9935960Y-9639300I-32500J0D01*
G01*
X9935960Y-9766300D02*
G75*
G03X9935960Y-9766300I-32500J0D01*
G01*
X9935960Y-10937240D02*
G75*
G03X9935960Y-10937240I-32500J0D01*
G01*
X9935960Y-11064240D02*
G75*
G03X9935960Y-11064240I-32500J0D01*
G01*
X9935960Y-11191240D02*
G75*
G03X9935960Y-11191240I-32500J0D01*
G01*
X9935960Y-11318240D02*
G75*
G03X9935960Y-11318240I-32500J0D01*
G01*
X10296640Y-9385300D02*
G75*
G03X10296640Y-9385300I-32500J0D01*
G01*
X10296640Y-9512300D02*
G75*
G03X10296640Y-9512300I-32500J0D01*
G01*
X10296640Y-9639300D02*
G75*
G03X10296640Y-9639300I-32500J0D01*
G01*
X10296640Y-9766300D02*
G75*
G03X10296640Y-9766300I-32500J0D01*
G01*
X10299180Y-10937240D02*
G75*
G03X10299180Y-10937240I-32500J0D01*
G01*
X10299180Y-11064240D02*
G75*
G03X10299180Y-11064240I-32500J0D01*
G01*
X10299180Y-11191240D02*
G75*
G03X10299180Y-11191240I-32500J0D01*
G01*
X10299180Y-11318240D02*
G75*
G03X10299180Y-11318240I-32500J0D01*
G01*
X10659860Y-9385300D02*
G75*
G03X10659860Y-9385300I-32500J0D01*
G01*
X10659860Y-9512300D02*
G75*
G03X10659860Y-9512300I-32500J0D01*
G01*
X10659860Y-9639300D02*
G75*
G03X10659860Y-9639300I-32500J0D01*
G01*
X10659860Y-9766300D02*
G75*
G03X10659860Y-9766300I-32500J0D01*
G01*
X10662400Y-10937240D02*
G75*
G03X10662400Y-10937240I-32500J0D01*
G01*
X10662400Y-11064240D02*
G75*
G03X10662400Y-11064240I-32500J0D01*
G01*
X10662400Y-11191240D02*
G75*
G03X10662400Y-11191240I-32500J0D01*
G01*
X10662400Y-11318240D02*
G75*
G03X10662400Y-11318240I-32500J0D01*
G01*
X11023080Y-9385300D02*
G75*
G03X11023080Y-9385300I-32500J0D01*
G01*
X11023080Y-9512300D02*
G75*
G03X11023080Y-9512300I-32500J0D01*
G01*
X11023080Y-9639300D02*
G75*
G03X11023080Y-9639300I-32500J0D01*
G01*
X11023080Y-9766300D02*
G75*
G03X11023080Y-9766300I-32500J0D01*
G01*
X11025620Y-10937240D02*
G75*
G03X11025620Y-10937240I-32500J0D01*
G01*
X11025620Y-11064240D02*
G75*
G03X11025620Y-11064240I-32500J0D01*
G01*
X11025620Y-11191240D02*
G75*
G03X11025620Y-11191240I-32500J0D01*
G01*
X11025620Y-11318240D02*
G75*
G03X11025620Y-11318240I-32500J0D01*
G01*
X11386300Y-9385300D02*
G75*
G03X11386300Y-9385300I-32500J0D01*
G01*
X11386300Y-9512300D02*
G75*
G03X11386300Y-9512300I-32500J0D01*
G01*
X11386300Y-9639300D02*
G75*
G03X11386300Y-9639300I-32500J0D01*
G01*
X11386300Y-9766300D02*
G75*
G03X11386300Y-9766300I-32500J0D01*
G01*
X11388840Y-10935970D02*
G75*
G03X11388840Y-10935970I-32500J0D01*
G01*
X11388840Y-11062970D02*
G75*
G03X11388840Y-11062970I-32500J0D01*
G01*
X11388840Y-11189970D02*
G75*
G03X11388840Y-11189970I-32500J0D01*
G01*
X11388840Y-11316970D02*
G75*
G03X11388840Y-11316970I-32500J0D01*
G01*
X17450000Y-10309500D02*
X17450000Y-10390500D01*
X17409500Y-10350000D02*
X17490500Y-10350000D01*
X17450000Y-10563500D02*
X17450000Y-10644500D01*
X17409500Y-10604000D02*
X17490500Y-10604000D01*
X17650000Y-10309500D02*
X17650000Y-10390500D01*
X17609500Y-10350000D02*
X17690500Y-10350000D01*
X17650000Y-10563500D02*
X17650000Y-10644500D01*
X17609500Y-10604000D02*
X17690500Y-10604000D01*
X11710921Y-9519921D02*
X11710921Y-9448079D01*
X11639079Y-9448079D01*
X11639079Y-9519921D01*
X11710921Y-9519921D01*
X11710921Y-11551921D02*
X11710921Y-11480079D01*
X11639079Y-11480079D01*
X11639079Y-11551921D01*
X11710921Y-11551921D01*
X11964921Y-9519921D02*
X11964921Y-9448079D01*
X11893079Y-9448079D01*
X11893079Y-9519921D01*
X11964921Y-9519921D01*
X11964921Y-11551921D02*
X11964921Y-11480079D01*
X11893079Y-11480079D01*
X11893079Y-11551921D01*
X11964921Y-11551921D01*
X12218921Y-9519921D02*
X12218921Y-9448079D01*
X12147079Y-9448079D01*
X12147079Y-9519921D01*
X12218921Y-9519921D01*
X12218921Y-11551921D02*
X12218921Y-11480079D01*
X12147079Y-11480079D01*
X12147079Y-11551921D01*
X12218921Y-11551921D01*
X12472921Y-9519921D02*
X12472921Y-9448079D01*
X12401079Y-9448079D01*
X12401079Y-9519921D01*
X12472921Y-9519921D01*
X12472921Y-11551921D02*
X12472921Y-11480079D01*
X12401079Y-11480079D01*
X12401079Y-11551921D01*
X12472921Y-11551921D01*
X12726921Y-9519921D02*
X12726921Y-9448079D01*
X12655079Y-9448079D01*
X12655079Y-9519921D01*
X12726921Y-9519921D01*
X12726921Y-11551921D02*
X12726921Y-11480079D01*
X12655079Y-11480079D01*
X12655079Y-11551921D01*
X12726921Y-11551921D01*
X12980921Y-9519921D02*
X12980921Y-9448079D01*
X12909079Y-9448079D01*
X12909079Y-9519921D01*
X12980921Y-9519921D01*
X12980921Y-11551921D02*
X12980921Y-11480079D01*
X12909079Y-11480079D01*
X12909079Y-11551921D01*
X12980921Y-11551921D01*
X13234921Y-9519921D02*
X13234921Y-9448079D01*
X13163079Y-9448079D01*
X13163079Y-9519921D01*
X13234921Y-9519921D01*
X13234921Y-11551921D02*
X13234921Y-11480079D01*
X13163079Y-11480079D01*
X13163079Y-11551921D01*
X13234921Y-11551921D01*
X13488921Y-9519921D02*
X13488921Y-9448079D01*
X13417079Y-9448079D01*
X13417079Y-9519921D01*
X13488921Y-9519921D01*
X13488921Y-11551921D02*
X13488921Y-11480079D01*
X13417079Y-11480079D01*
X13417079Y-11551921D01*
X13488921Y-11551921D01*
X13742921Y-9519921D02*
X13742921Y-9448079D01*
X13671079Y-9448079D01*
X13671079Y-9519921D01*
X13742921Y-9519921D01*
X13742921Y-11551921D02*
X13742921Y-11480079D01*
X13671079Y-11480079D01*
X13671079Y-11551921D01*
X13742921Y-11551921D01*
X13996921Y-9519921D02*
X13996921Y-9448079D01*
X13925079Y-9448079D01*
X13925079Y-9519921D01*
X13996921Y-9519921D01*
X13996921Y-11551921D02*
X13996921Y-11480079D01*
X13925079Y-11480079D01*
X13925079Y-11551921D01*
X13996921Y-11551921D01*
X14250921Y-9519921D02*
X14250921Y-9448079D01*
X14179079Y-9448079D01*
X14179079Y-9519921D01*
X14250921Y-9519921D01*
X14250921Y-11551921D02*
X14250921Y-11480079D01*
X14179079Y-11480079D01*
X14179079Y-11551921D01*
X14250921Y-11551921D01*
X14504921Y-9519921D02*
X14504921Y-9448079D01*
X14433079Y-9448079D01*
X14433079Y-9519921D01*
X14504921Y-9519921D01*
X14504921Y-11551921D02*
X14504921Y-11480079D01*
X14433079Y-11480079D01*
X14433079Y-11551921D01*
X14504921Y-11551921D01*
X14758921Y-9519921D02*
X14758921Y-9448079D01*
X14687079Y-9448079D01*
X14687079Y-9519921D01*
X14758921Y-9519921D01*
X14758921Y-11551921D02*
X14758921Y-11480079D01*
X14687079Y-11480079D01*
X14687079Y-11551921D01*
X14758921Y-11551921D01*
X15012921Y-9519921D02*
X15012921Y-9448079D01*
X14941079Y-9448079D01*
X14941079Y-9519921D01*
X15012921Y-9519921D01*
X15012921Y-11551921D02*
X15012921Y-11480079D01*
X14941079Y-11480079D01*
X14941079Y-11551921D01*
X15012921Y-11551921D01*
X15266921Y-9519921D02*
X15266921Y-9448079D01*
X15195079Y-9448079D01*
X15195079Y-9519921D01*
X15266921Y-9519921D01*
X15266921Y-11551921D02*
X15266921Y-11480079D01*
X15195079Y-11480079D01*
X15195079Y-11551921D01*
X15266921Y-11551921D01*
X15520921Y-9519921D02*
X15520921Y-9448079D01*
X15449079Y-9448079D01*
X15449079Y-9519921D01*
X15520921Y-9519921D01*
X15520921Y-11551921D02*
X15520921Y-11480079D01*
X15449079Y-11480079D01*
X15449079Y-11551921D01*
X15520921Y-11551921D01*
X15774921Y-9519921D02*
X15774921Y-9448079D01*
X15703079Y-9448079D01*
X15703079Y-9519921D01*
X15774921Y-9519921D01*
X15774921Y-11551921D02*
X15774921Y-11480079D01*
X15703079Y-11480079D01*
X15703079Y-11551921D01*
X15774921Y-11551921D01*
X16028921Y-9519921D02*
X16028921Y-9448079D01*
X15957079Y-9448079D01*
X15957079Y-9519921D01*
X16028921Y-9519921D01*
X16028921Y-11551921D02*
X16028921Y-11480079D01*
X15957079Y-11480079D01*
X15957079Y-11551921D01*
X16028921Y-11551921D01*
X16282921Y-9519921D02*
X16282921Y-9448079D01*
X16211079Y-9448079D01*
X16211079Y-9519921D01*
X16282921Y-9519921D01*
X16282921Y-11551921D02*
X16282921Y-11480079D01*
X16211079Y-11480079D01*
X16211079Y-11551921D01*
X16282921Y-11551921D01*
X16536921Y-9519921D02*
X16536921Y-9448079D01*
X16465079Y-9448079D01*
X16465079Y-9519921D01*
X16536921Y-9519921D01*
X16536921Y-11551921D02*
X16536921Y-11480079D01*
X16465079Y-11480079D01*
X16465079Y-11551921D01*
X16536921Y-11551921D01*
X16790921Y-9519921D02*
X16790921Y-9448079D01*
X16719079Y-9448079D01*
X16719079Y-9519921D01*
X16790921Y-9519921D01*
X16790921Y-11551921D02*
X16790921Y-11480079D01*
X16719079Y-11480079D01*
X16719079Y-11551921D01*
X16790921Y-11551921D01*
X17044921Y-9519921D02*
X17044921Y-9448079D01*
X16973079Y-9448079D01*
X16973079Y-9519921D01*
X17044921Y-9519921D01*
X17044921Y-11551921D02*
X17044921Y-11480079D01*
X16973079Y-11480079D01*
X16973079Y-11551921D01*
X17044921Y-11551921D01*
X17298921Y-9519921D02*
X17298921Y-9448079D01*
X17227079Y-9448079D01*
X17227079Y-9519921D01*
X17298921Y-9519921D01*
X17298921Y-11551921D02*
X17298921Y-11480079D01*
X17227079Y-11480079D01*
X17227079Y-11551921D01*
X17298921Y-11551921D01*
X17552921Y-9519921D02*
X17552921Y-9448079D01*
X17481079Y-9448079D01*
X17481079Y-9519921D01*
X17552921Y-9519921D01*
X17552921Y-11551921D02*
X17552921Y-11480079D01*
X17481079Y-11480079D01*
X17481079Y-11551921D01*
X17552921Y-11551921D01*
X17806921Y-9519921D02*
X17806921Y-9448079D01*
X17735079Y-9448079D01*
X17735079Y-9519921D01*
X17806921Y-9519921D01*
X17806921Y-11551921D02*
X17806921Y-11480079D01*
X17735079Y-11480079D01*
X17735079Y-11551921D01*
X17806921Y-11551921D01*
X18060921Y-9519921D02*
X18060921Y-9448079D01*
X17989079Y-9448079D01*
X17989079Y-9519921D01*
X18060921Y-9519921D01*
X18060921Y-11551921D02*
X18060921Y-11480079D01*
X17989079Y-11480079D01*
X17989079Y-11551921D01*
X18060921Y-11551921D01*
X15443200Y-10107600D02*
X15543200Y-10007600D01*
X15443200Y-9907600D01*
X15343200Y-10007600D01*
X15443200Y-10107600D01*
X16250000Y-10700000D02*
X16350000Y-10600000D01*
X16250000Y-10500000D01*
X16150000Y-10600000D01*
X16250000Y-10700000D01*
X17805000Y-9762000D02*
X18035000Y-9992000D01*
X18035000Y-9762000D02*
X17805000Y-9992000D01*
X18035000Y-9877000D02*
G75*
G03X18035000Y-9877000I-115000J0D01*
G01*
X17805000Y-10962000D02*
X18035000Y-11192000D01*
X18035000Y-10962000D02*
X17805000Y-11192000D01*
X18035000Y-11077000D02*
G75*
G03X18035000Y-11077000I-115000J0D01*
G01*
D13*
X8798329Y-12258814D02*
X8798329Y-11958814D01*
X8869757Y-11958814D01*
X8912614Y-11973100D01*
X8941186Y-12001671D01*
X8955471Y-12030243D01*
X8969757Y-12087386D01*
X8969757Y-12130243D01*
X8955471Y-12187386D01*
X8941186Y-12215957D01*
X8912614Y-12244529D01*
X8869757Y-12258814D01*
X8798329Y-12258814D01*
X9098329Y-12258814D02*
X9098329Y-12058814D01*
X9098329Y-12115957D02*
X9112614Y-12087386D01*
X9126900Y-12073100D01*
X9155471Y-12058814D01*
X9184043Y-12058814D01*
X9284043Y-12258814D02*
X9284043Y-12058814D01*
X9284043Y-11958814D02*
X9269757Y-11973100D01*
X9284043Y-11987386D01*
X9298329Y-11973100D01*
X9284043Y-11958814D01*
X9284043Y-11987386D01*
X9469757Y-12258814D02*
X9441186Y-12244529D01*
X9426900Y-12215957D01*
X9426900Y-11958814D01*
X9626900Y-12258814D02*
X9598329Y-12244529D01*
X9584043Y-12215957D01*
X9584043Y-11958814D01*
X9969757Y-12258814D02*
X9969757Y-11958814D01*
X10069757Y-12173100D01*
X10169757Y-11958814D01*
X10169757Y-12258814D01*
X10441186Y-12258814D02*
X10441186Y-12101671D01*
X10426900Y-12073100D01*
X10398329Y-12058814D01*
X10341186Y-12058814D01*
X10312614Y-12073100D01*
X10441186Y-12244529D02*
X10412614Y-12258814D01*
X10341186Y-12258814D01*
X10312614Y-12244529D01*
X10298329Y-12215957D01*
X10298329Y-12187386D01*
X10312614Y-12158814D01*
X10341186Y-12144529D01*
X10412614Y-12144529D01*
X10441186Y-12130243D01*
X10584043Y-12058814D02*
X10584043Y-12358814D01*
X10584043Y-12073100D02*
X10612614Y-12058814D01*
X10669757Y-12058814D01*
X10698329Y-12073100D01*
X10712614Y-12087386D01*
X10726900Y-12115957D01*
X10726900Y-12201671D01*
X10712614Y-12230243D01*
X10698329Y-12244529D01*
X10669757Y-12258814D01*
X10612614Y-12258814D01*
X10584043Y-12244529D01*
X10855471Y-12230243D02*
X10869757Y-12244529D01*
X10855471Y-12258814D01*
X10841186Y-12244529D01*
X10855471Y-12230243D01*
X10855471Y-12258814D01*
X10855471Y-12073100D02*
X10869757Y-12087386D01*
X10855471Y-12101671D01*
X10841186Y-12087386D01*
X10855471Y-12073100D01*
X10855471Y-12101671D01*
X8486900Y-12733100D02*
X8526900Y-12773100D01*
X8526900Y-12733100D02*
X8486900Y-12773100D01*
X8855471Y-12588814D02*
X8884043Y-12588814D01*
X8912614Y-12603100D01*
X8926900Y-12617386D01*
X8941186Y-12645957D01*
X8955471Y-12703100D01*
X8955471Y-12774529D01*
X8941186Y-12831671D01*
X8926900Y-12860243D01*
X8912614Y-12874529D01*
X8884043Y-12888814D01*
X8855471Y-12888814D01*
X8826900Y-12874529D01*
X8812614Y-12860243D01*
X8798329Y-12831671D01*
X8784043Y-12774529D01*
X8784043Y-12703100D01*
X8798329Y-12645957D01*
X8812614Y-12617386D01*
X8826900Y-12603100D01*
X8855471Y-12588814D01*
X9084043Y-12860243D02*
X9098329Y-12874529D01*
X9084043Y-12888814D01*
X9069757Y-12874529D01*
X9084043Y-12860243D01*
X9084043Y-12888814D01*
X9355471Y-12688814D02*
X9355471Y-12888814D01*
X9284043Y-12574529D02*
X9212614Y-12788814D01*
X9398328Y-12788814D01*
X9569757Y-12588814D02*
X9598329Y-12588814D01*
X9626900Y-12603100D01*
X9641186Y-12617386D01*
X9655471Y-12645957D01*
X9669757Y-12703100D01*
X9669757Y-12774529D01*
X9655471Y-12831671D01*
X9641186Y-12860243D01*
X9626900Y-12874529D01*
X9598329Y-12888814D01*
X9569757Y-12888814D01*
X9541186Y-12874529D01*
X9526900Y-12860243D01*
X9512614Y-12831671D01*
X9498329Y-12774529D01*
X9498329Y-12703100D01*
X9512614Y-12645957D01*
X9526900Y-12617386D01*
X9541186Y-12603100D01*
X9569757Y-12588814D01*
X9798329Y-12888814D02*
X9798329Y-12688814D01*
X9798329Y-12717386D02*
X9812614Y-12703100D01*
X9841186Y-12688814D01*
X9884043Y-12688814D01*
X9912614Y-12703100D01*
X9926900Y-12731671D01*
X9926900Y-12888814D01*
X9926900Y-12731671D02*
X9941186Y-12703100D01*
X9969757Y-12688814D01*
X10012614Y-12688814D01*
X10041186Y-12703100D01*
X10055471Y-12731671D01*
X10055471Y-12888814D01*
X10198329Y-12888814D02*
X10198329Y-12688814D01*
X10198329Y-12717386D02*
X10212614Y-12703100D01*
X10241186Y-12688814D01*
X10284043Y-12688814D01*
X10312614Y-12703100D01*
X10326900Y-12731671D01*
X10326900Y-12888814D01*
X10326900Y-12731671D02*
X10341186Y-12703100D01*
X10369757Y-12688814D01*
X10412614Y-12688814D01*
X10441186Y-12703100D01*
X10455471Y-12731671D01*
X10455471Y-12888814D01*
X11041186Y-12574529D02*
X10784043Y-12960243D01*
X11426900Y-12588814D02*
X11455471Y-12588814D01*
X11484043Y-12603100D01*
X11498328Y-12617386D01*
X11512614Y-12645957D01*
X11526900Y-12703100D01*
X11526900Y-12774529D01*
X11512614Y-12831671D01*
X11498328Y-12860243D01*
X11484043Y-12874529D01*
X11455471Y-12888814D01*
X11426900Y-12888814D01*
X11398328Y-12874529D01*
X11384043Y-12860243D01*
X11369757Y-12831671D01*
X11355471Y-12774529D01*
X11355471Y-12703100D01*
X11369757Y-12645957D01*
X11384043Y-12617386D01*
X11398328Y-12603100D01*
X11426900Y-12588814D01*
X11655471Y-12860243D02*
X11669757Y-12874529D01*
X11655471Y-12888814D01*
X11641186Y-12874529D01*
X11655471Y-12860243D01*
X11655471Y-12888814D01*
X11855471Y-12588814D02*
X11884043Y-12588814D01*
X11912614Y-12603100D01*
X11926900Y-12617386D01*
X11941185Y-12645957D01*
X11955471Y-12703100D01*
X11955471Y-12774529D01*
X11941185Y-12831671D01*
X11926900Y-12860243D01*
X11912614Y-12874529D01*
X11884043Y-12888814D01*
X11855471Y-12888814D01*
X11826900Y-12874529D01*
X11812614Y-12860243D01*
X11798328Y-12831671D01*
X11784043Y-12774529D01*
X11784043Y-12703100D01*
X11798328Y-12645957D01*
X11812614Y-12617386D01*
X11826900Y-12603100D01*
X11855471Y-12588814D01*
X12241185Y-12888814D02*
X12069757Y-12888814D01*
X12155471Y-12888814D02*
X12155471Y-12588814D01*
X12126900Y-12631671D01*
X12098328Y-12660243D01*
X12069757Y-12674529D01*
X12498328Y-12588814D02*
X12441185Y-12588814D01*
X12412614Y-12603100D01*
X12398328Y-12617386D01*
X12369757Y-12660243D01*
X12355471Y-12717386D01*
X12355471Y-12831671D01*
X12369757Y-12860243D01*
X12384043Y-12874529D01*
X12412614Y-12888814D01*
X12469757Y-12888814D01*
X12498328Y-12874529D01*
X12512614Y-12860243D01*
X12526900Y-12831671D01*
X12526900Y-12760243D01*
X12512614Y-12731671D01*
X12498328Y-12717386D01*
X12469757Y-12703100D01*
X12412614Y-12703100D01*
X12384043Y-12717386D01*
X12369757Y-12731671D01*
X12355471Y-12760243D01*
X12641186Y-12588814D02*
X12641186Y-12645957D01*
X12755471Y-12588814D02*
X12755471Y-12645957D01*
X13198328Y-13003100D02*
X13184043Y-12988814D01*
X13155471Y-12945957D01*
X13141185Y-12917386D01*
X13126900Y-12874529D01*
X13112614Y-12803100D01*
X13112614Y-12745957D01*
X13126900Y-12674529D01*
X13141185Y-12631671D01*
X13155471Y-12603100D01*
X13184043Y-12560243D01*
X13198328Y-12545957D01*
X13441185Y-12588814D02*
X13384043Y-12588814D01*
X13355471Y-12603100D01*
X13341185Y-12617386D01*
X13312614Y-12660243D01*
X13298328Y-12717386D01*
X13298328Y-12831671D01*
X13312614Y-12860243D01*
X13326900Y-12874529D01*
X13355471Y-12888814D01*
X13412614Y-12888814D01*
X13441185Y-12874529D01*
X13455471Y-12860243D01*
X13469757Y-12831671D01*
X13469757Y-12760243D01*
X13455471Y-12731671D01*
X13441185Y-12717386D01*
X13412614Y-12703100D01*
X13355471Y-12703100D01*
X13326900Y-12717386D01*
X13312614Y-12731671D01*
X13298328Y-12760243D01*
X13641185Y-12717386D02*
X13612614Y-12703100D01*
X13598328Y-12688814D01*
X13584043Y-12660243D01*
X13584043Y-12645957D01*
X13598328Y-12617386D01*
X13612614Y-12603100D01*
X13641185Y-12588814D01*
X13698328Y-12588814D01*
X13726900Y-12603100D01*
X13741185Y-12617386D01*
X13755471Y-12645957D01*
X13755471Y-12660243D01*
X13741185Y-12688814D01*
X13726900Y-12703100D01*
X13698328Y-12717386D01*
X13641185Y-12717386D01*
X13612614Y-12731671D01*
X13598328Y-12745957D01*
X13584043Y-12774529D01*
X13584043Y-12831671D01*
X13598328Y-12860243D01*
X13612614Y-12874529D01*
X13641185Y-12888814D01*
X13698328Y-12888814D01*
X13726900Y-12874529D01*
X13741185Y-12860243D01*
X13755471Y-12831671D01*
X13755471Y-12774529D01*
X13741185Y-12745957D01*
X13726900Y-12731671D01*
X13698328Y-12717386D01*
X14112614Y-12888814D02*
X14112614Y-12588814D01*
X14241185Y-12888814D02*
X14241185Y-12731671D01*
X14226900Y-12703100D01*
X14198328Y-12688814D01*
X14155471Y-12688814D01*
X14126900Y-12703100D01*
X14112614Y-12717386D01*
X14426900Y-12888814D02*
X14398328Y-12874529D01*
X14384043Y-12860243D01*
X14369757Y-12831671D01*
X14369757Y-12745957D01*
X14384043Y-12717386D01*
X14398328Y-12703100D01*
X14426900Y-12688814D01*
X14469757Y-12688814D01*
X14498328Y-12703100D01*
X14512614Y-12717386D01*
X14526900Y-12745957D01*
X14526900Y-12831671D01*
X14512614Y-12860243D01*
X14498328Y-12874529D01*
X14469757Y-12888814D01*
X14426900Y-12888814D01*
X14698328Y-12888814D02*
X14669757Y-12874529D01*
X14655471Y-12845957D01*
X14655471Y-12588814D01*
X14926900Y-12874529D02*
X14898328Y-12888814D01*
X14841186Y-12888814D01*
X14812614Y-12874529D01*
X14798328Y-12845957D01*
X14798328Y-12731671D01*
X14812614Y-12703100D01*
X14841186Y-12688814D01*
X14898328Y-12688814D01*
X14926900Y-12703100D01*
X14941186Y-12731671D01*
X14941186Y-12760243D01*
X14798328Y-12788814D01*
X15055471Y-12874529D02*
X15084043Y-12888814D01*
X15141186Y-12888814D01*
X15169757Y-12874529D01*
X15184043Y-12845957D01*
X15184043Y-12831671D01*
X15169757Y-12803100D01*
X15141186Y-12788814D01*
X15098328Y-12788814D01*
X15069757Y-12774529D01*
X15055471Y-12745957D01*
X15055471Y-12731671D01*
X15069757Y-12703100D01*
X15098328Y-12688814D01*
X15141186Y-12688814D01*
X15169757Y-12703100D01*
X15284043Y-13003100D02*
X15298328Y-12988814D01*
X15326900Y-12945957D01*
X15341186Y-12917386D01*
X15355471Y-12874529D01*
X15369757Y-12803100D01*
X15369757Y-12745957D01*
X15355471Y-12674529D01*
X15341186Y-12631671D01*
X15326900Y-12603100D01*
X15298328Y-12560243D01*
X15284043Y-12545957D01*
X8526900Y-13149100D02*
G75*
G03X8526900Y-13149100I-32500J0D01*
G01*
X8855471Y-12984814D02*
X8884043Y-12984814D01*
X8912614Y-12999100D01*
X8926900Y-13013386D01*
X8941186Y-13041957D01*
X8955471Y-13099100D01*
X8955471Y-13170529D01*
X8941186Y-13227671D01*
X8926900Y-13256243D01*
X8912614Y-13270529D01*
X8884043Y-13284814D01*
X8855471Y-13284814D01*
X8826900Y-13270529D01*
X8812614Y-13256243D01*
X8798329Y-13227671D01*
X8784043Y-13170529D01*
X8784043Y-13099100D01*
X8798329Y-13041957D01*
X8812614Y-13013386D01*
X8826900Y-12999100D01*
X8855471Y-12984814D01*
X9084043Y-13256243D02*
X9098329Y-13270529D01*
X9084043Y-13284814D01*
X9069757Y-13270529D01*
X9084043Y-13256243D01*
X9084043Y-13284814D01*
X9355471Y-12984814D02*
X9298328Y-12984814D01*
X9269757Y-12999100D01*
X9255471Y-13013386D01*
X9226900Y-13056243D01*
X9212614Y-13113386D01*
X9212614Y-13227671D01*
X9226900Y-13256243D01*
X9241186Y-13270529D01*
X9269757Y-13284814D01*
X9326900Y-13284814D01*
X9355471Y-13270529D01*
X9369757Y-13256243D01*
X9384043Y-13227671D01*
X9384043Y-13156243D01*
X9369757Y-13127671D01*
X9355471Y-13113386D01*
X9326900Y-13099100D01*
X9269757Y-13099100D01*
X9241186Y-13113386D01*
X9226900Y-13127671D01*
X9212614Y-13156243D01*
X9655471Y-12984814D02*
X9512614Y-12984814D01*
X9498329Y-13127671D01*
X9512614Y-13113386D01*
X9541186Y-13099100D01*
X9612614Y-13099100D01*
X9641186Y-13113386D01*
X9655471Y-13127671D01*
X9669757Y-13156243D01*
X9669757Y-13227671D01*
X9655471Y-13256243D01*
X9641186Y-13270529D01*
X9612614Y-13284814D01*
X9541186Y-13284814D01*
X9512614Y-13270529D01*
X9498329Y-13256243D01*
X9798329Y-13284814D02*
X9798329Y-13084814D01*
X9798329Y-13113386D02*
X9812614Y-13099100D01*
X9841186Y-13084814D01*
X9884043Y-13084814D01*
X9912614Y-13099100D01*
X9926900Y-13127671D01*
X9926900Y-13284814D01*
X9926900Y-13127671D02*
X9941186Y-13099100D01*
X9969757Y-13084814D01*
X10012614Y-13084814D01*
X10041186Y-13099100D01*
X10055471Y-13127671D01*
X10055471Y-13284814D01*
X10198329Y-13284814D02*
X10198329Y-13084814D01*
X10198329Y-13113386D02*
X10212614Y-13099100D01*
X10241186Y-13084814D01*
X10284043Y-13084814D01*
X10312614Y-13099100D01*
X10326900Y-13127671D01*
X10326900Y-13284814D01*
X10326900Y-13127671D02*
X10341186Y-13099100D01*
X10369757Y-13084814D01*
X10412614Y-13084814D01*
X10441186Y-13099100D01*
X10455471Y-13127671D01*
X10455471Y-13284814D01*
X11041186Y-12970529D02*
X10784043Y-13356243D01*
X11426900Y-12984814D02*
X11455471Y-12984814D01*
X11484043Y-12999100D01*
X11498328Y-13013386D01*
X11512614Y-13041957D01*
X11526900Y-13099100D01*
X11526900Y-13170529D01*
X11512614Y-13227671D01*
X11498328Y-13256243D01*
X11484043Y-13270529D01*
X11455471Y-13284814D01*
X11426900Y-13284814D01*
X11398328Y-13270529D01*
X11384043Y-13256243D01*
X11369757Y-13227671D01*
X11355471Y-13170529D01*
X11355471Y-13099100D01*
X11369757Y-13041957D01*
X11384043Y-13013386D01*
X11398328Y-12999100D01*
X11426900Y-12984814D01*
X11655471Y-13256243D02*
X11669757Y-13270529D01*
X11655471Y-13284814D01*
X11641186Y-13270529D01*
X11655471Y-13256243D01*
X11655471Y-13284814D01*
X11855471Y-12984814D02*
X11884043Y-12984814D01*
X11912614Y-12999100D01*
X11926900Y-13013386D01*
X11941185Y-13041957D01*
X11955471Y-13099100D01*
X11955471Y-13170529D01*
X11941185Y-13227671D01*
X11926900Y-13256243D01*
X11912614Y-13270529D01*
X11884043Y-13284814D01*
X11855471Y-13284814D01*
X11826900Y-13270529D01*
X11812614Y-13256243D01*
X11798328Y-13227671D01*
X11784043Y-13170529D01*
X11784043Y-13099100D01*
X11798328Y-13041957D01*
X11812614Y-13013386D01*
X11826900Y-12999100D01*
X11855471Y-12984814D01*
X12069757Y-13013386D02*
X12084043Y-12999100D01*
X12112614Y-12984814D01*
X12184043Y-12984814D01*
X12212614Y-12999100D01*
X12226900Y-13013386D01*
X12241185Y-13041957D01*
X12241185Y-13070529D01*
X12226900Y-13113386D01*
X12055471Y-13284814D01*
X12241185Y-13284814D01*
X12498328Y-12984814D02*
X12441185Y-12984814D01*
X12412614Y-12999100D01*
X12398328Y-13013386D01*
X12369757Y-13056243D01*
X12355471Y-13113386D01*
X12355471Y-13227671D01*
X12369757Y-13256243D01*
X12384043Y-13270529D01*
X12412614Y-13284814D01*
X12469757Y-13284814D01*
X12498328Y-13270529D01*
X12512614Y-13256243D01*
X12526900Y-13227671D01*
X12526900Y-13156243D01*
X12512614Y-13127671D01*
X12498328Y-13113386D01*
X12469757Y-13099100D01*
X12412614Y-13099100D01*
X12384043Y-13113386D01*
X12369757Y-13127671D01*
X12355471Y-13156243D01*
X12641186Y-12984814D02*
X12641186Y-13041957D01*
X12755471Y-12984814D02*
X12755471Y-13041957D01*
X13198328Y-13399100D02*
X13184043Y-13384814D01*
X13155471Y-13341957D01*
X13141185Y-13313386D01*
X13126900Y-13270529D01*
X13112614Y-13199100D01*
X13112614Y-13141957D01*
X13126900Y-13070529D01*
X13141185Y-13027671D01*
X13155471Y-12999100D01*
X13184043Y-12956243D01*
X13198328Y-12941957D01*
X13441185Y-12984814D02*
X13384043Y-12984814D01*
X13355471Y-12999100D01*
X13341185Y-13013386D01*
X13312614Y-13056243D01*
X13298328Y-13113386D01*
X13298328Y-13227671D01*
X13312614Y-13256243D01*
X13326900Y-13270529D01*
X13355471Y-13284814D01*
X13412614Y-13284814D01*
X13441185Y-13270529D01*
X13455471Y-13256243D01*
X13469757Y-13227671D01*
X13469757Y-13156243D01*
X13455471Y-13127671D01*
X13441185Y-13113386D01*
X13412614Y-13099100D01*
X13355471Y-13099100D01*
X13326900Y-13113386D01*
X13312614Y-13127671D01*
X13298328Y-13156243D01*
X13726900Y-13084814D02*
X13726900Y-13284814D01*
X13655471Y-12970529D02*
X13584043Y-13184814D01*
X13769757Y-13184814D01*
X14112614Y-13284814D02*
X14112614Y-12984814D01*
X14241185Y-13284814D02*
X14241185Y-13127671D01*
X14226900Y-13099100D01*
X14198328Y-13084814D01*
X14155471Y-13084814D01*
X14126900Y-13099100D01*
X14112614Y-13113386D01*
X14426900Y-13284814D02*
X14398328Y-13270529D01*
X14384043Y-13256243D01*
X14369757Y-13227671D01*
X14369757Y-13141957D01*
X14384043Y-13113386D01*
X14398328Y-13099100D01*
X14426900Y-13084814D01*
X14469757Y-13084814D01*
X14498328Y-13099100D01*
X14512614Y-13113386D01*
X14526900Y-13141957D01*
X14526900Y-13227671D01*
X14512614Y-13256243D01*
X14498328Y-13270529D01*
X14469757Y-13284814D01*
X14426900Y-13284814D01*
X14698328Y-13284814D02*
X14669757Y-13270529D01*
X14655471Y-13241957D01*
X14655471Y-12984814D01*
X14926900Y-13270529D02*
X14898328Y-13284814D01*
X14841186Y-13284814D01*
X14812614Y-13270529D01*
X14798328Y-13241957D01*
X14798328Y-13127671D01*
X14812614Y-13099100D01*
X14841186Y-13084814D01*
X14898328Y-13084814D01*
X14926900Y-13099100D01*
X14941186Y-13127671D01*
X14941186Y-13156243D01*
X14798328Y-13184814D01*
X15055471Y-13270529D02*
X15084043Y-13284814D01*
X15141186Y-13284814D01*
X15169757Y-13270529D01*
X15184043Y-13241957D01*
X15184043Y-13227671D01*
X15169757Y-13199100D01*
X15141186Y-13184814D01*
X15098328Y-13184814D01*
X15069757Y-13170529D01*
X15055471Y-13141957D01*
X15055471Y-13127671D01*
X15069757Y-13099100D01*
X15098328Y-13084814D01*
X15141186Y-13084814D01*
X15169757Y-13099100D01*
X15284043Y-13399100D02*
X15298328Y-13384814D01*
X15326900Y-13341957D01*
X15341186Y-13313386D01*
X15355471Y-13270529D01*
X15369757Y-13199100D01*
X15369757Y-13141957D01*
X15355471Y-13070529D01*
X15341186Y-13027671D01*
X15326900Y-12999100D01*
X15298328Y-12956243D01*
X15284043Y-12941957D01*
X8486400Y-13504600D02*
X8486400Y-13585600D01*
X8445900Y-13545100D02*
X8526900Y-13545100D01*
X8855471Y-13380814D02*
X8884043Y-13380814D01*
X8912614Y-13395100D01*
X8926900Y-13409386D01*
X8941186Y-13437957D01*
X8955471Y-13495100D01*
X8955471Y-13566529D01*
X8941186Y-13623671D01*
X8926900Y-13652243D01*
X8912614Y-13666529D01*
X8884043Y-13680814D01*
X8855471Y-13680814D01*
X8826900Y-13666529D01*
X8812614Y-13652243D01*
X8798329Y-13623671D01*
X8784043Y-13566529D01*
X8784043Y-13495100D01*
X8798329Y-13437957D01*
X8812614Y-13409386D01*
X8826900Y-13395100D01*
X8855471Y-13380814D01*
X9084043Y-13652243D02*
X9098329Y-13666529D01*
X9084043Y-13680814D01*
X9069757Y-13666529D01*
X9084043Y-13652243D01*
X9084043Y-13680814D01*
X9269757Y-13509386D02*
X9241186Y-13495100D01*
X9226900Y-13480814D01*
X9212614Y-13452243D01*
X9212614Y-13437957D01*
X9226900Y-13409386D01*
X9241186Y-13395100D01*
X9269757Y-13380814D01*
X9326900Y-13380814D01*
X9355471Y-13395100D01*
X9369757Y-13409386D01*
X9384043Y-13437957D01*
X9384043Y-13452243D01*
X9369757Y-13480814D01*
X9355471Y-13495100D01*
X9326900Y-13509386D01*
X9269757Y-13509386D01*
X9241186Y-13523671D01*
X9226900Y-13537957D01*
X9212614Y-13566529D01*
X9212614Y-13623671D01*
X9226900Y-13652243D01*
X9241186Y-13666529D01*
X9269757Y-13680814D01*
X9326900Y-13680814D01*
X9355471Y-13666529D01*
X9369757Y-13652243D01*
X9384043Y-13623671D01*
X9384043Y-13566529D01*
X9369757Y-13537957D01*
X9355471Y-13523671D01*
X9326900Y-13509386D01*
X9669757Y-13680814D02*
X9498329Y-13680814D01*
X9584043Y-13680814D02*
X9584043Y-13380814D01*
X9555471Y-13423671D01*
X9526900Y-13452243D01*
X9498329Y-13466529D01*
X9798329Y-13680814D02*
X9798329Y-13480814D01*
X9798329Y-13509386D02*
X9812614Y-13495100D01*
X9841186Y-13480814D01*
X9884043Y-13480814D01*
X9912614Y-13495100D01*
X9926900Y-13523671D01*
X9926900Y-13680814D01*
X9926900Y-13523671D02*
X9941186Y-13495100D01*
X9969757Y-13480814D01*
X10012614Y-13480814D01*
X10041186Y-13495100D01*
X10055471Y-13523671D01*
X10055471Y-13680814D01*
X10198329Y-13680814D02*
X10198329Y-13480814D01*
X10198329Y-13509386D02*
X10212614Y-13495100D01*
X10241186Y-13480814D01*
X10284043Y-13480814D01*
X10312614Y-13495100D01*
X10326900Y-13523671D01*
X10326900Y-13680814D01*
X10326900Y-13523671D02*
X10341186Y-13495100D01*
X10369757Y-13480814D01*
X10412614Y-13480814D01*
X10441186Y-13495100D01*
X10455471Y-13523671D01*
X10455471Y-13680814D01*
X11041186Y-13366529D02*
X10784043Y-13752243D01*
X11426900Y-13380814D02*
X11455471Y-13380814D01*
X11484043Y-13395100D01*
X11498328Y-13409386D01*
X11512614Y-13437957D01*
X11526900Y-13495100D01*
X11526900Y-13566529D01*
X11512614Y-13623671D01*
X11498328Y-13652243D01*
X11484043Y-13666529D01*
X11455471Y-13680814D01*
X11426900Y-13680814D01*
X11398328Y-13666529D01*
X11384043Y-13652243D01*
X11369757Y-13623671D01*
X11355471Y-13566529D01*
X11355471Y-13495100D01*
X11369757Y-13437957D01*
X11384043Y-13409386D01*
X11398328Y-13395100D01*
X11426900Y-13380814D01*
X11655471Y-13652243D02*
X11669757Y-13666529D01*
X11655471Y-13680814D01*
X11641186Y-13666529D01*
X11655471Y-13652243D01*
X11655471Y-13680814D01*
X11855471Y-13380814D02*
X11884043Y-13380814D01*
X11912614Y-13395100D01*
X11926900Y-13409386D01*
X11941185Y-13437957D01*
X11955471Y-13495100D01*
X11955471Y-13566529D01*
X11941185Y-13623671D01*
X11926900Y-13652243D01*
X11912614Y-13666529D01*
X11884043Y-13680814D01*
X11855471Y-13680814D01*
X11826900Y-13666529D01*
X11812614Y-13652243D01*
X11798328Y-13623671D01*
X11784043Y-13566529D01*
X11784043Y-13495100D01*
X11798328Y-13437957D01*
X11812614Y-13409386D01*
X11826900Y-13395100D01*
X11855471Y-13380814D01*
X12055471Y-13380814D02*
X12241185Y-13380814D01*
X12141185Y-13495100D01*
X12184043Y-13495100D01*
X12212614Y-13509386D01*
X12226900Y-13523671D01*
X12241185Y-13552243D01*
X12241185Y-13623671D01*
X12226900Y-13652243D01*
X12212614Y-13666529D01*
X12184043Y-13680814D01*
X12098328Y-13680814D01*
X12069757Y-13666529D01*
X12055471Y-13652243D01*
X12355471Y-13409386D02*
X12369757Y-13395100D01*
X12398328Y-13380814D01*
X12469757Y-13380814D01*
X12498328Y-13395100D01*
X12512614Y-13409386D01*
X12526900Y-13437957D01*
X12526900Y-13466529D01*
X12512614Y-13509386D01*
X12341185Y-13680814D01*
X12526900Y-13680814D01*
X12641186Y-13380814D02*
X12641186Y-13437957D01*
X12755471Y-13380814D02*
X12755471Y-13437957D01*
X13198328Y-13795100D02*
X13184043Y-13780814D01*
X13155471Y-13737957D01*
X13141185Y-13709386D01*
X13126900Y-13666529D01*
X13112614Y-13595100D01*
X13112614Y-13537957D01*
X13126900Y-13466529D01*
X13141185Y-13423671D01*
X13155471Y-13395100D01*
X13184043Y-13352243D01*
X13198328Y-13337957D01*
X13441185Y-13480814D02*
X13441185Y-13680814D01*
X13369757Y-13366529D02*
X13298328Y-13580814D01*
X13484043Y-13580814D01*
X13826900Y-13680814D02*
X13826900Y-13380814D01*
X13955471Y-13680814D02*
X13955471Y-13523671D01*
X13941185Y-13495100D01*
X13912614Y-13480814D01*
X13869757Y-13480814D01*
X13841185Y-13495100D01*
X13826900Y-13509386D01*
X14141185Y-13680814D02*
X14112614Y-13666529D01*
X14098328Y-13652243D01*
X14084043Y-13623671D01*
X14084043Y-13537957D01*
X14098328Y-13509386D01*
X14112614Y-13495100D01*
X14141185Y-13480814D01*
X14184043Y-13480814D01*
X14212614Y-13495100D01*
X14226900Y-13509386D01*
X14241185Y-13537957D01*
X14241185Y-13623671D01*
X14226900Y-13652243D01*
X14212614Y-13666529D01*
X14184043Y-13680814D01*
X14141185Y-13680814D01*
X14412614Y-13680814D02*
X14384043Y-13666529D01*
X14369757Y-13637957D01*
X14369757Y-13380814D01*
X14641186Y-13666529D02*
X14612614Y-13680814D01*
X14555471Y-13680814D01*
X14526900Y-13666529D01*
X14512614Y-13637957D01*
X14512614Y-13523671D01*
X14526900Y-13495100D01*
X14555471Y-13480814D01*
X14612614Y-13480814D01*
X14641186Y-13495100D01*
X14655471Y-13523671D01*
X14655471Y-13552243D01*
X14512614Y-13580814D01*
X14769757Y-13666529D02*
X14798328Y-13680814D01*
X14855471Y-13680814D01*
X14884043Y-13666529D01*
X14898328Y-13637957D01*
X14898328Y-13623671D01*
X14884043Y-13595100D01*
X14855471Y-13580814D01*
X14812614Y-13580814D01*
X14784043Y-13566529D01*
X14769757Y-13537957D01*
X14769757Y-13523671D01*
X14784043Y-13495100D01*
X14812614Y-13480814D01*
X14855471Y-13480814D01*
X14884043Y-13495100D01*
X14998328Y-13795100D02*
X15012614Y-13780814D01*
X15041186Y-13737957D01*
X15055471Y-13709386D01*
X15069757Y-13666529D01*
X15084043Y-13595100D01*
X15084043Y-13537957D01*
X15069757Y-13466529D01*
X15055471Y-13423671D01*
X15041186Y-13395100D01*
X15012614Y-13352243D01*
X14998328Y-13337957D01*
X8512021Y-13977021D02*
X8512021Y-13905179D01*
X8440179Y-13905179D01*
X8440179Y-13977021D01*
X8512021Y-13977021D01*
X8955471Y-14076814D02*
X8784043Y-14076814D01*
X8869757Y-14076814D02*
X8869757Y-13776814D01*
X8841186Y-13819671D01*
X8812614Y-13848243D01*
X8784043Y-13862529D01*
X9084043Y-14048243D02*
X9098329Y-14062529D01*
X9084043Y-14076814D01*
X9069757Y-14062529D01*
X9084043Y-14048243D01*
X9084043Y-14076814D01*
X9284043Y-13776814D02*
X9312614Y-13776814D01*
X9341186Y-13791100D01*
X9355471Y-13805386D01*
X9369757Y-13833957D01*
X9384043Y-13891100D01*
X9384043Y-13962529D01*
X9369757Y-14019671D01*
X9355471Y-14048243D01*
X9341186Y-14062529D01*
X9312614Y-14076814D01*
X9284043Y-14076814D01*
X9255471Y-14062529D01*
X9241186Y-14048243D01*
X9226900Y-14019671D01*
X9212614Y-13962529D01*
X9212614Y-13891100D01*
X9226900Y-13833957D01*
X9241186Y-13805386D01*
X9255471Y-13791100D01*
X9284043Y-13776814D01*
X9498329Y-13805386D02*
X9512614Y-13791100D01*
X9541186Y-13776814D01*
X9612614Y-13776814D01*
X9641186Y-13791100D01*
X9655471Y-13805386D01*
X9669757Y-13833957D01*
X9669757Y-13862529D01*
X9655471Y-13905386D01*
X9484043Y-14076814D01*
X9669757Y-14076814D01*
X9798329Y-14076814D02*
X9798329Y-13876814D01*
X9798329Y-13905386D02*
X9812614Y-13891100D01*
X9841186Y-13876814D01*
X9884043Y-13876814D01*
X9912614Y-13891100D01*
X9926900Y-13919671D01*
X9926900Y-14076814D01*
X9926900Y-13919671D02*
X9941186Y-13891100D01*
X9969757Y-13876814D01*
X10012614Y-13876814D01*
X10041186Y-13891100D01*
X10055471Y-13919671D01*
X10055471Y-14076814D01*
X10198329Y-14076814D02*
X10198329Y-13876814D01*
X10198329Y-13905386D02*
X10212614Y-13891100D01*
X10241186Y-13876814D01*
X10284043Y-13876814D01*
X10312614Y-13891100D01*
X10326900Y-13919671D01*
X10326900Y-14076814D01*
X10326900Y-13919671D02*
X10341186Y-13891100D01*
X10369757Y-13876814D01*
X10412614Y-13876814D01*
X10441186Y-13891100D01*
X10455471Y-13919671D01*
X10455471Y-14076814D01*
X11041186Y-13762529D02*
X10784043Y-14148243D01*
X11426900Y-13776814D02*
X11455471Y-13776814D01*
X11484043Y-13791100D01*
X11498328Y-13805386D01*
X11512614Y-13833957D01*
X11526900Y-13891100D01*
X11526900Y-13962529D01*
X11512614Y-14019671D01*
X11498328Y-14048243D01*
X11484043Y-14062529D01*
X11455471Y-14076814D01*
X11426900Y-14076814D01*
X11398328Y-14062529D01*
X11384043Y-14048243D01*
X11369757Y-14019671D01*
X11355471Y-13962529D01*
X11355471Y-13891100D01*
X11369757Y-13833957D01*
X11384043Y-13805386D01*
X11398328Y-13791100D01*
X11426900Y-13776814D01*
X11655471Y-14048243D02*
X11669757Y-14062529D01*
X11655471Y-14076814D01*
X11641186Y-14062529D01*
X11655471Y-14048243D01*
X11655471Y-14076814D01*
X11855471Y-13776814D02*
X11884043Y-13776814D01*
X11912614Y-13791100D01*
X11926900Y-13805386D01*
X11941185Y-13833957D01*
X11955471Y-13891100D01*
X11955471Y-13962529D01*
X11941185Y-14019671D01*
X11926900Y-14048243D01*
X11912614Y-14062529D01*
X11884043Y-14076814D01*
X11855471Y-14076814D01*
X11826900Y-14062529D01*
X11812614Y-14048243D01*
X11798328Y-14019671D01*
X11784043Y-13962529D01*
X11784043Y-13891100D01*
X11798328Y-13833957D01*
X11812614Y-13805386D01*
X11826900Y-13791100D01*
X11855471Y-13776814D01*
X12212614Y-13876814D02*
X12212614Y-14076814D01*
X12141185Y-13762529D02*
X12069757Y-13976814D01*
X12255471Y-13976814D01*
X12426900Y-13776814D02*
X12455471Y-13776814D01*
X12484043Y-13791100D01*
X12498328Y-13805386D01*
X12512614Y-13833957D01*
X12526900Y-13891100D01*
X12526900Y-13962529D01*
X12512614Y-14019671D01*
X12498328Y-14048243D01*
X12484043Y-14062529D01*
X12455471Y-14076814D01*
X12426900Y-14076814D01*
X12398328Y-14062529D01*
X12384043Y-14048243D01*
X12369757Y-14019671D01*
X12355471Y-13962529D01*
X12355471Y-13891100D01*
X12369757Y-13833957D01*
X12384043Y-13805386D01*
X12398328Y-13791100D01*
X12426900Y-13776814D01*
X12641186Y-13776814D02*
X12641186Y-13833957D01*
X12755471Y-13776814D02*
X12755471Y-13833957D01*
X13198328Y-14191100D02*
X13184043Y-14176814D01*
X13155471Y-14133957D01*
X13141185Y-14105386D01*
X13126900Y-14062529D01*
X13112614Y-13991100D01*
X13112614Y-13933957D01*
X13126900Y-13862529D01*
X13141185Y-13819671D01*
X13155471Y-13791100D01*
X13184043Y-13748243D01*
X13198328Y-13733957D01*
X13455471Y-13776814D02*
X13312614Y-13776814D01*
X13298328Y-13919671D01*
X13312614Y-13905386D01*
X13341185Y-13891100D01*
X13412614Y-13891100D01*
X13441185Y-13905386D01*
X13455471Y-13919671D01*
X13469757Y-13948243D01*
X13469757Y-14019671D01*
X13455471Y-14048243D01*
X13441185Y-14062529D01*
X13412614Y-14076814D01*
X13341185Y-14076814D01*
X13312614Y-14062529D01*
X13298328Y-14048243D01*
X13584043Y-13805386D02*
X13598328Y-13791100D01*
X13626900Y-13776814D01*
X13698328Y-13776814D01*
X13726900Y-13791100D01*
X13741185Y-13805386D01*
X13755471Y-13833957D01*
X13755471Y-13862529D01*
X13741185Y-13905386D01*
X13569757Y-14076814D01*
X13755471Y-14076814D01*
X14112614Y-14076814D02*
X14112614Y-13776814D01*
X14241185Y-14076814D02*
X14241185Y-13919671D01*
X14226900Y-13891100D01*
X14198328Y-13876814D01*
X14155471Y-13876814D01*
X14126900Y-13891100D01*
X14112614Y-13905386D01*
X14426900Y-14076814D02*
X14398328Y-14062529D01*
X14384043Y-14048243D01*
X14369757Y-14019671D01*
X14369757Y-13933957D01*
X14384043Y-13905386D01*
X14398328Y-13891100D01*
X14426900Y-13876814D01*
X14469757Y-13876814D01*
X14498328Y-13891100D01*
X14512614Y-13905386D01*
X14526900Y-13933957D01*
X14526900Y-14019671D01*
X14512614Y-14048243D01*
X14498328Y-14062529D01*
X14469757Y-14076814D01*
X14426900Y-14076814D01*
X14698328Y-14076814D02*
X14669757Y-14062529D01*
X14655471Y-14033957D01*
X14655471Y-13776814D01*
X14926900Y-14062529D02*
X14898328Y-14076814D01*
X14841186Y-14076814D01*
X14812614Y-14062529D01*
X14798328Y-14033957D01*
X14798328Y-13919671D01*
X14812614Y-13891100D01*
X14841186Y-13876814D01*
X14898328Y-13876814D01*
X14926900Y-13891100D01*
X14941186Y-13919671D01*
X14941186Y-13948243D01*
X14798328Y-13976814D01*
X15055471Y-14062529D02*
X15084043Y-14076814D01*
X15141186Y-14076814D01*
X15169757Y-14062529D01*
X15184043Y-14033957D01*
X15184043Y-14019671D01*
X15169757Y-13991100D01*
X15141186Y-13976814D01*
X15098328Y-13976814D01*
X15069757Y-13962529D01*
X15055471Y-13933957D01*
X15055471Y-13919671D01*
X15069757Y-13891100D01*
X15098328Y-13876814D01*
X15141186Y-13876814D01*
X15169757Y-13891100D01*
X15284043Y-14191100D02*
X15298328Y-14176814D01*
X15326900Y-14133957D01*
X15341186Y-14105386D01*
X15355471Y-14062529D01*
X15369757Y-13991100D01*
X15369757Y-13933957D01*
X15355471Y-13862529D01*
X15341186Y-13819671D01*
X15326900Y-13791100D01*
X15298328Y-13748243D01*
X15284043Y-13733957D01*
X8426900Y-14437100D02*
X8526900Y-14337100D01*
X8426900Y-14237100D01*
X8326900Y-14337100D01*
X8426900Y-14437100D01*
X8784043Y-14201386D02*
X8798329Y-14187100D01*
X8826900Y-14172814D01*
X8898329Y-14172814D01*
X8926900Y-14187100D01*
X8941186Y-14201386D01*
X8955471Y-14229957D01*
X8955471Y-14258529D01*
X8941186Y-14301386D01*
X8769757Y-14472814D01*
X8955471Y-14472814D01*
X9084043Y-14444243D02*
X9098329Y-14458529D01*
X9084043Y-14472814D01*
X9069757Y-14458529D01*
X9084043Y-14444243D01*
X9084043Y-14472814D01*
X9284043Y-14172814D02*
X9312614Y-14172814D01*
X9341186Y-14187100D01*
X9355471Y-14201386D01*
X9369757Y-14229957D01*
X9384043Y-14287100D01*
X9384043Y-14358529D01*
X9369757Y-14415671D01*
X9355471Y-14444243D01*
X9341186Y-14458529D01*
X9312614Y-14472814D01*
X9284043Y-14472814D01*
X9255471Y-14458529D01*
X9241186Y-14444243D01*
X9226900Y-14415671D01*
X9212614Y-14358529D01*
X9212614Y-14287100D01*
X9226900Y-14229957D01*
X9241186Y-14201386D01*
X9255471Y-14187100D01*
X9284043Y-14172814D01*
X9569757Y-14172814D02*
X9598329Y-14172814D01*
X9626900Y-14187100D01*
X9641186Y-14201386D01*
X9655471Y-14229957D01*
X9669757Y-14287100D01*
X9669757Y-14358529D01*
X9655471Y-14415671D01*
X9641186Y-14444243D01*
X9626900Y-14458529D01*
X9598329Y-14472814D01*
X9569757Y-14472814D01*
X9541186Y-14458529D01*
X9526900Y-14444243D01*
X9512614Y-14415671D01*
X9498329Y-14358529D01*
X9498329Y-14287100D01*
X9512614Y-14229957D01*
X9526900Y-14201386D01*
X9541186Y-14187100D01*
X9569757Y-14172814D01*
X9798329Y-14472814D02*
X9798329Y-14272814D01*
X9798329Y-14301386D02*
X9812614Y-14287100D01*
X9841186Y-14272814D01*
X9884043Y-14272814D01*
X9912614Y-14287100D01*
X9926900Y-14315671D01*
X9926900Y-14472814D01*
X9926900Y-14315671D02*
X9941186Y-14287100D01*
X9969757Y-14272814D01*
X10012614Y-14272814D01*
X10041186Y-14287100D01*
X10055471Y-14315671D01*
X10055471Y-14472814D01*
X10198329Y-14472814D02*
X10198329Y-14272814D01*
X10198329Y-14301386D02*
X10212614Y-14287100D01*
X10241186Y-14272814D01*
X10284043Y-14272814D01*
X10312614Y-14287100D01*
X10326900Y-14315671D01*
X10326900Y-14472814D01*
X10326900Y-14315671D02*
X10341186Y-14287100D01*
X10369757Y-14272814D01*
X10412614Y-14272814D01*
X10441186Y-14287100D01*
X10455471Y-14315671D01*
X10455471Y-14472814D01*
X11041186Y-14158529D02*
X10784043Y-14544243D01*
X11426900Y-14172814D02*
X11455471Y-14172814D01*
X11484043Y-14187100D01*
X11498328Y-14201386D01*
X11512614Y-14229957D01*
X11526900Y-14287100D01*
X11526900Y-14358529D01*
X11512614Y-14415671D01*
X11498328Y-14444243D01*
X11484043Y-14458529D01*
X11455471Y-14472814D01*
X11426900Y-14472814D01*
X11398328Y-14458529D01*
X11384043Y-14444243D01*
X11369757Y-14415671D01*
X11355471Y-14358529D01*
X11355471Y-14287100D01*
X11369757Y-14229957D01*
X11384043Y-14201386D01*
X11398328Y-14187100D01*
X11426900Y-14172814D01*
X11655471Y-14444243D02*
X11669757Y-14458529D01*
X11655471Y-14472814D01*
X11641186Y-14458529D01*
X11655471Y-14444243D01*
X11655471Y-14472814D01*
X11855471Y-14172814D02*
X11884043Y-14172814D01*
X11912614Y-14187100D01*
X11926900Y-14201386D01*
X11941185Y-14229957D01*
X11955471Y-14287100D01*
X11955471Y-14358529D01*
X11941185Y-14415671D01*
X11926900Y-14444243D01*
X11912614Y-14458529D01*
X11884043Y-14472814D01*
X11855471Y-14472814D01*
X11826900Y-14458529D01*
X11812614Y-14444243D01*
X11798328Y-14415671D01*
X11784043Y-14358529D01*
X11784043Y-14287100D01*
X11798328Y-14229957D01*
X11812614Y-14201386D01*
X11826900Y-14187100D01*
X11855471Y-14172814D01*
X12055471Y-14172814D02*
X12255471Y-14172814D01*
X12126900Y-14472814D01*
X12384043Y-14472814D02*
X12441185Y-14472814D01*
X12469757Y-14458529D01*
X12484043Y-14444243D01*
X12512614Y-14401386D01*
X12526900Y-14344243D01*
X12526900Y-14229957D01*
X12512614Y-14201386D01*
X12498328Y-14187100D01*
X12469757Y-14172814D01*
X12412614Y-14172814D01*
X12384043Y-14187100D01*
X12369757Y-14201386D01*
X12355471Y-14229957D01*
X12355471Y-14301386D01*
X12369757Y-14329957D01*
X12384043Y-14344243D01*
X12412614Y-14358529D01*
X12469757Y-14358529D01*
X12498328Y-14344243D01*
X12512614Y-14329957D01*
X12526900Y-14301386D01*
X12641186Y-14172814D02*
X12641186Y-14229957D01*
X12755471Y-14172814D02*
X12755471Y-14229957D01*
X13198328Y-14587100D02*
X13184043Y-14572814D01*
X13155471Y-14529957D01*
X13141185Y-14501386D01*
X13126900Y-14458529D01*
X13112614Y-14387100D01*
X13112614Y-14329957D01*
X13126900Y-14258529D01*
X13141185Y-14215671D01*
X13155471Y-14187100D01*
X13184043Y-14144243D01*
X13198328Y-14129957D01*
X13298328Y-14201386D02*
X13312614Y-14187100D01*
X13341185Y-14172814D01*
X13412614Y-14172814D01*
X13441185Y-14187100D01*
X13455471Y-14201386D01*
X13469757Y-14229957D01*
X13469757Y-14258529D01*
X13455471Y-14301386D01*
X13284043Y-14472814D01*
X13469757Y-14472814D01*
X13826900Y-14472814D02*
X13826900Y-14172814D01*
X13955471Y-14472814D02*
X13955471Y-14315671D01*
X13941185Y-14287100D01*
X13912614Y-14272814D01*
X13869757Y-14272814D01*
X13841185Y-14287100D01*
X13826900Y-14301386D01*
X14141185Y-14472814D02*
X14112614Y-14458529D01*
X14098328Y-14444243D01*
X14084043Y-14415671D01*
X14084043Y-14329957D01*
X14098328Y-14301386D01*
X14112614Y-14287100D01*
X14141185Y-14272814D01*
X14184043Y-14272814D01*
X14212614Y-14287100D01*
X14226900Y-14301386D01*
X14241185Y-14329957D01*
X14241185Y-14415671D01*
X14226900Y-14444243D01*
X14212614Y-14458529D01*
X14184043Y-14472814D01*
X14141185Y-14472814D01*
X14412614Y-14472814D02*
X14384043Y-14458529D01*
X14369757Y-14429957D01*
X14369757Y-14172814D01*
X14641186Y-14458529D02*
X14612614Y-14472814D01*
X14555471Y-14472814D01*
X14526900Y-14458529D01*
X14512614Y-14429957D01*
X14512614Y-14315671D01*
X14526900Y-14287100D01*
X14555471Y-14272814D01*
X14612614Y-14272814D01*
X14641186Y-14287100D01*
X14655471Y-14315671D01*
X14655471Y-14344243D01*
X14512614Y-14372814D01*
X14769757Y-14458529D02*
X14798328Y-14472814D01*
X14855471Y-14472814D01*
X14884043Y-14458529D01*
X14898328Y-14429957D01*
X14898328Y-14415671D01*
X14884043Y-14387100D01*
X14855471Y-14372814D01*
X14812614Y-14372814D01*
X14784043Y-14358529D01*
X14769757Y-14329957D01*
X14769757Y-14315671D01*
X14784043Y-14287100D01*
X14812614Y-14272814D01*
X14855471Y-14272814D01*
X14884043Y-14287100D01*
X14998328Y-14587100D02*
X15012614Y-14572814D01*
X15041186Y-14529957D01*
X15055471Y-14501386D01*
X15069757Y-14458529D01*
X15084043Y-14387100D01*
X15084043Y-14329957D01*
X15069757Y-14258529D01*
X15055471Y-14215671D01*
X15041186Y-14187100D01*
X15012614Y-14144243D01*
X14998328Y-14129957D01*
X8296900Y-14618100D02*
X8526900Y-14848100D01*
X8526900Y-14618100D02*
X8296900Y-14848100D01*
X8526900Y-14733100D02*
G75*
G03X8526900Y-14733100I-115000J0D01*
G01*
X8784043Y-14597386D02*
X8798329Y-14583100D01*
X8826900Y-14568814D01*
X8898329Y-14568814D01*
X8926900Y-14583100D01*
X8941186Y-14597386D01*
X8955471Y-14625957D01*
X8955471Y-14654529D01*
X8941186Y-14697386D01*
X8769757Y-14868814D01*
X8955471Y-14868814D01*
X9084043Y-14840243D02*
X9098329Y-14854529D01*
X9084043Y-14868814D01*
X9069757Y-14854529D01*
X9084043Y-14840243D01*
X9084043Y-14868814D01*
X9198328Y-14568814D02*
X9384043Y-14568814D01*
X9284043Y-14683100D01*
X9326900Y-14683100D01*
X9355471Y-14697386D01*
X9369757Y-14711671D01*
X9384043Y-14740243D01*
X9384043Y-14811671D01*
X9369757Y-14840243D01*
X9355471Y-14854529D01*
X9326900Y-14868814D01*
X9241186Y-14868814D01*
X9212614Y-14854529D01*
X9198328Y-14840243D01*
X9569757Y-14568814D02*
X9598329Y-14568814D01*
X9626900Y-14583100D01*
X9641186Y-14597386D01*
X9655471Y-14625957D01*
X9669757Y-14683100D01*
X9669757Y-14754529D01*
X9655471Y-14811671D01*
X9641186Y-14840243D01*
X9626900Y-14854529D01*
X9598329Y-14868814D01*
X9569757Y-14868814D01*
X9541186Y-14854529D01*
X9526900Y-14840243D01*
X9512614Y-14811671D01*
X9498329Y-14754529D01*
X9498329Y-14683100D01*
X9512614Y-14625957D01*
X9526900Y-14597386D01*
X9541186Y-14583100D01*
X9569757Y-14568814D01*
X9798329Y-14868814D02*
X9798329Y-14668814D01*
X9798329Y-14697386D02*
X9812614Y-14683100D01*
X9841186Y-14668814D01*
X9884043Y-14668814D01*
X9912614Y-14683100D01*
X9926900Y-14711671D01*
X9926900Y-14868814D01*
X9926900Y-14711671D02*
X9941186Y-14683100D01*
X9969757Y-14668814D01*
X10012614Y-14668814D01*
X10041186Y-14683100D01*
X10055471Y-14711671D01*
X10055471Y-14868814D01*
X10198329Y-14868814D02*
X10198329Y-14668814D01*
X10198329Y-14697386D02*
X10212614Y-14683100D01*
X10241186Y-14668814D01*
X10284043Y-14668814D01*
X10312614Y-14683100D01*
X10326900Y-14711671D01*
X10326900Y-14868814D01*
X10326900Y-14711671D02*
X10341186Y-14683100D01*
X10369757Y-14668814D01*
X10412614Y-14668814D01*
X10441186Y-14683100D01*
X10455471Y-14711671D01*
X10455471Y-14868814D01*
X11041186Y-14554529D02*
X10784043Y-14940243D01*
X11426900Y-14568814D02*
X11455471Y-14568814D01*
X11484043Y-14583100D01*
X11498328Y-14597386D01*
X11512614Y-14625957D01*
X11526900Y-14683100D01*
X11526900Y-14754529D01*
X11512614Y-14811671D01*
X11498328Y-14840243D01*
X11484043Y-14854529D01*
X11455471Y-14868814D01*
X11426900Y-14868814D01*
X11398328Y-14854529D01*
X11384043Y-14840243D01*
X11369757Y-14811671D01*
X11355471Y-14754529D01*
X11355471Y-14683100D01*
X11369757Y-14625957D01*
X11384043Y-14597386D01*
X11398328Y-14583100D01*
X11426900Y-14568814D01*
X11655471Y-14840243D02*
X11669757Y-14854529D01*
X11655471Y-14868814D01*
X11641186Y-14854529D01*
X11655471Y-14840243D01*
X11655471Y-14868814D01*
X11855471Y-14568814D02*
X11884043Y-14568814D01*
X11912614Y-14583100D01*
X11926900Y-14597386D01*
X11941185Y-14625957D01*
X11955471Y-14683100D01*
X11955471Y-14754529D01*
X11941185Y-14811671D01*
X11926900Y-14840243D01*
X11912614Y-14854529D01*
X11884043Y-14868814D01*
X11855471Y-14868814D01*
X11826900Y-14854529D01*
X11812614Y-14840243D01*
X11798328Y-14811671D01*
X11784043Y-14754529D01*
X11784043Y-14683100D01*
X11798328Y-14625957D01*
X11812614Y-14597386D01*
X11826900Y-14583100D01*
X11855471Y-14568814D01*
X12098328Y-14868814D02*
X12155471Y-14868814D01*
X12184043Y-14854529D01*
X12198328Y-14840243D01*
X12226900Y-14797386D01*
X12241185Y-14740243D01*
X12241185Y-14625957D01*
X12226900Y-14597386D01*
X12212614Y-14583100D01*
X12184043Y-14568814D01*
X12126900Y-14568814D01*
X12098328Y-14583100D01*
X12084043Y-14597386D01*
X12069757Y-14625957D01*
X12069757Y-14697386D01*
X12084043Y-14725957D01*
X12098328Y-14740243D01*
X12126900Y-14754529D01*
X12184043Y-14754529D01*
X12212614Y-14740243D01*
X12226900Y-14725957D01*
X12241185Y-14697386D01*
X12526900Y-14868814D02*
X12355471Y-14868814D01*
X12441185Y-14868814D02*
X12441185Y-14568814D01*
X12412614Y-14611671D01*
X12384043Y-14640243D01*
X12355471Y-14654529D01*
X12641186Y-14568814D02*
X12641186Y-14625957D01*
X12755471Y-14568814D02*
X12755471Y-14625957D01*
X13198328Y-14983100D02*
X13184043Y-14968814D01*
X13155471Y-14925957D01*
X13141185Y-14897386D01*
X13126900Y-14854529D01*
X13112614Y-14783100D01*
X13112614Y-14725957D01*
X13126900Y-14654529D01*
X13141185Y-14611671D01*
X13155471Y-14583100D01*
X13184043Y-14540243D01*
X13198328Y-14525957D01*
X13298328Y-14597386D02*
X13312614Y-14583100D01*
X13341185Y-14568814D01*
X13412614Y-14568814D01*
X13441185Y-14583100D01*
X13455471Y-14597386D01*
X13469757Y-14625957D01*
X13469757Y-14654529D01*
X13455471Y-14697386D01*
X13284043Y-14868814D01*
X13469757Y-14868814D01*
X13826900Y-14868814D02*
X13826900Y-14568814D01*
X13955471Y-14868814D02*
X13955471Y-14711671D01*
X13941185Y-14683100D01*
X13912614Y-14668814D01*
X13869757Y-14668814D01*
X13841185Y-14683100D01*
X13826900Y-14697386D01*
X14141185Y-14868814D02*
X14112614Y-14854529D01*
X14098328Y-14840243D01*
X14084043Y-14811671D01*
X14084043Y-14725957D01*
X14098328Y-14697386D01*
X14112614Y-14683100D01*
X14141185Y-14668814D01*
X14184043Y-14668814D01*
X14212614Y-14683100D01*
X14226900Y-14697386D01*
X14241185Y-14725957D01*
X14241185Y-14811671D01*
X14226900Y-14840243D01*
X14212614Y-14854529D01*
X14184043Y-14868814D01*
X14141185Y-14868814D01*
X14412614Y-14868814D02*
X14384043Y-14854529D01*
X14369757Y-14825957D01*
X14369757Y-14568814D01*
X14641186Y-14854529D02*
X14612614Y-14868814D01*
X14555471Y-14868814D01*
X14526900Y-14854529D01*
X14512614Y-14825957D01*
X14512614Y-14711671D01*
X14526900Y-14683100D01*
X14555471Y-14668814D01*
X14612614Y-14668814D01*
X14641186Y-14683100D01*
X14655471Y-14711671D01*
X14655471Y-14740243D01*
X14512614Y-14768814D01*
X14769757Y-14854529D02*
X14798328Y-14868814D01*
X14855471Y-14868814D01*
X14884043Y-14854529D01*
X14898328Y-14825957D01*
X14898328Y-14811671D01*
X14884043Y-14783100D01*
X14855471Y-14768814D01*
X14812614Y-14768814D01*
X14784043Y-14754529D01*
X14769757Y-14725957D01*
X14769757Y-14711671D01*
X14784043Y-14683100D01*
X14812614Y-14668814D01*
X14855471Y-14668814D01*
X14884043Y-14683100D01*
X14998328Y-14983100D02*
X15012614Y-14968814D01*
X15041186Y-14925957D01*
X15055471Y-14897386D01*
X15069757Y-14854529D01*
X15084043Y-14783100D01*
X15084043Y-14725957D01*
X15069757Y-14654529D01*
X15055471Y-14611671D01*
X15041186Y-14583100D01*
X15012614Y-14540243D01*
X14998328Y-14525957D01*
M02*
