G04 #@! TF.FileFunction,Legend,Top*
%FSLAX46Y46*%
G04 Gerber Fmt 4.6, Leading zero omitted, Abs format (unit mm)*
G04 Created by KiCad (PCBNEW 4.0.6-e0-6349~53~ubuntu16.04.1) date Thu Jul 27 09:56:00 2017*
%MOMM*%
%LPD*%
G01*
G04 APERTURE LIST*
%ADD10C,0.100000*%
%ADD11C,0.200000*%
%ADD12C,0.120000*%
%ADD13C,0.149860*%
%ADD14C,0.200660*%
%ADD15C,0.150000*%
%ADD16C,0.250190*%
%ADD17C,0.304800*%
G04 APERTURE END LIST*
D10*
D11*
X159994600Y-103505000D02*
X158686500Y-103505000D01*
X160007300Y-103492300D02*
X160007300Y-102222300D01*
X158750000Y-108496100D02*
X158750000Y-108508800D01*
X160007300Y-108496100D02*
X158750000Y-108496100D01*
X160007300Y-108496100D02*
X160007300Y-109397800D01*
X164998400Y-108508800D02*
X166166800Y-108508800D01*
X164998400Y-108508800D02*
X164998400Y-109575600D01*
X164998400Y-103505000D02*
X166243000Y-103505000D01*
X164998400Y-103505000D02*
X164998400Y-102311200D01*
D12*
X167600000Y-99150000D02*
X167600000Y-99850000D01*
X166400000Y-99850000D02*
X166400000Y-99150000D01*
X166400000Y-102850000D02*
X166400000Y-102150000D01*
X167600000Y-102150000D02*
X167600000Y-102850000D01*
X167900000Y-102850000D02*
X167900000Y-102150000D01*
X169100000Y-102150000D02*
X169100000Y-102850000D01*
X155483000Y-105569500D02*
X155483000Y-104869500D01*
X156683000Y-104869500D02*
X156683000Y-105569500D01*
X162100000Y-98650000D02*
X162100000Y-99350000D01*
X160900000Y-99350000D02*
X160900000Y-98650000D01*
X160600000Y-98650000D02*
X160600000Y-99350000D01*
X159400000Y-99350000D02*
X159400000Y-98650000D01*
X152150000Y-103900000D02*
X152850000Y-103900000D01*
X152850000Y-105100000D02*
X152150000Y-105100000D01*
X152177000Y-105191000D02*
X152877000Y-105191000D01*
X152877000Y-106391000D02*
X152177000Y-106391000D01*
X142144000Y-104683000D02*
X142844000Y-104683000D01*
X142844000Y-105883000D02*
X142144000Y-105883000D01*
X144938000Y-105191000D02*
X145638000Y-105191000D01*
X145638000Y-106391000D02*
X144938000Y-106391000D01*
X142144000Y-96047000D02*
X142844000Y-96047000D01*
X142844000Y-97247000D02*
X142144000Y-97247000D01*
X144938000Y-96682000D02*
X145638000Y-96682000D01*
X145638000Y-97882000D02*
X144938000Y-97882000D01*
X86833400Y-110007400D02*
X86833400Y-113877400D01*
X86833400Y-113877400D02*
X89493400Y-113877400D01*
X89493400Y-113877400D02*
X89493400Y-110007400D01*
X89493400Y-110007400D02*
X86833400Y-110007400D01*
X86833400Y-109372400D02*
X86833400Y-108677400D01*
X86833400Y-108677400D02*
X88163400Y-108677400D01*
X94072400Y-110007400D02*
X94072400Y-113877400D01*
X94072400Y-113877400D02*
X96732400Y-113877400D01*
X96732400Y-113877400D02*
X96732400Y-110007400D01*
X96732400Y-110007400D02*
X94072400Y-110007400D01*
X94072400Y-109372400D02*
X94072400Y-108677400D01*
X94072400Y-108677400D02*
X95402400Y-108677400D01*
X101336800Y-110007400D02*
X101336800Y-113877400D01*
X101336800Y-113877400D02*
X103996800Y-113877400D01*
X103996800Y-113877400D02*
X103996800Y-110007400D01*
X103996800Y-110007400D02*
X101336800Y-110007400D01*
X101336800Y-109372400D02*
X101336800Y-108677400D01*
X101336800Y-108677400D02*
X102666800Y-108677400D01*
X108601200Y-110007400D02*
X108601200Y-113877400D01*
X108601200Y-113877400D02*
X111261200Y-113877400D01*
X111261200Y-113877400D02*
X111261200Y-110007400D01*
X111261200Y-110007400D02*
X108601200Y-110007400D01*
X108601200Y-109372400D02*
X108601200Y-108677400D01*
X108601200Y-108677400D02*
X109931200Y-108677400D01*
X112233400Y-109994700D02*
X112233400Y-113864700D01*
X112233400Y-113864700D02*
X114893400Y-113864700D01*
X114893400Y-113864700D02*
X114893400Y-109994700D01*
X114893400Y-109994700D02*
X112233400Y-109994700D01*
X112233400Y-109359700D02*
X112233400Y-108664700D01*
X112233400Y-108664700D02*
X113563400Y-108664700D01*
X104969000Y-110007400D02*
X104969000Y-113877400D01*
X104969000Y-113877400D02*
X107629000Y-113877400D01*
X107629000Y-113877400D02*
X107629000Y-110007400D01*
X107629000Y-110007400D02*
X104969000Y-110007400D01*
X104969000Y-109372400D02*
X104969000Y-108677400D01*
X104969000Y-108677400D02*
X106299000Y-108677400D01*
X97704600Y-110007400D02*
X97704600Y-113877400D01*
X97704600Y-113877400D02*
X100364600Y-113877400D01*
X100364600Y-113877400D02*
X100364600Y-110007400D01*
X100364600Y-110007400D02*
X97704600Y-110007400D01*
X97704600Y-109372400D02*
X97704600Y-108677400D01*
X97704600Y-108677400D02*
X99034600Y-108677400D01*
X90452900Y-110007400D02*
X90452900Y-113877400D01*
X90452900Y-113877400D02*
X93112900Y-113877400D01*
X93112900Y-113877400D02*
X93112900Y-110007400D01*
X93112900Y-110007400D02*
X90452900Y-110007400D01*
X90452900Y-109372400D02*
X90452900Y-108677400D01*
X90452900Y-108677400D02*
X91782900Y-108677400D01*
X97704600Y-94488000D02*
X97704600Y-98358000D01*
X97704600Y-98358000D02*
X100364600Y-98358000D01*
X100364600Y-98358000D02*
X100364600Y-94488000D01*
X100364600Y-94488000D02*
X97704600Y-94488000D01*
X97704600Y-93853000D02*
X97704600Y-93158000D01*
X97704600Y-93158000D02*
X99034600Y-93158000D01*
X94072400Y-94488000D02*
X94072400Y-98358000D01*
X94072400Y-98358000D02*
X96732400Y-98358000D01*
X96732400Y-98358000D02*
X96732400Y-94488000D01*
X96732400Y-94488000D02*
X94072400Y-94488000D01*
X94072400Y-93853000D02*
X94072400Y-93158000D01*
X94072400Y-93158000D02*
X95402400Y-93158000D01*
X90440200Y-94488000D02*
X90440200Y-98358000D01*
X90440200Y-98358000D02*
X93100200Y-98358000D01*
X93100200Y-98358000D02*
X93100200Y-94488000D01*
X93100200Y-94488000D02*
X90440200Y-94488000D01*
X90440200Y-93853000D02*
X90440200Y-93158000D01*
X90440200Y-93158000D02*
X91770200Y-93158000D01*
X86808000Y-94488000D02*
X86808000Y-98358000D01*
X86808000Y-98358000D02*
X89468000Y-98358000D01*
X89468000Y-98358000D02*
X89468000Y-94488000D01*
X89468000Y-94488000D02*
X86808000Y-94488000D01*
X86808000Y-93853000D02*
X86808000Y-93158000D01*
X86808000Y-93158000D02*
X88138000Y-93158000D01*
X101311400Y-94488000D02*
X101311400Y-98358000D01*
X101311400Y-98358000D02*
X103971400Y-98358000D01*
X103971400Y-98358000D02*
X103971400Y-94488000D01*
X103971400Y-94488000D02*
X101311400Y-94488000D01*
X101311400Y-93853000D02*
X101311400Y-93158000D01*
X101311400Y-93158000D02*
X102641400Y-93158000D01*
X104943600Y-94488000D02*
X104943600Y-98358000D01*
X104943600Y-98358000D02*
X107603600Y-98358000D01*
X107603600Y-98358000D02*
X107603600Y-94488000D01*
X107603600Y-94488000D02*
X104943600Y-94488000D01*
X104943600Y-93853000D02*
X104943600Y-93158000D01*
X104943600Y-93158000D02*
X106273600Y-93158000D01*
X108575800Y-94488000D02*
X108575800Y-98358000D01*
X108575800Y-98358000D02*
X111235800Y-98358000D01*
X111235800Y-98358000D02*
X111235800Y-94488000D01*
X111235800Y-94488000D02*
X108575800Y-94488000D01*
X108575800Y-93853000D02*
X108575800Y-93158000D01*
X108575800Y-93158000D02*
X109905800Y-93158000D01*
X112208000Y-94488000D02*
X112208000Y-98358000D01*
X112208000Y-98358000D02*
X114868000Y-98358000D01*
X114868000Y-98358000D02*
X114868000Y-94488000D01*
X114868000Y-94488000D02*
X112208000Y-94488000D01*
X112208000Y-93853000D02*
X112208000Y-93158000D01*
X112208000Y-93158000D02*
X113538000Y-93158000D01*
X180850000Y-110870000D02*
X189490000Y-110870000D01*
X172470000Y-110870000D02*
X177550000Y-110870000D01*
X180850000Y-98670000D02*
X189490000Y-98670000D01*
X172470000Y-98670000D02*
X177550000Y-98670000D01*
X189490000Y-98670000D02*
X189490000Y-110870000D01*
X172470000Y-110870000D02*
X172470000Y-98670000D01*
X170680000Y-102000000D02*
X170680000Y-103000000D01*
X169320000Y-103000000D02*
X169320000Y-102000000D01*
X162504500Y-111397500D02*
X163504500Y-111397500D01*
X163504500Y-112757500D02*
X162504500Y-112757500D01*
X143909500Y-110355000D02*
X143909500Y-109355000D01*
X145269500Y-109355000D02*
X145269500Y-110355000D01*
X146132000Y-109339000D02*
X146132000Y-108339000D01*
X147492000Y-108339000D02*
X147492000Y-109339000D01*
X146957500Y-113022000D02*
X146957500Y-112022000D01*
X148317500Y-112022000D02*
X148317500Y-113022000D01*
X149053000Y-113022000D02*
X149053000Y-112022000D01*
X150413000Y-112022000D02*
X150413000Y-113022000D01*
X129559600Y-108008800D02*
X129559600Y-109008800D01*
X128199600Y-109008800D02*
X128199600Y-108008800D01*
X148280500Y-106762000D02*
X149280500Y-106762000D01*
X149280500Y-108122000D02*
X148280500Y-108122000D01*
X148280500Y-108286000D02*
X149280500Y-108286000D01*
X149280500Y-109646000D02*
X148280500Y-109646000D01*
X126182500Y-105238000D02*
X127182500Y-105238000D01*
X127182500Y-106598000D02*
X126182500Y-106598000D01*
X123515500Y-105238000D02*
X124515500Y-105238000D01*
X124515500Y-106598000D02*
X123515500Y-106598000D01*
X126182500Y-108540000D02*
X127182500Y-108540000D01*
X127182500Y-109900000D02*
X126182500Y-109900000D01*
X123515500Y-108540000D02*
X124515500Y-108540000D01*
X124515500Y-109900000D02*
X123515500Y-109900000D01*
X126182500Y-106889000D02*
X127182500Y-106889000D01*
X127182500Y-108249000D02*
X126182500Y-108249000D01*
X123515500Y-106889000D02*
X124515500Y-106889000D01*
X124515500Y-108249000D02*
X123515500Y-108249000D01*
X88663400Y-115513400D02*
X87663400Y-115513400D01*
X87663400Y-114153400D02*
X88663400Y-114153400D01*
X95902400Y-115513400D02*
X94902400Y-115513400D01*
X94902400Y-114153400D02*
X95902400Y-114153400D01*
X103166800Y-115513400D02*
X102166800Y-115513400D01*
X102166800Y-114153400D02*
X103166800Y-114153400D01*
X110431200Y-115513400D02*
X109431200Y-115513400D01*
X109431200Y-114153400D02*
X110431200Y-114153400D01*
X114063400Y-115500700D02*
X113063400Y-115500700D01*
X113063400Y-114140700D02*
X114063400Y-114140700D01*
X106799000Y-115513400D02*
X105799000Y-115513400D01*
X105799000Y-114153400D02*
X106799000Y-114153400D01*
X99534600Y-115513400D02*
X98534600Y-115513400D01*
X98534600Y-114153400D02*
X99534600Y-114153400D01*
X92282900Y-115513400D02*
X91282900Y-115513400D01*
X91282900Y-114153400D02*
X92282900Y-114153400D01*
X88663400Y-116783400D02*
X87663400Y-116783400D01*
X87663400Y-115423400D02*
X88663400Y-115423400D01*
X95902400Y-116783400D02*
X94902400Y-116783400D01*
X94902400Y-115423400D02*
X95902400Y-115423400D01*
X103166800Y-116783400D02*
X102166800Y-116783400D01*
X102166800Y-115423400D02*
X103166800Y-115423400D01*
X110431200Y-116783400D02*
X109431200Y-116783400D01*
X109431200Y-115423400D02*
X110431200Y-115423400D01*
X114063400Y-116770700D02*
X113063400Y-116770700D01*
X113063400Y-115410700D02*
X114063400Y-115410700D01*
X106799000Y-116783400D02*
X105799000Y-116783400D01*
X105799000Y-115423400D02*
X106799000Y-115423400D01*
X99534600Y-116783400D02*
X98534600Y-116783400D01*
X98534600Y-115423400D02*
X99534600Y-115423400D01*
X92282900Y-116783400D02*
X91282900Y-116783400D01*
X91282900Y-115423400D02*
X92282900Y-115423400D01*
X130321600Y-98052000D02*
X130321600Y-99052000D01*
X128961600Y-99052000D02*
X128961600Y-98052000D01*
X144925500Y-113022000D02*
X144925500Y-112022000D01*
X146285500Y-112022000D02*
X146285500Y-113022000D01*
X142957000Y-113022000D02*
X142957000Y-112022000D01*
X144317000Y-112022000D02*
X144317000Y-113022000D01*
X126246000Y-96348000D02*
X127246000Y-96348000D01*
X127246000Y-97708000D02*
X126246000Y-97708000D01*
X123579000Y-96348000D02*
X124579000Y-96348000D01*
X124579000Y-97708000D02*
X123579000Y-97708000D01*
X126246000Y-99650000D02*
X127246000Y-99650000D01*
X127246000Y-101010000D02*
X126246000Y-101010000D01*
X123579000Y-99650000D02*
X124579000Y-99650000D01*
X124579000Y-101010000D02*
X123579000Y-101010000D01*
X126246000Y-97999000D02*
X127246000Y-97999000D01*
X127246000Y-99359000D02*
X126246000Y-99359000D01*
X123579000Y-97999000D02*
X124579000Y-97999000D01*
X124579000Y-99359000D02*
X123579000Y-99359000D01*
X99534600Y-99994000D02*
X98534600Y-99994000D01*
X98534600Y-98634000D02*
X99534600Y-98634000D01*
X95902400Y-99994000D02*
X94902400Y-99994000D01*
X94902400Y-98634000D02*
X95902400Y-98634000D01*
X92270200Y-99994000D02*
X91270200Y-99994000D01*
X91270200Y-98634000D02*
X92270200Y-98634000D01*
X88638000Y-99994000D02*
X87638000Y-99994000D01*
X87638000Y-98634000D02*
X88638000Y-98634000D01*
X103141400Y-99994000D02*
X102141400Y-99994000D01*
X102141400Y-98634000D02*
X103141400Y-98634000D01*
X106773600Y-99994000D02*
X105773600Y-99994000D01*
X105773600Y-98634000D02*
X106773600Y-98634000D01*
X110405800Y-99994000D02*
X109405800Y-99994000D01*
X109405800Y-98634000D02*
X110405800Y-98634000D01*
X114038000Y-99994000D02*
X113038000Y-99994000D01*
X113038000Y-98634000D02*
X114038000Y-98634000D01*
X99534600Y-101264000D02*
X98534600Y-101264000D01*
X98534600Y-99904000D02*
X99534600Y-99904000D01*
X95902400Y-101264000D02*
X94902400Y-101264000D01*
X94902400Y-99904000D02*
X95902400Y-99904000D01*
X92270200Y-101264000D02*
X91270200Y-101264000D01*
X91270200Y-99904000D02*
X92270200Y-99904000D01*
X88638000Y-101264000D02*
X87638000Y-101264000D01*
X87638000Y-99904000D02*
X88638000Y-99904000D01*
X103141400Y-101264000D02*
X102141400Y-101264000D01*
X102141400Y-99904000D02*
X103141400Y-99904000D01*
X106773600Y-101264000D02*
X105773600Y-101264000D01*
X105773600Y-99904000D02*
X106773600Y-99904000D01*
X110405800Y-101264000D02*
X109405800Y-101264000D01*
X109405800Y-99904000D02*
X110405800Y-99904000D01*
X114038000Y-101518000D02*
X113038000Y-101518000D01*
X113038000Y-100158000D02*
X114038000Y-100158000D01*
D13*
X165700400Y-102799600D02*
X159299600Y-102799600D01*
X159299600Y-102799600D02*
X159299600Y-109200400D01*
X159299600Y-109200400D02*
X164699640Y-109200400D01*
X164699640Y-109200400D02*
X165700400Y-108199640D01*
X165700400Y-108199640D02*
X165700400Y-102799600D01*
D14*
X164498980Y-108499360D02*
X164999360Y-108499360D01*
X164999360Y-108499360D02*
X164999360Y-107998980D01*
X160000640Y-107998980D02*
X160000640Y-108499360D01*
X160000640Y-108499360D02*
X160501020Y-108499360D01*
X160501020Y-103500640D02*
X160000640Y-103500640D01*
X160000640Y-103500640D02*
X160000640Y-104001020D01*
X164999360Y-104001020D02*
X164999360Y-103500640D01*
X164999360Y-103500640D02*
X164498980Y-103500640D01*
D12*
X152590000Y-96590000D02*
X152590000Y-97850000D01*
X152590000Y-103410000D02*
X152590000Y-102150000D01*
X156350000Y-96590000D02*
X152590000Y-96590000D01*
X158600000Y-103410000D02*
X152590000Y-103410000D01*
D15*
X139358000Y-105322000D02*
X139358000Y-105347000D01*
X139358000Y-113372000D02*
X139358000Y-113347000D01*
X134708000Y-113372000D02*
X134708000Y-113347000D01*
X133633000Y-105272000D02*
X139358000Y-105272000D01*
X134708000Y-113372000D02*
X139358000Y-113372000D01*
X139358000Y-96686000D02*
X139358000Y-96711000D01*
X139358000Y-104736000D02*
X139358000Y-104711000D01*
X134708000Y-104736000D02*
X134708000Y-104711000D01*
X133633000Y-96636000D02*
X139358000Y-96636000D01*
X134708000Y-104736000D02*
X139358000Y-104736000D01*
D12*
X87813400Y-107121400D02*
X88513400Y-107121400D01*
X88513400Y-108321400D02*
X87813400Y-108321400D01*
X95052400Y-107248400D02*
X95752400Y-107248400D01*
X95752400Y-108448400D02*
X95052400Y-108448400D01*
X102316800Y-107248400D02*
X103016800Y-107248400D01*
X103016800Y-108448400D02*
X102316800Y-108448400D01*
X109581200Y-107248400D02*
X110281200Y-107248400D01*
X110281200Y-108448400D02*
X109581200Y-108448400D01*
X113213400Y-107235700D02*
X113913400Y-107235700D01*
X113913400Y-108435700D02*
X113213400Y-108435700D01*
X105949000Y-107248400D02*
X106649000Y-107248400D01*
X106649000Y-108448400D02*
X105949000Y-108448400D01*
X98684600Y-107248400D02*
X99384600Y-107248400D01*
X99384600Y-108448400D02*
X98684600Y-108448400D01*
X91432900Y-107248400D02*
X92132900Y-107248400D01*
X92132900Y-108448400D02*
X91432900Y-108448400D01*
X98684600Y-91729000D02*
X99384600Y-91729000D01*
X99384600Y-92929000D02*
X98684600Y-92929000D01*
X95052400Y-91729000D02*
X95752400Y-91729000D01*
X95752400Y-92929000D02*
X95052400Y-92929000D01*
X91420200Y-91729000D02*
X92120200Y-91729000D01*
X92120200Y-92929000D02*
X91420200Y-92929000D01*
X87788000Y-91729000D02*
X88488000Y-91729000D01*
X88488000Y-92929000D02*
X87788000Y-92929000D01*
X102291400Y-91729000D02*
X102991400Y-91729000D01*
X102991400Y-92929000D02*
X102291400Y-92929000D01*
X105923600Y-91729000D02*
X106623600Y-91729000D01*
X106623600Y-92929000D02*
X105923600Y-92929000D01*
X109555800Y-91729000D02*
X110255800Y-91729000D01*
X110255800Y-92929000D02*
X109555800Y-92929000D01*
X113188000Y-91729000D02*
X113888000Y-91729000D01*
X113888000Y-92929000D02*
X113188000Y-92929000D01*
D15*
X168857143Y-99666666D02*
X168904762Y-99714285D01*
X168952381Y-99857142D01*
X168952381Y-99952380D01*
X168904762Y-100095238D01*
X168809524Y-100190476D01*
X168714286Y-100238095D01*
X168523810Y-100285714D01*
X168380952Y-100285714D01*
X168190476Y-100238095D01*
X168095238Y-100190476D01*
X168000000Y-100095238D01*
X167952381Y-99952380D01*
X167952381Y-99857142D01*
X168000000Y-99714285D01*
X168047619Y-99666666D01*
X168952381Y-98714285D02*
X168952381Y-99285714D01*
X168952381Y-99000000D02*
X167952381Y-99000000D01*
X168095238Y-99095238D01*
X168190476Y-99190476D01*
X168238095Y-99285714D01*
X165857143Y-102666666D02*
X165904762Y-102714285D01*
X165952381Y-102857142D01*
X165952381Y-102952380D01*
X165904762Y-103095238D01*
X165809524Y-103190476D01*
X165714286Y-103238095D01*
X165523810Y-103285714D01*
X165380952Y-103285714D01*
X165190476Y-103238095D01*
X165095238Y-103190476D01*
X165000000Y-103095238D01*
X164952381Y-102952380D01*
X164952381Y-102857142D01*
X165000000Y-102714285D01*
X165047619Y-102666666D01*
X165047619Y-102285714D02*
X165000000Y-102238095D01*
X164952381Y-102142857D01*
X164952381Y-101904761D01*
X165000000Y-101809523D01*
X165047619Y-101761904D01*
X165142857Y-101714285D01*
X165238095Y-101714285D01*
X165380952Y-101761904D01*
X165952381Y-102333333D01*
X165952381Y-101714285D01*
X167357143Y-102666666D02*
X167404762Y-102714285D01*
X167452381Y-102857142D01*
X167452381Y-102952380D01*
X167404762Y-103095238D01*
X167309524Y-103190476D01*
X167214286Y-103238095D01*
X167023810Y-103285714D01*
X166880952Y-103285714D01*
X166690476Y-103238095D01*
X166595238Y-103190476D01*
X166500000Y-103095238D01*
X166452381Y-102952380D01*
X166452381Y-102857142D01*
X166500000Y-102714285D01*
X166547619Y-102666666D01*
X166452381Y-102333333D02*
X166452381Y-101714285D01*
X166833333Y-102047619D01*
X166833333Y-101904761D01*
X166880952Y-101809523D01*
X166928571Y-101761904D01*
X167023810Y-101714285D01*
X167261905Y-101714285D01*
X167357143Y-101761904D01*
X167404762Y-101809523D01*
X167452381Y-101904761D01*
X167452381Y-102190476D01*
X167404762Y-102285714D01*
X167357143Y-102333333D01*
X154940143Y-105386166D02*
X154987762Y-105433785D01*
X155035381Y-105576642D01*
X155035381Y-105671880D01*
X154987762Y-105814738D01*
X154892524Y-105909976D01*
X154797286Y-105957595D01*
X154606810Y-106005214D01*
X154463952Y-106005214D01*
X154273476Y-105957595D01*
X154178238Y-105909976D01*
X154083000Y-105814738D01*
X154035381Y-105671880D01*
X154035381Y-105576642D01*
X154083000Y-105433785D01*
X154130619Y-105386166D01*
X154368714Y-104529023D02*
X155035381Y-104529023D01*
X153987762Y-104767119D02*
X154702048Y-105005214D01*
X154702048Y-104386166D01*
X163357143Y-99166666D02*
X163404762Y-99214285D01*
X163452381Y-99357142D01*
X163452381Y-99452380D01*
X163404762Y-99595238D01*
X163309524Y-99690476D01*
X163214286Y-99738095D01*
X163023810Y-99785714D01*
X162880952Y-99785714D01*
X162690476Y-99738095D01*
X162595238Y-99690476D01*
X162500000Y-99595238D01*
X162452381Y-99452380D01*
X162452381Y-99357142D01*
X162500000Y-99214285D01*
X162547619Y-99166666D01*
X162452381Y-98261904D02*
X162452381Y-98738095D01*
X162928571Y-98785714D01*
X162880952Y-98738095D01*
X162833333Y-98642857D01*
X162833333Y-98404761D01*
X162880952Y-98309523D01*
X162928571Y-98261904D01*
X163023810Y-98214285D01*
X163261905Y-98214285D01*
X163357143Y-98261904D01*
X163404762Y-98309523D01*
X163452381Y-98404761D01*
X163452381Y-98642857D01*
X163404762Y-98738095D01*
X163357143Y-98785714D01*
X161857143Y-99166666D02*
X161904762Y-99214285D01*
X161952381Y-99357142D01*
X161952381Y-99452380D01*
X161904762Y-99595238D01*
X161809524Y-99690476D01*
X161714286Y-99738095D01*
X161523810Y-99785714D01*
X161380952Y-99785714D01*
X161190476Y-99738095D01*
X161095238Y-99690476D01*
X161000000Y-99595238D01*
X160952381Y-99452380D01*
X160952381Y-99357142D01*
X161000000Y-99214285D01*
X161047619Y-99166666D01*
X160952381Y-98309523D02*
X160952381Y-98500000D01*
X161000000Y-98595238D01*
X161047619Y-98642857D01*
X161190476Y-98738095D01*
X161380952Y-98785714D01*
X161761905Y-98785714D01*
X161857143Y-98738095D01*
X161904762Y-98690476D01*
X161952381Y-98595238D01*
X161952381Y-98404761D01*
X161904762Y-98309523D01*
X161857143Y-98261904D01*
X161761905Y-98214285D01*
X161523810Y-98214285D01*
X161428571Y-98261904D01*
X161380952Y-98309523D01*
X161333333Y-98404761D01*
X161333333Y-98595238D01*
X161380952Y-98690476D01*
X161428571Y-98738095D01*
X161523810Y-98785714D01*
X152333334Y-103357143D02*
X152285715Y-103404762D01*
X152142858Y-103452381D01*
X152047620Y-103452381D01*
X151904762Y-103404762D01*
X151809524Y-103309524D01*
X151761905Y-103214286D01*
X151714286Y-103023810D01*
X151714286Y-102880952D01*
X151761905Y-102690476D01*
X151809524Y-102595238D01*
X151904762Y-102500000D01*
X152047620Y-102452381D01*
X152142858Y-102452381D01*
X152285715Y-102500000D01*
X152333334Y-102547619D01*
X152666667Y-102452381D02*
X153333334Y-102452381D01*
X152904762Y-103452381D01*
X152360334Y-104648143D02*
X152312715Y-104695762D01*
X152169858Y-104743381D01*
X152074620Y-104743381D01*
X151931762Y-104695762D01*
X151836524Y-104600524D01*
X151788905Y-104505286D01*
X151741286Y-104314810D01*
X151741286Y-104171952D01*
X151788905Y-103981476D01*
X151836524Y-103886238D01*
X151931762Y-103791000D01*
X152074620Y-103743381D01*
X152169858Y-103743381D01*
X152312715Y-103791000D01*
X152360334Y-103838619D01*
X152931762Y-104171952D02*
X152836524Y-104124333D01*
X152788905Y-104076714D01*
X152741286Y-103981476D01*
X152741286Y-103933857D01*
X152788905Y-103838619D01*
X152836524Y-103791000D01*
X152931762Y-103743381D01*
X153122239Y-103743381D01*
X153217477Y-103791000D01*
X153265096Y-103838619D01*
X153312715Y-103933857D01*
X153312715Y-103981476D01*
X153265096Y-104076714D01*
X153217477Y-104124333D01*
X153122239Y-104171952D01*
X152931762Y-104171952D01*
X152836524Y-104219571D01*
X152788905Y-104267190D01*
X152741286Y-104362429D01*
X152741286Y-104552905D01*
X152788905Y-104648143D01*
X152836524Y-104695762D01*
X152931762Y-104743381D01*
X153122239Y-104743381D01*
X153217477Y-104695762D01*
X153265096Y-104648143D01*
X153312715Y-104552905D01*
X153312715Y-104362429D01*
X153265096Y-104267190D01*
X153217477Y-104219571D01*
X153122239Y-104171952D01*
X142327334Y-104140143D02*
X142279715Y-104187762D01*
X142136858Y-104235381D01*
X142041620Y-104235381D01*
X141898762Y-104187762D01*
X141803524Y-104092524D01*
X141755905Y-103997286D01*
X141708286Y-103806810D01*
X141708286Y-103663952D01*
X141755905Y-103473476D01*
X141803524Y-103378238D01*
X141898762Y-103283000D01*
X142041620Y-103235381D01*
X142136858Y-103235381D01*
X142279715Y-103283000D01*
X142327334Y-103330619D01*
X142803524Y-104235381D02*
X142994000Y-104235381D01*
X143089239Y-104187762D01*
X143136858Y-104140143D01*
X143232096Y-103997286D01*
X143279715Y-103806810D01*
X143279715Y-103425857D01*
X143232096Y-103330619D01*
X143184477Y-103283000D01*
X143089239Y-103235381D01*
X142898762Y-103235381D01*
X142803524Y-103283000D01*
X142755905Y-103330619D01*
X142708286Y-103425857D01*
X142708286Y-103663952D01*
X142755905Y-103759190D01*
X142803524Y-103806810D01*
X142898762Y-103854429D01*
X143089239Y-103854429D01*
X143184477Y-103806810D01*
X143232096Y-103759190D01*
X143279715Y-103663952D01*
X144645143Y-104648143D02*
X144597524Y-104695762D01*
X144454667Y-104743381D01*
X144359429Y-104743381D01*
X144216571Y-104695762D01*
X144121333Y-104600524D01*
X144073714Y-104505286D01*
X144026095Y-104314810D01*
X144026095Y-104171952D01*
X144073714Y-103981476D01*
X144121333Y-103886238D01*
X144216571Y-103791000D01*
X144359429Y-103743381D01*
X144454667Y-103743381D01*
X144597524Y-103791000D01*
X144645143Y-103838619D01*
X145597524Y-104743381D02*
X145026095Y-104743381D01*
X145311809Y-104743381D02*
X145311809Y-103743381D01*
X145216571Y-103886238D01*
X145121333Y-103981476D01*
X145026095Y-104029095D01*
X146216571Y-103743381D02*
X146311810Y-103743381D01*
X146407048Y-103791000D01*
X146454667Y-103838619D01*
X146502286Y-103933857D01*
X146549905Y-104124333D01*
X146549905Y-104362429D01*
X146502286Y-104552905D01*
X146454667Y-104648143D01*
X146407048Y-104695762D01*
X146311810Y-104743381D01*
X146216571Y-104743381D01*
X146121333Y-104695762D01*
X146073714Y-104648143D01*
X146026095Y-104552905D01*
X145978476Y-104362429D01*
X145978476Y-104124333D01*
X146026095Y-103933857D01*
X146073714Y-103838619D01*
X146121333Y-103791000D01*
X146216571Y-103743381D01*
X141851143Y-95504143D02*
X141803524Y-95551762D01*
X141660667Y-95599381D01*
X141565429Y-95599381D01*
X141422571Y-95551762D01*
X141327333Y-95456524D01*
X141279714Y-95361286D01*
X141232095Y-95170810D01*
X141232095Y-95027952D01*
X141279714Y-94837476D01*
X141327333Y-94742238D01*
X141422571Y-94647000D01*
X141565429Y-94599381D01*
X141660667Y-94599381D01*
X141803524Y-94647000D01*
X141851143Y-94694619D01*
X142803524Y-95599381D02*
X142232095Y-95599381D01*
X142517809Y-95599381D02*
X142517809Y-94599381D01*
X142422571Y-94742238D01*
X142327333Y-94837476D01*
X142232095Y-94885095D01*
X143755905Y-95599381D02*
X143184476Y-95599381D01*
X143470190Y-95599381D02*
X143470190Y-94599381D01*
X143374952Y-94742238D01*
X143279714Y-94837476D01*
X143184476Y-94885095D01*
X144645143Y-96139143D02*
X144597524Y-96186762D01*
X144454667Y-96234381D01*
X144359429Y-96234381D01*
X144216571Y-96186762D01*
X144121333Y-96091524D01*
X144073714Y-95996286D01*
X144026095Y-95805810D01*
X144026095Y-95662952D01*
X144073714Y-95472476D01*
X144121333Y-95377238D01*
X144216571Y-95282000D01*
X144359429Y-95234381D01*
X144454667Y-95234381D01*
X144597524Y-95282000D01*
X144645143Y-95329619D01*
X145597524Y-96234381D02*
X145026095Y-96234381D01*
X145311809Y-96234381D02*
X145311809Y-95234381D01*
X145216571Y-95377238D01*
X145121333Y-95472476D01*
X145026095Y-95520095D01*
X145978476Y-95329619D02*
X146026095Y-95282000D01*
X146121333Y-95234381D01*
X146359429Y-95234381D01*
X146454667Y-95282000D01*
X146502286Y-95329619D01*
X146549905Y-95424857D01*
X146549905Y-95520095D01*
X146502286Y-95662952D01*
X145930857Y-96234381D01*
X146549905Y-96234381D01*
X87830067Y-107129781D02*
X87830067Y-107844067D01*
X87782447Y-107986924D01*
X87687209Y-108082162D01*
X87544352Y-108129781D01*
X87449114Y-108129781D01*
X88830067Y-108129781D02*
X88258638Y-108129781D01*
X88544352Y-108129781D02*
X88544352Y-107129781D01*
X88449114Y-107272638D01*
X88353876Y-107367876D01*
X88258638Y-107415495D01*
X95069067Y-107129781D02*
X95069067Y-107844067D01*
X95021447Y-107986924D01*
X94926209Y-108082162D01*
X94783352Y-108129781D01*
X94688114Y-108129781D01*
X95497638Y-107225019D02*
X95545257Y-107177400D01*
X95640495Y-107129781D01*
X95878591Y-107129781D01*
X95973829Y-107177400D01*
X96021448Y-107225019D01*
X96069067Y-107320257D01*
X96069067Y-107415495D01*
X96021448Y-107558352D01*
X95450019Y-108129781D01*
X96069067Y-108129781D01*
X102333467Y-107129781D02*
X102333467Y-107844067D01*
X102285847Y-107986924D01*
X102190609Y-108082162D01*
X102047752Y-108129781D01*
X101952514Y-108129781D01*
X102714419Y-107129781D02*
X103333467Y-107129781D01*
X103000133Y-107510733D01*
X103142991Y-107510733D01*
X103238229Y-107558352D01*
X103285848Y-107605971D01*
X103333467Y-107701210D01*
X103333467Y-107939305D01*
X103285848Y-108034543D01*
X103238229Y-108082162D01*
X103142991Y-108129781D01*
X102857276Y-108129781D01*
X102762038Y-108082162D01*
X102714419Y-108034543D01*
X109597867Y-107129781D02*
X109597867Y-107844067D01*
X109550247Y-107986924D01*
X109455009Y-108082162D01*
X109312152Y-108129781D01*
X109216914Y-108129781D01*
X110502629Y-107463114D02*
X110502629Y-108129781D01*
X110264533Y-107082162D02*
X110026438Y-107796448D01*
X110645486Y-107796448D01*
X113230067Y-107117081D02*
X113230067Y-107831367D01*
X113182447Y-107974224D01*
X113087209Y-108069462D01*
X112944352Y-108117081D01*
X112849114Y-108117081D01*
X114182448Y-107117081D02*
X113706257Y-107117081D01*
X113658638Y-107593271D01*
X113706257Y-107545652D01*
X113801495Y-107498033D01*
X114039591Y-107498033D01*
X114134829Y-107545652D01*
X114182448Y-107593271D01*
X114230067Y-107688510D01*
X114230067Y-107926605D01*
X114182448Y-108021843D01*
X114134829Y-108069462D01*
X114039591Y-108117081D01*
X113801495Y-108117081D01*
X113706257Y-108069462D01*
X113658638Y-108021843D01*
X105965667Y-107129781D02*
X105965667Y-107844067D01*
X105918047Y-107986924D01*
X105822809Y-108082162D01*
X105679952Y-108129781D01*
X105584714Y-108129781D01*
X106870429Y-107129781D02*
X106679952Y-107129781D01*
X106584714Y-107177400D01*
X106537095Y-107225019D01*
X106441857Y-107367876D01*
X106394238Y-107558352D01*
X106394238Y-107939305D01*
X106441857Y-108034543D01*
X106489476Y-108082162D01*
X106584714Y-108129781D01*
X106775191Y-108129781D01*
X106870429Y-108082162D01*
X106918048Y-108034543D01*
X106965667Y-107939305D01*
X106965667Y-107701210D01*
X106918048Y-107605971D01*
X106870429Y-107558352D01*
X106775191Y-107510733D01*
X106584714Y-107510733D01*
X106489476Y-107558352D01*
X106441857Y-107605971D01*
X106394238Y-107701210D01*
X98701267Y-107129781D02*
X98701267Y-107844067D01*
X98653647Y-107986924D01*
X98558409Y-108082162D01*
X98415552Y-108129781D01*
X98320314Y-108129781D01*
X99082219Y-107129781D02*
X99748886Y-107129781D01*
X99320314Y-108129781D01*
X91449567Y-107129781D02*
X91449567Y-107844067D01*
X91401947Y-107986924D01*
X91306709Y-108082162D01*
X91163852Y-108129781D01*
X91068614Y-108129781D01*
X92068614Y-107558352D02*
X91973376Y-107510733D01*
X91925757Y-107463114D01*
X91878138Y-107367876D01*
X91878138Y-107320257D01*
X91925757Y-107225019D01*
X91973376Y-107177400D01*
X92068614Y-107129781D01*
X92259091Y-107129781D01*
X92354329Y-107177400D01*
X92401948Y-107225019D01*
X92449567Y-107320257D01*
X92449567Y-107367876D01*
X92401948Y-107463114D01*
X92354329Y-107510733D01*
X92259091Y-107558352D01*
X92068614Y-107558352D01*
X91973376Y-107605971D01*
X91925757Y-107653590D01*
X91878138Y-107748829D01*
X91878138Y-107939305D01*
X91925757Y-108034543D01*
X91973376Y-108082162D01*
X92068614Y-108129781D01*
X92259091Y-108129781D01*
X92354329Y-108082162D01*
X92401948Y-108034543D01*
X92449567Y-107939305D01*
X92449567Y-107748829D01*
X92401948Y-107653590D01*
X92354329Y-107605971D01*
X92259091Y-107558352D01*
X98701267Y-91610381D02*
X98701267Y-92324667D01*
X98653647Y-92467524D01*
X98558409Y-92562762D01*
X98415552Y-92610381D01*
X98320314Y-92610381D01*
X99225076Y-92610381D02*
X99415552Y-92610381D01*
X99510791Y-92562762D01*
X99558410Y-92515143D01*
X99653648Y-92372286D01*
X99701267Y-92181810D01*
X99701267Y-91800857D01*
X99653648Y-91705619D01*
X99606029Y-91658000D01*
X99510791Y-91610381D01*
X99320314Y-91610381D01*
X99225076Y-91658000D01*
X99177457Y-91705619D01*
X99129838Y-91800857D01*
X99129838Y-92038952D01*
X99177457Y-92134190D01*
X99225076Y-92181810D01*
X99320314Y-92229429D01*
X99510791Y-92229429D01*
X99606029Y-92181810D01*
X99653648Y-92134190D01*
X99701267Y-92038952D01*
X94592877Y-91610381D02*
X94592877Y-92324667D01*
X94545257Y-92467524D01*
X94450019Y-92562762D01*
X94307162Y-92610381D01*
X94211924Y-92610381D01*
X95592877Y-92610381D02*
X95021448Y-92610381D01*
X95307162Y-92610381D02*
X95307162Y-91610381D01*
X95211924Y-91753238D01*
X95116686Y-91848476D01*
X95021448Y-91896095D01*
X96211924Y-91610381D02*
X96307163Y-91610381D01*
X96402401Y-91658000D01*
X96450020Y-91705619D01*
X96497639Y-91800857D01*
X96545258Y-91991333D01*
X96545258Y-92229429D01*
X96497639Y-92419905D01*
X96450020Y-92515143D01*
X96402401Y-92562762D01*
X96307163Y-92610381D01*
X96211924Y-92610381D01*
X96116686Y-92562762D01*
X96069067Y-92515143D01*
X96021448Y-92419905D01*
X95973829Y-92229429D01*
X95973829Y-91991333D01*
X96021448Y-91800857D01*
X96069067Y-91705619D01*
X96116686Y-91658000D01*
X96211924Y-91610381D01*
X90960677Y-91610381D02*
X90960677Y-92324667D01*
X90913057Y-92467524D01*
X90817819Y-92562762D01*
X90674962Y-92610381D01*
X90579724Y-92610381D01*
X91960677Y-92610381D02*
X91389248Y-92610381D01*
X91674962Y-92610381D02*
X91674962Y-91610381D01*
X91579724Y-91753238D01*
X91484486Y-91848476D01*
X91389248Y-91896095D01*
X92913058Y-92610381D02*
X92341629Y-92610381D01*
X92627343Y-92610381D02*
X92627343Y-91610381D01*
X92532105Y-91753238D01*
X92436867Y-91848476D01*
X92341629Y-91896095D01*
X87328477Y-91610381D02*
X87328477Y-92324667D01*
X87280857Y-92467524D01*
X87185619Y-92562762D01*
X87042762Y-92610381D01*
X86947524Y-92610381D01*
X88328477Y-92610381D02*
X87757048Y-92610381D01*
X88042762Y-92610381D02*
X88042762Y-91610381D01*
X87947524Y-91753238D01*
X87852286Y-91848476D01*
X87757048Y-91896095D01*
X88709429Y-91705619D02*
X88757048Y-91658000D01*
X88852286Y-91610381D01*
X89090382Y-91610381D01*
X89185620Y-91658000D01*
X89233239Y-91705619D01*
X89280858Y-91800857D01*
X89280858Y-91896095D01*
X89233239Y-92038952D01*
X88661810Y-92610381D01*
X89280858Y-92610381D01*
X101831877Y-91610381D02*
X101831877Y-92324667D01*
X101784257Y-92467524D01*
X101689019Y-92562762D01*
X101546162Y-92610381D01*
X101450924Y-92610381D01*
X102831877Y-92610381D02*
X102260448Y-92610381D01*
X102546162Y-92610381D02*
X102546162Y-91610381D01*
X102450924Y-91753238D01*
X102355686Y-91848476D01*
X102260448Y-91896095D01*
X103165210Y-91610381D02*
X103784258Y-91610381D01*
X103450924Y-91991333D01*
X103593782Y-91991333D01*
X103689020Y-92038952D01*
X103736639Y-92086571D01*
X103784258Y-92181810D01*
X103784258Y-92419905D01*
X103736639Y-92515143D01*
X103689020Y-92562762D01*
X103593782Y-92610381D01*
X103308067Y-92610381D01*
X103212829Y-92562762D01*
X103165210Y-92515143D01*
X105464077Y-91610381D02*
X105464077Y-92324667D01*
X105416457Y-92467524D01*
X105321219Y-92562762D01*
X105178362Y-92610381D01*
X105083124Y-92610381D01*
X106464077Y-92610381D02*
X105892648Y-92610381D01*
X106178362Y-92610381D02*
X106178362Y-91610381D01*
X106083124Y-91753238D01*
X105987886Y-91848476D01*
X105892648Y-91896095D01*
X107321220Y-91943714D02*
X107321220Y-92610381D01*
X107083124Y-91562762D02*
X106845029Y-92277048D01*
X107464077Y-92277048D01*
X109096277Y-91610381D02*
X109096277Y-92324667D01*
X109048657Y-92467524D01*
X108953419Y-92562762D01*
X108810562Y-92610381D01*
X108715324Y-92610381D01*
X110096277Y-92610381D02*
X109524848Y-92610381D01*
X109810562Y-92610381D02*
X109810562Y-91610381D01*
X109715324Y-91753238D01*
X109620086Y-91848476D01*
X109524848Y-91896095D01*
X111001039Y-91610381D02*
X110524848Y-91610381D01*
X110477229Y-92086571D01*
X110524848Y-92038952D01*
X110620086Y-91991333D01*
X110858182Y-91991333D01*
X110953420Y-92038952D01*
X111001039Y-92086571D01*
X111048658Y-92181810D01*
X111048658Y-92419905D01*
X111001039Y-92515143D01*
X110953420Y-92562762D01*
X110858182Y-92610381D01*
X110620086Y-92610381D01*
X110524848Y-92562762D01*
X110477229Y-92515143D01*
X112728477Y-91610381D02*
X112728477Y-92324667D01*
X112680857Y-92467524D01*
X112585619Y-92562762D01*
X112442762Y-92610381D01*
X112347524Y-92610381D01*
X113728477Y-92610381D02*
X113157048Y-92610381D01*
X113442762Y-92610381D02*
X113442762Y-91610381D01*
X113347524Y-91753238D01*
X113252286Y-91848476D01*
X113157048Y-91896095D01*
X114585620Y-91610381D02*
X114395143Y-91610381D01*
X114299905Y-91658000D01*
X114252286Y-91705619D01*
X114157048Y-91848476D01*
X114109429Y-92038952D01*
X114109429Y-92419905D01*
X114157048Y-92515143D01*
X114204667Y-92562762D01*
X114299905Y-92610381D01*
X114490382Y-92610381D01*
X114585620Y-92562762D01*
X114633239Y-92515143D01*
X114680858Y-92419905D01*
X114680858Y-92181810D01*
X114633239Y-92086571D01*
X114585620Y-92038952D01*
X114490382Y-91991333D01*
X114299905Y-91991333D01*
X114204667Y-92038952D01*
X114157048Y-92086571D01*
X114109429Y-92181810D01*
X186002381Y-105508095D02*
X185002381Y-105508095D01*
X185002381Y-105127142D01*
X185050000Y-105031904D01*
X185097619Y-104984285D01*
X185192857Y-104936666D01*
X185335714Y-104936666D01*
X185430952Y-104984285D01*
X185478571Y-105031904D01*
X185526190Y-105127142D01*
X185526190Y-105508095D01*
X186002381Y-103984285D02*
X186002381Y-104555714D01*
X186002381Y-104270000D02*
X185002381Y-104270000D01*
X185145238Y-104365238D01*
X185240476Y-104460476D01*
X185288095Y-104555714D01*
X169002381Y-102666666D02*
X168526190Y-103000000D01*
X169002381Y-103238095D02*
X168002381Y-103238095D01*
X168002381Y-102857142D01*
X168050000Y-102761904D01*
X168097619Y-102714285D01*
X168192857Y-102666666D01*
X168335714Y-102666666D01*
X168430952Y-102714285D01*
X168478571Y-102761904D01*
X168526190Y-102857142D01*
X168526190Y-103238095D01*
X169002381Y-101714285D02*
X169002381Y-102285714D01*
X169002381Y-102000000D02*
X168002381Y-102000000D01*
X168145238Y-102095238D01*
X168240476Y-102190476D01*
X168288095Y-102285714D01*
X162837834Y-113979881D02*
X162504500Y-113503690D01*
X162266405Y-113979881D02*
X162266405Y-112979881D01*
X162647358Y-112979881D01*
X162742596Y-113027500D01*
X162790215Y-113075119D01*
X162837834Y-113170357D01*
X162837834Y-113313214D01*
X162790215Y-113408452D01*
X162742596Y-113456071D01*
X162647358Y-113503690D01*
X162266405Y-113503690D01*
X163218786Y-113075119D02*
X163266405Y-113027500D01*
X163361643Y-112979881D01*
X163599739Y-112979881D01*
X163694977Y-113027500D01*
X163742596Y-113075119D01*
X163790215Y-113170357D01*
X163790215Y-113265595D01*
X163742596Y-113408452D01*
X163171167Y-113979881D01*
X163790215Y-113979881D01*
X146491881Y-110021666D02*
X146015690Y-110355000D01*
X146491881Y-110593095D02*
X145491881Y-110593095D01*
X145491881Y-110212142D01*
X145539500Y-110116904D01*
X145587119Y-110069285D01*
X145682357Y-110021666D01*
X145825214Y-110021666D01*
X145920452Y-110069285D01*
X145968071Y-110116904D01*
X146015690Y-110212142D01*
X146015690Y-110593095D01*
X145491881Y-109688333D02*
X145491881Y-109069285D01*
X145872833Y-109402619D01*
X145872833Y-109259761D01*
X145920452Y-109164523D01*
X145968071Y-109116904D01*
X146063310Y-109069285D01*
X146301405Y-109069285D01*
X146396643Y-109116904D01*
X146444262Y-109164523D01*
X146491881Y-109259761D01*
X146491881Y-109545476D01*
X146444262Y-109640714D01*
X146396643Y-109688333D01*
X148714381Y-109005666D02*
X148238190Y-109339000D01*
X148714381Y-109577095D02*
X147714381Y-109577095D01*
X147714381Y-109196142D01*
X147762000Y-109100904D01*
X147809619Y-109053285D01*
X147904857Y-109005666D01*
X148047714Y-109005666D01*
X148142952Y-109053285D01*
X148190571Y-109100904D01*
X148238190Y-109196142D01*
X148238190Y-109577095D01*
X148047714Y-108148523D02*
X148714381Y-108148523D01*
X147666762Y-108386619D02*
X148381048Y-108624714D01*
X148381048Y-108005666D01*
X149539881Y-112688666D02*
X149063690Y-113022000D01*
X149539881Y-113260095D02*
X148539881Y-113260095D01*
X148539881Y-112879142D01*
X148587500Y-112783904D01*
X148635119Y-112736285D01*
X148730357Y-112688666D01*
X148873214Y-112688666D01*
X148968452Y-112736285D01*
X149016071Y-112783904D01*
X149063690Y-112879142D01*
X149063690Y-113260095D01*
X148539881Y-111783904D02*
X148539881Y-112260095D01*
X149016071Y-112307714D01*
X148968452Y-112260095D01*
X148920833Y-112164857D01*
X148920833Y-111926761D01*
X148968452Y-111831523D01*
X149016071Y-111783904D01*
X149111310Y-111736285D01*
X149349405Y-111736285D01*
X149444643Y-111783904D01*
X149492262Y-111831523D01*
X149539881Y-111926761D01*
X149539881Y-112164857D01*
X149492262Y-112260095D01*
X149444643Y-112307714D01*
X151635381Y-112688666D02*
X151159190Y-113022000D01*
X151635381Y-113260095D02*
X150635381Y-113260095D01*
X150635381Y-112879142D01*
X150683000Y-112783904D01*
X150730619Y-112736285D01*
X150825857Y-112688666D01*
X150968714Y-112688666D01*
X151063952Y-112736285D01*
X151111571Y-112783904D01*
X151159190Y-112879142D01*
X151159190Y-113260095D01*
X150635381Y-111831523D02*
X150635381Y-112022000D01*
X150683000Y-112117238D01*
X150730619Y-112164857D01*
X150873476Y-112260095D01*
X151063952Y-112307714D01*
X151444905Y-112307714D01*
X151540143Y-112260095D01*
X151587762Y-112212476D01*
X151635381Y-112117238D01*
X151635381Y-111926761D01*
X151587762Y-111831523D01*
X151540143Y-111783904D01*
X151444905Y-111736285D01*
X151206810Y-111736285D01*
X151111571Y-111783904D01*
X151063952Y-111831523D01*
X151016333Y-111926761D01*
X151016333Y-112117238D01*
X151063952Y-112212476D01*
X151111571Y-112260095D01*
X151206810Y-112307714D01*
X127881981Y-108675466D02*
X127405790Y-109008800D01*
X127881981Y-109246895D02*
X126881981Y-109246895D01*
X126881981Y-108865942D01*
X126929600Y-108770704D01*
X126977219Y-108723085D01*
X127072457Y-108675466D01*
X127215314Y-108675466D01*
X127310552Y-108723085D01*
X127358171Y-108770704D01*
X127405790Y-108865942D01*
X127405790Y-109246895D01*
X126881981Y-108342133D02*
X126881981Y-107675466D01*
X127881981Y-108104038D01*
X148613834Y-109344381D02*
X148280500Y-108868190D01*
X148042405Y-109344381D02*
X148042405Y-108344381D01*
X148423358Y-108344381D01*
X148518596Y-108392000D01*
X148566215Y-108439619D01*
X148613834Y-108534857D01*
X148613834Y-108677714D01*
X148566215Y-108772952D01*
X148518596Y-108820571D01*
X148423358Y-108868190D01*
X148042405Y-108868190D01*
X149185262Y-108772952D02*
X149090024Y-108725333D01*
X149042405Y-108677714D01*
X148994786Y-108582476D01*
X148994786Y-108534857D01*
X149042405Y-108439619D01*
X149090024Y-108392000D01*
X149185262Y-108344381D01*
X149375739Y-108344381D01*
X149470977Y-108392000D01*
X149518596Y-108439619D01*
X149566215Y-108534857D01*
X149566215Y-108582476D01*
X149518596Y-108677714D01*
X149470977Y-108725333D01*
X149375739Y-108772952D01*
X149185262Y-108772952D01*
X149090024Y-108820571D01*
X149042405Y-108868190D01*
X148994786Y-108963429D01*
X148994786Y-109153905D01*
X149042405Y-109249143D01*
X149090024Y-109296762D01*
X149185262Y-109344381D01*
X149375739Y-109344381D01*
X149470977Y-109296762D01*
X149518596Y-109249143D01*
X149566215Y-109153905D01*
X149566215Y-108963429D01*
X149518596Y-108868190D01*
X149470977Y-108820571D01*
X149375739Y-108772952D01*
X148613834Y-110868381D02*
X148280500Y-110392190D01*
X148042405Y-110868381D02*
X148042405Y-109868381D01*
X148423358Y-109868381D01*
X148518596Y-109916000D01*
X148566215Y-109963619D01*
X148613834Y-110058857D01*
X148613834Y-110201714D01*
X148566215Y-110296952D01*
X148518596Y-110344571D01*
X148423358Y-110392190D01*
X148042405Y-110392190D01*
X149090024Y-110868381D02*
X149280500Y-110868381D01*
X149375739Y-110820762D01*
X149423358Y-110773143D01*
X149518596Y-110630286D01*
X149566215Y-110439810D01*
X149566215Y-110058857D01*
X149518596Y-109963619D01*
X149470977Y-109916000D01*
X149375739Y-109868381D01*
X149185262Y-109868381D01*
X149090024Y-109916000D01*
X149042405Y-109963619D01*
X148994786Y-110058857D01*
X148994786Y-110296952D01*
X149042405Y-110392190D01*
X149090024Y-110439810D01*
X149185262Y-110487429D01*
X149375739Y-110487429D01*
X149470977Y-110439810D01*
X149518596Y-110392190D01*
X149566215Y-110296952D01*
X126039643Y-107820381D02*
X125706309Y-107344190D01*
X125468214Y-107820381D02*
X125468214Y-106820381D01*
X125849167Y-106820381D01*
X125944405Y-106868000D01*
X125992024Y-106915619D01*
X126039643Y-107010857D01*
X126039643Y-107153714D01*
X125992024Y-107248952D01*
X125944405Y-107296571D01*
X125849167Y-107344190D01*
X125468214Y-107344190D01*
X126992024Y-107820381D02*
X126420595Y-107820381D01*
X126706309Y-107820381D02*
X126706309Y-106820381D01*
X126611071Y-106963238D01*
X126515833Y-107058476D01*
X126420595Y-107106095D01*
X127611071Y-106820381D02*
X127706310Y-106820381D01*
X127801548Y-106868000D01*
X127849167Y-106915619D01*
X127896786Y-107010857D01*
X127944405Y-107201333D01*
X127944405Y-107439429D01*
X127896786Y-107629905D01*
X127849167Y-107725143D01*
X127801548Y-107772762D01*
X127706310Y-107820381D01*
X127611071Y-107820381D01*
X127515833Y-107772762D01*
X127468214Y-107725143D01*
X127420595Y-107629905D01*
X127372976Y-107439429D01*
X127372976Y-107201333D01*
X127420595Y-107010857D01*
X127468214Y-106915619D01*
X127515833Y-106868000D01*
X127611071Y-106820381D01*
X123372643Y-107820381D02*
X123039309Y-107344190D01*
X122801214Y-107820381D02*
X122801214Y-106820381D01*
X123182167Y-106820381D01*
X123277405Y-106868000D01*
X123325024Y-106915619D01*
X123372643Y-107010857D01*
X123372643Y-107153714D01*
X123325024Y-107248952D01*
X123277405Y-107296571D01*
X123182167Y-107344190D01*
X122801214Y-107344190D01*
X124325024Y-107820381D02*
X123753595Y-107820381D01*
X124039309Y-107820381D02*
X124039309Y-106820381D01*
X123944071Y-106963238D01*
X123848833Y-107058476D01*
X123753595Y-107106095D01*
X125277405Y-107820381D02*
X124705976Y-107820381D01*
X124991690Y-107820381D02*
X124991690Y-106820381D01*
X124896452Y-106963238D01*
X124801214Y-107058476D01*
X124705976Y-107106095D01*
X126039643Y-111122381D02*
X125706309Y-110646190D01*
X125468214Y-111122381D02*
X125468214Y-110122381D01*
X125849167Y-110122381D01*
X125944405Y-110170000D01*
X125992024Y-110217619D01*
X126039643Y-110312857D01*
X126039643Y-110455714D01*
X125992024Y-110550952D01*
X125944405Y-110598571D01*
X125849167Y-110646190D01*
X125468214Y-110646190D01*
X126992024Y-111122381D02*
X126420595Y-111122381D01*
X126706309Y-111122381D02*
X126706309Y-110122381D01*
X126611071Y-110265238D01*
X126515833Y-110360476D01*
X126420595Y-110408095D01*
X127372976Y-110217619D02*
X127420595Y-110170000D01*
X127515833Y-110122381D01*
X127753929Y-110122381D01*
X127849167Y-110170000D01*
X127896786Y-110217619D01*
X127944405Y-110312857D01*
X127944405Y-110408095D01*
X127896786Y-110550952D01*
X127325357Y-111122381D01*
X127944405Y-111122381D01*
X123372643Y-111122381D02*
X123039309Y-110646190D01*
X122801214Y-111122381D02*
X122801214Y-110122381D01*
X123182167Y-110122381D01*
X123277405Y-110170000D01*
X123325024Y-110217619D01*
X123372643Y-110312857D01*
X123372643Y-110455714D01*
X123325024Y-110550952D01*
X123277405Y-110598571D01*
X123182167Y-110646190D01*
X122801214Y-110646190D01*
X124325024Y-111122381D02*
X123753595Y-111122381D01*
X124039309Y-111122381D02*
X124039309Y-110122381D01*
X123944071Y-110265238D01*
X123848833Y-110360476D01*
X123753595Y-110408095D01*
X124658357Y-110122381D02*
X125277405Y-110122381D01*
X124944071Y-110503333D01*
X125086929Y-110503333D01*
X125182167Y-110550952D01*
X125229786Y-110598571D01*
X125277405Y-110693810D01*
X125277405Y-110931905D01*
X125229786Y-111027143D01*
X125182167Y-111074762D01*
X125086929Y-111122381D01*
X124801214Y-111122381D01*
X124705976Y-111074762D01*
X124658357Y-111027143D01*
X126039643Y-109471381D02*
X125706309Y-108995190D01*
X125468214Y-109471381D02*
X125468214Y-108471381D01*
X125849167Y-108471381D01*
X125944405Y-108519000D01*
X125992024Y-108566619D01*
X126039643Y-108661857D01*
X126039643Y-108804714D01*
X125992024Y-108899952D01*
X125944405Y-108947571D01*
X125849167Y-108995190D01*
X125468214Y-108995190D01*
X126992024Y-109471381D02*
X126420595Y-109471381D01*
X126706309Y-109471381D02*
X126706309Y-108471381D01*
X126611071Y-108614238D01*
X126515833Y-108709476D01*
X126420595Y-108757095D01*
X127849167Y-108804714D02*
X127849167Y-109471381D01*
X127611071Y-108423762D02*
X127372976Y-109138048D01*
X127992024Y-109138048D01*
X123372643Y-109471381D02*
X123039309Y-108995190D01*
X122801214Y-109471381D02*
X122801214Y-108471381D01*
X123182167Y-108471381D01*
X123277405Y-108519000D01*
X123325024Y-108566619D01*
X123372643Y-108661857D01*
X123372643Y-108804714D01*
X123325024Y-108899952D01*
X123277405Y-108947571D01*
X123182167Y-108995190D01*
X122801214Y-108995190D01*
X124325024Y-109471381D02*
X123753595Y-109471381D01*
X124039309Y-109471381D02*
X124039309Y-108471381D01*
X123944071Y-108614238D01*
X123848833Y-108709476D01*
X123753595Y-108757095D01*
X125229786Y-108471381D02*
X124753595Y-108471381D01*
X124705976Y-108947571D01*
X124753595Y-108899952D01*
X124848833Y-108852333D01*
X125086929Y-108852333D01*
X125182167Y-108899952D01*
X125229786Y-108947571D01*
X125277405Y-109042810D01*
X125277405Y-109280905D01*
X125229786Y-109376143D01*
X125182167Y-109423762D01*
X125086929Y-109471381D01*
X124848833Y-109471381D01*
X124753595Y-109423762D01*
X124705976Y-109376143D01*
X87520543Y-113835781D02*
X87187209Y-113359590D01*
X86949114Y-113835781D02*
X86949114Y-112835781D01*
X87330067Y-112835781D01*
X87425305Y-112883400D01*
X87472924Y-112931019D01*
X87520543Y-113026257D01*
X87520543Y-113169114D01*
X87472924Y-113264352D01*
X87425305Y-113311971D01*
X87330067Y-113359590D01*
X86949114Y-113359590D01*
X88472924Y-113835781D02*
X87901495Y-113835781D01*
X88187209Y-113835781D02*
X88187209Y-112835781D01*
X88091971Y-112978638D01*
X87996733Y-113073876D01*
X87901495Y-113121495D01*
X89330067Y-112835781D02*
X89139590Y-112835781D01*
X89044352Y-112883400D01*
X88996733Y-112931019D01*
X88901495Y-113073876D01*
X88853876Y-113264352D01*
X88853876Y-113645305D01*
X88901495Y-113740543D01*
X88949114Y-113788162D01*
X89044352Y-113835781D01*
X89234829Y-113835781D01*
X89330067Y-113788162D01*
X89377686Y-113740543D01*
X89425305Y-113645305D01*
X89425305Y-113407210D01*
X89377686Y-113311971D01*
X89330067Y-113264352D01*
X89234829Y-113216733D01*
X89044352Y-113216733D01*
X88949114Y-113264352D01*
X88901495Y-113311971D01*
X88853876Y-113407210D01*
X94759543Y-113835781D02*
X94426209Y-113359590D01*
X94188114Y-113835781D02*
X94188114Y-112835781D01*
X94569067Y-112835781D01*
X94664305Y-112883400D01*
X94711924Y-112931019D01*
X94759543Y-113026257D01*
X94759543Y-113169114D01*
X94711924Y-113264352D01*
X94664305Y-113311971D01*
X94569067Y-113359590D01*
X94188114Y-113359590D01*
X95711924Y-113835781D02*
X95140495Y-113835781D01*
X95426209Y-113835781D02*
X95426209Y-112835781D01*
X95330971Y-112978638D01*
X95235733Y-113073876D01*
X95140495Y-113121495D01*
X96045257Y-112835781D02*
X96711924Y-112835781D01*
X96283352Y-113835781D01*
X102023943Y-113835781D02*
X101690609Y-113359590D01*
X101452514Y-113835781D02*
X101452514Y-112835781D01*
X101833467Y-112835781D01*
X101928705Y-112883400D01*
X101976324Y-112931019D01*
X102023943Y-113026257D01*
X102023943Y-113169114D01*
X101976324Y-113264352D01*
X101928705Y-113311971D01*
X101833467Y-113359590D01*
X101452514Y-113359590D01*
X102976324Y-113835781D02*
X102404895Y-113835781D01*
X102690609Y-113835781D02*
X102690609Y-112835781D01*
X102595371Y-112978638D01*
X102500133Y-113073876D01*
X102404895Y-113121495D01*
X103547752Y-113264352D02*
X103452514Y-113216733D01*
X103404895Y-113169114D01*
X103357276Y-113073876D01*
X103357276Y-113026257D01*
X103404895Y-112931019D01*
X103452514Y-112883400D01*
X103547752Y-112835781D01*
X103738229Y-112835781D01*
X103833467Y-112883400D01*
X103881086Y-112931019D01*
X103928705Y-113026257D01*
X103928705Y-113073876D01*
X103881086Y-113169114D01*
X103833467Y-113216733D01*
X103738229Y-113264352D01*
X103547752Y-113264352D01*
X103452514Y-113311971D01*
X103404895Y-113359590D01*
X103357276Y-113454829D01*
X103357276Y-113645305D01*
X103404895Y-113740543D01*
X103452514Y-113788162D01*
X103547752Y-113835781D01*
X103738229Y-113835781D01*
X103833467Y-113788162D01*
X103881086Y-113740543D01*
X103928705Y-113645305D01*
X103928705Y-113454829D01*
X103881086Y-113359590D01*
X103833467Y-113311971D01*
X103738229Y-113264352D01*
X109288343Y-113835781D02*
X108955009Y-113359590D01*
X108716914Y-113835781D02*
X108716914Y-112835781D01*
X109097867Y-112835781D01*
X109193105Y-112883400D01*
X109240724Y-112931019D01*
X109288343Y-113026257D01*
X109288343Y-113169114D01*
X109240724Y-113264352D01*
X109193105Y-113311971D01*
X109097867Y-113359590D01*
X108716914Y-113359590D01*
X110240724Y-113835781D02*
X109669295Y-113835781D01*
X109955009Y-113835781D02*
X109955009Y-112835781D01*
X109859771Y-112978638D01*
X109764533Y-113073876D01*
X109669295Y-113121495D01*
X110716914Y-113835781D02*
X110907390Y-113835781D01*
X111002629Y-113788162D01*
X111050248Y-113740543D01*
X111145486Y-113597686D01*
X111193105Y-113407210D01*
X111193105Y-113026257D01*
X111145486Y-112931019D01*
X111097867Y-112883400D01*
X111002629Y-112835781D01*
X110812152Y-112835781D01*
X110716914Y-112883400D01*
X110669295Y-112931019D01*
X110621676Y-113026257D01*
X110621676Y-113264352D01*
X110669295Y-113359590D01*
X110716914Y-113407210D01*
X110812152Y-113454829D01*
X111002629Y-113454829D01*
X111097867Y-113407210D01*
X111145486Y-113359590D01*
X111193105Y-113264352D01*
X112920543Y-113823081D02*
X112587209Y-113346890D01*
X112349114Y-113823081D02*
X112349114Y-112823081D01*
X112730067Y-112823081D01*
X112825305Y-112870700D01*
X112872924Y-112918319D01*
X112920543Y-113013557D01*
X112920543Y-113156414D01*
X112872924Y-113251652D01*
X112825305Y-113299271D01*
X112730067Y-113346890D01*
X112349114Y-113346890D01*
X113301495Y-112918319D02*
X113349114Y-112870700D01*
X113444352Y-112823081D01*
X113682448Y-112823081D01*
X113777686Y-112870700D01*
X113825305Y-112918319D01*
X113872924Y-113013557D01*
X113872924Y-113108795D01*
X113825305Y-113251652D01*
X113253876Y-113823081D01*
X113872924Y-113823081D01*
X114491971Y-112823081D02*
X114587210Y-112823081D01*
X114682448Y-112870700D01*
X114730067Y-112918319D01*
X114777686Y-113013557D01*
X114825305Y-113204033D01*
X114825305Y-113442129D01*
X114777686Y-113632605D01*
X114730067Y-113727843D01*
X114682448Y-113775462D01*
X114587210Y-113823081D01*
X114491971Y-113823081D01*
X114396733Y-113775462D01*
X114349114Y-113727843D01*
X114301495Y-113632605D01*
X114253876Y-113442129D01*
X114253876Y-113204033D01*
X114301495Y-113013557D01*
X114349114Y-112918319D01*
X114396733Y-112870700D01*
X114491971Y-112823081D01*
X105656143Y-113835781D02*
X105322809Y-113359590D01*
X105084714Y-113835781D02*
X105084714Y-112835781D01*
X105465667Y-112835781D01*
X105560905Y-112883400D01*
X105608524Y-112931019D01*
X105656143Y-113026257D01*
X105656143Y-113169114D01*
X105608524Y-113264352D01*
X105560905Y-113311971D01*
X105465667Y-113359590D01*
X105084714Y-113359590D01*
X106037095Y-112931019D02*
X106084714Y-112883400D01*
X106179952Y-112835781D01*
X106418048Y-112835781D01*
X106513286Y-112883400D01*
X106560905Y-112931019D01*
X106608524Y-113026257D01*
X106608524Y-113121495D01*
X106560905Y-113264352D01*
X105989476Y-113835781D01*
X106608524Y-113835781D01*
X107560905Y-113835781D02*
X106989476Y-113835781D01*
X107275190Y-113835781D02*
X107275190Y-112835781D01*
X107179952Y-112978638D01*
X107084714Y-113073876D01*
X106989476Y-113121495D01*
X98391743Y-113835781D02*
X98058409Y-113359590D01*
X97820314Y-113835781D02*
X97820314Y-112835781D01*
X98201267Y-112835781D01*
X98296505Y-112883400D01*
X98344124Y-112931019D01*
X98391743Y-113026257D01*
X98391743Y-113169114D01*
X98344124Y-113264352D01*
X98296505Y-113311971D01*
X98201267Y-113359590D01*
X97820314Y-113359590D01*
X98772695Y-112931019D02*
X98820314Y-112883400D01*
X98915552Y-112835781D01*
X99153648Y-112835781D01*
X99248886Y-112883400D01*
X99296505Y-112931019D01*
X99344124Y-113026257D01*
X99344124Y-113121495D01*
X99296505Y-113264352D01*
X98725076Y-113835781D01*
X99344124Y-113835781D01*
X99725076Y-112931019D02*
X99772695Y-112883400D01*
X99867933Y-112835781D01*
X100106029Y-112835781D01*
X100201267Y-112883400D01*
X100248886Y-112931019D01*
X100296505Y-113026257D01*
X100296505Y-113121495D01*
X100248886Y-113264352D01*
X99677457Y-113835781D01*
X100296505Y-113835781D01*
X91140043Y-113835781D02*
X90806709Y-113359590D01*
X90568614Y-113835781D02*
X90568614Y-112835781D01*
X90949567Y-112835781D01*
X91044805Y-112883400D01*
X91092424Y-112931019D01*
X91140043Y-113026257D01*
X91140043Y-113169114D01*
X91092424Y-113264352D01*
X91044805Y-113311971D01*
X90949567Y-113359590D01*
X90568614Y-113359590D01*
X91520995Y-112931019D02*
X91568614Y-112883400D01*
X91663852Y-112835781D01*
X91901948Y-112835781D01*
X91997186Y-112883400D01*
X92044805Y-112931019D01*
X92092424Y-113026257D01*
X92092424Y-113121495D01*
X92044805Y-113264352D01*
X91473376Y-113835781D01*
X92092424Y-113835781D01*
X92425757Y-112835781D02*
X93044805Y-112835781D01*
X92711471Y-113216733D01*
X92854329Y-113216733D01*
X92949567Y-113264352D01*
X92997186Y-113311971D01*
X93044805Y-113407210D01*
X93044805Y-113645305D01*
X92997186Y-113740543D01*
X92949567Y-113788162D01*
X92854329Y-113835781D01*
X92568614Y-113835781D01*
X92473376Y-113788162D01*
X92425757Y-113740543D01*
X87520543Y-115105781D02*
X87187209Y-114629590D01*
X86949114Y-115105781D02*
X86949114Y-114105781D01*
X87330067Y-114105781D01*
X87425305Y-114153400D01*
X87472924Y-114201019D01*
X87520543Y-114296257D01*
X87520543Y-114439114D01*
X87472924Y-114534352D01*
X87425305Y-114581971D01*
X87330067Y-114629590D01*
X86949114Y-114629590D01*
X87901495Y-114201019D02*
X87949114Y-114153400D01*
X88044352Y-114105781D01*
X88282448Y-114105781D01*
X88377686Y-114153400D01*
X88425305Y-114201019D01*
X88472924Y-114296257D01*
X88472924Y-114391495D01*
X88425305Y-114534352D01*
X87853876Y-115105781D01*
X88472924Y-115105781D01*
X89330067Y-114439114D02*
X89330067Y-115105781D01*
X89091971Y-114058162D02*
X88853876Y-114772448D01*
X89472924Y-114772448D01*
X94759543Y-115105781D02*
X94426209Y-114629590D01*
X94188114Y-115105781D02*
X94188114Y-114105781D01*
X94569067Y-114105781D01*
X94664305Y-114153400D01*
X94711924Y-114201019D01*
X94759543Y-114296257D01*
X94759543Y-114439114D01*
X94711924Y-114534352D01*
X94664305Y-114581971D01*
X94569067Y-114629590D01*
X94188114Y-114629590D01*
X95140495Y-114201019D02*
X95188114Y-114153400D01*
X95283352Y-114105781D01*
X95521448Y-114105781D01*
X95616686Y-114153400D01*
X95664305Y-114201019D01*
X95711924Y-114296257D01*
X95711924Y-114391495D01*
X95664305Y-114534352D01*
X95092876Y-115105781D01*
X95711924Y-115105781D01*
X96616686Y-114105781D02*
X96140495Y-114105781D01*
X96092876Y-114581971D01*
X96140495Y-114534352D01*
X96235733Y-114486733D01*
X96473829Y-114486733D01*
X96569067Y-114534352D01*
X96616686Y-114581971D01*
X96664305Y-114677210D01*
X96664305Y-114915305D01*
X96616686Y-115010543D01*
X96569067Y-115058162D01*
X96473829Y-115105781D01*
X96235733Y-115105781D01*
X96140495Y-115058162D01*
X96092876Y-115010543D01*
X102023943Y-115105781D02*
X101690609Y-114629590D01*
X101452514Y-115105781D02*
X101452514Y-114105781D01*
X101833467Y-114105781D01*
X101928705Y-114153400D01*
X101976324Y-114201019D01*
X102023943Y-114296257D01*
X102023943Y-114439114D01*
X101976324Y-114534352D01*
X101928705Y-114581971D01*
X101833467Y-114629590D01*
X101452514Y-114629590D01*
X102404895Y-114201019D02*
X102452514Y-114153400D01*
X102547752Y-114105781D01*
X102785848Y-114105781D01*
X102881086Y-114153400D01*
X102928705Y-114201019D01*
X102976324Y-114296257D01*
X102976324Y-114391495D01*
X102928705Y-114534352D01*
X102357276Y-115105781D01*
X102976324Y-115105781D01*
X103833467Y-114105781D02*
X103642990Y-114105781D01*
X103547752Y-114153400D01*
X103500133Y-114201019D01*
X103404895Y-114343876D01*
X103357276Y-114534352D01*
X103357276Y-114915305D01*
X103404895Y-115010543D01*
X103452514Y-115058162D01*
X103547752Y-115105781D01*
X103738229Y-115105781D01*
X103833467Y-115058162D01*
X103881086Y-115010543D01*
X103928705Y-114915305D01*
X103928705Y-114677210D01*
X103881086Y-114581971D01*
X103833467Y-114534352D01*
X103738229Y-114486733D01*
X103547752Y-114486733D01*
X103452514Y-114534352D01*
X103404895Y-114581971D01*
X103357276Y-114677210D01*
X109288343Y-115105781D02*
X108955009Y-114629590D01*
X108716914Y-115105781D02*
X108716914Y-114105781D01*
X109097867Y-114105781D01*
X109193105Y-114153400D01*
X109240724Y-114201019D01*
X109288343Y-114296257D01*
X109288343Y-114439114D01*
X109240724Y-114534352D01*
X109193105Y-114581971D01*
X109097867Y-114629590D01*
X108716914Y-114629590D01*
X109669295Y-114201019D02*
X109716914Y-114153400D01*
X109812152Y-114105781D01*
X110050248Y-114105781D01*
X110145486Y-114153400D01*
X110193105Y-114201019D01*
X110240724Y-114296257D01*
X110240724Y-114391495D01*
X110193105Y-114534352D01*
X109621676Y-115105781D01*
X110240724Y-115105781D01*
X110574057Y-114105781D02*
X111240724Y-114105781D01*
X110812152Y-115105781D01*
X112920543Y-115093081D02*
X112587209Y-114616890D01*
X112349114Y-115093081D02*
X112349114Y-114093081D01*
X112730067Y-114093081D01*
X112825305Y-114140700D01*
X112872924Y-114188319D01*
X112920543Y-114283557D01*
X112920543Y-114426414D01*
X112872924Y-114521652D01*
X112825305Y-114569271D01*
X112730067Y-114616890D01*
X112349114Y-114616890D01*
X113301495Y-114188319D02*
X113349114Y-114140700D01*
X113444352Y-114093081D01*
X113682448Y-114093081D01*
X113777686Y-114140700D01*
X113825305Y-114188319D01*
X113872924Y-114283557D01*
X113872924Y-114378795D01*
X113825305Y-114521652D01*
X113253876Y-115093081D01*
X113872924Y-115093081D01*
X114444352Y-114521652D02*
X114349114Y-114474033D01*
X114301495Y-114426414D01*
X114253876Y-114331176D01*
X114253876Y-114283557D01*
X114301495Y-114188319D01*
X114349114Y-114140700D01*
X114444352Y-114093081D01*
X114634829Y-114093081D01*
X114730067Y-114140700D01*
X114777686Y-114188319D01*
X114825305Y-114283557D01*
X114825305Y-114331176D01*
X114777686Y-114426414D01*
X114730067Y-114474033D01*
X114634829Y-114521652D01*
X114444352Y-114521652D01*
X114349114Y-114569271D01*
X114301495Y-114616890D01*
X114253876Y-114712129D01*
X114253876Y-114902605D01*
X114301495Y-114997843D01*
X114349114Y-115045462D01*
X114444352Y-115093081D01*
X114634829Y-115093081D01*
X114730067Y-115045462D01*
X114777686Y-114997843D01*
X114825305Y-114902605D01*
X114825305Y-114712129D01*
X114777686Y-114616890D01*
X114730067Y-114569271D01*
X114634829Y-114521652D01*
X105656143Y-115105781D02*
X105322809Y-114629590D01*
X105084714Y-115105781D02*
X105084714Y-114105781D01*
X105465667Y-114105781D01*
X105560905Y-114153400D01*
X105608524Y-114201019D01*
X105656143Y-114296257D01*
X105656143Y-114439114D01*
X105608524Y-114534352D01*
X105560905Y-114581971D01*
X105465667Y-114629590D01*
X105084714Y-114629590D01*
X106037095Y-114201019D02*
X106084714Y-114153400D01*
X106179952Y-114105781D01*
X106418048Y-114105781D01*
X106513286Y-114153400D01*
X106560905Y-114201019D01*
X106608524Y-114296257D01*
X106608524Y-114391495D01*
X106560905Y-114534352D01*
X105989476Y-115105781D01*
X106608524Y-115105781D01*
X107084714Y-115105781D02*
X107275190Y-115105781D01*
X107370429Y-115058162D01*
X107418048Y-115010543D01*
X107513286Y-114867686D01*
X107560905Y-114677210D01*
X107560905Y-114296257D01*
X107513286Y-114201019D01*
X107465667Y-114153400D01*
X107370429Y-114105781D01*
X107179952Y-114105781D01*
X107084714Y-114153400D01*
X107037095Y-114201019D01*
X106989476Y-114296257D01*
X106989476Y-114534352D01*
X107037095Y-114629590D01*
X107084714Y-114677210D01*
X107179952Y-114724829D01*
X107370429Y-114724829D01*
X107465667Y-114677210D01*
X107513286Y-114629590D01*
X107560905Y-114534352D01*
X98391743Y-115105781D02*
X98058409Y-114629590D01*
X97820314Y-115105781D02*
X97820314Y-114105781D01*
X98201267Y-114105781D01*
X98296505Y-114153400D01*
X98344124Y-114201019D01*
X98391743Y-114296257D01*
X98391743Y-114439114D01*
X98344124Y-114534352D01*
X98296505Y-114581971D01*
X98201267Y-114629590D01*
X97820314Y-114629590D01*
X98725076Y-114105781D02*
X99344124Y-114105781D01*
X99010790Y-114486733D01*
X99153648Y-114486733D01*
X99248886Y-114534352D01*
X99296505Y-114581971D01*
X99344124Y-114677210D01*
X99344124Y-114915305D01*
X99296505Y-115010543D01*
X99248886Y-115058162D01*
X99153648Y-115105781D01*
X98867933Y-115105781D01*
X98772695Y-115058162D01*
X98725076Y-115010543D01*
X99963171Y-114105781D02*
X100058410Y-114105781D01*
X100153648Y-114153400D01*
X100201267Y-114201019D01*
X100248886Y-114296257D01*
X100296505Y-114486733D01*
X100296505Y-114724829D01*
X100248886Y-114915305D01*
X100201267Y-115010543D01*
X100153648Y-115058162D01*
X100058410Y-115105781D01*
X99963171Y-115105781D01*
X99867933Y-115058162D01*
X99820314Y-115010543D01*
X99772695Y-114915305D01*
X99725076Y-114724829D01*
X99725076Y-114486733D01*
X99772695Y-114296257D01*
X99820314Y-114201019D01*
X99867933Y-114153400D01*
X99963171Y-114105781D01*
X91140043Y-115105781D02*
X90806709Y-114629590D01*
X90568614Y-115105781D02*
X90568614Y-114105781D01*
X90949567Y-114105781D01*
X91044805Y-114153400D01*
X91092424Y-114201019D01*
X91140043Y-114296257D01*
X91140043Y-114439114D01*
X91092424Y-114534352D01*
X91044805Y-114581971D01*
X90949567Y-114629590D01*
X90568614Y-114629590D01*
X91473376Y-114105781D02*
X92092424Y-114105781D01*
X91759090Y-114486733D01*
X91901948Y-114486733D01*
X91997186Y-114534352D01*
X92044805Y-114581971D01*
X92092424Y-114677210D01*
X92092424Y-114915305D01*
X92044805Y-115010543D01*
X91997186Y-115058162D01*
X91901948Y-115105781D01*
X91616233Y-115105781D01*
X91520995Y-115058162D01*
X91473376Y-115010543D01*
X93044805Y-115105781D02*
X92473376Y-115105781D01*
X92759090Y-115105781D02*
X92759090Y-114105781D01*
X92663852Y-114248638D01*
X92568614Y-114343876D01*
X92473376Y-114391495D01*
X128643981Y-99194857D02*
X128167790Y-99528191D01*
X128643981Y-99766286D02*
X127643981Y-99766286D01*
X127643981Y-99385333D01*
X127691600Y-99290095D01*
X127739219Y-99242476D01*
X127834457Y-99194857D01*
X127977314Y-99194857D01*
X128072552Y-99242476D01*
X128120171Y-99290095D01*
X128167790Y-99385333D01*
X128167790Y-99766286D01*
X127643981Y-98861524D02*
X127643981Y-98242476D01*
X128024933Y-98575810D01*
X128024933Y-98432952D01*
X128072552Y-98337714D01*
X128120171Y-98290095D01*
X128215410Y-98242476D01*
X128453505Y-98242476D01*
X128548743Y-98290095D01*
X128596362Y-98337714D01*
X128643981Y-98432952D01*
X128643981Y-98718667D01*
X128596362Y-98813905D01*
X128548743Y-98861524D01*
X127739219Y-97861524D02*
X127691600Y-97813905D01*
X127643981Y-97718667D01*
X127643981Y-97480571D01*
X127691600Y-97385333D01*
X127739219Y-97337714D01*
X127834457Y-97290095D01*
X127929695Y-97290095D01*
X128072552Y-97337714D01*
X128643981Y-97909143D01*
X128643981Y-97290095D01*
X147507881Y-113164857D02*
X147031690Y-113498191D01*
X147507881Y-113736286D02*
X146507881Y-113736286D01*
X146507881Y-113355333D01*
X146555500Y-113260095D01*
X146603119Y-113212476D01*
X146698357Y-113164857D01*
X146841214Y-113164857D01*
X146936452Y-113212476D01*
X146984071Y-113260095D01*
X147031690Y-113355333D01*
X147031690Y-113736286D01*
X146507881Y-112831524D02*
X146507881Y-112212476D01*
X146888833Y-112545810D01*
X146888833Y-112402952D01*
X146936452Y-112307714D01*
X146984071Y-112260095D01*
X147079310Y-112212476D01*
X147317405Y-112212476D01*
X147412643Y-112260095D01*
X147460262Y-112307714D01*
X147507881Y-112402952D01*
X147507881Y-112688667D01*
X147460262Y-112783905D01*
X147412643Y-112831524D01*
X146507881Y-111879143D02*
X146507881Y-111260095D01*
X146888833Y-111593429D01*
X146888833Y-111450571D01*
X146936452Y-111355333D01*
X146984071Y-111307714D01*
X147079310Y-111260095D01*
X147317405Y-111260095D01*
X147412643Y-111307714D01*
X147460262Y-111355333D01*
X147507881Y-111450571D01*
X147507881Y-111736286D01*
X147460262Y-111831524D01*
X147412643Y-111879143D01*
X145539381Y-113164857D02*
X145063190Y-113498191D01*
X145539381Y-113736286D02*
X144539381Y-113736286D01*
X144539381Y-113355333D01*
X144587000Y-113260095D01*
X144634619Y-113212476D01*
X144729857Y-113164857D01*
X144872714Y-113164857D01*
X144967952Y-113212476D01*
X145015571Y-113260095D01*
X145063190Y-113355333D01*
X145063190Y-113736286D01*
X144539381Y-112831524D02*
X144539381Y-112212476D01*
X144920333Y-112545810D01*
X144920333Y-112402952D01*
X144967952Y-112307714D01*
X145015571Y-112260095D01*
X145110810Y-112212476D01*
X145348905Y-112212476D01*
X145444143Y-112260095D01*
X145491762Y-112307714D01*
X145539381Y-112402952D01*
X145539381Y-112688667D01*
X145491762Y-112783905D01*
X145444143Y-112831524D01*
X144872714Y-111355333D02*
X145539381Y-111355333D01*
X144491762Y-111593429D02*
X145206048Y-111831524D01*
X145206048Y-111212476D01*
X126103143Y-98930381D02*
X125769809Y-98454190D01*
X125531714Y-98930381D02*
X125531714Y-97930381D01*
X125912667Y-97930381D01*
X126007905Y-97978000D01*
X126055524Y-98025619D01*
X126103143Y-98120857D01*
X126103143Y-98263714D01*
X126055524Y-98358952D01*
X126007905Y-98406571D01*
X125912667Y-98454190D01*
X125531714Y-98454190D01*
X126436476Y-97930381D02*
X127055524Y-97930381D01*
X126722190Y-98311333D01*
X126865048Y-98311333D01*
X126960286Y-98358952D01*
X127007905Y-98406571D01*
X127055524Y-98501810D01*
X127055524Y-98739905D01*
X127007905Y-98835143D01*
X126960286Y-98882762D01*
X126865048Y-98930381D01*
X126579333Y-98930381D01*
X126484095Y-98882762D01*
X126436476Y-98835143D01*
X127960286Y-97930381D02*
X127484095Y-97930381D01*
X127436476Y-98406571D01*
X127484095Y-98358952D01*
X127579333Y-98311333D01*
X127817429Y-98311333D01*
X127912667Y-98358952D01*
X127960286Y-98406571D01*
X128007905Y-98501810D01*
X128007905Y-98739905D01*
X127960286Y-98835143D01*
X127912667Y-98882762D01*
X127817429Y-98930381D01*
X127579333Y-98930381D01*
X127484095Y-98882762D01*
X127436476Y-98835143D01*
X123436143Y-98930381D02*
X123102809Y-98454190D01*
X122864714Y-98930381D02*
X122864714Y-97930381D01*
X123245667Y-97930381D01*
X123340905Y-97978000D01*
X123388524Y-98025619D01*
X123436143Y-98120857D01*
X123436143Y-98263714D01*
X123388524Y-98358952D01*
X123340905Y-98406571D01*
X123245667Y-98454190D01*
X122864714Y-98454190D01*
X123769476Y-97930381D02*
X124388524Y-97930381D01*
X124055190Y-98311333D01*
X124198048Y-98311333D01*
X124293286Y-98358952D01*
X124340905Y-98406571D01*
X124388524Y-98501810D01*
X124388524Y-98739905D01*
X124340905Y-98835143D01*
X124293286Y-98882762D01*
X124198048Y-98930381D01*
X123912333Y-98930381D01*
X123817095Y-98882762D01*
X123769476Y-98835143D01*
X125245667Y-97930381D02*
X125055190Y-97930381D01*
X124959952Y-97978000D01*
X124912333Y-98025619D01*
X124817095Y-98168476D01*
X124769476Y-98358952D01*
X124769476Y-98739905D01*
X124817095Y-98835143D01*
X124864714Y-98882762D01*
X124959952Y-98930381D01*
X125150429Y-98930381D01*
X125245667Y-98882762D01*
X125293286Y-98835143D01*
X125340905Y-98739905D01*
X125340905Y-98501810D01*
X125293286Y-98406571D01*
X125245667Y-98358952D01*
X125150429Y-98311333D01*
X124959952Y-98311333D01*
X124864714Y-98358952D01*
X124817095Y-98406571D01*
X124769476Y-98501810D01*
X126103143Y-102232381D02*
X125769809Y-101756190D01*
X125531714Y-102232381D02*
X125531714Y-101232381D01*
X125912667Y-101232381D01*
X126007905Y-101280000D01*
X126055524Y-101327619D01*
X126103143Y-101422857D01*
X126103143Y-101565714D01*
X126055524Y-101660952D01*
X126007905Y-101708571D01*
X125912667Y-101756190D01*
X125531714Y-101756190D01*
X126436476Y-101232381D02*
X127055524Y-101232381D01*
X126722190Y-101613333D01*
X126865048Y-101613333D01*
X126960286Y-101660952D01*
X127007905Y-101708571D01*
X127055524Y-101803810D01*
X127055524Y-102041905D01*
X127007905Y-102137143D01*
X126960286Y-102184762D01*
X126865048Y-102232381D01*
X126579333Y-102232381D01*
X126484095Y-102184762D01*
X126436476Y-102137143D01*
X127388857Y-101232381D02*
X128055524Y-101232381D01*
X127626952Y-102232381D01*
X123436143Y-102232381D02*
X123102809Y-101756190D01*
X122864714Y-102232381D02*
X122864714Y-101232381D01*
X123245667Y-101232381D01*
X123340905Y-101280000D01*
X123388524Y-101327619D01*
X123436143Y-101422857D01*
X123436143Y-101565714D01*
X123388524Y-101660952D01*
X123340905Y-101708571D01*
X123245667Y-101756190D01*
X122864714Y-101756190D01*
X123769476Y-101232381D02*
X124388524Y-101232381D01*
X124055190Y-101613333D01*
X124198048Y-101613333D01*
X124293286Y-101660952D01*
X124340905Y-101708571D01*
X124388524Y-101803810D01*
X124388524Y-102041905D01*
X124340905Y-102137143D01*
X124293286Y-102184762D01*
X124198048Y-102232381D01*
X123912333Y-102232381D01*
X123817095Y-102184762D01*
X123769476Y-102137143D01*
X124959952Y-101660952D02*
X124864714Y-101613333D01*
X124817095Y-101565714D01*
X124769476Y-101470476D01*
X124769476Y-101422857D01*
X124817095Y-101327619D01*
X124864714Y-101280000D01*
X124959952Y-101232381D01*
X125150429Y-101232381D01*
X125245667Y-101280000D01*
X125293286Y-101327619D01*
X125340905Y-101422857D01*
X125340905Y-101470476D01*
X125293286Y-101565714D01*
X125245667Y-101613333D01*
X125150429Y-101660952D01*
X124959952Y-101660952D01*
X124864714Y-101708571D01*
X124817095Y-101756190D01*
X124769476Y-101851429D01*
X124769476Y-102041905D01*
X124817095Y-102137143D01*
X124864714Y-102184762D01*
X124959952Y-102232381D01*
X125150429Y-102232381D01*
X125245667Y-102184762D01*
X125293286Y-102137143D01*
X125340905Y-102041905D01*
X125340905Y-101851429D01*
X125293286Y-101756190D01*
X125245667Y-101708571D01*
X125150429Y-101660952D01*
X126103143Y-100581381D02*
X125769809Y-100105190D01*
X125531714Y-100581381D02*
X125531714Y-99581381D01*
X125912667Y-99581381D01*
X126007905Y-99629000D01*
X126055524Y-99676619D01*
X126103143Y-99771857D01*
X126103143Y-99914714D01*
X126055524Y-100009952D01*
X126007905Y-100057571D01*
X125912667Y-100105190D01*
X125531714Y-100105190D01*
X126436476Y-99581381D02*
X127055524Y-99581381D01*
X126722190Y-99962333D01*
X126865048Y-99962333D01*
X126960286Y-100009952D01*
X127007905Y-100057571D01*
X127055524Y-100152810D01*
X127055524Y-100390905D01*
X127007905Y-100486143D01*
X126960286Y-100533762D01*
X126865048Y-100581381D01*
X126579333Y-100581381D01*
X126484095Y-100533762D01*
X126436476Y-100486143D01*
X127531714Y-100581381D02*
X127722190Y-100581381D01*
X127817429Y-100533762D01*
X127865048Y-100486143D01*
X127960286Y-100343286D01*
X128007905Y-100152810D01*
X128007905Y-99771857D01*
X127960286Y-99676619D01*
X127912667Y-99629000D01*
X127817429Y-99581381D01*
X127626952Y-99581381D01*
X127531714Y-99629000D01*
X127484095Y-99676619D01*
X127436476Y-99771857D01*
X127436476Y-100009952D01*
X127484095Y-100105190D01*
X127531714Y-100152810D01*
X127626952Y-100200429D01*
X127817429Y-100200429D01*
X127912667Y-100152810D01*
X127960286Y-100105190D01*
X128007905Y-100009952D01*
X123436143Y-100581381D02*
X123102809Y-100105190D01*
X122864714Y-100581381D02*
X122864714Y-99581381D01*
X123245667Y-99581381D01*
X123340905Y-99629000D01*
X123388524Y-99676619D01*
X123436143Y-99771857D01*
X123436143Y-99914714D01*
X123388524Y-100009952D01*
X123340905Y-100057571D01*
X123245667Y-100105190D01*
X122864714Y-100105190D01*
X124293286Y-99914714D02*
X124293286Y-100581381D01*
X124055190Y-99533762D02*
X123817095Y-100248048D01*
X124436143Y-100248048D01*
X125007571Y-99581381D02*
X125102810Y-99581381D01*
X125198048Y-99629000D01*
X125245667Y-99676619D01*
X125293286Y-99771857D01*
X125340905Y-99962333D01*
X125340905Y-100200429D01*
X125293286Y-100390905D01*
X125245667Y-100486143D01*
X125198048Y-100533762D01*
X125102810Y-100581381D01*
X125007571Y-100581381D01*
X124912333Y-100533762D01*
X124864714Y-100486143D01*
X124817095Y-100390905D01*
X124769476Y-100200429D01*
X124769476Y-99962333D01*
X124817095Y-99771857D01*
X124864714Y-99676619D01*
X124912333Y-99629000D01*
X125007571Y-99581381D01*
X98391743Y-98316381D02*
X98058409Y-97840190D01*
X97820314Y-98316381D02*
X97820314Y-97316381D01*
X98201267Y-97316381D01*
X98296505Y-97364000D01*
X98344124Y-97411619D01*
X98391743Y-97506857D01*
X98391743Y-97649714D01*
X98344124Y-97744952D01*
X98296505Y-97792571D01*
X98201267Y-97840190D01*
X97820314Y-97840190D01*
X99248886Y-97649714D02*
X99248886Y-98316381D01*
X99010790Y-97268762D02*
X98772695Y-97983048D01*
X99391743Y-97983048D01*
X100296505Y-98316381D02*
X99725076Y-98316381D01*
X100010790Y-98316381D02*
X100010790Y-97316381D01*
X99915552Y-97459238D01*
X99820314Y-97554476D01*
X99725076Y-97602095D01*
X94759543Y-98316381D02*
X94426209Y-97840190D01*
X94188114Y-98316381D02*
X94188114Y-97316381D01*
X94569067Y-97316381D01*
X94664305Y-97364000D01*
X94711924Y-97411619D01*
X94759543Y-97506857D01*
X94759543Y-97649714D01*
X94711924Y-97744952D01*
X94664305Y-97792571D01*
X94569067Y-97840190D01*
X94188114Y-97840190D01*
X95616686Y-97649714D02*
X95616686Y-98316381D01*
X95378590Y-97268762D02*
X95140495Y-97983048D01*
X95759543Y-97983048D01*
X96092876Y-97411619D02*
X96140495Y-97364000D01*
X96235733Y-97316381D01*
X96473829Y-97316381D01*
X96569067Y-97364000D01*
X96616686Y-97411619D01*
X96664305Y-97506857D01*
X96664305Y-97602095D01*
X96616686Y-97744952D01*
X96045257Y-98316381D01*
X96664305Y-98316381D01*
X91127343Y-98316381D02*
X90794009Y-97840190D01*
X90555914Y-98316381D02*
X90555914Y-97316381D01*
X90936867Y-97316381D01*
X91032105Y-97364000D01*
X91079724Y-97411619D01*
X91127343Y-97506857D01*
X91127343Y-97649714D01*
X91079724Y-97744952D01*
X91032105Y-97792571D01*
X90936867Y-97840190D01*
X90555914Y-97840190D01*
X91984486Y-97649714D02*
X91984486Y-98316381D01*
X91746390Y-97268762D02*
X91508295Y-97983048D01*
X92127343Y-97983048D01*
X92413057Y-97316381D02*
X93032105Y-97316381D01*
X92698771Y-97697333D01*
X92841629Y-97697333D01*
X92936867Y-97744952D01*
X92984486Y-97792571D01*
X93032105Y-97887810D01*
X93032105Y-98125905D01*
X92984486Y-98221143D01*
X92936867Y-98268762D01*
X92841629Y-98316381D01*
X92555914Y-98316381D01*
X92460676Y-98268762D01*
X92413057Y-98221143D01*
X87495143Y-98316381D02*
X87161809Y-97840190D01*
X86923714Y-98316381D02*
X86923714Y-97316381D01*
X87304667Y-97316381D01*
X87399905Y-97364000D01*
X87447524Y-97411619D01*
X87495143Y-97506857D01*
X87495143Y-97649714D01*
X87447524Y-97744952D01*
X87399905Y-97792571D01*
X87304667Y-97840190D01*
X86923714Y-97840190D01*
X88352286Y-97649714D02*
X88352286Y-98316381D01*
X88114190Y-97268762D02*
X87876095Y-97983048D01*
X88495143Y-97983048D01*
X89304667Y-97649714D02*
X89304667Y-98316381D01*
X89066571Y-97268762D02*
X88828476Y-97983048D01*
X89447524Y-97983048D01*
X101998543Y-98316381D02*
X101665209Y-97840190D01*
X101427114Y-98316381D02*
X101427114Y-97316381D01*
X101808067Y-97316381D01*
X101903305Y-97364000D01*
X101950924Y-97411619D01*
X101998543Y-97506857D01*
X101998543Y-97649714D01*
X101950924Y-97744952D01*
X101903305Y-97792571D01*
X101808067Y-97840190D01*
X101427114Y-97840190D01*
X102855686Y-97649714D02*
X102855686Y-98316381D01*
X102617590Y-97268762D02*
X102379495Y-97983048D01*
X102998543Y-97983048D01*
X103855686Y-97316381D02*
X103379495Y-97316381D01*
X103331876Y-97792571D01*
X103379495Y-97744952D01*
X103474733Y-97697333D01*
X103712829Y-97697333D01*
X103808067Y-97744952D01*
X103855686Y-97792571D01*
X103903305Y-97887810D01*
X103903305Y-98125905D01*
X103855686Y-98221143D01*
X103808067Y-98268762D01*
X103712829Y-98316381D01*
X103474733Y-98316381D01*
X103379495Y-98268762D01*
X103331876Y-98221143D01*
X105630743Y-98316381D02*
X105297409Y-97840190D01*
X105059314Y-98316381D02*
X105059314Y-97316381D01*
X105440267Y-97316381D01*
X105535505Y-97364000D01*
X105583124Y-97411619D01*
X105630743Y-97506857D01*
X105630743Y-97649714D01*
X105583124Y-97744952D01*
X105535505Y-97792571D01*
X105440267Y-97840190D01*
X105059314Y-97840190D01*
X106487886Y-97649714D02*
X106487886Y-98316381D01*
X106249790Y-97268762D02*
X106011695Y-97983048D01*
X106630743Y-97983048D01*
X107440267Y-97316381D02*
X107249790Y-97316381D01*
X107154552Y-97364000D01*
X107106933Y-97411619D01*
X107011695Y-97554476D01*
X106964076Y-97744952D01*
X106964076Y-98125905D01*
X107011695Y-98221143D01*
X107059314Y-98268762D01*
X107154552Y-98316381D01*
X107345029Y-98316381D01*
X107440267Y-98268762D01*
X107487886Y-98221143D01*
X107535505Y-98125905D01*
X107535505Y-97887810D01*
X107487886Y-97792571D01*
X107440267Y-97744952D01*
X107345029Y-97697333D01*
X107154552Y-97697333D01*
X107059314Y-97744952D01*
X107011695Y-97792571D01*
X106964076Y-97887810D01*
X109262943Y-98316381D02*
X108929609Y-97840190D01*
X108691514Y-98316381D02*
X108691514Y-97316381D01*
X109072467Y-97316381D01*
X109167705Y-97364000D01*
X109215324Y-97411619D01*
X109262943Y-97506857D01*
X109262943Y-97649714D01*
X109215324Y-97744952D01*
X109167705Y-97792571D01*
X109072467Y-97840190D01*
X108691514Y-97840190D01*
X110120086Y-97649714D02*
X110120086Y-98316381D01*
X109881990Y-97268762D02*
X109643895Y-97983048D01*
X110262943Y-97983048D01*
X110548657Y-97316381D02*
X111215324Y-97316381D01*
X110786752Y-98316381D01*
X112895143Y-98316381D02*
X112561809Y-97840190D01*
X112323714Y-98316381D02*
X112323714Y-97316381D01*
X112704667Y-97316381D01*
X112799905Y-97364000D01*
X112847524Y-97411619D01*
X112895143Y-97506857D01*
X112895143Y-97649714D01*
X112847524Y-97744952D01*
X112799905Y-97792571D01*
X112704667Y-97840190D01*
X112323714Y-97840190D01*
X113752286Y-97649714D02*
X113752286Y-98316381D01*
X113514190Y-97268762D02*
X113276095Y-97983048D01*
X113895143Y-97983048D01*
X114418952Y-97744952D02*
X114323714Y-97697333D01*
X114276095Y-97649714D01*
X114228476Y-97554476D01*
X114228476Y-97506857D01*
X114276095Y-97411619D01*
X114323714Y-97364000D01*
X114418952Y-97316381D01*
X114609429Y-97316381D01*
X114704667Y-97364000D01*
X114752286Y-97411619D01*
X114799905Y-97506857D01*
X114799905Y-97554476D01*
X114752286Y-97649714D01*
X114704667Y-97697333D01*
X114609429Y-97744952D01*
X114418952Y-97744952D01*
X114323714Y-97792571D01*
X114276095Y-97840190D01*
X114228476Y-97935429D01*
X114228476Y-98125905D01*
X114276095Y-98221143D01*
X114323714Y-98268762D01*
X114418952Y-98316381D01*
X114609429Y-98316381D01*
X114704667Y-98268762D01*
X114752286Y-98221143D01*
X114799905Y-98125905D01*
X114799905Y-97935429D01*
X114752286Y-97840190D01*
X114704667Y-97792571D01*
X114609429Y-97744952D01*
X98391743Y-99586381D02*
X98058409Y-99110190D01*
X97820314Y-99586381D02*
X97820314Y-98586381D01*
X98201267Y-98586381D01*
X98296505Y-98634000D01*
X98344124Y-98681619D01*
X98391743Y-98776857D01*
X98391743Y-98919714D01*
X98344124Y-99014952D01*
X98296505Y-99062571D01*
X98201267Y-99110190D01*
X97820314Y-99110190D01*
X99248886Y-98919714D02*
X99248886Y-99586381D01*
X99010790Y-98538762D02*
X98772695Y-99253048D01*
X99391743Y-99253048D01*
X99820314Y-99586381D02*
X100010790Y-99586381D01*
X100106029Y-99538762D01*
X100153648Y-99491143D01*
X100248886Y-99348286D01*
X100296505Y-99157810D01*
X100296505Y-98776857D01*
X100248886Y-98681619D01*
X100201267Y-98634000D01*
X100106029Y-98586381D01*
X99915552Y-98586381D01*
X99820314Y-98634000D01*
X99772695Y-98681619D01*
X99725076Y-98776857D01*
X99725076Y-99014952D01*
X99772695Y-99110190D01*
X99820314Y-99157810D01*
X99915552Y-99205429D01*
X100106029Y-99205429D01*
X100201267Y-99157810D01*
X100248886Y-99110190D01*
X100296505Y-99014952D01*
X94759543Y-99586381D02*
X94426209Y-99110190D01*
X94188114Y-99586381D02*
X94188114Y-98586381D01*
X94569067Y-98586381D01*
X94664305Y-98634000D01*
X94711924Y-98681619D01*
X94759543Y-98776857D01*
X94759543Y-98919714D01*
X94711924Y-99014952D01*
X94664305Y-99062571D01*
X94569067Y-99110190D01*
X94188114Y-99110190D01*
X95664305Y-98586381D02*
X95188114Y-98586381D01*
X95140495Y-99062571D01*
X95188114Y-99014952D01*
X95283352Y-98967333D01*
X95521448Y-98967333D01*
X95616686Y-99014952D01*
X95664305Y-99062571D01*
X95711924Y-99157810D01*
X95711924Y-99395905D01*
X95664305Y-99491143D01*
X95616686Y-99538762D01*
X95521448Y-99586381D01*
X95283352Y-99586381D01*
X95188114Y-99538762D01*
X95140495Y-99491143D01*
X96330971Y-98586381D02*
X96426210Y-98586381D01*
X96521448Y-98634000D01*
X96569067Y-98681619D01*
X96616686Y-98776857D01*
X96664305Y-98967333D01*
X96664305Y-99205429D01*
X96616686Y-99395905D01*
X96569067Y-99491143D01*
X96521448Y-99538762D01*
X96426210Y-99586381D01*
X96330971Y-99586381D01*
X96235733Y-99538762D01*
X96188114Y-99491143D01*
X96140495Y-99395905D01*
X96092876Y-99205429D01*
X96092876Y-98967333D01*
X96140495Y-98776857D01*
X96188114Y-98681619D01*
X96235733Y-98634000D01*
X96330971Y-98586381D01*
X91127343Y-99586381D02*
X90794009Y-99110190D01*
X90555914Y-99586381D02*
X90555914Y-98586381D01*
X90936867Y-98586381D01*
X91032105Y-98634000D01*
X91079724Y-98681619D01*
X91127343Y-98776857D01*
X91127343Y-98919714D01*
X91079724Y-99014952D01*
X91032105Y-99062571D01*
X90936867Y-99110190D01*
X90555914Y-99110190D01*
X92032105Y-98586381D02*
X91555914Y-98586381D01*
X91508295Y-99062571D01*
X91555914Y-99014952D01*
X91651152Y-98967333D01*
X91889248Y-98967333D01*
X91984486Y-99014952D01*
X92032105Y-99062571D01*
X92079724Y-99157810D01*
X92079724Y-99395905D01*
X92032105Y-99491143D01*
X91984486Y-99538762D01*
X91889248Y-99586381D01*
X91651152Y-99586381D01*
X91555914Y-99538762D01*
X91508295Y-99491143D01*
X93032105Y-99586381D02*
X92460676Y-99586381D01*
X92746390Y-99586381D02*
X92746390Y-98586381D01*
X92651152Y-98729238D01*
X92555914Y-98824476D01*
X92460676Y-98872095D01*
X87495143Y-99586381D02*
X87161809Y-99110190D01*
X86923714Y-99586381D02*
X86923714Y-98586381D01*
X87304667Y-98586381D01*
X87399905Y-98634000D01*
X87447524Y-98681619D01*
X87495143Y-98776857D01*
X87495143Y-98919714D01*
X87447524Y-99014952D01*
X87399905Y-99062571D01*
X87304667Y-99110190D01*
X86923714Y-99110190D01*
X88399905Y-98586381D02*
X87923714Y-98586381D01*
X87876095Y-99062571D01*
X87923714Y-99014952D01*
X88018952Y-98967333D01*
X88257048Y-98967333D01*
X88352286Y-99014952D01*
X88399905Y-99062571D01*
X88447524Y-99157810D01*
X88447524Y-99395905D01*
X88399905Y-99491143D01*
X88352286Y-99538762D01*
X88257048Y-99586381D01*
X88018952Y-99586381D01*
X87923714Y-99538762D01*
X87876095Y-99491143D01*
X88828476Y-98681619D02*
X88876095Y-98634000D01*
X88971333Y-98586381D01*
X89209429Y-98586381D01*
X89304667Y-98634000D01*
X89352286Y-98681619D01*
X89399905Y-98776857D01*
X89399905Y-98872095D01*
X89352286Y-99014952D01*
X88780857Y-99586381D01*
X89399905Y-99586381D01*
X101998543Y-99586381D02*
X101665209Y-99110190D01*
X101427114Y-99586381D02*
X101427114Y-98586381D01*
X101808067Y-98586381D01*
X101903305Y-98634000D01*
X101950924Y-98681619D01*
X101998543Y-98776857D01*
X101998543Y-98919714D01*
X101950924Y-99014952D01*
X101903305Y-99062571D01*
X101808067Y-99110190D01*
X101427114Y-99110190D01*
X102903305Y-98586381D02*
X102427114Y-98586381D01*
X102379495Y-99062571D01*
X102427114Y-99014952D01*
X102522352Y-98967333D01*
X102760448Y-98967333D01*
X102855686Y-99014952D01*
X102903305Y-99062571D01*
X102950924Y-99157810D01*
X102950924Y-99395905D01*
X102903305Y-99491143D01*
X102855686Y-99538762D01*
X102760448Y-99586381D01*
X102522352Y-99586381D01*
X102427114Y-99538762D01*
X102379495Y-99491143D01*
X103284257Y-98586381D02*
X103903305Y-98586381D01*
X103569971Y-98967333D01*
X103712829Y-98967333D01*
X103808067Y-99014952D01*
X103855686Y-99062571D01*
X103903305Y-99157810D01*
X103903305Y-99395905D01*
X103855686Y-99491143D01*
X103808067Y-99538762D01*
X103712829Y-99586381D01*
X103427114Y-99586381D01*
X103331876Y-99538762D01*
X103284257Y-99491143D01*
X105630743Y-99586381D02*
X105297409Y-99110190D01*
X105059314Y-99586381D02*
X105059314Y-98586381D01*
X105440267Y-98586381D01*
X105535505Y-98634000D01*
X105583124Y-98681619D01*
X105630743Y-98776857D01*
X105630743Y-98919714D01*
X105583124Y-99014952D01*
X105535505Y-99062571D01*
X105440267Y-99110190D01*
X105059314Y-99110190D01*
X106535505Y-98586381D02*
X106059314Y-98586381D01*
X106011695Y-99062571D01*
X106059314Y-99014952D01*
X106154552Y-98967333D01*
X106392648Y-98967333D01*
X106487886Y-99014952D01*
X106535505Y-99062571D01*
X106583124Y-99157810D01*
X106583124Y-99395905D01*
X106535505Y-99491143D01*
X106487886Y-99538762D01*
X106392648Y-99586381D01*
X106154552Y-99586381D01*
X106059314Y-99538762D01*
X106011695Y-99491143D01*
X107440267Y-98919714D02*
X107440267Y-99586381D01*
X107202171Y-98538762D02*
X106964076Y-99253048D01*
X107583124Y-99253048D01*
X109262943Y-99586381D02*
X108929609Y-99110190D01*
X108691514Y-99586381D02*
X108691514Y-98586381D01*
X109072467Y-98586381D01*
X109167705Y-98634000D01*
X109215324Y-98681619D01*
X109262943Y-98776857D01*
X109262943Y-98919714D01*
X109215324Y-99014952D01*
X109167705Y-99062571D01*
X109072467Y-99110190D01*
X108691514Y-99110190D01*
X110167705Y-98586381D02*
X109691514Y-98586381D01*
X109643895Y-99062571D01*
X109691514Y-99014952D01*
X109786752Y-98967333D01*
X110024848Y-98967333D01*
X110120086Y-99014952D01*
X110167705Y-99062571D01*
X110215324Y-99157810D01*
X110215324Y-99395905D01*
X110167705Y-99491143D01*
X110120086Y-99538762D01*
X110024848Y-99586381D01*
X109786752Y-99586381D01*
X109691514Y-99538762D01*
X109643895Y-99491143D01*
X111120086Y-98586381D02*
X110643895Y-98586381D01*
X110596276Y-99062571D01*
X110643895Y-99014952D01*
X110739133Y-98967333D01*
X110977229Y-98967333D01*
X111072467Y-99014952D01*
X111120086Y-99062571D01*
X111167705Y-99157810D01*
X111167705Y-99395905D01*
X111120086Y-99491143D01*
X111072467Y-99538762D01*
X110977229Y-99586381D01*
X110739133Y-99586381D01*
X110643895Y-99538762D01*
X110596276Y-99491143D01*
X112895143Y-99840381D02*
X112561809Y-99364190D01*
X112323714Y-99840381D02*
X112323714Y-98840381D01*
X112704667Y-98840381D01*
X112799905Y-98888000D01*
X112847524Y-98935619D01*
X112895143Y-99030857D01*
X112895143Y-99173714D01*
X112847524Y-99268952D01*
X112799905Y-99316571D01*
X112704667Y-99364190D01*
X112323714Y-99364190D01*
X113799905Y-98840381D02*
X113323714Y-98840381D01*
X113276095Y-99316571D01*
X113323714Y-99268952D01*
X113418952Y-99221333D01*
X113657048Y-99221333D01*
X113752286Y-99268952D01*
X113799905Y-99316571D01*
X113847524Y-99411810D01*
X113847524Y-99649905D01*
X113799905Y-99745143D01*
X113752286Y-99792762D01*
X113657048Y-99840381D01*
X113418952Y-99840381D01*
X113323714Y-99792762D01*
X113276095Y-99745143D01*
X114704667Y-98840381D02*
X114514190Y-98840381D01*
X114418952Y-98888000D01*
X114371333Y-98935619D01*
X114276095Y-99078476D01*
X114228476Y-99268952D01*
X114228476Y-99649905D01*
X114276095Y-99745143D01*
X114323714Y-99792762D01*
X114418952Y-99840381D01*
X114609429Y-99840381D01*
X114704667Y-99792762D01*
X114752286Y-99745143D01*
X114799905Y-99649905D01*
X114799905Y-99411810D01*
X114752286Y-99316571D01*
X114704667Y-99268952D01*
X114609429Y-99221333D01*
X114418952Y-99221333D01*
X114323714Y-99268952D01*
X114276095Y-99316571D01*
X114228476Y-99411810D01*
D16*
X161737516Y-109653125D02*
X161737516Y-110463264D01*
X161785171Y-110558574D01*
X161832827Y-110606230D01*
X161928137Y-110653885D01*
X162118758Y-110653885D01*
X162214069Y-110606230D01*
X162261724Y-110558574D01*
X162309379Y-110463264D01*
X162309379Y-109653125D01*
X163310139Y-110653885D02*
X162738276Y-110653885D01*
X163024207Y-110653885D02*
X163024207Y-109653125D01*
X162928897Y-109796090D01*
X162833586Y-109891401D01*
X162738276Y-109939056D01*
D17*
D16*
X160403169Y-101958134D02*
X160355514Y-102005790D01*
X160212548Y-102053445D01*
X160117238Y-102053445D01*
X159974272Y-102005790D01*
X159878961Y-101910479D01*
X159831306Y-101815169D01*
X159783651Y-101624548D01*
X159783651Y-101481582D01*
X159831306Y-101290961D01*
X159878961Y-101195650D01*
X159974272Y-101100340D01*
X160117238Y-101052685D01*
X160212548Y-101052685D01*
X160355514Y-101100340D01*
X160403169Y-101147995D01*
X160832066Y-102053445D02*
X160832066Y-101052685D01*
X161213308Y-101052685D01*
X161308619Y-101100340D01*
X161356274Y-101147995D01*
X161403929Y-101243306D01*
X161403929Y-101386271D01*
X161356274Y-101481582D01*
X161308619Y-101529237D01*
X161213308Y-101576892D01*
X160832066Y-101576892D01*
X161785171Y-101147995D02*
X161832826Y-101100340D01*
X161928137Y-101052685D01*
X162166413Y-101052685D01*
X162261723Y-101100340D01*
X162309379Y-101147995D01*
X162357034Y-101243306D01*
X162357034Y-101338616D01*
X162309379Y-101481582D01*
X161737516Y-102053445D01*
X162357034Y-102053445D01*
X163310139Y-102053445D02*
X162738276Y-102053445D01*
X163024207Y-102053445D02*
X163024207Y-101052685D01*
X162928897Y-101195650D01*
X162833586Y-101290961D01*
X162738276Y-101338616D01*
X163929657Y-101052685D02*
X164024968Y-101052685D01*
X164120278Y-101100340D01*
X164167933Y-101147995D01*
X164215589Y-101243306D01*
X164263244Y-101433927D01*
X164263244Y-101672203D01*
X164215589Y-101862824D01*
X164167933Y-101958134D01*
X164120278Y-102005790D01*
X164024968Y-102053445D01*
X163929657Y-102053445D01*
X163834347Y-102005790D01*
X163786691Y-101958134D01*
X163739036Y-101862824D01*
X163691381Y-101672203D01*
X163691381Y-101433927D01*
X163739036Y-101243306D01*
X163786691Y-101147995D01*
X163834347Y-101100340D01*
X163929657Y-101052685D01*
X164644486Y-101147995D02*
X164692141Y-101100340D01*
X164787452Y-101052685D01*
X165025728Y-101052685D01*
X165121038Y-101100340D01*
X165168694Y-101147995D01*
X165216349Y-101243306D01*
X165216349Y-101338616D01*
X165168694Y-101481582D01*
X164596831Y-102053445D01*
X165216349Y-102053445D01*
D17*
D15*
X153738095Y-103952381D02*
X153738095Y-104761905D01*
X153785714Y-104857143D01*
X153833333Y-104904762D01*
X153928571Y-104952381D01*
X154119048Y-104952381D01*
X154214286Y-104904762D01*
X154261905Y-104857143D01*
X154309524Y-104761905D01*
X154309524Y-103952381D01*
X154690476Y-103952381D02*
X155309524Y-103952381D01*
X154976190Y-104333333D01*
X155119048Y-104333333D01*
X155214286Y-104380952D01*
X155261905Y-104428571D01*
X155309524Y-104523810D01*
X155309524Y-104761905D01*
X155261905Y-104857143D01*
X155214286Y-104904762D01*
X155119048Y-104952381D01*
X154833333Y-104952381D01*
X154738095Y-104904762D01*
X154690476Y-104857143D01*
X136271095Y-103849381D02*
X136271095Y-104658905D01*
X136318714Y-104754143D01*
X136366333Y-104801762D01*
X136461571Y-104849381D01*
X136652048Y-104849381D01*
X136747286Y-104801762D01*
X136794905Y-104754143D01*
X136842524Y-104658905D01*
X136842524Y-103849381D01*
X137747286Y-104182714D02*
X137747286Y-104849381D01*
X137509190Y-103801762D02*
X137271095Y-104516048D01*
X137890143Y-104516048D01*
X136271095Y-95213381D02*
X136271095Y-96022905D01*
X136318714Y-96118143D01*
X136366333Y-96165762D01*
X136461571Y-96213381D01*
X136652048Y-96213381D01*
X136747286Y-96165762D01*
X136794905Y-96118143D01*
X136842524Y-96022905D01*
X136842524Y-95213381D01*
X137794905Y-95213381D02*
X137318714Y-95213381D01*
X137271095Y-95689571D01*
X137318714Y-95641952D01*
X137413952Y-95594333D01*
X137652048Y-95594333D01*
X137747286Y-95641952D01*
X137794905Y-95689571D01*
X137842524Y-95784810D01*
X137842524Y-96022905D01*
X137794905Y-96118143D01*
X137747286Y-96165762D01*
X137652048Y-96213381D01*
X137413952Y-96213381D01*
X137318714Y-96165762D01*
X137271095Y-96118143D01*
X87520543Y-106578543D02*
X87472924Y-106626162D01*
X87330067Y-106673781D01*
X87234829Y-106673781D01*
X87091971Y-106626162D01*
X86996733Y-106530924D01*
X86949114Y-106435686D01*
X86901495Y-106245210D01*
X86901495Y-106102352D01*
X86949114Y-105911876D01*
X86996733Y-105816638D01*
X87091971Y-105721400D01*
X87234829Y-105673781D01*
X87330067Y-105673781D01*
X87472924Y-105721400D01*
X87520543Y-105769019D01*
X88472924Y-106673781D02*
X87901495Y-106673781D01*
X88187209Y-106673781D02*
X88187209Y-105673781D01*
X88091971Y-105816638D01*
X87996733Y-105911876D01*
X87901495Y-105959495D01*
X88806257Y-105673781D02*
X89425305Y-105673781D01*
X89091971Y-106054733D01*
X89234829Y-106054733D01*
X89330067Y-106102352D01*
X89377686Y-106149971D01*
X89425305Y-106245210D01*
X89425305Y-106483305D01*
X89377686Y-106578543D01*
X89330067Y-106626162D01*
X89234829Y-106673781D01*
X88949114Y-106673781D01*
X88853876Y-106626162D01*
X88806257Y-106578543D01*
X94759543Y-106705543D02*
X94711924Y-106753162D01*
X94569067Y-106800781D01*
X94473829Y-106800781D01*
X94330971Y-106753162D01*
X94235733Y-106657924D01*
X94188114Y-106562686D01*
X94140495Y-106372210D01*
X94140495Y-106229352D01*
X94188114Y-106038876D01*
X94235733Y-105943638D01*
X94330971Y-105848400D01*
X94473829Y-105800781D01*
X94569067Y-105800781D01*
X94711924Y-105848400D01*
X94759543Y-105896019D01*
X95711924Y-106800781D02*
X95140495Y-106800781D01*
X95426209Y-106800781D02*
X95426209Y-105800781D01*
X95330971Y-105943638D01*
X95235733Y-106038876D01*
X95140495Y-106086495D01*
X96569067Y-106134114D02*
X96569067Y-106800781D01*
X96330971Y-105753162D02*
X96092876Y-106467448D01*
X96711924Y-106467448D01*
X102023943Y-106705543D02*
X101976324Y-106753162D01*
X101833467Y-106800781D01*
X101738229Y-106800781D01*
X101595371Y-106753162D01*
X101500133Y-106657924D01*
X101452514Y-106562686D01*
X101404895Y-106372210D01*
X101404895Y-106229352D01*
X101452514Y-106038876D01*
X101500133Y-105943638D01*
X101595371Y-105848400D01*
X101738229Y-105800781D01*
X101833467Y-105800781D01*
X101976324Y-105848400D01*
X102023943Y-105896019D01*
X102976324Y-106800781D02*
X102404895Y-106800781D01*
X102690609Y-106800781D02*
X102690609Y-105800781D01*
X102595371Y-105943638D01*
X102500133Y-106038876D01*
X102404895Y-106086495D01*
X103881086Y-105800781D02*
X103404895Y-105800781D01*
X103357276Y-106276971D01*
X103404895Y-106229352D01*
X103500133Y-106181733D01*
X103738229Y-106181733D01*
X103833467Y-106229352D01*
X103881086Y-106276971D01*
X103928705Y-106372210D01*
X103928705Y-106610305D01*
X103881086Y-106705543D01*
X103833467Y-106753162D01*
X103738229Y-106800781D01*
X103500133Y-106800781D01*
X103404895Y-106753162D01*
X103357276Y-106705543D01*
X109288343Y-106705543D02*
X109240724Y-106753162D01*
X109097867Y-106800781D01*
X109002629Y-106800781D01*
X108859771Y-106753162D01*
X108764533Y-106657924D01*
X108716914Y-106562686D01*
X108669295Y-106372210D01*
X108669295Y-106229352D01*
X108716914Y-106038876D01*
X108764533Y-105943638D01*
X108859771Y-105848400D01*
X109002629Y-105800781D01*
X109097867Y-105800781D01*
X109240724Y-105848400D01*
X109288343Y-105896019D01*
X110240724Y-106800781D02*
X109669295Y-106800781D01*
X109955009Y-106800781D02*
X109955009Y-105800781D01*
X109859771Y-105943638D01*
X109764533Y-106038876D01*
X109669295Y-106086495D01*
X111097867Y-105800781D02*
X110907390Y-105800781D01*
X110812152Y-105848400D01*
X110764533Y-105896019D01*
X110669295Y-106038876D01*
X110621676Y-106229352D01*
X110621676Y-106610305D01*
X110669295Y-106705543D01*
X110716914Y-106753162D01*
X110812152Y-106800781D01*
X111002629Y-106800781D01*
X111097867Y-106753162D01*
X111145486Y-106705543D01*
X111193105Y-106610305D01*
X111193105Y-106372210D01*
X111145486Y-106276971D01*
X111097867Y-106229352D01*
X111002629Y-106181733D01*
X110812152Y-106181733D01*
X110716914Y-106229352D01*
X110669295Y-106276971D01*
X110621676Y-106372210D01*
X112920543Y-106692843D02*
X112872924Y-106740462D01*
X112730067Y-106788081D01*
X112634829Y-106788081D01*
X112491971Y-106740462D01*
X112396733Y-106645224D01*
X112349114Y-106549986D01*
X112301495Y-106359510D01*
X112301495Y-106216652D01*
X112349114Y-106026176D01*
X112396733Y-105930938D01*
X112491971Y-105835700D01*
X112634829Y-105788081D01*
X112730067Y-105788081D01*
X112872924Y-105835700D01*
X112920543Y-105883319D01*
X113872924Y-106788081D02*
X113301495Y-106788081D01*
X113587209Y-106788081D02*
X113587209Y-105788081D01*
X113491971Y-105930938D01*
X113396733Y-106026176D01*
X113301495Y-106073795D01*
X114206257Y-105788081D02*
X114872924Y-105788081D01*
X114444352Y-106788081D01*
X105656143Y-106705543D02*
X105608524Y-106753162D01*
X105465667Y-106800781D01*
X105370429Y-106800781D01*
X105227571Y-106753162D01*
X105132333Y-106657924D01*
X105084714Y-106562686D01*
X105037095Y-106372210D01*
X105037095Y-106229352D01*
X105084714Y-106038876D01*
X105132333Y-105943638D01*
X105227571Y-105848400D01*
X105370429Y-105800781D01*
X105465667Y-105800781D01*
X105608524Y-105848400D01*
X105656143Y-105896019D01*
X106608524Y-106800781D02*
X106037095Y-106800781D01*
X106322809Y-106800781D02*
X106322809Y-105800781D01*
X106227571Y-105943638D01*
X106132333Y-106038876D01*
X106037095Y-106086495D01*
X107179952Y-106229352D02*
X107084714Y-106181733D01*
X107037095Y-106134114D01*
X106989476Y-106038876D01*
X106989476Y-105991257D01*
X107037095Y-105896019D01*
X107084714Y-105848400D01*
X107179952Y-105800781D01*
X107370429Y-105800781D01*
X107465667Y-105848400D01*
X107513286Y-105896019D01*
X107560905Y-105991257D01*
X107560905Y-106038876D01*
X107513286Y-106134114D01*
X107465667Y-106181733D01*
X107370429Y-106229352D01*
X107179952Y-106229352D01*
X107084714Y-106276971D01*
X107037095Y-106324590D01*
X106989476Y-106419829D01*
X106989476Y-106610305D01*
X107037095Y-106705543D01*
X107084714Y-106753162D01*
X107179952Y-106800781D01*
X107370429Y-106800781D01*
X107465667Y-106753162D01*
X107513286Y-106705543D01*
X107560905Y-106610305D01*
X107560905Y-106419829D01*
X107513286Y-106324590D01*
X107465667Y-106276971D01*
X107370429Y-106229352D01*
X98391743Y-106705543D02*
X98344124Y-106753162D01*
X98201267Y-106800781D01*
X98106029Y-106800781D01*
X97963171Y-106753162D01*
X97867933Y-106657924D01*
X97820314Y-106562686D01*
X97772695Y-106372210D01*
X97772695Y-106229352D01*
X97820314Y-106038876D01*
X97867933Y-105943638D01*
X97963171Y-105848400D01*
X98106029Y-105800781D01*
X98201267Y-105800781D01*
X98344124Y-105848400D01*
X98391743Y-105896019D01*
X99344124Y-106800781D02*
X98772695Y-106800781D01*
X99058409Y-106800781D02*
X99058409Y-105800781D01*
X98963171Y-105943638D01*
X98867933Y-106038876D01*
X98772695Y-106086495D01*
X99820314Y-106800781D02*
X100010790Y-106800781D01*
X100106029Y-106753162D01*
X100153648Y-106705543D01*
X100248886Y-106562686D01*
X100296505Y-106372210D01*
X100296505Y-105991257D01*
X100248886Y-105896019D01*
X100201267Y-105848400D01*
X100106029Y-105800781D01*
X99915552Y-105800781D01*
X99820314Y-105848400D01*
X99772695Y-105896019D01*
X99725076Y-105991257D01*
X99725076Y-106229352D01*
X99772695Y-106324590D01*
X99820314Y-106372210D01*
X99915552Y-106419829D01*
X100106029Y-106419829D01*
X100201267Y-106372210D01*
X100248886Y-106324590D01*
X100296505Y-106229352D01*
X91140043Y-106705543D02*
X91092424Y-106753162D01*
X90949567Y-106800781D01*
X90854329Y-106800781D01*
X90711471Y-106753162D01*
X90616233Y-106657924D01*
X90568614Y-106562686D01*
X90520995Y-106372210D01*
X90520995Y-106229352D01*
X90568614Y-106038876D01*
X90616233Y-105943638D01*
X90711471Y-105848400D01*
X90854329Y-105800781D01*
X90949567Y-105800781D01*
X91092424Y-105848400D01*
X91140043Y-105896019D01*
X91520995Y-105896019D02*
X91568614Y-105848400D01*
X91663852Y-105800781D01*
X91901948Y-105800781D01*
X91997186Y-105848400D01*
X92044805Y-105896019D01*
X92092424Y-105991257D01*
X92092424Y-106086495D01*
X92044805Y-106229352D01*
X91473376Y-106800781D01*
X92092424Y-106800781D01*
X92711471Y-105800781D02*
X92806710Y-105800781D01*
X92901948Y-105848400D01*
X92949567Y-105896019D01*
X92997186Y-105991257D01*
X93044805Y-106181733D01*
X93044805Y-106419829D01*
X92997186Y-106610305D01*
X92949567Y-106705543D01*
X92901948Y-106753162D01*
X92806710Y-106800781D01*
X92711471Y-106800781D01*
X92616233Y-106753162D01*
X92568614Y-106705543D01*
X92520995Y-106610305D01*
X92473376Y-106419829D01*
X92473376Y-106181733D01*
X92520995Y-105991257D01*
X92568614Y-105896019D01*
X92616233Y-105848400D01*
X92711471Y-105800781D01*
X98391743Y-91186143D02*
X98344124Y-91233762D01*
X98201267Y-91281381D01*
X98106029Y-91281381D01*
X97963171Y-91233762D01*
X97867933Y-91138524D01*
X97820314Y-91043286D01*
X97772695Y-90852810D01*
X97772695Y-90709952D01*
X97820314Y-90519476D01*
X97867933Y-90424238D01*
X97963171Y-90329000D01*
X98106029Y-90281381D01*
X98201267Y-90281381D01*
X98344124Y-90329000D01*
X98391743Y-90376619D01*
X98772695Y-90376619D02*
X98820314Y-90329000D01*
X98915552Y-90281381D01*
X99153648Y-90281381D01*
X99248886Y-90329000D01*
X99296505Y-90376619D01*
X99344124Y-90471857D01*
X99344124Y-90567095D01*
X99296505Y-90709952D01*
X98725076Y-91281381D01*
X99344124Y-91281381D01*
X100296505Y-91281381D02*
X99725076Y-91281381D01*
X100010790Y-91281381D02*
X100010790Y-90281381D01*
X99915552Y-90424238D01*
X99820314Y-90519476D01*
X99725076Y-90567095D01*
X94759543Y-91186143D02*
X94711924Y-91233762D01*
X94569067Y-91281381D01*
X94473829Y-91281381D01*
X94330971Y-91233762D01*
X94235733Y-91138524D01*
X94188114Y-91043286D01*
X94140495Y-90852810D01*
X94140495Y-90709952D01*
X94188114Y-90519476D01*
X94235733Y-90424238D01*
X94330971Y-90329000D01*
X94473829Y-90281381D01*
X94569067Y-90281381D01*
X94711924Y-90329000D01*
X94759543Y-90376619D01*
X95140495Y-90376619D02*
X95188114Y-90329000D01*
X95283352Y-90281381D01*
X95521448Y-90281381D01*
X95616686Y-90329000D01*
X95664305Y-90376619D01*
X95711924Y-90471857D01*
X95711924Y-90567095D01*
X95664305Y-90709952D01*
X95092876Y-91281381D01*
X95711924Y-91281381D01*
X96092876Y-90376619D02*
X96140495Y-90329000D01*
X96235733Y-90281381D01*
X96473829Y-90281381D01*
X96569067Y-90329000D01*
X96616686Y-90376619D01*
X96664305Y-90471857D01*
X96664305Y-90567095D01*
X96616686Y-90709952D01*
X96045257Y-91281381D01*
X96664305Y-91281381D01*
X91127343Y-91186143D02*
X91079724Y-91233762D01*
X90936867Y-91281381D01*
X90841629Y-91281381D01*
X90698771Y-91233762D01*
X90603533Y-91138524D01*
X90555914Y-91043286D01*
X90508295Y-90852810D01*
X90508295Y-90709952D01*
X90555914Y-90519476D01*
X90603533Y-90424238D01*
X90698771Y-90329000D01*
X90841629Y-90281381D01*
X90936867Y-90281381D01*
X91079724Y-90329000D01*
X91127343Y-90376619D01*
X91508295Y-90376619D02*
X91555914Y-90329000D01*
X91651152Y-90281381D01*
X91889248Y-90281381D01*
X91984486Y-90329000D01*
X92032105Y-90376619D01*
X92079724Y-90471857D01*
X92079724Y-90567095D01*
X92032105Y-90709952D01*
X91460676Y-91281381D01*
X92079724Y-91281381D01*
X92413057Y-90281381D02*
X93032105Y-90281381D01*
X92698771Y-90662333D01*
X92841629Y-90662333D01*
X92936867Y-90709952D01*
X92984486Y-90757571D01*
X93032105Y-90852810D01*
X93032105Y-91090905D01*
X92984486Y-91186143D01*
X92936867Y-91233762D01*
X92841629Y-91281381D01*
X92555914Y-91281381D01*
X92460676Y-91233762D01*
X92413057Y-91186143D01*
X87495143Y-91186143D02*
X87447524Y-91233762D01*
X87304667Y-91281381D01*
X87209429Y-91281381D01*
X87066571Y-91233762D01*
X86971333Y-91138524D01*
X86923714Y-91043286D01*
X86876095Y-90852810D01*
X86876095Y-90709952D01*
X86923714Y-90519476D01*
X86971333Y-90424238D01*
X87066571Y-90329000D01*
X87209429Y-90281381D01*
X87304667Y-90281381D01*
X87447524Y-90329000D01*
X87495143Y-90376619D01*
X87876095Y-90376619D02*
X87923714Y-90329000D01*
X88018952Y-90281381D01*
X88257048Y-90281381D01*
X88352286Y-90329000D01*
X88399905Y-90376619D01*
X88447524Y-90471857D01*
X88447524Y-90567095D01*
X88399905Y-90709952D01*
X87828476Y-91281381D01*
X88447524Y-91281381D01*
X89304667Y-90614714D02*
X89304667Y-91281381D01*
X89066571Y-90233762D02*
X88828476Y-90948048D01*
X89447524Y-90948048D01*
X101998543Y-91186143D02*
X101950924Y-91233762D01*
X101808067Y-91281381D01*
X101712829Y-91281381D01*
X101569971Y-91233762D01*
X101474733Y-91138524D01*
X101427114Y-91043286D01*
X101379495Y-90852810D01*
X101379495Y-90709952D01*
X101427114Y-90519476D01*
X101474733Y-90424238D01*
X101569971Y-90329000D01*
X101712829Y-90281381D01*
X101808067Y-90281381D01*
X101950924Y-90329000D01*
X101998543Y-90376619D01*
X102379495Y-90376619D02*
X102427114Y-90329000D01*
X102522352Y-90281381D01*
X102760448Y-90281381D01*
X102855686Y-90329000D01*
X102903305Y-90376619D01*
X102950924Y-90471857D01*
X102950924Y-90567095D01*
X102903305Y-90709952D01*
X102331876Y-91281381D01*
X102950924Y-91281381D01*
X103855686Y-90281381D02*
X103379495Y-90281381D01*
X103331876Y-90757571D01*
X103379495Y-90709952D01*
X103474733Y-90662333D01*
X103712829Y-90662333D01*
X103808067Y-90709952D01*
X103855686Y-90757571D01*
X103903305Y-90852810D01*
X103903305Y-91090905D01*
X103855686Y-91186143D01*
X103808067Y-91233762D01*
X103712829Y-91281381D01*
X103474733Y-91281381D01*
X103379495Y-91233762D01*
X103331876Y-91186143D01*
X105630743Y-91186143D02*
X105583124Y-91233762D01*
X105440267Y-91281381D01*
X105345029Y-91281381D01*
X105202171Y-91233762D01*
X105106933Y-91138524D01*
X105059314Y-91043286D01*
X105011695Y-90852810D01*
X105011695Y-90709952D01*
X105059314Y-90519476D01*
X105106933Y-90424238D01*
X105202171Y-90329000D01*
X105345029Y-90281381D01*
X105440267Y-90281381D01*
X105583124Y-90329000D01*
X105630743Y-90376619D01*
X106011695Y-90376619D02*
X106059314Y-90329000D01*
X106154552Y-90281381D01*
X106392648Y-90281381D01*
X106487886Y-90329000D01*
X106535505Y-90376619D01*
X106583124Y-90471857D01*
X106583124Y-90567095D01*
X106535505Y-90709952D01*
X105964076Y-91281381D01*
X106583124Y-91281381D01*
X107440267Y-90281381D02*
X107249790Y-90281381D01*
X107154552Y-90329000D01*
X107106933Y-90376619D01*
X107011695Y-90519476D01*
X106964076Y-90709952D01*
X106964076Y-91090905D01*
X107011695Y-91186143D01*
X107059314Y-91233762D01*
X107154552Y-91281381D01*
X107345029Y-91281381D01*
X107440267Y-91233762D01*
X107487886Y-91186143D01*
X107535505Y-91090905D01*
X107535505Y-90852810D01*
X107487886Y-90757571D01*
X107440267Y-90709952D01*
X107345029Y-90662333D01*
X107154552Y-90662333D01*
X107059314Y-90709952D01*
X107011695Y-90757571D01*
X106964076Y-90852810D01*
X109262943Y-91186143D02*
X109215324Y-91233762D01*
X109072467Y-91281381D01*
X108977229Y-91281381D01*
X108834371Y-91233762D01*
X108739133Y-91138524D01*
X108691514Y-91043286D01*
X108643895Y-90852810D01*
X108643895Y-90709952D01*
X108691514Y-90519476D01*
X108739133Y-90424238D01*
X108834371Y-90329000D01*
X108977229Y-90281381D01*
X109072467Y-90281381D01*
X109215324Y-90329000D01*
X109262943Y-90376619D01*
X109643895Y-90376619D02*
X109691514Y-90329000D01*
X109786752Y-90281381D01*
X110024848Y-90281381D01*
X110120086Y-90329000D01*
X110167705Y-90376619D01*
X110215324Y-90471857D01*
X110215324Y-90567095D01*
X110167705Y-90709952D01*
X109596276Y-91281381D01*
X110215324Y-91281381D01*
X110548657Y-90281381D02*
X111215324Y-90281381D01*
X110786752Y-91281381D01*
X112895143Y-91186143D02*
X112847524Y-91233762D01*
X112704667Y-91281381D01*
X112609429Y-91281381D01*
X112466571Y-91233762D01*
X112371333Y-91138524D01*
X112323714Y-91043286D01*
X112276095Y-90852810D01*
X112276095Y-90709952D01*
X112323714Y-90519476D01*
X112371333Y-90424238D01*
X112466571Y-90329000D01*
X112609429Y-90281381D01*
X112704667Y-90281381D01*
X112847524Y-90329000D01*
X112895143Y-90376619D01*
X113276095Y-90376619D02*
X113323714Y-90329000D01*
X113418952Y-90281381D01*
X113657048Y-90281381D01*
X113752286Y-90329000D01*
X113799905Y-90376619D01*
X113847524Y-90471857D01*
X113847524Y-90567095D01*
X113799905Y-90709952D01*
X113228476Y-91281381D01*
X113847524Y-91281381D01*
X114418952Y-90709952D02*
X114323714Y-90662333D01*
X114276095Y-90614714D01*
X114228476Y-90519476D01*
X114228476Y-90471857D01*
X114276095Y-90376619D01*
X114323714Y-90329000D01*
X114418952Y-90281381D01*
X114609429Y-90281381D01*
X114704667Y-90329000D01*
X114752286Y-90376619D01*
X114799905Y-90471857D01*
X114799905Y-90519476D01*
X114752286Y-90614714D01*
X114704667Y-90662333D01*
X114609429Y-90709952D01*
X114418952Y-90709952D01*
X114323714Y-90757571D01*
X114276095Y-90805190D01*
X114228476Y-90900429D01*
X114228476Y-91090905D01*
X114276095Y-91186143D01*
X114323714Y-91233762D01*
X114418952Y-91281381D01*
X114609429Y-91281381D01*
X114704667Y-91233762D01*
X114752286Y-91186143D01*
X114799905Y-91090905D01*
X114799905Y-90900429D01*
X114752286Y-90805190D01*
X114704667Y-90757571D01*
X114609429Y-90709952D01*
M02*
