G04 #@! TF.FileFunction,Copper,L2,Bot,Signal*
%FSLAX46Y46*%
G04 Gerber Fmt 4.6, Leading zero omitted, Abs format (unit mm)*
G04 Created by KiCad (PCBNEW 4.0.6-e0-6349~53~ubuntu16.04.1) date Thu Jul 27 09:56:00 2017*
%MOMM*%
%LPD*%
G01*
G04 APERTURE LIST*
%ADD10C,0.100000*%
%ADD11C,1.727200*%
%ADD12R,1.000000X1.000000*%
%ADD13O,1.000000X1.000000*%
%ADD14C,1.520000*%
%ADD15C,2.700000*%
%ADD16C,3.000000*%
%ADD17C,0.600000*%
%ADD18C,4.000000*%
%ADD19C,0.800000*%
%ADD20C,0.400000*%
%ADD21C,0.254000*%
G04 APERTURE END LIST*
D10*
D11*
X116750000Y-115160000D03*
X119290000Y-115160000D03*
X121830000Y-115160000D03*
X124370000Y-115160000D03*
X126910000Y-115160000D03*
X129450000Y-115160000D03*
X131990000Y-115160000D03*
X134530000Y-115160000D03*
X137070000Y-115160000D03*
X139610000Y-115160000D03*
X142150000Y-115160000D03*
X144690000Y-115160000D03*
X147230000Y-115160000D03*
X149770000Y-115160000D03*
X152310000Y-115160000D03*
X154850000Y-115160000D03*
X157390000Y-115160000D03*
X159930000Y-115160000D03*
X162470000Y-115160000D03*
X165010000Y-115160000D03*
X167550000Y-115160000D03*
X170090000Y-115160000D03*
X172630000Y-115160000D03*
X175170000Y-115160000D03*
X177710000Y-115160000D03*
X180250000Y-115160000D03*
X180250000Y-94840000D03*
X177710000Y-94840000D03*
X175170000Y-94840000D03*
X172630000Y-94840000D03*
X170090000Y-94840000D03*
X167550000Y-94840000D03*
X165010000Y-94840000D03*
X162470000Y-94840000D03*
X159930000Y-94840000D03*
X157390000Y-94840000D03*
X154850000Y-94840000D03*
X152310000Y-94840000D03*
X149770000Y-94840000D03*
X147230000Y-94840000D03*
X144690000Y-94840000D03*
X142150000Y-94840000D03*
X139610000Y-94840000D03*
X137070000Y-94840000D03*
X134530000Y-94840000D03*
X131990000Y-94840000D03*
X129450000Y-94840000D03*
X126910000Y-94840000D03*
X124370000Y-94840000D03*
X121830000Y-94840000D03*
X119290000Y-94840000D03*
X116750000Y-94840000D03*
D12*
X88163400Y-109372400D03*
D13*
X88163400Y-110642400D03*
X88163400Y-111912400D03*
X88163400Y-113182400D03*
D12*
X95402400Y-109372400D03*
D13*
X95402400Y-110642400D03*
X95402400Y-111912400D03*
X95402400Y-113182400D03*
D12*
X102666800Y-109372400D03*
D13*
X102666800Y-110642400D03*
X102666800Y-111912400D03*
X102666800Y-113182400D03*
D12*
X109931200Y-109372400D03*
D13*
X109931200Y-110642400D03*
X109931200Y-111912400D03*
X109931200Y-113182400D03*
D12*
X113563400Y-109359700D03*
D13*
X113563400Y-110629700D03*
X113563400Y-111899700D03*
X113563400Y-113169700D03*
D12*
X106299000Y-109372400D03*
D13*
X106299000Y-110642400D03*
X106299000Y-111912400D03*
X106299000Y-113182400D03*
D12*
X99034600Y-109372400D03*
D13*
X99034600Y-110642400D03*
X99034600Y-111912400D03*
X99034600Y-113182400D03*
D12*
X91782900Y-109372400D03*
D13*
X91782900Y-110642400D03*
X91782900Y-111912400D03*
X91782900Y-113182400D03*
D12*
X99034600Y-93853000D03*
D13*
X99034600Y-95123000D03*
X99034600Y-96393000D03*
X99034600Y-97663000D03*
D12*
X95402400Y-93853000D03*
D13*
X95402400Y-95123000D03*
X95402400Y-96393000D03*
X95402400Y-97663000D03*
D12*
X91770200Y-93853000D03*
D13*
X91770200Y-95123000D03*
X91770200Y-96393000D03*
X91770200Y-97663000D03*
D12*
X88138000Y-93853000D03*
D13*
X88138000Y-95123000D03*
X88138000Y-96393000D03*
X88138000Y-97663000D03*
D12*
X102641400Y-93853000D03*
D13*
X102641400Y-95123000D03*
X102641400Y-96393000D03*
X102641400Y-97663000D03*
D12*
X106273600Y-93853000D03*
D13*
X106273600Y-95123000D03*
X106273600Y-96393000D03*
X106273600Y-97663000D03*
D12*
X109905800Y-93853000D03*
D13*
X109905800Y-95123000D03*
X109905800Y-96393000D03*
X109905800Y-97663000D03*
D12*
X113538000Y-93853000D03*
D13*
X113538000Y-95123000D03*
X113538000Y-96393000D03*
X113538000Y-97663000D03*
D14*
X174500000Y-106040000D03*
X174500000Y-103500000D03*
X176500000Y-103500000D03*
X176500000Y-106040000D03*
D15*
X179200000Y-110770000D03*
X179200000Y-98770000D03*
D16*
X162500000Y-106000000D03*
D17*
X122478800Y-107569000D03*
X133273800Y-113588800D03*
X132105400Y-104394000D03*
X132410200Y-113588800D03*
X131597400Y-113614200D03*
X131267200Y-104394000D03*
X132943600Y-104394000D03*
X154178000Y-104838500D03*
X147637500Y-98996500D03*
X154114500Y-105918000D03*
X149352000Y-105918000D03*
D18*
X154432000Y-100076000D03*
D17*
X122453400Y-105435400D03*
X130556000Y-98526600D03*
X86639400Y-116052600D03*
X90271600Y-116052600D03*
X93878400Y-116052600D03*
X97510600Y-116052600D03*
X101142800Y-116052600D03*
X104775000Y-116052600D03*
X108356400Y-116103400D03*
X112014000Y-116205000D03*
X150876000Y-107061000D03*
X143637000Y-110998000D03*
X145796000Y-110998000D03*
X165290500Y-100520500D03*
X162814000Y-100457000D03*
X168402000Y-104267000D03*
X168402000Y-107251500D03*
X157480000Y-106934000D03*
X157607000Y-105219500D03*
X149352000Y-98552000D03*
X149415500Y-101663500D03*
X149415500Y-100012500D03*
X164211000Y-101473000D03*
X89966800Y-107645200D03*
X93599000Y-107645200D03*
X116636800Y-106426000D03*
X97205800Y-107797600D03*
X104444800Y-107848400D03*
X108026200Y-107975400D03*
X115138200Y-109347000D03*
X115036600Y-110617000D03*
X142417800Y-113080800D03*
X142570200Y-112242600D03*
X142646400Y-111379000D03*
X142951200Y-110439200D03*
X143459200Y-109778800D03*
X143383000Y-108940600D03*
X143916400Y-108229400D03*
X142519400Y-107848400D03*
X129844800Y-104343200D03*
X141503400Y-104089200D03*
X143560800Y-102971600D03*
X144272000Y-102133400D03*
X143459200Y-101650800D03*
X143992600Y-100990400D03*
X144526000Y-100330000D03*
X144018000Y-99593400D03*
X143179800Y-99085400D03*
X145364200Y-103428800D03*
X145669000Y-109791500D03*
X146786600Y-103809800D03*
X146812000Y-110680500D03*
X167513000Y-111569500D03*
X162242500Y-101663500D03*
X160210500Y-110998000D03*
X161036000Y-112141000D03*
X161925000Y-113411000D03*
D19*
X177710000Y-94840000D02*
X177710000Y-94882800D01*
X177710000Y-94882800D02*
X176149000Y-96443800D01*
D20*
X117652800Y-96342200D02*
X116750000Y-95439400D01*
X123926600Y-96342200D02*
X117652800Y-96342200D01*
X124028200Y-96443800D02*
X123926600Y-96342200D01*
D19*
X176149000Y-96443800D02*
X124028200Y-96443800D01*
D20*
X116750000Y-95439400D02*
X116750000Y-94840000D01*
X154178000Y-104838500D02*
X151320500Y-104838500D01*
X151320500Y-104838500D02*
X149352000Y-102870000D01*
X149352000Y-105918000D02*
X148691600Y-105918000D01*
X146151600Y-103022400D02*
X145770600Y-102641400D01*
X147091400Y-103022400D02*
X146151600Y-103022400D01*
X147574000Y-103505000D02*
X147091400Y-103022400D01*
X147574000Y-104800400D02*
X147574000Y-103505000D01*
X148691600Y-105918000D02*
X147574000Y-104800400D01*
X132105400Y-105486200D02*
X132105400Y-104394000D01*
X130200400Y-107391200D02*
X132105400Y-105486200D01*
X122656600Y-107391200D02*
X130200400Y-107391200D01*
X122478800Y-107569000D02*
X122656600Y-107391200D01*
X119290000Y-115160000D02*
X119782800Y-115160000D01*
X119782800Y-115160000D02*
X121081800Y-116459000D01*
X133261100Y-113601500D02*
X133273800Y-113588800D01*
X133261100Y-115887500D02*
X133261100Y-113601500D01*
X132689600Y-116459000D02*
X133261100Y-115887500D01*
X121081800Y-116459000D02*
X132689600Y-116459000D01*
X154114500Y-105918000D02*
X154114500Y-107632500D01*
X133527800Y-113842800D02*
X133273800Y-113588800D01*
X147904200Y-113842800D02*
X133527800Y-113842800D01*
X154114500Y-107632500D02*
X147904200Y-113842800D01*
X145770600Y-102641400D02*
X144957800Y-102641400D01*
X144957800Y-102641400D02*
X144424400Y-103174800D01*
X144424400Y-103174800D02*
X144424400Y-103759000D01*
X144424400Y-103759000D02*
X143103600Y-105079800D01*
X143103600Y-105079800D02*
X132791200Y-105079800D01*
X132791200Y-105079800D02*
X132105400Y-104394000D01*
D21*
X91770200Y-95123000D02*
X88138000Y-95123000D01*
X91770200Y-95123000D02*
X95402400Y-95123000D01*
X99034600Y-95123000D02*
X95402400Y-95123000D01*
X102641400Y-95123000D02*
X99034600Y-95123000D01*
X106273600Y-95123000D02*
X102641400Y-95123000D01*
X113538000Y-95123000D02*
X116467000Y-95123000D01*
X116467000Y-95123000D02*
X116750000Y-94840000D01*
X109905800Y-95123000D02*
X106273600Y-95123000D01*
X113538000Y-95123000D02*
X109905800Y-95123000D01*
D20*
X148082000Y-101600000D02*
X149352000Y-102870000D01*
X148082000Y-99441000D02*
X148082000Y-101600000D01*
X147637500Y-98996500D02*
X148082000Y-99441000D01*
X154114500Y-105918000D02*
X149352000Y-105918000D01*
X162500000Y-106000000D02*
X162500000Y-107064500D01*
X162500000Y-107064500D02*
X166179500Y-110744000D01*
X166179500Y-110744000D02*
X166179500Y-112268000D01*
X166179500Y-112268000D02*
X166878000Y-112966500D01*
X166878000Y-112966500D02*
X169545000Y-112966500D01*
X169545000Y-112966500D02*
X174561500Y-107950000D01*
X174561500Y-107950000D02*
X177673000Y-107950000D01*
X177673000Y-107950000D02*
X178054000Y-107569000D01*
X178054000Y-107569000D02*
X178054000Y-105054000D01*
X178054000Y-105054000D02*
X176500000Y-103500000D01*
D19*
X154432000Y-100076000D02*
X154432000Y-100012500D01*
X178435000Y-96456500D02*
X178435000Y-96494600D01*
X176885600Y-98044000D02*
X174980600Y-98044000D01*
X178435000Y-96494600D02*
X176885600Y-98044000D01*
X149352000Y-98552000D02*
X148920200Y-98552000D01*
X148920200Y-98552000D02*
X148336000Y-97967800D01*
X149352000Y-98552000D02*
X151231600Y-98552000D01*
X151231600Y-98552000D02*
X151714200Y-98069400D01*
X151714200Y-98069400D02*
X174955200Y-98069400D01*
X174955200Y-98069400D02*
X174980600Y-98044000D01*
D20*
X122453400Y-105435400D02*
X120015000Y-105435400D01*
X120015000Y-105435400D02*
X118491000Y-103911400D01*
X118491000Y-103911400D02*
X93421200Y-103911400D01*
X93421200Y-103911400D02*
X91033600Y-106299000D01*
X91033600Y-106299000D02*
X89027000Y-106299000D01*
X88163400Y-107162600D02*
X88163400Y-109372400D01*
X89027000Y-106299000D02*
X88163400Y-107162600D01*
X130556000Y-98526600D02*
X131114800Y-97967800D01*
X131114800Y-97967800D02*
X144627600Y-97967800D01*
X144627600Y-97967800D02*
X144830800Y-97967800D01*
X144830800Y-97967800D02*
X144881600Y-97967800D01*
X144881600Y-97967800D02*
X148209000Y-97967800D01*
X148209000Y-97967800D02*
X148336000Y-97967800D01*
D21*
X90271600Y-116052600D02*
X86639400Y-116052600D01*
X93878400Y-116052600D02*
X90271600Y-116052600D01*
X97510600Y-116052600D02*
X93878400Y-116052600D01*
X101142800Y-116052600D02*
X97510600Y-116052600D01*
X104775000Y-116052600D02*
X101142800Y-116052600D01*
X108356400Y-116103400D02*
X104825800Y-116103400D01*
X104825800Y-116103400D02*
X104775000Y-116052600D01*
X112014000Y-116205000D02*
X108458000Y-116205000D01*
X108458000Y-116205000D02*
X108356400Y-116103400D01*
D20*
X116750000Y-115160000D02*
X116488000Y-115160000D01*
X116488000Y-115160000D02*
X115443000Y-116205000D01*
X115443000Y-116205000D02*
X112014000Y-116205000D01*
X145796000Y-110998000D02*
X145796000Y-111696500D01*
X150876000Y-109029500D02*
X150876000Y-107061000D01*
X147828000Y-112077500D02*
X150876000Y-109029500D01*
X146177000Y-112077500D02*
X147828000Y-112077500D01*
X145796000Y-111696500D02*
X146177000Y-112077500D01*
X145796000Y-110998000D02*
X145415000Y-110998000D01*
X145415000Y-110998000D02*
X143637000Y-110998000D01*
X162814000Y-100457000D02*
X161290000Y-100457000D01*
X161290000Y-100457000D02*
X160845500Y-100012500D01*
X160845500Y-100012500D02*
X154432000Y-100012500D01*
X154432000Y-100012500D02*
X149415500Y-100012500D01*
X168402000Y-104267000D02*
X168402000Y-107251500D01*
D21*
X165290500Y-100520500D02*
X165227000Y-100457000D01*
X165227000Y-100457000D02*
X162814000Y-100457000D01*
D20*
X157480000Y-105346500D02*
X157480000Y-106934000D01*
X157607000Y-105219500D02*
X157480000Y-105346500D01*
D19*
X149415500Y-101663500D02*
X149415500Y-100012500D01*
X180250000Y-94840000D02*
X180250000Y-95594000D01*
X180250000Y-95594000D02*
X179387500Y-96456500D01*
X179387500Y-96456500D02*
X178435000Y-96456500D01*
D21*
X164211000Y-101473000D02*
X164528500Y-101473000D01*
X173350000Y-103500000D02*
X174500000Y-103500000D01*
X172656500Y-102806500D02*
X173350000Y-103500000D01*
X167386000Y-102806500D02*
X172656500Y-102806500D01*
X166433500Y-101854000D02*
X167386000Y-102806500D01*
X164909500Y-101854000D02*
X166433500Y-101854000D01*
X164528500Y-101473000D02*
X164909500Y-101854000D01*
X89052400Y-111912400D02*
X88163400Y-111912400D01*
X89357200Y-111607600D02*
X89052400Y-111912400D01*
X89357200Y-110998000D02*
X89357200Y-111607600D01*
X89839800Y-110515400D02*
X89357200Y-110998000D01*
X89839800Y-107772200D02*
X89839800Y-110515400D01*
X89966800Y-107645200D02*
X89839800Y-107772200D01*
X89433400Y-113182400D02*
X88163400Y-113182400D01*
X90093800Y-112522000D02*
X89433400Y-113182400D01*
X90093800Y-111633000D02*
X90093800Y-112522000D01*
X90652600Y-111074200D02*
X90093800Y-111633000D01*
X90652600Y-108788200D02*
X90652600Y-111074200D01*
X91033600Y-108407200D02*
X90652600Y-108788200D01*
X92837000Y-108407200D02*
X91033600Y-108407200D01*
X93599000Y-107645200D02*
X92837000Y-108407200D01*
X94589600Y-111912400D02*
X95402400Y-111912400D01*
X94437200Y-112064800D02*
X94589600Y-111912400D01*
X94437200Y-113563400D02*
X94437200Y-112064800D01*
X95021400Y-114147600D02*
X94437200Y-113563400D01*
X96824800Y-114147600D02*
X95021400Y-114147600D01*
X97485200Y-113487200D02*
X96824800Y-114147600D01*
X97485200Y-112014000D02*
X97485200Y-113487200D01*
X98094800Y-111404400D02*
X97485200Y-112014000D01*
X98094800Y-108712000D02*
X98094800Y-111404400D01*
X98323400Y-108483400D02*
X98094800Y-108712000D01*
X100533200Y-108483400D02*
X98323400Y-108483400D01*
X101600000Y-107416600D02*
X100533200Y-108483400D01*
X102489000Y-107416600D02*
X101600000Y-107416600D01*
X103682800Y-106222800D02*
X102489000Y-107416600D01*
X111099600Y-106222800D02*
X103682800Y-106222800D01*
X111658400Y-105664000D02*
X111099600Y-106222800D01*
X115874800Y-105664000D02*
X111658400Y-105664000D01*
X116636800Y-106426000D02*
X115874800Y-105664000D01*
X96240600Y-113182400D02*
X95402400Y-113182400D01*
X96774000Y-112649000D02*
X96240600Y-113182400D01*
X96774000Y-111328200D02*
X96774000Y-112649000D01*
X97028000Y-111074200D02*
X96774000Y-111328200D01*
X97028000Y-107975400D02*
X97028000Y-111074200D01*
X97205800Y-107797600D02*
X97028000Y-107975400D01*
X104444800Y-107848400D02*
X104470200Y-107873800D01*
X104470200Y-107873800D02*
X104470200Y-111150400D01*
X102666800Y-111912400D02*
X103632000Y-111912400D01*
X103708200Y-111912400D02*
X104470200Y-111150400D01*
X103632000Y-111912400D02*
X103708200Y-111912400D01*
X108026200Y-107975400D02*
X107518200Y-108483400D01*
X107518200Y-108483400D02*
X105638600Y-108483400D01*
X105638600Y-108483400D02*
X105206800Y-108915200D01*
X105206800Y-108915200D02*
X105206800Y-111277400D01*
X105206800Y-111277400D02*
X104571800Y-111912400D01*
X104571800Y-111912400D02*
X104571800Y-112471200D01*
X104571800Y-112471200D02*
X103860600Y-113182400D01*
X102666800Y-113182400D02*
X103860600Y-113182400D01*
X111150400Y-111912400D02*
X109931200Y-111912400D01*
X115138200Y-109347000D02*
X114935000Y-109143800D01*
X114935000Y-109143800D02*
X114935000Y-108381800D01*
X114935000Y-108381800D02*
X114579400Y-108026200D01*
X114579400Y-108026200D02*
X112699800Y-108026200D01*
X112699800Y-108026200D02*
X112090200Y-108635800D01*
X112090200Y-108635800D02*
X112090200Y-110972600D01*
X112090200Y-110972600D02*
X111150400Y-111912400D01*
X110972600Y-113182400D02*
X109931200Y-113182400D01*
X112598200Y-111556800D02*
X110972600Y-113182400D01*
X112598200Y-108813600D02*
X112598200Y-111556800D01*
X112903000Y-108508800D02*
X112598200Y-108813600D01*
X114350800Y-108508800D02*
X112903000Y-108508800D01*
X114452400Y-108610400D02*
X114350800Y-108508800D01*
X114452400Y-109677200D02*
X114452400Y-108610400D01*
X115036600Y-110261400D02*
X114452400Y-109677200D01*
X115036600Y-110617000D02*
X115036600Y-110261400D01*
X122326400Y-113868200D02*
X115112800Y-113868200D01*
X142417800Y-113080800D02*
X142392400Y-113055400D01*
X142392400Y-113055400D02*
X133934200Y-113055400D01*
X133934200Y-113055400D02*
X133756400Y-112877600D01*
X133756400Y-112877600D02*
X131343400Y-112877600D01*
X131343400Y-112877600D02*
X130352800Y-113868200D01*
X130352800Y-113868200D02*
X122326400Y-113868200D01*
X112699800Y-112471200D02*
X113271300Y-111899700D01*
X112699800Y-113563400D02*
X112699800Y-112471200D01*
X113157000Y-114020600D02*
X112699800Y-113563400D01*
X114960400Y-114020600D02*
X113157000Y-114020600D01*
X115112800Y-113868200D02*
X114960400Y-114020600D01*
X113271300Y-111899700D02*
X113563400Y-111899700D01*
X113753900Y-113360200D02*
X122326400Y-113360200D01*
X142570200Y-112242600D02*
X142392400Y-112420400D01*
X142392400Y-112420400D02*
X142087600Y-112420400D01*
X142087600Y-112420400D02*
X141935200Y-112572800D01*
X141935200Y-112572800D02*
X134162800Y-112572800D01*
X134162800Y-112572800D02*
X133985000Y-112395000D01*
X133985000Y-112395000D02*
X131140200Y-112395000D01*
X131140200Y-112395000D02*
X130175000Y-113360200D01*
X130175000Y-113360200D02*
X122326400Y-113360200D01*
X113753900Y-113360200D02*
X113563400Y-113169700D01*
X122326400Y-112877600D02*
X116408200Y-112877600D01*
X142646400Y-111379000D02*
X142417800Y-111379000D01*
X142417800Y-111379000D02*
X141706600Y-112090200D01*
X141706600Y-112090200D02*
X134340600Y-112090200D01*
X134340600Y-112090200D02*
X134162800Y-111912400D01*
X134162800Y-111912400D02*
X130962400Y-111912400D01*
X130962400Y-111912400D02*
X129997200Y-112877600D01*
X129997200Y-112877600D02*
X122326400Y-112877600D01*
X105714800Y-111912400D02*
X106299000Y-111912400D01*
X105384600Y-112242600D02*
X105714800Y-111912400D01*
X105384600Y-113639600D02*
X105384600Y-112242600D01*
X105892600Y-114147600D02*
X105384600Y-113639600D01*
X107746800Y-114147600D02*
X105892600Y-114147600D01*
X108915200Y-112979200D02*
X107746800Y-114147600D01*
X108915200Y-108788200D02*
X108915200Y-112979200D01*
X109194600Y-108508800D02*
X108915200Y-108788200D01*
X111531400Y-108508800D02*
X109194600Y-108508800D01*
X112496600Y-107543600D02*
X111531400Y-108508800D01*
X114808000Y-107543600D02*
X112496600Y-107543600D01*
X115798600Y-108534200D02*
X114808000Y-107543600D01*
X115798600Y-112268000D02*
X115798600Y-108534200D01*
X116408200Y-112877600D02*
X115798600Y-112268000D01*
X122529600Y-112395000D02*
X116633602Y-112395000D01*
X142951200Y-110439200D02*
X142697200Y-110693200D01*
X142697200Y-110693200D02*
X142392400Y-110693200D01*
X142392400Y-110693200D02*
X141478000Y-111607600D01*
X141478000Y-111607600D02*
X134518400Y-111607600D01*
X134518400Y-111607600D02*
X134340600Y-111429800D01*
X134340600Y-111429800D02*
X130759200Y-111429800D01*
X130759200Y-111429800D02*
X129794000Y-112395000D01*
X129794000Y-112395000D02*
X122529600Y-112395000D01*
X107518200Y-113182400D02*
X106299000Y-113182400D01*
X108407200Y-112293400D02*
X107518200Y-113182400D01*
X108407200Y-108585000D02*
X108407200Y-112293400D01*
X108966000Y-108026200D02*
X108407200Y-108585000D01*
X111353600Y-108026200D02*
X108966000Y-108026200D01*
X112290202Y-107089598D02*
X111353600Y-108026200D01*
X115014398Y-107089598D02*
X112290202Y-107089598D01*
X116281200Y-108356400D02*
X115014398Y-107089598D01*
X116281200Y-112042598D02*
X116281200Y-108356400D01*
X116633602Y-112395000D02*
X116281200Y-112042598D01*
X122504200Y-111912400D02*
X117068600Y-111912400D01*
X143459200Y-109778800D02*
X142646400Y-109778800D01*
X142646400Y-109778800D02*
X142316200Y-110109000D01*
X142316200Y-110109000D02*
X142265400Y-110109000D01*
X142265400Y-110109000D02*
X141274800Y-111099600D01*
X141274800Y-111099600D02*
X134797800Y-111099600D01*
X134797800Y-111099600D02*
X134620000Y-110921800D01*
X134620000Y-110921800D02*
X130606800Y-110921800D01*
X130606800Y-110921800D02*
X129616200Y-111912400D01*
X129616200Y-111912400D02*
X122504200Y-111912400D01*
X98526600Y-111912400D02*
X99034600Y-111912400D01*
X98120200Y-112318800D02*
X98526600Y-111912400D01*
X98120200Y-113614200D02*
X98120200Y-112318800D01*
X98602800Y-114096800D02*
X98120200Y-113614200D01*
X100787200Y-114096800D02*
X98602800Y-114096800D01*
X101650800Y-113233200D02*
X100787200Y-114096800D01*
X101650800Y-108762800D02*
X101650800Y-113233200D01*
X101904800Y-108508800D02*
X101650800Y-108762800D01*
X102997000Y-108508800D02*
X101904800Y-108508800D01*
X103454200Y-108051600D02*
X102997000Y-108508800D01*
X103454200Y-107873800D02*
X103454200Y-108051600D01*
X104140000Y-107188000D02*
X103454200Y-107873800D01*
X104749600Y-107188000D02*
X104140000Y-107188000D01*
X104876600Y-107315000D02*
X104749600Y-107188000D01*
X111404400Y-107315000D02*
X104876600Y-107315000D01*
X112090200Y-106629200D02*
X111404400Y-107315000D01*
X115214400Y-106629200D02*
X112090200Y-106629200D01*
X116763800Y-108178600D02*
X115214400Y-106629200D01*
X116763800Y-111607600D02*
X116763800Y-108178600D01*
X117068600Y-111912400D02*
X116763800Y-111607600D01*
X99034600Y-113182400D02*
X100304600Y-113182400D01*
X129438400Y-111429800D02*
X123342400Y-111429800D01*
X130429000Y-110439200D02*
X129438400Y-111429800D01*
X134848600Y-110439200D02*
X130429000Y-110439200D01*
X135026400Y-110617000D02*
X134848600Y-110439200D01*
X141071600Y-110617000D02*
X135026400Y-110617000D01*
X142392400Y-109296200D02*
X141071600Y-110617000D01*
X143002000Y-109296200D02*
X142392400Y-109296200D01*
X143179800Y-109118400D02*
X143002000Y-109296200D01*
X143205200Y-109118400D02*
X143179800Y-109118400D01*
X143383000Y-108940600D02*
X143205200Y-109118400D01*
X117830600Y-111429800D02*
X123342400Y-111429800D01*
X117271800Y-110871000D02*
X117830600Y-111429800D01*
X117271800Y-107975400D02*
X117271800Y-110871000D01*
X115443000Y-106146600D02*
X117271800Y-107975400D01*
X111861600Y-106146600D02*
X115443000Y-106146600D01*
X111302800Y-106705400D02*
X111861600Y-106146600D01*
X103911400Y-106705400D02*
X111302800Y-106705400D01*
X102717600Y-107899200D02*
X103911400Y-106705400D01*
X101803200Y-107899200D02*
X102717600Y-107899200D01*
X101092000Y-108610400D02*
X101803200Y-107899200D01*
X101092000Y-112395000D02*
X101092000Y-108610400D01*
X100304600Y-113182400D02*
X101092000Y-112395000D01*
X123393200Y-110947200D02*
X118237000Y-110947200D01*
X129235200Y-110947200D02*
X123393200Y-110947200D01*
X130225800Y-109956600D02*
X129235200Y-110947200D01*
X135026400Y-109956600D02*
X130225800Y-109956600D01*
X135204200Y-110134400D02*
X135026400Y-109956600D01*
X140871598Y-110134400D02*
X135204200Y-110134400D01*
X142192398Y-108813600D02*
X140871598Y-110134400D01*
X142570200Y-108813600D02*
X142192398Y-108813600D01*
X143129000Y-108254800D02*
X142570200Y-108813600D01*
X143891000Y-108254800D02*
X143129000Y-108254800D01*
X143916400Y-108229400D02*
X143891000Y-108254800D01*
X91084400Y-111912400D02*
X91782900Y-111912400D01*
X90855800Y-112141000D02*
X91084400Y-111912400D01*
X90855800Y-113665000D02*
X90855800Y-112141000D01*
X91262200Y-114071400D02*
X90855800Y-113665000D01*
X92532200Y-114071400D02*
X91262200Y-114071400D01*
X93624400Y-112979200D02*
X92532200Y-114071400D01*
X93624400Y-111988600D02*
X93624400Y-112979200D01*
X94157800Y-111455200D02*
X93624400Y-111988600D01*
X94157800Y-108864400D02*
X94157800Y-111455200D01*
X94538800Y-108483400D02*
X94157800Y-108864400D01*
X95554800Y-108483400D02*
X94538800Y-108483400D01*
X96901000Y-107137200D02*
X95554800Y-108483400D01*
X100914200Y-107137200D02*
X96901000Y-107137200D01*
X101117400Y-106934000D02*
X100914200Y-107137200D01*
X102285800Y-106934000D02*
X101117400Y-106934000D01*
X103479600Y-105740200D02*
X102285800Y-106934000D01*
X110899598Y-105740200D02*
X103479600Y-105740200D01*
X111458398Y-105181400D02*
X110899598Y-105740200D01*
X116382800Y-105181400D02*
X111458398Y-105181400D01*
X117348000Y-106146600D02*
X116382800Y-105181400D01*
X117348000Y-107289600D02*
X117348000Y-106146600D01*
X117779800Y-107721400D02*
X117348000Y-107289600D01*
X117779800Y-110490000D02*
X117779800Y-107721400D01*
X118237000Y-110947200D02*
X117779800Y-110490000D01*
X123418600Y-110464600D02*
X118770400Y-110464600D01*
X92913200Y-112547400D02*
X92278200Y-113182400D01*
X92913200Y-111277400D02*
X92913200Y-112547400D01*
X93395800Y-110794800D02*
X92913200Y-111277400D01*
X93395800Y-108839000D02*
X93395800Y-110794800D01*
X94284800Y-107950000D02*
X93395800Y-108839000D01*
X95351600Y-107950000D02*
X94284800Y-107950000D01*
X96647000Y-106654600D02*
X95351600Y-107950000D01*
X100711000Y-106654600D02*
X96647000Y-106654600D01*
X100914200Y-106451400D02*
X100711000Y-106654600D01*
X102057200Y-106451400D02*
X100914200Y-106451400D01*
X103251000Y-105257600D02*
X102057200Y-106451400D01*
X110693200Y-105257600D02*
X103251000Y-105257600D01*
X111252000Y-104698800D02*
X110693200Y-105257600D01*
X116586000Y-104698800D02*
X111252000Y-104698800D01*
X117856000Y-105968800D02*
X116586000Y-104698800D01*
X117856000Y-106959400D02*
X117856000Y-105968800D01*
X118313200Y-107416600D02*
X117856000Y-106959400D01*
X118313200Y-110007400D02*
X118313200Y-107416600D01*
X118770400Y-110464600D02*
X118313200Y-110007400D01*
X92278200Y-113182400D02*
X91782900Y-113182400D01*
X128955800Y-110464600D02*
X123418600Y-110464600D01*
X123418600Y-110464600D02*
X123393200Y-110464600D01*
X129946400Y-109474000D02*
X128955800Y-110464600D01*
X135255000Y-109474000D02*
X129946400Y-109474000D01*
X135432800Y-109651800D02*
X135255000Y-109474000D01*
X140665200Y-109651800D02*
X135432800Y-109651800D01*
X142011400Y-108305600D02*
X140665200Y-109651800D01*
X142341600Y-108305600D02*
X142011400Y-108305600D01*
X142367000Y-108280200D02*
X142341600Y-108305600D01*
X142367000Y-108000800D02*
X142367000Y-108280200D01*
X142519400Y-107848400D02*
X142367000Y-108000800D01*
X129844800Y-104343200D02*
X122885200Y-104343200D01*
X88900000Y-97663000D02*
X88138000Y-97663000D01*
X90017600Y-98780600D02*
X88900000Y-97663000D01*
X90017600Y-100939600D02*
X90017600Y-98780600D01*
X91160600Y-102082600D02*
X90017600Y-100939600D01*
X120624600Y-102082600D02*
X91160600Y-102082600D01*
X122885200Y-104343200D02*
X120624600Y-102082600D01*
X124358400Y-102920800D02*
X122986800Y-102920800D01*
X141503400Y-104089200D02*
X140335000Y-102920800D01*
X140335000Y-102920800D02*
X124358400Y-102920800D01*
X102057200Y-96393000D02*
X102641400Y-96393000D01*
X101777800Y-96672400D02*
X102057200Y-96393000D01*
X101777800Y-98145600D02*
X101777800Y-96672400D01*
X102133400Y-98501200D02*
X101777800Y-98145600D01*
X103809800Y-98501200D02*
X102133400Y-98501200D01*
X104800400Y-99491800D02*
X103809800Y-98501200D01*
X107569000Y-99491800D02*
X104800400Y-99491800D01*
X108534200Y-100457000D02*
X107569000Y-99491800D01*
X109753400Y-100457000D02*
X108534200Y-100457000D01*
X110667800Y-101371400D02*
X109753400Y-100457000D01*
X115925600Y-101371400D02*
X110667800Y-101371400D01*
X116636800Y-100660200D02*
X115925600Y-101371400D01*
X120726200Y-100660200D02*
X116636800Y-100660200D01*
X122986800Y-102920800D02*
X120726200Y-100660200D01*
X124358400Y-102387400D02*
X123139200Y-102387400D01*
X143560800Y-102971600D02*
X143408400Y-102819200D01*
X143408400Y-102819200D02*
X142773400Y-102819200D01*
X142773400Y-102819200D02*
X142341600Y-102387400D01*
X142341600Y-102387400D02*
X124358400Y-102387400D01*
X104368600Y-97663000D02*
X102641400Y-97663000D01*
X105714800Y-99009200D02*
X104368600Y-97663000D01*
X107797600Y-99009200D02*
X105714800Y-99009200D01*
X108762800Y-99974400D02*
X107797600Y-99009200D01*
X109956600Y-99974400D02*
X108762800Y-99974400D01*
X110871000Y-100888800D02*
X109956600Y-99974400D01*
X115671600Y-100888800D02*
X110871000Y-100888800D01*
X116408200Y-100152200D02*
X115671600Y-100888800D01*
X120904000Y-100152200D02*
X116408200Y-100152200D01*
X123139200Y-102387400D02*
X120904000Y-100152200D01*
X124358400Y-101854000D02*
X123291600Y-101854000D01*
X142671800Y-101854000D02*
X124358400Y-101854000D01*
X143129000Y-102311200D02*
X142671800Y-101854000D01*
X144094200Y-102311200D02*
X143129000Y-102311200D01*
X105384600Y-96901000D02*
X105892600Y-96393000D01*
X105384600Y-97993200D02*
X105384600Y-96901000D01*
X105918000Y-98526600D02*
X105384600Y-97993200D01*
X108000800Y-98526600D02*
X105918000Y-98526600D01*
X108966000Y-99491800D02*
X108000800Y-98526600D01*
X110134400Y-99491800D02*
X108966000Y-99491800D01*
X111048800Y-100406200D02*
X110134400Y-99491800D01*
X115468400Y-100406200D02*
X111048800Y-100406200D01*
X116205000Y-99669600D02*
X115468400Y-100406200D01*
X121107200Y-99669600D02*
X116205000Y-99669600D01*
X123291600Y-101854000D02*
X121107200Y-99669600D01*
X105892600Y-96393000D02*
X106273600Y-96393000D01*
X144272000Y-102133400D02*
X144094200Y-102311200D01*
X124358400Y-101346000D02*
X123469400Y-101346000D01*
X143459200Y-101650800D02*
X143154400Y-101346000D01*
X143154400Y-101346000D02*
X124358400Y-101346000D01*
X107950000Y-97663000D02*
X106273600Y-97663000D01*
X109296200Y-99009200D02*
X107950000Y-97663000D01*
X110340798Y-99009200D02*
X109296200Y-99009200D01*
X111255198Y-99923600D02*
X110340798Y-99009200D01*
X115265200Y-99923600D02*
X111255198Y-99923600D01*
X116001800Y-99187000D02*
X115265200Y-99923600D01*
X121310400Y-99187000D02*
X116001800Y-99187000D01*
X123469400Y-101346000D02*
X121310400Y-99187000D01*
X124358400Y-100838000D02*
X123672600Y-100838000D01*
X143992600Y-100990400D02*
X143840200Y-100838000D01*
X143840200Y-100838000D02*
X124358400Y-100838000D01*
X109372400Y-96393000D02*
X109905800Y-96393000D01*
X109016800Y-96748600D02*
X109372400Y-96393000D01*
X109016800Y-98018600D02*
X109016800Y-96748600D01*
X109524800Y-98526600D02*
X109016800Y-98018600D01*
X110515400Y-98526600D02*
X109524800Y-98526600D01*
X111429800Y-99441000D02*
X110515400Y-98526600D01*
X115087400Y-99441000D02*
X111429800Y-99441000D01*
X115849400Y-98679000D02*
X115087400Y-99441000D01*
X121513600Y-98679000D02*
X115849400Y-98679000D01*
X123672600Y-100838000D02*
X121513600Y-98679000D01*
X124358400Y-100304600D02*
X123901200Y-100304600D01*
X144526000Y-100330000D02*
X144500600Y-100304600D01*
X144500600Y-100304600D02*
X124358400Y-100304600D01*
X110464600Y-97663000D02*
X109905800Y-97663000D01*
X111760000Y-98958400D02*
X110464600Y-97663000D01*
X114858800Y-98958400D02*
X111760000Y-98958400D01*
X115646200Y-98171000D02*
X114858800Y-98958400D01*
X121767600Y-98171000D02*
X115646200Y-98171000D01*
X123901200Y-100304600D02*
X121767600Y-98171000D01*
X124333000Y-99669600D02*
X124028200Y-99669600D01*
X131165600Y-99669600D02*
X124333000Y-99669600D01*
X131267200Y-99568000D02*
X131165600Y-99669600D01*
X142722600Y-99568000D02*
X131267200Y-99568000D01*
X142875000Y-99720400D02*
X142722600Y-99568000D01*
X143891000Y-99720400D02*
X142875000Y-99720400D01*
X112928400Y-96393000D02*
X113538000Y-96393000D01*
X112623600Y-96697800D02*
X112928400Y-96393000D01*
X112623600Y-98018600D02*
X112623600Y-96697800D01*
X113106200Y-98501200D02*
X112623600Y-98018600D01*
X114579400Y-98501200D02*
X113106200Y-98501200D01*
X115443000Y-97637600D02*
X114579400Y-98501200D01*
X121996200Y-97637600D02*
X115443000Y-97637600D01*
X124028200Y-99669600D02*
X121996200Y-97637600D01*
X144018000Y-99593400D02*
X143891000Y-99720400D01*
X124358400Y-99187000D02*
X124333000Y-99187000D01*
X124333000Y-99187000D02*
X122199400Y-97053400D01*
X114655600Y-97663000D02*
X113538000Y-97663000D01*
X115265200Y-97053400D02*
X114655600Y-97663000D01*
X122199400Y-97053400D02*
X115265200Y-97053400D01*
X132842000Y-99085400D02*
X131013200Y-99085400D01*
X130911600Y-99187000D02*
X124358400Y-99187000D01*
X131013200Y-99085400D02*
X130911600Y-99187000D01*
X143179800Y-99085400D02*
X132842000Y-99085400D01*
X145364200Y-109486700D02*
X145669000Y-109791500D01*
X145364200Y-103428800D02*
X145364200Y-109486700D01*
X146786600Y-110655100D02*
X146812000Y-110680500D01*
X146786600Y-103809800D02*
X146786600Y-110655100D01*
X167513000Y-111569500D02*
X167513000Y-109918500D01*
X166052500Y-108458000D02*
X166052500Y-104203500D01*
X167513000Y-109918500D02*
X166052500Y-108458000D01*
X164846000Y-102997000D02*
X166052500Y-104203500D01*
X164338000Y-102997000D02*
X164846000Y-102997000D01*
X163004500Y-101663500D02*
X164338000Y-102997000D01*
X162623500Y-101663500D02*
X163004500Y-101663500D01*
X162242500Y-101663500D02*
X162623500Y-101663500D01*
X165010000Y-112241500D02*
X165010000Y-115160000D01*
X163893500Y-111125000D02*
X165010000Y-112241500D01*
X160337500Y-111125000D02*
X163893500Y-111125000D01*
X160210500Y-110998000D02*
X160337500Y-111125000D01*
X163004500Y-112839500D02*
X163004500Y-114625500D01*
X162433000Y-112268000D02*
X163004500Y-112839500D01*
X161163000Y-112268000D02*
X162433000Y-112268000D01*
X161036000Y-112141000D02*
X161163000Y-112268000D01*
X163004500Y-114625500D02*
X162470000Y-115160000D01*
X159139000Y-113411000D02*
X157390000Y-115160000D01*
X161925000Y-113411000D02*
X159139000Y-113411000D01*
G36*
X156337000Y-106299000D02*
X154695500Y-106299000D01*
X154695500Y-106294595D01*
X154795382Y-106054054D01*
X154795618Y-105783135D01*
X154692161Y-105532748D01*
X154569525Y-105409899D01*
X154754987Y-105224759D01*
X154858882Y-104974554D01*
X154859118Y-104703635D01*
X154755661Y-104453248D01*
X154564259Y-104261513D01*
X154314054Y-104157618D01*
X154043135Y-104157382D01*
X153800829Y-104257500D01*
X151561158Y-104257500D01*
X148663000Y-101359342D01*
X148663000Y-99441000D01*
X148618774Y-99218661D01*
X148492829Y-99030171D01*
X148314622Y-98851964D01*
X148215161Y-98611248D01*
X148023759Y-98419513D01*
X147773554Y-98315618D01*
X147502635Y-98315382D01*
X147252248Y-98418839D01*
X147060513Y-98610241D01*
X146956618Y-98860446D01*
X146956382Y-99131365D01*
X147059839Y-99381752D01*
X147251241Y-99573487D01*
X147493371Y-99674029D01*
X147501000Y-99681658D01*
X147501000Y-101600000D01*
X147545226Y-101822339D01*
X147671171Y-102010829D01*
X150909671Y-105249329D01*
X151040880Y-105337000D01*
X149728595Y-105337000D01*
X149488054Y-105237118D01*
X149217135Y-105236882D01*
X148974829Y-105337000D01*
X148932258Y-105337000D01*
X148155000Y-104559742D01*
X148155000Y-103505000D01*
X148110774Y-103282661D01*
X147984829Y-103094171D01*
X147502229Y-102611571D01*
X147313739Y-102485626D01*
X147091400Y-102441400D01*
X146685000Y-102441400D01*
X146685000Y-97224800D01*
X156337000Y-97224800D01*
X156337000Y-106299000D01*
X156337000Y-106299000D01*
G37*
X156337000Y-106299000D02*
X154695500Y-106299000D01*
X154695500Y-106294595D01*
X154795382Y-106054054D01*
X154795618Y-105783135D01*
X154692161Y-105532748D01*
X154569525Y-105409899D01*
X154754987Y-105224759D01*
X154858882Y-104974554D01*
X154859118Y-104703635D01*
X154755661Y-104453248D01*
X154564259Y-104261513D01*
X154314054Y-104157618D01*
X154043135Y-104157382D01*
X153800829Y-104257500D01*
X151561158Y-104257500D01*
X148663000Y-101359342D01*
X148663000Y-99441000D01*
X148618774Y-99218661D01*
X148492829Y-99030171D01*
X148314622Y-98851964D01*
X148215161Y-98611248D01*
X148023759Y-98419513D01*
X147773554Y-98315618D01*
X147502635Y-98315382D01*
X147252248Y-98418839D01*
X147060513Y-98610241D01*
X146956618Y-98860446D01*
X146956382Y-99131365D01*
X147059839Y-99381752D01*
X147251241Y-99573487D01*
X147493371Y-99674029D01*
X147501000Y-99681658D01*
X147501000Y-101600000D01*
X147545226Y-101822339D01*
X147671171Y-102010829D01*
X150909671Y-105249329D01*
X151040880Y-105337000D01*
X149728595Y-105337000D01*
X149488054Y-105237118D01*
X149217135Y-105236882D01*
X148974829Y-105337000D01*
X148932258Y-105337000D01*
X148155000Y-104559742D01*
X148155000Y-103505000D01*
X148110774Y-103282661D01*
X147984829Y-103094171D01*
X147502229Y-102611571D01*
X147313739Y-102485626D01*
X147091400Y-102441400D01*
X146685000Y-102441400D01*
X146685000Y-97224800D01*
X156337000Y-97224800D01*
X156337000Y-106299000D01*
G36*
X154305000Y-93718530D02*
X154145912Y-93784264D01*
X153795495Y-94134070D01*
X153605617Y-94591348D01*
X153605596Y-94615000D01*
X153554796Y-94615000D01*
X153554815Y-94593520D01*
X153365736Y-94135912D01*
X153015930Y-93785495D01*
X152558652Y-93595617D01*
X152063520Y-93595185D01*
X151605912Y-93784264D01*
X151255495Y-94134070D01*
X151065617Y-94591348D01*
X151065596Y-94615000D01*
X151014796Y-94615000D01*
X151014815Y-94593520D01*
X150825736Y-94135912D01*
X150475930Y-93785495D01*
X150018652Y-93595617D01*
X149523520Y-93595185D01*
X149065912Y-93784264D01*
X148715495Y-94134070D01*
X148525617Y-94591348D01*
X148525596Y-94615000D01*
X148474796Y-94615000D01*
X148474815Y-94593520D01*
X148285736Y-94135912D01*
X147935930Y-93785495D01*
X147478652Y-93595617D01*
X146983520Y-93595185D01*
X146525912Y-93784264D01*
X146175495Y-94134070D01*
X145985617Y-94591348D01*
X145985185Y-95086480D01*
X146174264Y-95544088D01*
X146177000Y-95546829D01*
X146177000Y-97386800D01*
X131114800Y-97386800D01*
X130892461Y-97431026D01*
X130703971Y-97556971D01*
X130411464Y-97849478D01*
X130170748Y-97948939D01*
X129979013Y-98140341D01*
X129875118Y-98390546D01*
X129874882Y-98661465D01*
X129882127Y-98679000D01*
X124543420Y-98679000D01*
X122558610Y-96694190D01*
X122393803Y-96584069D01*
X122199400Y-96545400D01*
X115265200Y-96545400D01*
X115070797Y-96584069D01*
X114905990Y-96694189D01*
X114445180Y-97155000D01*
X114255036Y-97155000D01*
X114178221Y-97040039D01*
X114160203Y-97028000D01*
X114178221Y-97015961D01*
X114369198Y-96730144D01*
X114436260Y-96393000D01*
X114369198Y-96055856D01*
X114296795Y-95947497D01*
X114343182Y-95893805D01*
X115875800Y-95893805D01*
X115957741Y-96146516D01*
X116518030Y-96350248D01*
X117113635Y-96324058D01*
X117542259Y-96146516D01*
X117624200Y-95893805D01*
X116750000Y-95019605D01*
X115875800Y-95893805D01*
X114343182Y-95893805D01*
X114525127Y-95683209D01*
X114632119Y-95424874D01*
X114505954Y-95250000D01*
X113665000Y-95250000D01*
X113665000Y-95270000D01*
X113411000Y-95270000D01*
X113411000Y-95250000D01*
X112570046Y-95250000D01*
X112443881Y-95424874D01*
X112550873Y-95683209D01*
X112755008Y-95919490D01*
X112733996Y-95923669D01*
X112569190Y-96033790D01*
X112264390Y-96338590D01*
X112154269Y-96503397D01*
X112115600Y-96697800D01*
X112115600Y-98018600D01*
X112154269Y-98213003D01*
X112264390Y-98377810D01*
X112336980Y-98450400D01*
X111970420Y-98450400D01*
X110823810Y-97303790D01*
X110659003Y-97193669D01*
X110647090Y-97191299D01*
X110546021Y-97040039D01*
X110528003Y-97028000D01*
X110546021Y-97015961D01*
X110736998Y-96730144D01*
X110804060Y-96393000D01*
X110736998Y-96055856D01*
X110664595Y-95947497D01*
X110892927Y-95683209D01*
X110999919Y-95424874D01*
X110873754Y-95250000D01*
X110032800Y-95250000D01*
X110032800Y-95270000D01*
X109778800Y-95270000D01*
X109778800Y-95250000D01*
X108937846Y-95250000D01*
X108811681Y-95424874D01*
X108918673Y-95683209D01*
X109145296Y-95945518D01*
X109013190Y-96033790D01*
X108657590Y-96389390D01*
X108547469Y-96554197D01*
X108508800Y-96748600D01*
X108508800Y-97503380D01*
X108309210Y-97303790D01*
X108144403Y-97193669D01*
X107950000Y-97155000D01*
X106990636Y-97155000D01*
X106913821Y-97040039D01*
X106895803Y-97028000D01*
X106913821Y-97015961D01*
X107104798Y-96730144D01*
X107171860Y-96393000D01*
X107104798Y-96055856D01*
X107032395Y-95947497D01*
X107260727Y-95683209D01*
X107367719Y-95424874D01*
X107241554Y-95250000D01*
X106400600Y-95250000D01*
X106400600Y-95270000D01*
X106146600Y-95270000D01*
X106146600Y-95250000D01*
X105305646Y-95250000D01*
X105179481Y-95424874D01*
X105286473Y-95683209D01*
X105514805Y-95947497D01*
X105442402Y-96055856D01*
X105425289Y-96141891D01*
X105025390Y-96541790D01*
X104915269Y-96706597D01*
X104876600Y-96901000D01*
X104876600Y-97452580D01*
X104727810Y-97303790D01*
X104563003Y-97193669D01*
X104368600Y-97155000D01*
X103358436Y-97155000D01*
X103281621Y-97040039D01*
X103263603Y-97028000D01*
X103281621Y-97015961D01*
X103472598Y-96730144D01*
X103539660Y-96393000D01*
X103472598Y-96055856D01*
X103400195Y-95947497D01*
X103628527Y-95683209D01*
X103735519Y-95424874D01*
X103609354Y-95250000D01*
X102768400Y-95250000D01*
X102768400Y-95270000D01*
X102514400Y-95270000D01*
X102514400Y-95250000D01*
X101673446Y-95250000D01*
X101547281Y-95424874D01*
X101654273Y-95683209D01*
X101862304Y-95923998D01*
X101697990Y-96033790D01*
X101418590Y-96313190D01*
X101308469Y-96477997D01*
X101269800Y-96672400D01*
X101269800Y-98145600D01*
X101308469Y-98340003D01*
X101418590Y-98504810D01*
X101774190Y-98860410D01*
X101938996Y-98970531D01*
X101961479Y-98975003D01*
X102133400Y-99009200D01*
X103599380Y-99009200D01*
X104441190Y-99851010D01*
X104605997Y-99961131D01*
X104800400Y-99999800D01*
X107358580Y-99999800D01*
X108174990Y-100816210D01*
X108339797Y-100926331D01*
X108534200Y-100965000D01*
X109542980Y-100965000D01*
X110152580Y-101574600D01*
X91371020Y-101574600D01*
X90525600Y-100729180D01*
X90525600Y-98780600D01*
X90513746Y-98721004D01*
X90486931Y-98586196D01*
X90376810Y-98421390D01*
X89259210Y-97303790D01*
X89094403Y-97193669D01*
X88900000Y-97155000D01*
X88855036Y-97155000D01*
X88778221Y-97040039D01*
X88760203Y-97028000D01*
X88778221Y-97015961D01*
X88969198Y-96730144D01*
X89036260Y-96393000D01*
X88969198Y-96055856D01*
X88896795Y-95947497D01*
X89125127Y-95683209D01*
X89232119Y-95424874D01*
X90676081Y-95424874D01*
X90783073Y-95683209D01*
X91011405Y-95947497D01*
X90939002Y-96055856D01*
X90871940Y-96393000D01*
X90939002Y-96730144D01*
X91129979Y-97015961D01*
X91147997Y-97028000D01*
X91129979Y-97040039D01*
X90939002Y-97325856D01*
X90871940Y-97663000D01*
X90939002Y-98000144D01*
X91129979Y-98285961D01*
X91415796Y-98476938D01*
X91752940Y-98544000D01*
X91787460Y-98544000D01*
X92124604Y-98476938D01*
X92410421Y-98285961D01*
X92601398Y-98000144D01*
X92668460Y-97663000D01*
X92601398Y-97325856D01*
X92410421Y-97040039D01*
X92392403Y-97028000D01*
X92410421Y-97015961D01*
X92601398Y-96730144D01*
X92668460Y-96393000D01*
X92601398Y-96055856D01*
X92528995Y-95947497D01*
X92757327Y-95683209D01*
X92864319Y-95424874D01*
X94308281Y-95424874D01*
X94415273Y-95683209D01*
X94643605Y-95947497D01*
X94571202Y-96055856D01*
X94504140Y-96393000D01*
X94571202Y-96730144D01*
X94762179Y-97015961D01*
X94780197Y-97028000D01*
X94762179Y-97040039D01*
X94571202Y-97325856D01*
X94504140Y-97663000D01*
X94571202Y-98000144D01*
X94762179Y-98285961D01*
X95047996Y-98476938D01*
X95385140Y-98544000D01*
X95419660Y-98544000D01*
X95756804Y-98476938D01*
X96042621Y-98285961D01*
X96233598Y-98000144D01*
X96300660Y-97663000D01*
X96233598Y-97325856D01*
X96042621Y-97040039D01*
X96024603Y-97028000D01*
X96042621Y-97015961D01*
X96233598Y-96730144D01*
X96300660Y-96393000D01*
X96233598Y-96055856D01*
X96161195Y-95947497D01*
X96389527Y-95683209D01*
X96496519Y-95424874D01*
X97940481Y-95424874D01*
X98047473Y-95683209D01*
X98275805Y-95947497D01*
X98203402Y-96055856D01*
X98136340Y-96393000D01*
X98203402Y-96730144D01*
X98394379Y-97015961D01*
X98412397Y-97028000D01*
X98394379Y-97040039D01*
X98203402Y-97325856D01*
X98136340Y-97663000D01*
X98203402Y-98000144D01*
X98394379Y-98285961D01*
X98680196Y-98476938D01*
X99017340Y-98544000D01*
X99051860Y-98544000D01*
X99389004Y-98476938D01*
X99674821Y-98285961D01*
X99865798Y-98000144D01*
X99932860Y-97663000D01*
X99865798Y-97325856D01*
X99674821Y-97040039D01*
X99656803Y-97028000D01*
X99674821Y-97015961D01*
X99865798Y-96730144D01*
X99932860Y-96393000D01*
X99865798Y-96055856D01*
X99793395Y-95947497D01*
X100021727Y-95683209D01*
X100128719Y-95424874D01*
X100002554Y-95250000D01*
X99161600Y-95250000D01*
X99161600Y-95270000D01*
X98907600Y-95270000D01*
X98907600Y-95250000D01*
X98066646Y-95250000D01*
X97940481Y-95424874D01*
X96496519Y-95424874D01*
X96370354Y-95250000D01*
X95529400Y-95250000D01*
X95529400Y-95270000D01*
X95275400Y-95270000D01*
X95275400Y-95250000D01*
X94434446Y-95250000D01*
X94308281Y-95424874D01*
X92864319Y-95424874D01*
X92738154Y-95250000D01*
X91897200Y-95250000D01*
X91897200Y-95270000D01*
X91643200Y-95270000D01*
X91643200Y-95250000D01*
X90802246Y-95250000D01*
X90676081Y-95424874D01*
X89232119Y-95424874D01*
X89105954Y-95250000D01*
X88265000Y-95250000D01*
X88265000Y-95270000D01*
X88011000Y-95270000D01*
X88011000Y-95250000D01*
X87170046Y-95250000D01*
X87043881Y-95424874D01*
X87150873Y-95683209D01*
X87379205Y-95947497D01*
X87306802Y-96055856D01*
X87239740Y-96393000D01*
X87306802Y-96730144D01*
X87497779Y-97015961D01*
X87515797Y-97028000D01*
X87497779Y-97040039D01*
X87306802Y-97325856D01*
X87239740Y-97663000D01*
X87306802Y-98000144D01*
X87497779Y-98285961D01*
X87783596Y-98476938D01*
X88120740Y-98544000D01*
X88155260Y-98544000D01*
X88492404Y-98476938D01*
X88778221Y-98285961D01*
X88788763Y-98270183D01*
X89509600Y-98991020D01*
X89509600Y-100939600D01*
X89548269Y-101134003D01*
X89658390Y-101298810D01*
X90801390Y-102441810D01*
X90966196Y-102551931D01*
X91160600Y-102590600D01*
X120414180Y-102590600D01*
X122525990Y-104702410D01*
X122627811Y-104770445D01*
X122589454Y-104754518D01*
X122318535Y-104754282D01*
X122076229Y-104854400D01*
X120255658Y-104854400D01*
X118901829Y-103500571D01*
X118713339Y-103374626D01*
X118491000Y-103330400D01*
X93421200Y-103330400D01*
X93198861Y-103374626D01*
X93010371Y-103500571D01*
X90792942Y-105718000D01*
X89027000Y-105718000D01*
X88804661Y-105762226D01*
X88616171Y-105888171D01*
X87752571Y-106751771D01*
X87626626Y-106940261D01*
X87582400Y-107162600D01*
X87582400Y-108499177D01*
X87522210Y-108510503D01*
X87392535Y-108593946D01*
X87305541Y-108721266D01*
X87274936Y-108872400D01*
X87274936Y-109872400D01*
X87289706Y-109950896D01*
X87176273Y-110082191D01*
X87069281Y-110340526D01*
X87195446Y-110515400D01*
X88036400Y-110515400D01*
X88036400Y-110495400D01*
X88290400Y-110495400D01*
X88290400Y-110515400D01*
X88310400Y-110515400D01*
X88310400Y-110769400D01*
X88290400Y-110769400D01*
X88290400Y-110789400D01*
X88036400Y-110789400D01*
X88036400Y-110769400D01*
X87195446Y-110769400D01*
X87069281Y-110944274D01*
X87176273Y-111202609D01*
X87404605Y-111466897D01*
X87332202Y-111575256D01*
X87265140Y-111912400D01*
X87332202Y-112249544D01*
X87523179Y-112535361D01*
X87541197Y-112547400D01*
X87523179Y-112559439D01*
X87332202Y-112845256D01*
X87265140Y-113182400D01*
X87332202Y-113519544D01*
X87523179Y-113805361D01*
X87808996Y-113996338D01*
X88146140Y-114063400D01*
X88180660Y-114063400D01*
X88517804Y-113996338D01*
X88803621Y-113805361D01*
X88880436Y-113690400D01*
X89433400Y-113690400D01*
X89627803Y-113651731D01*
X89792610Y-113541610D01*
X90347800Y-112986421D01*
X90347800Y-113665000D01*
X90386469Y-113859403D01*
X90496590Y-114024210D01*
X90902989Y-114430610D01*
X91067796Y-114540731D01*
X91100050Y-114547146D01*
X91262200Y-114579400D01*
X92532200Y-114579400D01*
X92726603Y-114540731D01*
X92891410Y-114430610D01*
X93929200Y-113392820D01*
X93929200Y-113563400D01*
X93967869Y-113757803D01*
X94077990Y-113922610D01*
X94662190Y-114506811D01*
X94826997Y-114616931D01*
X95021400Y-114655600D01*
X96824800Y-114655600D01*
X97019203Y-114616931D01*
X97184010Y-114506810D01*
X97743535Y-113947286D01*
X97760990Y-113973410D01*
X98243589Y-114456010D01*
X98352227Y-114528599D01*
X98408397Y-114566131D01*
X98602800Y-114604800D01*
X100787200Y-114604800D01*
X100981603Y-114566131D01*
X101146410Y-114456010D01*
X101934646Y-113667774D01*
X102026579Y-113805361D01*
X102312396Y-113996338D01*
X102649540Y-114063400D01*
X102684060Y-114063400D01*
X103021204Y-113996338D01*
X103307021Y-113805361D01*
X103383836Y-113690400D01*
X103860600Y-113690400D01*
X104055003Y-113651731D01*
X104219810Y-113541610D01*
X104876600Y-112884820D01*
X104876600Y-113639600D01*
X104915269Y-113834003D01*
X105025390Y-113998810D01*
X105533389Y-114506810D01*
X105584156Y-114540731D01*
X105698197Y-114616931D01*
X105892600Y-114655600D01*
X107746800Y-114655600D01*
X107941203Y-114616931D01*
X108106010Y-114506810D01*
X109098886Y-113513934D01*
X109100002Y-113519544D01*
X109290979Y-113805361D01*
X109576796Y-113996338D01*
X109913940Y-114063400D01*
X109948460Y-114063400D01*
X110285604Y-113996338D01*
X110571421Y-113805361D01*
X110648236Y-113690400D01*
X110972600Y-113690400D01*
X111167003Y-113651731D01*
X111331810Y-113541610D01*
X112191800Y-112681621D01*
X112191800Y-113563400D01*
X112230469Y-113757803D01*
X112340590Y-113922610D01*
X112797789Y-114379810D01*
X112962596Y-114489931D01*
X112994850Y-114496346D01*
X113157000Y-114528600D01*
X114960400Y-114528600D01*
X115154803Y-114489931D01*
X115319610Y-114379810D01*
X115323220Y-114376200D01*
X115773501Y-114376200D01*
X115695495Y-114454070D01*
X115505617Y-114911348D01*
X115505260Y-115321082D01*
X115202342Y-115624000D01*
X112390595Y-115624000D01*
X112150054Y-115524118D01*
X111879135Y-115523882D01*
X111628748Y-115627339D01*
X111558966Y-115697000D01*
X108912950Y-115697000D01*
X108742659Y-115526413D01*
X108492454Y-115422518D01*
X108221535Y-115422282D01*
X107971148Y-115525739D01*
X107901366Y-115595400D01*
X105280838Y-115595400D01*
X105161259Y-115475613D01*
X104911054Y-115371718D01*
X104640135Y-115371482D01*
X104389748Y-115474939D01*
X104319966Y-115544600D01*
X101597926Y-115544600D01*
X101529059Y-115475613D01*
X101278854Y-115371718D01*
X101007935Y-115371482D01*
X100757548Y-115474939D01*
X100687766Y-115544600D01*
X97965726Y-115544600D01*
X97896859Y-115475613D01*
X97646654Y-115371718D01*
X97375735Y-115371482D01*
X97125348Y-115474939D01*
X97055566Y-115544600D01*
X94333526Y-115544600D01*
X94264659Y-115475613D01*
X94014454Y-115371718D01*
X93743535Y-115371482D01*
X93493148Y-115474939D01*
X93423366Y-115544600D01*
X90726726Y-115544600D01*
X90657859Y-115475613D01*
X90407654Y-115371718D01*
X90136735Y-115371482D01*
X89886348Y-115474939D01*
X89816566Y-115544600D01*
X87094526Y-115544600D01*
X87025659Y-115475613D01*
X86775454Y-115371718D01*
X86504535Y-115371482D01*
X86254148Y-115474939D01*
X86062413Y-115666341D01*
X85958518Y-115916546D01*
X85958282Y-116187465D01*
X86061739Y-116437852D01*
X86253141Y-116629587D01*
X86503346Y-116733482D01*
X86774265Y-116733718D01*
X87024652Y-116630261D01*
X87094434Y-116560600D01*
X89816474Y-116560600D01*
X89885341Y-116629587D01*
X90135546Y-116733482D01*
X90406465Y-116733718D01*
X90656852Y-116630261D01*
X90726634Y-116560600D01*
X93423274Y-116560600D01*
X93492141Y-116629587D01*
X93742346Y-116733482D01*
X94013265Y-116733718D01*
X94263652Y-116630261D01*
X94333434Y-116560600D01*
X97055474Y-116560600D01*
X97124341Y-116629587D01*
X97374546Y-116733482D01*
X97645465Y-116733718D01*
X97895852Y-116630261D01*
X97965634Y-116560600D01*
X100687674Y-116560600D01*
X100756541Y-116629587D01*
X101006746Y-116733482D01*
X101277665Y-116733718D01*
X101528052Y-116630261D01*
X101597834Y-116560600D01*
X104319874Y-116560600D01*
X104388741Y-116629587D01*
X104638946Y-116733482D01*
X104909865Y-116733718D01*
X105160252Y-116630261D01*
X105179146Y-116611400D01*
X107901274Y-116611400D01*
X107970141Y-116680387D01*
X108220346Y-116784282D01*
X108491265Y-116784518D01*
X108664353Y-116713000D01*
X111558874Y-116713000D01*
X111627741Y-116781987D01*
X111877946Y-116885882D01*
X112148865Y-116886118D01*
X112391171Y-116786000D01*
X115443000Y-116786000D01*
X115665339Y-116741774D01*
X115853829Y-116615829D01*
X116193220Y-116276438D01*
X116501348Y-116404383D01*
X116996480Y-116404815D01*
X117454088Y-116215736D01*
X117456022Y-116213805D01*
X118415800Y-116213805D01*
X118497741Y-116466516D01*
X119058030Y-116670248D01*
X119653635Y-116644058D01*
X120082259Y-116466516D01*
X120164200Y-116213805D01*
X119290000Y-115339605D01*
X118415800Y-116213805D01*
X117456022Y-116213805D01*
X117804505Y-115865930D01*
X117876203Y-115693261D01*
X117983484Y-115952259D01*
X118236195Y-116034200D01*
X119110395Y-115160000D01*
X119096253Y-115145858D01*
X119275858Y-114966253D01*
X119290000Y-114980395D01*
X119304143Y-114966253D01*
X119483748Y-115145858D01*
X119469605Y-115160000D01*
X120343805Y-116034200D01*
X120596516Y-115952259D01*
X120696772Y-115676542D01*
X120774264Y-115864088D01*
X121124070Y-116214505D01*
X121581348Y-116404383D01*
X122076480Y-116404815D01*
X122534088Y-116215736D01*
X122884505Y-115865930D01*
X123074383Y-115408652D01*
X123074815Y-114913520D01*
X122885736Y-114455912D01*
X122806163Y-114376200D01*
X123393501Y-114376200D01*
X123315495Y-114454070D01*
X123125617Y-114911348D01*
X123125185Y-115406480D01*
X123314264Y-115864088D01*
X123664070Y-116214505D01*
X124121348Y-116404383D01*
X124616480Y-116404815D01*
X125074088Y-116215736D01*
X125424505Y-115865930D01*
X125614383Y-115408652D01*
X125614815Y-114913520D01*
X125425736Y-114455912D01*
X125346163Y-114376200D01*
X125933501Y-114376200D01*
X125855495Y-114454070D01*
X125665617Y-114911348D01*
X125665185Y-115406480D01*
X125854264Y-115864088D01*
X126204070Y-116214505D01*
X126661348Y-116404383D01*
X127156480Y-116404815D01*
X127614088Y-116215736D01*
X127964505Y-115865930D01*
X128154383Y-115408652D01*
X128154815Y-114913520D01*
X127965736Y-114455912D01*
X127886163Y-114376200D01*
X128473501Y-114376200D01*
X128395495Y-114454070D01*
X128205617Y-114911348D01*
X128205185Y-115406480D01*
X128394264Y-115864088D01*
X128744070Y-116214505D01*
X129201348Y-116404383D01*
X129696480Y-116404815D01*
X130154088Y-116215736D01*
X130504505Y-115865930D01*
X130694383Y-115408652D01*
X130694384Y-115406480D01*
X130745185Y-115406480D01*
X130934264Y-115864088D01*
X131284070Y-116214505D01*
X131741348Y-116404383D01*
X132236480Y-116404815D01*
X132694088Y-116215736D01*
X133044505Y-115865930D01*
X133234383Y-115408652D01*
X133234384Y-115406480D01*
X133285185Y-115406480D01*
X133474264Y-115864088D01*
X133824070Y-116214505D01*
X134281348Y-116404383D01*
X134776480Y-116404815D01*
X135234088Y-116215736D01*
X135584505Y-115865930D01*
X135774383Y-115408652D01*
X135774384Y-115406480D01*
X135825185Y-115406480D01*
X136014264Y-115864088D01*
X136364070Y-116214505D01*
X136821348Y-116404383D01*
X137316480Y-116404815D01*
X137774088Y-116215736D01*
X138124505Y-115865930D01*
X138314383Y-115408652D01*
X138314384Y-115406480D01*
X138365185Y-115406480D01*
X138554264Y-115864088D01*
X138904070Y-116214505D01*
X139361348Y-116404383D01*
X139856480Y-116404815D01*
X140314088Y-116215736D01*
X140664505Y-115865930D01*
X140854383Y-115408652D01*
X140854384Y-115406480D01*
X140905185Y-115406480D01*
X141094264Y-115864088D01*
X141444070Y-116214505D01*
X141901348Y-116404383D01*
X142396480Y-116404815D01*
X142854088Y-116215736D01*
X143204505Y-115865930D01*
X143394383Y-115408652D01*
X143394384Y-115406480D01*
X143445185Y-115406480D01*
X143634264Y-115864088D01*
X143984070Y-116214505D01*
X144441348Y-116404383D01*
X144936480Y-116404815D01*
X145394088Y-116215736D01*
X145744505Y-115865930D01*
X145934383Y-115408652D01*
X145934384Y-115406480D01*
X145985185Y-115406480D01*
X146174264Y-115864088D01*
X146524070Y-116214505D01*
X146981348Y-116404383D01*
X147476480Y-116404815D01*
X147934088Y-116215736D01*
X148284505Y-115865930D01*
X148474383Y-115408652D01*
X148474384Y-115406480D01*
X148525185Y-115406480D01*
X148714264Y-115864088D01*
X149064070Y-116214505D01*
X149521348Y-116404383D01*
X150016480Y-116404815D01*
X150474088Y-116215736D01*
X150824505Y-115865930D01*
X151014383Y-115408652D01*
X151014384Y-115406480D01*
X151065185Y-115406480D01*
X151254264Y-115864088D01*
X151604070Y-116214505D01*
X152061348Y-116404383D01*
X152556480Y-116404815D01*
X153014088Y-116215736D01*
X153364505Y-115865930D01*
X153554383Y-115408652D01*
X153554384Y-115406480D01*
X153605185Y-115406480D01*
X153794264Y-115864088D01*
X154144070Y-116214505D01*
X154601348Y-116404383D01*
X155096480Y-116404815D01*
X155554088Y-116215736D01*
X155904505Y-115865930D01*
X156094383Y-115408652D01*
X156094384Y-115406480D01*
X156145185Y-115406480D01*
X156334264Y-115864088D01*
X156684070Y-116214505D01*
X157141348Y-116404383D01*
X157636480Y-116404815D01*
X158094088Y-116215736D01*
X158444505Y-115865930D01*
X158634383Y-115408652D01*
X158634815Y-114913520D01*
X158552973Y-114715447D01*
X159349421Y-113919000D01*
X159674287Y-113919000D01*
X159225912Y-114104264D01*
X158875495Y-114454070D01*
X158685617Y-114911348D01*
X158685185Y-115406480D01*
X158874264Y-115864088D01*
X159224070Y-116214505D01*
X159681348Y-116404383D01*
X160176480Y-116404815D01*
X160634088Y-116215736D01*
X160984505Y-115865930D01*
X161174383Y-115408652D01*
X161174815Y-114913520D01*
X160985736Y-114455912D01*
X160635930Y-114105495D01*
X160186799Y-113919000D01*
X161469874Y-113919000D01*
X161538741Y-113987987D01*
X161788946Y-114091882D01*
X161795864Y-114091888D01*
X161765912Y-114104264D01*
X161415495Y-114454070D01*
X161225617Y-114911348D01*
X161225185Y-115406480D01*
X161414264Y-115864088D01*
X161764070Y-116214505D01*
X162221348Y-116404383D01*
X162716480Y-116404815D01*
X163174088Y-116215736D01*
X163524505Y-115865930D01*
X163714383Y-115408652D01*
X163714815Y-114913520D01*
X163525736Y-114455912D01*
X163512500Y-114442653D01*
X163512500Y-112839500D01*
X163473831Y-112645097D01*
X163363710Y-112480290D01*
X162792210Y-111908790D01*
X162627403Y-111798669D01*
X162433000Y-111760000D01*
X161615418Y-111760000D01*
X161613661Y-111755748D01*
X161491126Y-111633000D01*
X163683080Y-111633000D01*
X164502000Y-112451921D01*
X164502000Y-114023242D01*
X164305912Y-114104264D01*
X163955495Y-114454070D01*
X163765617Y-114911348D01*
X163765185Y-115406480D01*
X163954264Y-115864088D01*
X164304070Y-116214505D01*
X164761348Y-116404383D01*
X165256480Y-116404815D01*
X165714088Y-116215736D01*
X166064505Y-115865930D01*
X166254383Y-115408652D01*
X166254384Y-115406480D01*
X166305185Y-115406480D01*
X166494264Y-115864088D01*
X166844070Y-116214505D01*
X167301348Y-116404383D01*
X167796480Y-116404815D01*
X168254088Y-116215736D01*
X168604505Y-115865930D01*
X168794383Y-115408652D01*
X168794384Y-115406480D01*
X168845185Y-115406480D01*
X169034264Y-115864088D01*
X169384070Y-116214505D01*
X169841348Y-116404383D01*
X170336480Y-116404815D01*
X170794088Y-116215736D01*
X171144505Y-115865930D01*
X171334383Y-115408652D01*
X171334384Y-115406480D01*
X171385185Y-115406480D01*
X171574264Y-115864088D01*
X171924070Y-116214505D01*
X172381348Y-116404383D01*
X172876480Y-116404815D01*
X173334088Y-116215736D01*
X173684505Y-115865930D01*
X173874383Y-115408652D01*
X173874384Y-115406480D01*
X173925185Y-115406480D01*
X174114264Y-115864088D01*
X174464070Y-116214505D01*
X174921348Y-116404383D01*
X175416480Y-116404815D01*
X175874088Y-116215736D01*
X176224505Y-115865930D01*
X176414383Y-115408652D01*
X176414384Y-115406480D01*
X176465185Y-115406480D01*
X176654264Y-115864088D01*
X177004070Y-116214505D01*
X177461348Y-116404383D01*
X177956480Y-116404815D01*
X178414088Y-116215736D01*
X178764505Y-115865930D01*
X178954383Y-115408652D01*
X178954384Y-115406480D01*
X179005185Y-115406480D01*
X179194264Y-115864088D01*
X179544070Y-116214505D01*
X180001348Y-116404383D01*
X180496480Y-116404815D01*
X180954088Y-116215736D01*
X181304505Y-115865930D01*
X181494383Y-115408652D01*
X181494815Y-114913520D01*
X181305736Y-114455912D01*
X180955930Y-114105495D01*
X180498652Y-113915617D01*
X180003520Y-113915185D01*
X179545912Y-114104264D01*
X179195495Y-114454070D01*
X179005617Y-114911348D01*
X179005185Y-115406480D01*
X178954384Y-115406480D01*
X178954815Y-114913520D01*
X178765736Y-114455912D01*
X178415930Y-114105495D01*
X177958652Y-113915617D01*
X177463520Y-113915185D01*
X177005912Y-114104264D01*
X176655495Y-114454070D01*
X176465617Y-114911348D01*
X176465185Y-115406480D01*
X176414384Y-115406480D01*
X176414815Y-114913520D01*
X176225736Y-114455912D01*
X175875930Y-114105495D01*
X175418652Y-113915617D01*
X174923520Y-113915185D01*
X174465912Y-114104264D01*
X174115495Y-114454070D01*
X173925617Y-114911348D01*
X173925185Y-115406480D01*
X173874384Y-115406480D01*
X173874815Y-114913520D01*
X173685736Y-114455912D01*
X173335930Y-114105495D01*
X172878652Y-113915617D01*
X172383520Y-113915185D01*
X171925912Y-114104264D01*
X171575495Y-114454070D01*
X171385617Y-114911348D01*
X171385185Y-115406480D01*
X171334384Y-115406480D01*
X171334815Y-114913520D01*
X171145736Y-114455912D01*
X170795930Y-114105495D01*
X170338652Y-113915617D01*
X169843520Y-113915185D01*
X169385912Y-114104264D01*
X169035495Y-114454070D01*
X168845617Y-114911348D01*
X168845185Y-115406480D01*
X168794384Y-115406480D01*
X168794815Y-114913520D01*
X168605736Y-114455912D01*
X168255930Y-114105495D01*
X167798652Y-113915617D01*
X167303520Y-113915185D01*
X166845912Y-114104264D01*
X166495495Y-114454070D01*
X166305617Y-114911348D01*
X166305185Y-115406480D01*
X166254384Y-115406480D01*
X166254815Y-114913520D01*
X166065736Y-114455912D01*
X165715930Y-114105495D01*
X165518000Y-114023307D01*
X165518000Y-112241500D01*
X165479331Y-112047097D01*
X165423273Y-111963200D01*
X165369210Y-111882289D01*
X164252710Y-110765790D01*
X164087903Y-110655669D01*
X163893500Y-110617000D01*
X160789918Y-110617000D01*
X160788161Y-110612748D01*
X160596759Y-110421013D01*
X160346554Y-110317118D01*
X160075635Y-110316882D01*
X159825248Y-110420339D01*
X159633513Y-110611741D01*
X159529618Y-110861946D01*
X159529382Y-111132865D01*
X159632839Y-111383252D01*
X159824241Y-111574987D01*
X160074446Y-111678882D01*
X160345365Y-111679118D01*
X160456980Y-111633000D01*
X160580966Y-111633000D01*
X160459013Y-111754741D01*
X160355118Y-112004946D01*
X160354882Y-112275865D01*
X160458339Y-112526252D01*
X160649741Y-112717987D01*
X160899946Y-112821882D01*
X161170865Y-112822118D01*
X161282480Y-112776000D01*
X161678520Y-112776000D01*
X161539748Y-112833339D01*
X161469966Y-112903000D01*
X159139000Y-112903000D01*
X158944597Y-112941669D01*
X158779790Y-113051789D01*
X157834599Y-113996981D01*
X157638652Y-113915617D01*
X157143520Y-113915185D01*
X156685912Y-114104264D01*
X156335495Y-114454070D01*
X156145617Y-114911348D01*
X156145185Y-115406480D01*
X156094384Y-115406480D01*
X156094815Y-114913520D01*
X155905736Y-114455912D01*
X155555930Y-114105495D01*
X155098652Y-113915617D01*
X154603520Y-113915185D01*
X154145912Y-114104264D01*
X153795495Y-114454070D01*
X153605617Y-114911348D01*
X153605185Y-115406480D01*
X153554384Y-115406480D01*
X153554815Y-114913520D01*
X153365736Y-114455912D01*
X153015930Y-114105495D01*
X152558652Y-113915617D01*
X152063520Y-113915185D01*
X151605912Y-114104264D01*
X151255495Y-114454070D01*
X151065617Y-114911348D01*
X151065185Y-115406480D01*
X151014384Y-115406480D01*
X151014815Y-114913520D01*
X150825736Y-114455912D01*
X150475930Y-114105495D01*
X150018652Y-113915617D01*
X149523520Y-113915185D01*
X149065912Y-114104264D01*
X148715495Y-114454070D01*
X148525617Y-114911348D01*
X148525185Y-115406480D01*
X148474384Y-115406480D01*
X148474815Y-114913520D01*
X148285736Y-114455912D01*
X147935930Y-114105495D01*
X147478652Y-113915617D01*
X146983520Y-113915185D01*
X146525912Y-114104264D01*
X146175495Y-114454070D01*
X145985617Y-114911348D01*
X145985185Y-115406480D01*
X145934384Y-115406480D01*
X145934815Y-114913520D01*
X145745736Y-114455912D01*
X145395930Y-114105495D01*
X144938652Y-113915617D01*
X144443520Y-113915185D01*
X143985912Y-114104264D01*
X143635495Y-114454070D01*
X143445617Y-114911348D01*
X143445185Y-115406480D01*
X143394384Y-115406480D01*
X143394815Y-114913520D01*
X143205736Y-114455912D01*
X142855930Y-114105495D01*
X142398652Y-113915617D01*
X141903520Y-113915185D01*
X141445912Y-114104264D01*
X141095495Y-114454070D01*
X140905617Y-114911348D01*
X140905185Y-115406480D01*
X140854384Y-115406480D01*
X140854815Y-114913520D01*
X140665736Y-114455912D01*
X140315930Y-114105495D01*
X139858652Y-113915617D01*
X139363520Y-113915185D01*
X138905912Y-114104264D01*
X138555495Y-114454070D01*
X138365617Y-114911348D01*
X138365185Y-115406480D01*
X138314384Y-115406480D01*
X138314815Y-114913520D01*
X138125736Y-114455912D01*
X137775930Y-114105495D01*
X137318652Y-113915617D01*
X136823520Y-113915185D01*
X136365912Y-114104264D01*
X136015495Y-114454070D01*
X135825617Y-114911348D01*
X135825185Y-115406480D01*
X135774384Y-115406480D01*
X135774815Y-114913520D01*
X135585736Y-114455912D01*
X135235930Y-114105495D01*
X134778652Y-113915617D01*
X134283520Y-113915185D01*
X133825912Y-114104264D01*
X133475495Y-114454070D01*
X133285617Y-114911348D01*
X133285185Y-115406480D01*
X133234384Y-115406480D01*
X133234815Y-114913520D01*
X133045736Y-114455912D01*
X132695930Y-114105495D01*
X132238652Y-113915617D01*
X131743520Y-113915185D01*
X131285912Y-114104264D01*
X130935495Y-114454070D01*
X130745617Y-114911348D01*
X130745185Y-115406480D01*
X130694384Y-115406480D01*
X130694815Y-114913520D01*
X130505736Y-114455912D01*
X130414009Y-114364025D01*
X130547203Y-114337531D01*
X130712010Y-114227410D01*
X131553820Y-113385600D01*
X133545980Y-113385600D01*
X133574990Y-113414610D01*
X133739796Y-113524731D01*
X133934200Y-113563400D01*
X141937318Y-113563400D01*
X142031541Y-113657787D01*
X142281746Y-113761682D01*
X142552665Y-113761918D01*
X142803052Y-113658461D01*
X142994787Y-113467059D01*
X143098682Y-113216854D01*
X143098918Y-112945935D01*
X143020260Y-112755566D01*
X143147187Y-112628859D01*
X143251082Y-112378654D01*
X143251318Y-112107735D01*
X143147861Y-111857348D01*
X143139514Y-111848986D01*
X143223387Y-111765259D01*
X143294799Y-111593282D01*
X143500946Y-111678882D01*
X143771865Y-111679118D01*
X144014171Y-111579000D01*
X145215000Y-111579000D01*
X145215000Y-111696500D01*
X145259226Y-111918839D01*
X145385171Y-112107329D01*
X145766171Y-112488329D01*
X145954661Y-112614274D01*
X146177000Y-112658500D01*
X147828000Y-112658500D01*
X148050339Y-112614274D01*
X148238829Y-112488329D01*
X151286829Y-109440329D01*
X151412774Y-109251839D01*
X151457000Y-109029500D01*
X151457000Y-107437595D01*
X151556882Y-107197054D01*
X151557118Y-106926135D01*
X151507893Y-106807000D01*
X156718000Y-106807000D01*
X156767410Y-106796994D01*
X156809035Y-106768553D01*
X156815486Y-106758528D01*
X156799118Y-106797946D01*
X156798882Y-107068865D01*
X156902339Y-107319252D01*
X157093741Y-107510987D01*
X157343946Y-107614882D01*
X157614865Y-107615118D01*
X157859663Y-107513970D01*
X161165635Y-107513970D01*
X161325418Y-107832739D01*
X162116187Y-108142723D01*
X162965387Y-108126497D01*
X163674582Y-107832739D01*
X163834365Y-107513970D01*
X162500000Y-106179605D01*
X161165635Y-107513970D01*
X157859663Y-107513970D01*
X157865252Y-107511661D01*
X158056987Y-107320259D01*
X158160882Y-107070054D01*
X158161118Y-106799135D01*
X158061000Y-106556829D01*
X158061000Y-105728532D01*
X158173540Y-105616187D01*
X160357277Y-105616187D01*
X160373503Y-106465387D01*
X160667261Y-107174582D01*
X160986030Y-107334365D01*
X162320395Y-106000000D01*
X162679605Y-106000000D01*
X164013970Y-107334365D01*
X164332739Y-107174582D01*
X164642723Y-106383813D01*
X164626497Y-105534613D01*
X164332739Y-104825418D01*
X164013970Y-104665635D01*
X162679605Y-106000000D01*
X162320395Y-106000000D01*
X160986030Y-104665635D01*
X160667261Y-104825418D01*
X160357277Y-105616187D01*
X158173540Y-105616187D01*
X158183987Y-105605759D01*
X158287882Y-105355554D01*
X158288118Y-105084635D01*
X158184661Y-104834248D01*
X157993259Y-104642513D01*
X157743054Y-104538618D01*
X157472135Y-104538382D01*
X157221748Y-104641839D01*
X157030013Y-104833241D01*
X156926118Y-105083446D01*
X156926007Y-105210726D01*
X156899000Y-105346500D01*
X156899000Y-106557405D01*
X156842437Y-106693624D01*
X156845000Y-106680000D01*
X156845000Y-104486030D01*
X161165635Y-104486030D01*
X162500000Y-105820395D01*
X163834365Y-104486030D01*
X163674582Y-104167261D01*
X162883813Y-103857277D01*
X162034613Y-103873503D01*
X161325418Y-104167261D01*
X161165635Y-104486030D01*
X156845000Y-104486030D01*
X156845000Y-100593500D01*
X160604842Y-100593500D01*
X160879171Y-100867829D01*
X161067661Y-100993774D01*
X161290000Y-101038000D01*
X161973028Y-101038000D01*
X161857248Y-101085839D01*
X161665513Y-101277241D01*
X161561618Y-101527446D01*
X161561382Y-101798365D01*
X161664839Y-102048752D01*
X161856241Y-102240487D01*
X162106446Y-102344382D01*
X162377365Y-102344618D01*
X162627752Y-102241161D01*
X162697534Y-102171500D01*
X162794080Y-102171500D01*
X163978790Y-103356210D01*
X164143597Y-103466331D01*
X164338000Y-103505000D01*
X164635580Y-103505000D01*
X165544500Y-104413920D01*
X165544500Y-108458000D01*
X165583169Y-108652403D01*
X165693290Y-108817210D01*
X167005000Y-110128920D01*
X167005000Y-111114374D01*
X166936013Y-111183241D01*
X166832118Y-111433446D01*
X166831882Y-111704365D01*
X166935339Y-111954752D01*
X167126741Y-112146487D01*
X167376946Y-112250382D01*
X167647865Y-112250618D01*
X167829440Y-112175593D01*
X177974012Y-112175593D01*
X178115478Y-112478782D01*
X178851955Y-112763737D01*
X179641418Y-112745164D01*
X180284522Y-112478782D01*
X180425988Y-112175593D01*
X179200000Y-110949605D01*
X177974012Y-112175593D01*
X167829440Y-112175593D01*
X167898252Y-112147161D01*
X168089987Y-111955759D01*
X168193882Y-111705554D01*
X168194118Y-111434635D01*
X168090661Y-111184248D01*
X168021000Y-111114466D01*
X168021000Y-110421955D01*
X177206263Y-110421955D01*
X177224836Y-111211418D01*
X177491218Y-111854522D01*
X177794407Y-111995988D01*
X179020395Y-110770000D01*
X179379605Y-110770000D01*
X180605593Y-111995988D01*
X180908782Y-111854522D01*
X181193737Y-111118045D01*
X181175164Y-110328582D01*
X180908782Y-109685478D01*
X180605593Y-109544012D01*
X179379605Y-110770000D01*
X179020395Y-110770000D01*
X177794407Y-109544012D01*
X177491218Y-109685478D01*
X177206263Y-110421955D01*
X168021000Y-110421955D01*
X168021000Y-109918500D01*
X167982331Y-109724097D01*
X167872210Y-109559290D01*
X167677327Y-109364407D01*
X177974012Y-109364407D01*
X179200000Y-110590395D01*
X180425988Y-109364407D01*
X180284522Y-109061218D01*
X179548045Y-108776263D01*
X178758582Y-108794836D01*
X178115478Y-109061218D01*
X177974012Y-109364407D01*
X167677327Y-109364407D01*
X166560500Y-108247580D01*
X166560500Y-104401865D01*
X167720882Y-104401865D01*
X167821000Y-104644171D01*
X167821000Y-106874905D01*
X167721118Y-107115446D01*
X167720882Y-107386365D01*
X167824339Y-107636752D01*
X168015741Y-107828487D01*
X168265946Y-107932382D01*
X168536865Y-107932618D01*
X168787252Y-107829161D01*
X168978987Y-107637759D01*
X169082882Y-107387554D01*
X169083118Y-107116635D01*
X168983000Y-106874329D01*
X168983000Y-106265963D01*
X173358802Y-106265963D01*
X173532143Y-106685480D01*
X173852831Y-107006729D01*
X174272045Y-107180802D01*
X174725963Y-107181198D01*
X175145480Y-107007857D01*
X175466729Y-106687169D01*
X175499867Y-106607365D01*
X175532143Y-106685480D01*
X175852831Y-107006729D01*
X176272045Y-107180802D01*
X176725963Y-107181198D01*
X177145480Y-107007857D01*
X177466729Y-106687169D01*
X177640802Y-106267955D01*
X177641198Y-105814037D01*
X177467857Y-105394520D01*
X177147169Y-105073271D01*
X176727955Y-104899198D01*
X176456071Y-104898961D01*
X176847049Y-104879341D01*
X177229941Y-104720742D01*
X177299159Y-104478764D01*
X176500000Y-103679605D01*
X175700841Y-104478764D01*
X175770059Y-104720742D01*
X176271869Y-104899698D01*
X175854520Y-105072143D01*
X175533271Y-105392831D01*
X175500133Y-105472635D01*
X175467857Y-105394520D01*
X175147169Y-105073271D01*
X174727955Y-104899198D01*
X174274037Y-104898802D01*
X173854520Y-105072143D01*
X173533271Y-105392831D01*
X173359198Y-105812045D01*
X173358802Y-106265963D01*
X168983000Y-106265963D01*
X168983000Y-104643595D01*
X169082882Y-104403054D01*
X169083118Y-104132135D01*
X168979661Y-103881748D01*
X168788259Y-103690013D01*
X168538054Y-103586118D01*
X168267135Y-103585882D01*
X168016748Y-103689339D01*
X167825013Y-103880741D01*
X167721118Y-104130946D01*
X167720882Y-104401865D01*
X166560500Y-104401865D01*
X166560500Y-104203500D01*
X166521831Y-104009097D01*
X166411710Y-103844290D01*
X165205210Y-102637790D01*
X165040403Y-102527669D01*
X164846000Y-102489000D01*
X164548420Y-102489000D01*
X164213423Y-102154003D01*
X164345865Y-102154118D01*
X164448705Y-102111626D01*
X164550289Y-102213210D01*
X164715096Y-102323331D01*
X164737584Y-102327804D01*
X164909500Y-102362000D01*
X166223080Y-102362000D01*
X167026789Y-103165710D01*
X167191596Y-103275831D01*
X167212606Y-103280010D01*
X167386000Y-103314500D01*
X172446080Y-103314500D01*
X172990790Y-103859210D01*
X173155596Y-103969331D01*
X173350000Y-104008000D01*
X173475337Y-104008000D01*
X173532143Y-104145480D01*
X173852831Y-104466729D01*
X174272045Y-104640802D01*
X174725963Y-104641198D01*
X175145480Y-104467857D01*
X175360525Y-104253188D01*
X175521236Y-104299159D01*
X176320395Y-103500000D01*
X176679605Y-103500000D01*
X177478764Y-104299159D01*
X177720742Y-104229941D01*
X177907155Y-103707220D01*
X177879341Y-103152951D01*
X177720742Y-102770059D01*
X177478764Y-102700841D01*
X176679605Y-103500000D01*
X176320395Y-103500000D01*
X175521236Y-102700841D01*
X175360379Y-102746854D01*
X175147169Y-102533271D01*
X175118186Y-102521236D01*
X175700841Y-102521236D01*
X176500000Y-103320395D01*
X177299159Y-102521236D01*
X177229941Y-102279258D01*
X176707220Y-102092845D01*
X176152951Y-102120659D01*
X175770059Y-102279258D01*
X175700841Y-102521236D01*
X175118186Y-102521236D01*
X174727955Y-102359198D01*
X174274037Y-102358802D01*
X173854520Y-102532143D01*
X173533271Y-102852831D01*
X173500404Y-102931984D01*
X173015710Y-102447290D01*
X172850903Y-102337169D01*
X172656500Y-102298500D01*
X167596421Y-102298500D01*
X166792710Y-101494790D01*
X166627903Y-101384669D01*
X166433500Y-101346000D01*
X165119921Y-101346000D01*
X164887710Y-101113790D01*
X164722903Y-101003669D01*
X164700225Y-100999158D01*
X164666126Y-100965000D01*
X164771984Y-100965000D01*
X164904241Y-101097487D01*
X165154446Y-101201382D01*
X165425365Y-101201618D01*
X165675752Y-101098161D01*
X165867487Y-100906759D01*
X165971382Y-100656554D01*
X165971618Y-100385635D01*
X165884832Y-100175593D01*
X177974012Y-100175593D01*
X178115478Y-100478782D01*
X178851955Y-100763737D01*
X179641418Y-100745164D01*
X180284522Y-100478782D01*
X180425988Y-100175593D01*
X179200000Y-98949605D01*
X177974012Y-100175593D01*
X165884832Y-100175593D01*
X165868161Y-100135248D01*
X165676759Y-99943513D01*
X165426554Y-99839618D01*
X165155635Y-99839382D01*
X164905248Y-99942839D01*
X164899076Y-99949000D01*
X163269126Y-99949000D01*
X163200259Y-99880013D01*
X162950054Y-99776118D01*
X162679135Y-99775882D01*
X162436829Y-99876000D01*
X161530658Y-99876000D01*
X161256329Y-99601671D01*
X161067839Y-99475726D01*
X160845500Y-99431500D01*
X156845000Y-99431500D01*
X156845000Y-98850400D01*
X174955200Y-98850400D01*
X175082895Y-98825000D01*
X176885600Y-98825000D01*
X177184476Y-98765550D01*
X177213884Y-98745900D01*
X177224836Y-99211418D01*
X177491218Y-99854522D01*
X177794407Y-99995988D01*
X179020395Y-98770000D01*
X179379605Y-98770000D01*
X180605593Y-99995988D01*
X180908782Y-99854522D01*
X181193737Y-99118045D01*
X181175164Y-98328582D01*
X180908782Y-97685478D01*
X180605593Y-97544012D01*
X179379605Y-98770000D01*
X179020395Y-98770000D01*
X179006253Y-98755858D01*
X179185858Y-98576253D01*
X179200000Y-98590395D01*
X180425988Y-97364407D01*
X180284522Y-97061218D01*
X179998102Y-96950398D01*
X180802250Y-96146251D01*
X180971550Y-95892876D01*
X180973117Y-95885000D01*
X180975167Y-95874694D01*
X181304505Y-95545930D01*
X181494383Y-95088652D01*
X181494815Y-94593520D01*
X181305736Y-94135912D01*
X180955930Y-93785495D01*
X180498652Y-93595617D01*
X180003520Y-93595185D01*
X179545912Y-93784264D01*
X179195495Y-94134070D01*
X179123797Y-94306739D01*
X179016516Y-94047741D01*
X178763805Y-93965800D01*
X177889605Y-94840000D01*
X177903748Y-94854143D01*
X177724143Y-95033748D01*
X177710000Y-95019605D01*
X176835800Y-95893805D01*
X176917741Y-96146516D01*
X177475699Y-96349400D01*
X176562100Y-97263000D01*
X174980600Y-97263000D01*
X174852905Y-97288400D01*
X156845000Y-97288400D01*
X156845000Y-95961329D01*
X157141348Y-96084383D01*
X157636480Y-96084815D01*
X158094088Y-95895736D01*
X158444505Y-95545930D01*
X158634383Y-95088652D01*
X158634384Y-95086480D01*
X158685185Y-95086480D01*
X158874264Y-95544088D01*
X159224070Y-95894505D01*
X159681348Y-96084383D01*
X160176480Y-96084815D01*
X160634088Y-95895736D01*
X160984505Y-95545930D01*
X161174383Y-95088652D01*
X161174384Y-95086480D01*
X161225185Y-95086480D01*
X161414264Y-95544088D01*
X161764070Y-95894505D01*
X162221348Y-96084383D01*
X162716480Y-96084815D01*
X163174088Y-95895736D01*
X163524505Y-95545930D01*
X163714383Y-95088652D01*
X163714384Y-95086480D01*
X163765185Y-95086480D01*
X163954264Y-95544088D01*
X164304070Y-95894505D01*
X164761348Y-96084383D01*
X165256480Y-96084815D01*
X165714088Y-95895736D01*
X166064505Y-95545930D01*
X166254383Y-95088652D01*
X166254384Y-95086480D01*
X166305185Y-95086480D01*
X166494264Y-95544088D01*
X166844070Y-95894505D01*
X167301348Y-96084383D01*
X167796480Y-96084815D01*
X168254088Y-95895736D01*
X168604505Y-95545930D01*
X168794383Y-95088652D01*
X168794384Y-95086480D01*
X168845185Y-95086480D01*
X169034264Y-95544088D01*
X169384070Y-95894505D01*
X169841348Y-96084383D01*
X170336480Y-96084815D01*
X170794088Y-95895736D01*
X171144505Y-95545930D01*
X171334383Y-95088652D01*
X171334384Y-95086480D01*
X171385185Y-95086480D01*
X171574264Y-95544088D01*
X171924070Y-95894505D01*
X172381348Y-96084383D01*
X172876480Y-96084815D01*
X173334088Y-95895736D01*
X173684505Y-95545930D01*
X173874383Y-95088652D01*
X173874384Y-95086480D01*
X173925185Y-95086480D01*
X174114264Y-95544088D01*
X174464070Y-95894505D01*
X174921348Y-96084383D01*
X175416480Y-96084815D01*
X175874088Y-95895736D01*
X176224505Y-95545930D01*
X176296203Y-95373261D01*
X176403484Y-95632259D01*
X176656195Y-95714200D01*
X177530395Y-94840000D01*
X176656195Y-93965800D01*
X176403484Y-94047741D01*
X176303228Y-94323458D01*
X176225736Y-94135912D01*
X175876629Y-93786195D01*
X176835800Y-93786195D01*
X177710000Y-94660395D01*
X178584200Y-93786195D01*
X178502259Y-93533484D01*
X177941970Y-93329752D01*
X177346365Y-93355942D01*
X176917741Y-93533484D01*
X176835800Y-93786195D01*
X175876629Y-93786195D01*
X175875930Y-93785495D01*
X175418652Y-93595617D01*
X174923520Y-93595185D01*
X174465912Y-93784264D01*
X174115495Y-94134070D01*
X173925617Y-94591348D01*
X173925185Y-95086480D01*
X173874384Y-95086480D01*
X173874815Y-94593520D01*
X173685736Y-94135912D01*
X173335930Y-93785495D01*
X172878652Y-93595617D01*
X172383520Y-93595185D01*
X171925912Y-93784264D01*
X171575495Y-94134070D01*
X171385617Y-94591348D01*
X171385185Y-95086480D01*
X171334384Y-95086480D01*
X171334815Y-94593520D01*
X171145736Y-94135912D01*
X170795930Y-93785495D01*
X170338652Y-93595617D01*
X169843520Y-93595185D01*
X169385912Y-93784264D01*
X169035495Y-94134070D01*
X168845617Y-94591348D01*
X168845185Y-95086480D01*
X168794384Y-95086480D01*
X168794815Y-94593520D01*
X168605736Y-94135912D01*
X168255930Y-93785495D01*
X167798652Y-93595617D01*
X167303520Y-93595185D01*
X166845912Y-93784264D01*
X166495495Y-94134070D01*
X166305617Y-94591348D01*
X166305185Y-95086480D01*
X166254384Y-95086480D01*
X166254815Y-94593520D01*
X166065736Y-94135912D01*
X165715930Y-93785495D01*
X165258652Y-93595617D01*
X164763520Y-93595185D01*
X164305912Y-93784264D01*
X163955495Y-94134070D01*
X163765617Y-94591348D01*
X163765185Y-95086480D01*
X163714384Y-95086480D01*
X163714815Y-94593520D01*
X163525736Y-94135912D01*
X163175930Y-93785495D01*
X162718652Y-93595617D01*
X162223520Y-93595185D01*
X161765912Y-93784264D01*
X161415495Y-94134070D01*
X161225617Y-94591348D01*
X161225185Y-95086480D01*
X161174384Y-95086480D01*
X161174815Y-94593520D01*
X160985736Y-94135912D01*
X160635930Y-93785495D01*
X160178652Y-93595617D01*
X159683520Y-93595185D01*
X159225912Y-93784264D01*
X158875495Y-94134070D01*
X158685617Y-94591348D01*
X158685185Y-95086480D01*
X158634384Y-95086480D01*
X158634815Y-94593520D01*
X158445736Y-94135912D01*
X158095930Y-93785495D01*
X157638652Y-93595617D01*
X157143520Y-93595185D01*
X156685912Y-93784264D01*
X156335495Y-94134070D01*
X156145617Y-94591348D01*
X156145596Y-94615000D01*
X156094796Y-94615000D01*
X156094815Y-94593520D01*
X155905736Y-94135912D01*
X155555930Y-93785495D01*
X155098652Y-93595617D01*
X154813000Y-93595368D01*
X154813000Y-91642000D01*
X181662000Y-91642000D01*
X181662000Y-117400000D01*
X85800000Y-117400000D01*
X85800000Y-94821126D01*
X87043881Y-94821126D01*
X87170046Y-94996000D01*
X88011000Y-94996000D01*
X88011000Y-94976000D01*
X88265000Y-94976000D01*
X88265000Y-94996000D01*
X89105954Y-94996000D01*
X89232119Y-94821126D01*
X90676081Y-94821126D01*
X90802246Y-94996000D01*
X91643200Y-94996000D01*
X91643200Y-94976000D01*
X91897200Y-94976000D01*
X91897200Y-94996000D01*
X92738154Y-94996000D01*
X92864319Y-94821126D01*
X94308281Y-94821126D01*
X94434446Y-94996000D01*
X95275400Y-94996000D01*
X95275400Y-94976000D01*
X95529400Y-94976000D01*
X95529400Y-94996000D01*
X96370354Y-94996000D01*
X96496519Y-94821126D01*
X97940481Y-94821126D01*
X98066646Y-94996000D01*
X98907600Y-94996000D01*
X98907600Y-94976000D01*
X99161600Y-94976000D01*
X99161600Y-94996000D01*
X100002554Y-94996000D01*
X100128719Y-94821126D01*
X101547281Y-94821126D01*
X101673446Y-94996000D01*
X102514400Y-94996000D01*
X102514400Y-94976000D01*
X102768400Y-94976000D01*
X102768400Y-94996000D01*
X103609354Y-94996000D01*
X103735519Y-94821126D01*
X105179481Y-94821126D01*
X105305646Y-94996000D01*
X106146600Y-94996000D01*
X106146600Y-94976000D01*
X106400600Y-94976000D01*
X106400600Y-94996000D01*
X107241554Y-94996000D01*
X107367719Y-94821126D01*
X108811681Y-94821126D01*
X108937846Y-94996000D01*
X109778800Y-94996000D01*
X109778800Y-94976000D01*
X110032800Y-94976000D01*
X110032800Y-94996000D01*
X110873754Y-94996000D01*
X110999919Y-94821126D01*
X112443881Y-94821126D01*
X112570046Y-94996000D01*
X113411000Y-94996000D01*
X113411000Y-94976000D01*
X113665000Y-94976000D01*
X113665000Y-94996000D01*
X114505954Y-94996000D01*
X114632119Y-94821126D01*
X114543864Y-94608030D01*
X115239752Y-94608030D01*
X115265942Y-95203635D01*
X115443484Y-95632259D01*
X115696195Y-95714200D01*
X116570395Y-94840000D01*
X116929605Y-94840000D01*
X117803805Y-95714200D01*
X118056516Y-95632259D01*
X118156772Y-95356542D01*
X118234264Y-95544088D01*
X118584070Y-95894505D01*
X119041348Y-96084383D01*
X119536480Y-96084815D01*
X119994088Y-95895736D01*
X120344505Y-95545930D01*
X120534383Y-95088652D01*
X120534384Y-95086480D01*
X120585185Y-95086480D01*
X120774264Y-95544088D01*
X121124070Y-95894505D01*
X121581348Y-96084383D01*
X122076480Y-96084815D01*
X122534088Y-95895736D01*
X122884505Y-95545930D01*
X123074383Y-95088652D01*
X123074384Y-95086480D01*
X123125185Y-95086480D01*
X123314264Y-95544088D01*
X123664070Y-95894505D01*
X124121348Y-96084383D01*
X124616480Y-96084815D01*
X125074088Y-95895736D01*
X125424505Y-95545930D01*
X125614383Y-95088652D01*
X125614384Y-95086480D01*
X125665185Y-95086480D01*
X125854264Y-95544088D01*
X126204070Y-95894505D01*
X126661348Y-96084383D01*
X127156480Y-96084815D01*
X127614088Y-95895736D01*
X127964505Y-95545930D01*
X128154383Y-95088652D01*
X128154384Y-95086480D01*
X128205185Y-95086480D01*
X128394264Y-95544088D01*
X128744070Y-95894505D01*
X129201348Y-96084383D01*
X129696480Y-96084815D01*
X130154088Y-95895736D01*
X130504505Y-95545930D01*
X130694383Y-95088652D01*
X130694384Y-95086480D01*
X130745185Y-95086480D01*
X130934264Y-95544088D01*
X131284070Y-95894505D01*
X131741348Y-96084383D01*
X132236480Y-96084815D01*
X132694088Y-95895736D01*
X133044505Y-95545930D01*
X133234383Y-95088652D01*
X133234384Y-95086480D01*
X133285185Y-95086480D01*
X133474264Y-95544088D01*
X133824070Y-95894505D01*
X134281348Y-96084383D01*
X134776480Y-96084815D01*
X135234088Y-95895736D01*
X135584505Y-95545930D01*
X135774383Y-95088652D01*
X135774384Y-95086480D01*
X135825185Y-95086480D01*
X136014264Y-95544088D01*
X136364070Y-95894505D01*
X136821348Y-96084383D01*
X137316480Y-96084815D01*
X137774088Y-95895736D01*
X138124505Y-95545930D01*
X138314383Y-95088652D01*
X138314384Y-95086480D01*
X138365185Y-95086480D01*
X138554264Y-95544088D01*
X138904070Y-95894505D01*
X139361348Y-96084383D01*
X139856480Y-96084815D01*
X140314088Y-95895736D01*
X140664505Y-95545930D01*
X140854383Y-95088652D01*
X140854384Y-95086480D01*
X140905185Y-95086480D01*
X141094264Y-95544088D01*
X141444070Y-95894505D01*
X141901348Y-96084383D01*
X142396480Y-96084815D01*
X142854088Y-95895736D01*
X143204505Y-95545930D01*
X143394383Y-95088652D01*
X143394384Y-95086480D01*
X143445185Y-95086480D01*
X143634264Y-95544088D01*
X143984070Y-95894505D01*
X144441348Y-96084383D01*
X144936480Y-96084815D01*
X145394088Y-95895736D01*
X145744505Y-95545930D01*
X145934383Y-95088652D01*
X145934815Y-94593520D01*
X145745736Y-94135912D01*
X145395930Y-93785495D01*
X144938652Y-93595617D01*
X144443520Y-93595185D01*
X143985912Y-93784264D01*
X143635495Y-94134070D01*
X143445617Y-94591348D01*
X143445185Y-95086480D01*
X143394384Y-95086480D01*
X143394815Y-94593520D01*
X143205736Y-94135912D01*
X142855930Y-93785495D01*
X142398652Y-93595617D01*
X141903520Y-93595185D01*
X141445912Y-93784264D01*
X141095495Y-94134070D01*
X140905617Y-94591348D01*
X140905185Y-95086480D01*
X140854384Y-95086480D01*
X140854815Y-94593520D01*
X140665736Y-94135912D01*
X140315930Y-93785495D01*
X139858652Y-93595617D01*
X139363520Y-93595185D01*
X138905912Y-93784264D01*
X138555495Y-94134070D01*
X138365617Y-94591348D01*
X138365185Y-95086480D01*
X138314384Y-95086480D01*
X138314815Y-94593520D01*
X138125736Y-94135912D01*
X137775930Y-93785495D01*
X137318652Y-93595617D01*
X136823520Y-93595185D01*
X136365912Y-93784264D01*
X136015495Y-94134070D01*
X135825617Y-94591348D01*
X135825185Y-95086480D01*
X135774384Y-95086480D01*
X135774815Y-94593520D01*
X135585736Y-94135912D01*
X135235930Y-93785495D01*
X134778652Y-93595617D01*
X134283520Y-93595185D01*
X133825912Y-93784264D01*
X133475495Y-94134070D01*
X133285617Y-94591348D01*
X133285185Y-95086480D01*
X133234384Y-95086480D01*
X133234815Y-94593520D01*
X133045736Y-94135912D01*
X132695930Y-93785495D01*
X132238652Y-93595617D01*
X131743520Y-93595185D01*
X131285912Y-93784264D01*
X130935495Y-94134070D01*
X130745617Y-94591348D01*
X130745185Y-95086480D01*
X130694384Y-95086480D01*
X130694815Y-94593520D01*
X130505736Y-94135912D01*
X130155930Y-93785495D01*
X129698652Y-93595617D01*
X129203520Y-93595185D01*
X128745912Y-93784264D01*
X128395495Y-94134070D01*
X128205617Y-94591348D01*
X128205185Y-95086480D01*
X128154384Y-95086480D01*
X128154815Y-94593520D01*
X127965736Y-94135912D01*
X127615930Y-93785495D01*
X127158652Y-93595617D01*
X126663520Y-93595185D01*
X126205912Y-93784264D01*
X125855495Y-94134070D01*
X125665617Y-94591348D01*
X125665185Y-95086480D01*
X125614384Y-95086480D01*
X125614815Y-94593520D01*
X125425736Y-94135912D01*
X125075930Y-93785495D01*
X124618652Y-93595617D01*
X124123520Y-93595185D01*
X123665912Y-93784264D01*
X123315495Y-94134070D01*
X123125617Y-94591348D01*
X123125185Y-95086480D01*
X123074384Y-95086480D01*
X123074815Y-94593520D01*
X122885736Y-94135912D01*
X122535930Y-93785495D01*
X122078652Y-93595617D01*
X121583520Y-93595185D01*
X121125912Y-93784264D01*
X120775495Y-94134070D01*
X120585617Y-94591348D01*
X120585185Y-95086480D01*
X120534384Y-95086480D01*
X120534815Y-94593520D01*
X120345736Y-94135912D01*
X119995930Y-93785495D01*
X119538652Y-93595617D01*
X119043520Y-93595185D01*
X118585912Y-93784264D01*
X118235495Y-94134070D01*
X118163797Y-94306739D01*
X118056516Y-94047741D01*
X117803805Y-93965800D01*
X116929605Y-94840000D01*
X116570395Y-94840000D01*
X115696195Y-93965800D01*
X115443484Y-94047741D01*
X115239752Y-94608030D01*
X114543864Y-94608030D01*
X114525127Y-94562791D01*
X114410782Y-94430440D01*
X114426464Y-94353000D01*
X114426464Y-93786195D01*
X115875800Y-93786195D01*
X116750000Y-94660395D01*
X117624200Y-93786195D01*
X117542259Y-93533484D01*
X116981970Y-93329752D01*
X116386365Y-93355942D01*
X115957741Y-93533484D01*
X115875800Y-93786195D01*
X114426464Y-93786195D01*
X114426464Y-93353000D01*
X114399897Y-93211810D01*
X114316454Y-93082135D01*
X114189134Y-92995141D01*
X114038000Y-92964536D01*
X113038000Y-92964536D01*
X112896810Y-92991103D01*
X112767135Y-93074546D01*
X112680141Y-93201866D01*
X112649536Y-93353000D01*
X112649536Y-94353000D01*
X112664306Y-94431496D01*
X112550873Y-94562791D01*
X112443881Y-94821126D01*
X110999919Y-94821126D01*
X110892927Y-94562791D01*
X110778582Y-94430440D01*
X110794264Y-94353000D01*
X110794264Y-93353000D01*
X110767697Y-93211810D01*
X110684254Y-93082135D01*
X110556934Y-92995141D01*
X110405800Y-92964536D01*
X109405800Y-92964536D01*
X109264610Y-92991103D01*
X109134935Y-93074546D01*
X109047941Y-93201866D01*
X109017336Y-93353000D01*
X109017336Y-94353000D01*
X109032106Y-94431496D01*
X108918673Y-94562791D01*
X108811681Y-94821126D01*
X107367719Y-94821126D01*
X107260727Y-94562791D01*
X107146382Y-94430440D01*
X107162064Y-94353000D01*
X107162064Y-93353000D01*
X107135497Y-93211810D01*
X107052054Y-93082135D01*
X106924734Y-92995141D01*
X106773600Y-92964536D01*
X105773600Y-92964536D01*
X105632410Y-92991103D01*
X105502735Y-93074546D01*
X105415741Y-93201866D01*
X105385136Y-93353000D01*
X105385136Y-94353000D01*
X105399906Y-94431496D01*
X105286473Y-94562791D01*
X105179481Y-94821126D01*
X103735519Y-94821126D01*
X103628527Y-94562791D01*
X103514182Y-94430440D01*
X103529864Y-94353000D01*
X103529864Y-93353000D01*
X103503297Y-93211810D01*
X103419854Y-93082135D01*
X103292534Y-92995141D01*
X103141400Y-92964536D01*
X102141400Y-92964536D01*
X102000210Y-92991103D01*
X101870535Y-93074546D01*
X101783541Y-93201866D01*
X101752936Y-93353000D01*
X101752936Y-94353000D01*
X101767706Y-94431496D01*
X101654273Y-94562791D01*
X101547281Y-94821126D01*
X100128719Y-94821126D01*
X100021727Y-94562791D01*
X99907382Y-94430440D01*
X99923064Y-94353000D01*
X99923064Y-93353000D01*
X99896497Y-93211810D01*
X99813054Y-93082135D01*
X99685734Y-92995141D01*
X99534600Y-92964536D01*
X98534600Y-92964536D01*
X98393410Y-92991103D01*
X98263735Y-93074546D01*
X98176741Y-93201866D01*
X98146136Y-93353000D01*
X98146136Y-94353000D01*
X98160906Y-94431496D01*
X98047473Y-94562791D01*
X97940481Y-94821126D01*
X96496519Y-94821126D01*
X96389527Y-94562791D01*
X96275182Y-94430440D01*
X96290864Y-94353000D01*
X96290864Y-93353000D01*
X96264297Y-93211810D01*
X96180854Y-93082135D01*
X96053534Y-92995141D01*
X95902400Y-92964536D01*
X94902400Y-92964536D01*
X94761210Y-92991103D01*
X94631535Y-93074546D01*
X94544541Y-93201866D01*
X94513936Y-93353000D01*
X94513936Y-94353000D01*
X94528706Y-94431496D01*
X94415273Y-94562791D01*
X94308281Y-94821126D01*
X92864319Y-94821126D01*
X92757327Y-94562791D01*
X92642982Y-94430440D01*
X92658664Y-94353000D01*
X92658664Y-93353000D01*
X92632097Y-93211810D01*
X92548654Y-93082135D01*
X92421334Y-92995141D01*
X92270200Y-92964536D01*
X91270200Y-92964536D01*
X91129010Y-92991103D01*
X90999335Y-93074546D01*
X90912341Y-93201866D01*
X90881736Y-93353000D01*
X90881736Y-94353000D01*
X90896506Y-94431496D01*
X90783073Y-94562791D01*
X90676081Y-94821126D01*
X89232119Y-94821126D01*
X89125127Y-94562791D01*
X89010782Y-94430440D01*
X89026464Y-94353000D01*
X89026464Y-93353000D01*
X88999897Y-93211810D01*
X88916454Y-93082135D01*
X88789134Y-92995141D01*
X88638000Y-92964536D01*
X87638000Y-92964536D01*
X87496810Y-92991103D01*
X87367135Y-93074546D01*
X87280141Y-93201866D01*
X87249536Y-93353000D01*
X87249536Y-94353000D01*
X87264306Y-94431496D01*
X87150873Y-94562791D01*
X87043881Y-94821126D01*
X85800000Y-94821126D01*
X85800000Y-91642000D01*
X154305000Y-91642000D01*
X154305000Y-93718530D01*
X154305000Y-93718530D01*
G37*
X154305000Y-93718530D02*
X154145912Y-93784264D01*
X153795495Y-94134070D01*
X153605617Y-94591348D01*
X153605596Y-94615000D01*
X153554796Y-94615000D01*
X153554815Y-94593520D01*
X153365736Y-94135912D01*
X153015930Y-93785495D01*
X152558652Y-93595617D01*
X152063520Y-93595185D01*
X151605912Y-93784264D01*
X151255495Y-94134070D01*
X151065617Y-94591348D01*
X151065596Y-94615000D01*
X151014796Y-94615000D01*
X151014815Y-94593520D01*
X150825736Y-94135912D01*
X150475930Y-93785495D01*
X150018652Y-93595617D01*
X149523520Y-93595185D01*
X149065912Y-93784264D01*
X148715495Y-94134070D01*
X148525617Y-94591348D01*
X148525596Y-94615000D01*
X148474796Y-94615000D01*
X148474815Y-94593520D01*
X148285736Y-94135912D01*
X147935930Y-93785495D01*
X147478652Y-93595617D01*
X146983520Y-93595185D01*
X146525912Y-93784264D01*
X146175495Y-94134070D01*
X145985617Y-94591348D01*
X145985185Y-95086480D01*
X146174264Y-95544088D01*
X146177000Y-95546829D01*
X146177000Y-97386800D01*
X131114800Y-97386800D01*
X130892461Y-97431026D01*
X130703971Y-97556971D01*
X130411464Y-97849478D01*
X130170748Y-97948939D01*
X129979013Y-98140341D01*
X129875118Y-98390546D01*
X129874882Y-98661465D01*
X129882127Y-98679000D01*
X124543420Y-98679000D01*
X122558610Y-96694190D01*
X122393803Y-96584069D01*
X122199400Y-96545400D01*
X115265200Y-96545400D01*
X115070797Y-96584069D01*
X114905990Y-96694189D01*
X114445180Y-97155000D01*
X114255036Y-97155000D01*
X114178221Y-97040039D01*
X114160203Y-97028000D01*
X114178221Y-97015961D01*
X114369198Y-96730144D01*
X114436260Y-96393000D01*
X114369198Y-96055856D01*
X114296795Y-95947497D01*
X114343182Y-95893805D01*
X115875800Y-95893805D01*
X115957741Y-96146516D01*
X116518030Y-96350248D01*
X117113635Y-96324058D01*
X117542259Y-96146516D01*
X117624200Y-95893805D01*
X116750000Y-95019605D01*
X115875800Y-95893805D01*
X114343182Y-95893805D01*
X114525127Y-95683209D01*
X114632119Y-95424874D01*
X114505954Y-95250000D01*
X113665000Y-95250000D01*
X113665000Y-95270000D01*
X113411000Y-95270000D01*
X113411000Y-95250000D01*
X112570046Y-95250000D01*
X112443881Y-95424874D01*
X112550873Y-95683209D01*
X112755008Y-95919490D01*
X112733996Y-95923669D01*
X112569190Y-96033790D01*
X112264390Y-96338590D01*
X112154269Y-96503397D01*
X112115600Y-96697800D01*
X112115600Y-98018600D01*
X112154269Y-98213003D01*
X112264390Y-98377810D01*
X112336980Y-98450400D01*
X111970420Y-98450400D01*
X110823810Y-97303790D01*
X110659003Y-97193669D01*
X110647090Y-97191299D01*
X110546021Y-97040039D01*
X110528003Y-97028000D01*
X110546021Y-97015961D01*
X110736998Y-96730144D01*
X110804060Y-96393000D01*
X110736998Y-96055856D01*
X110664595Y-95947497D01*
X110892927Y-95683209D01*
X110999919Y-95424874D01*
X110873754Y-95250000D01*
X110032800Y-95250000D01*
X110032800Y-95270000D01*
X109778800Y-95270000D01*
X109778800Y-95250000D01*
X108937846Y-95250000D01*
X108811681Y-95424874D01*
X108918673Y-95683209D01*
X109145296Y-95945518D01*
X109013190Y-96033790D01*
X108657590Y-96389390D01*
X108547469Y-96554197D01*
X108508800Y-96748600D01*
X108508800Y-97503380D01*
X108309210Y-97303790D01*
X108144403Y-97193669D01*
X107950000Y-97155000D01*
X106990636Y-97155000D01*
X106913821Y-97040039D01*
X106895803Y-97028000D01*
X106913821Y-97015961D01*
X107104798Y-96730144D01*
X107171860Y-96393000D01*
X107104798Y-96055856D01*
X107032395Y-95947497D01*
X107260727Y-95683209D01*
X107367719Y-95424874D01*
X107241554Y-95250000D01*
X106400600Y-95250000D01*
X106400600Y-95270000D01*
X106146600Y-95270000D01*
X106146600Y-95250000D01*
X105305646Y-95250000D01*
X105179481Y-95424874D01*
X105286473Y-95683209D01*
X105514805Y-95947497D01*
X105442402Y-96055856D01*
X105425289Y-96141891D01*
X105025390Y-96541790D01*
X104915269Y-96706597D01*
X104876600Y-96901000D01*
X104876600Y-97452580D01*
X104727810Y-97303790D01*
X104563003Y-97193669D01*
X104368600Y-97155000D01*
X103358436Y-97155000D01*
X103281621Y-97040039D01*
X103263603Y-97028000D01*
X103281621Y-97015961D01*
X103472598Y-96730144D01*
X103539660Y-96393000D01*
X103472598Y-96055856D01*
X103400195Y-95947497D01*
X103628527Y-95683209D01*
X103735519Y-95424874D01*
X103609354Y-95250000D01*
X102768400Y-95250000D01*
X102768400Y-95270000D01*
X102514400Y-95270000D01*
X102514400Y-95250000D01*
X101673446Y-95250000D01*
X101547281Y-95424874D01*
X101654273Y-95683209D01*
X101862304Y-95923998D01*
X101697990Y-96033790D01*
X101418590Y-96313190D01*
X101308469Y-96477997D01*
X101269800Y-96672400D01*
X101269800Y-98145600D01*
X101308469Y-98340003D01*
X101418590Y-98504810D01*
X101774190Y-98860410D01*
X101938996Y-98970531D01*
X101961479Y-98975003D01*
X102133400Y-99009200D01*
X103599380Y-99009200D01*
X104441190Y-99851010D01*
X104605997Y-99961131D01*
X104800400Y-99999800D01*
X107358580Y-99999800D01*
X108174990Y-100816210D01*
X108339797Y-100926331D01*
X108534200Y-100965000D01*
X109542980Y-100965000D01*
X110152580Y-101574600D01*
X91371020Y-101574600D01*
X90525600Y-100729180D01*
X90525600Y-98780600D01*
X90513746Y-98721004D01*
X90486931Y-98586196D01*
X90376810Y-98421390D01*
X89259210Y-97303790D01*
X89094403Y-97193669D01*
X88900000Y-97155000D01*
X88855036Y-97155000D01*
X88778221Y-97040039D01*
X88760203Y-97028000D01*
X88778221Y-97015961D01*
X88969198Y-96730144D01*
X89036260Y-96393000D01*
X88969198Y-96055856D01*
X88896795Y-95947497D01*
X89125127Y-95683209D01*
X89232119Y-95424874D01*
X90676081Y-95424874D01*
X90783073Y-95683209D01*
X91011405Y-95947497D01*
X90939002Y-96055856D01*
X90871940Y-96393000D01*
X90939002Y-96730144D01*
X91129979Y-97015961D01*
X91147997Y-97028000D01*
X91129979Y-97040039D01*
X90939002Y-97325856D01*
X90871940Y-97663000D01*
X90939002Y-98000144D01*
X91129979Y-98285961D01*
X91415796Y-98476938D01*
X91752940Y-98544000D01*
X91787460Y-98544000D01*
X92124604Y-98476938D01*
X92410421Y-98285961D01*
X92601398Y-98000144D01*
X92668460Y-97663000D01*
X92601398Y-97325856D01*
X92410421Y-97040039D01*
X92392403Y-97028000D01*
X92410421Y-97015961D01*
X92601398Y-96730144D01*
X92668460Y-96393000D01*
X92601398Y-96055856D01*
X92528995Y-95947497D01*
X92757327Y-95683209D01*
X92864319Y-95424874D01*
X94308281Y-95424874D01*
X94415273Y-95683209D01*
X94643605Y-95947497D01*
X94571202Y-96055856D01*
X94504140Y-96393000D01*
X94571202Y-96730144D01*
X94762179Y-97015961D01*
X94780197Y-97028000D01*
X94762179Y-97040039D01*
X94571202Y-97325856D01*
X94504140Y-97663000D01*
X94571202Y-98000144D01*
X94762179Y-98285961D01*
X95047996Y-98476938D01*
X95385140Y-98544000D01*
X95419660Y-98544000D01*
X95756804Y-98476938D01*
X96042621Y-98285961D01*
X96233598Y-98000144D01*
X96300660Y-97663000D01*
X96233598Y-97325856D01*
X96042621Y-97040039D01*
X96024603Y-97028000D01*
X96042621Y-97015961D01*
X96233598Y-96730144D01*
X96300660Y-96393000D01*
X96233598Y-96055856D01*
X96161195Y-95947497D01*
X96389527Y-95683209D01*
X96496519Y-95424874D01*
X97940481Y-95424874D01*
X98047473Y-95683209D01*
X98275805Y-95947497D01*
X98203402Y-96055856D01*
X98136340Y-96393000D01*
X98203402Y-96730144D01*
X98394379Y-97015961D01*
X98412397Y-97028000D01*
X98394379Y-97040039D01*
X98203402Y-97325856D01*
X98136340Y-97663000D01*
X98203402Y-98000144D01*
X98394379Y-98285961D01*
X98680196Y-98476938D01*
X99017340Y-98544000D01*
X99051860Y-98544000D01*
X99389004Y-98476938D01*
X99674821Y-98285961D01*
X99865798Y-98000144D01*
X99932860Y-97663000D01*
X99865798Y-97325856D01*
X99674821Y-97040039D01*
X99656803Y-97028000D01*
X99674821Y-97015961D01*
X99865798Y-96730144D01*
X99932860Y-96393000D01*
X99865798Y-96055856D01*
X99793395Y-95947497D01*
X100021727Y-95683209D01*
X100128719Y-95424874D01*
X100002554Y-95250000D01*
X99161600Y-95250000D01*
X99161600Y-95270000D01*
X98907600Y-95270000D01*
X98907600Y-95250000D01*
X98066646Y-95250000D01*
X97940481Y-95424874D01*
X96496519Y-95424874D01*
X96370354Y-95250000D01*
X95529400Y-95250000D01*
X95529400Y-95270000D01*
X95275400Y-95270000D01*
X95275400Y-95250000D01*
X94434446Y-95250000D01*
X94308281Y-95424874D01*
X92864319Y-95424874D01*
X92738154Y-95250000D01*
X91897200Y-95250000D01*
X91897200Y-95270000D01*
X91643200Y-95270000D01*
X91643200Y-95250000D01*
X90802246Y-95250000D01*
X90676081Y-95424874D01*
X89232119Y-95424874D01*
X89105954Y-95250000D01*
X88265000Y-95250000D01*
X88265000Y-95270000D01*
X88011000Y-95270000D01*
X88011000Y-95250000D01*
X87170046Y-95250000D01*
X87043881Y-95424874D01*
X87150873Y-95683209D01*
X87379205Y-95947497D01*
X87306802Y-96055856D01*
X87239740Y-96393000D01*
X87306802Y-96730144D01*
X87497779Y-97015961D01*
X87515797Y-97028000D01*
X87497779Y-97040039D01*
X87306802Y-97325856D01*
X87239740Y-97663000D01*
X87306802Y-98000144D01*
X87497779Y-98285961D01*
X87783596Y-98476938D01*
X88120740Y-98544000D01*
X88155260Y-98544000D01*
X88492404Y-98476938D01*
X88778221Y-98285961D01*
X88788763Y-98270183D01*
X89509600Y-98991020D01*
X89509600Y-100939600D01*
X89548269Y-101134003D01*
X89658390Y-101298810D01*
X90801390Y-102441810D01*
X90966196Y-102551931D01*
X91160600Y-102590600D01*
X120414180Y-102590600D01*
X122525990Y-104702410D01*
X122627811Y-104770445D01*
X122589454Y-104754518D01*
X122318535Y-104754282D01*
X122076229Y-104854400D01*
X120255658Y-104854400D01*
X118901829Y-103500571D01*
X118713339Y-103374626D01*
X118491000Y-103330400D01*
X93421200Y-103330400D01*
X93198861Y-103374626D01*
X93010371Y-103500571D01*
X90792942Y-105718000D01*
X89027000Y-105718000D01*
X88804661Y-105762226D01*
X88616171Y-105888171D01*
X87752571Y-106751771D01*
X87626626Y-106940261D01*
X87582400Y-107162600D01*
X87582400Y-108499177D01*
X87522210Y-108510503D01*
X87392535Y-108593946D01*
X87305541Y-108721266D01*
X87274936Y-108872400D01*
X87274936Y-109872400D01*
X87289706Y-109950896D01*
X87176273Y-110082191D01*
X87069281Y-110340526D01*
X87195446Y-110515400D01*
X88036400Y-110515400D01*
X88036400Y-110495400D01*
X88290400Y-110495400D01*
X88290400Y-110515400D01*
X88310400Y-110515400D01*
X88310400Y-110769400D01*
X88290400Y-110769400D01*
X88290400Y-110789400D01*
X88036400Y-110789400D01*
X88036400Y-110769400D01*
X87195446Y-110769400D01*
X87069281Y-110944274D01*
X87176273Y-111202609D01*
X87404605Y-111466897D01*
X87332202Y-111575256D01*
X87265140Y-111912400D01*
X87332202Y-112249544D01*
X87523179Y-112535361D01*
X87541197Y-112547400D01*
X87523179Y-112559439D01*
X87332202Y-112845256D01*
X87265140Y-113182400D01*
X87332202Y-113519544D01*
X87523179Y-113805361D01*
X87808996Y-113996338D01*
X88146140Y-114063400D01*
X88180660Y-114063400D01*
X88517804Y-113996338D01*
X88803621Y-113805361D01*
X88880436Y-113690400D01*
X89433400Y-113690400D01*
X89627803Y-113651731D01*
X89792610Y-113541610D01*
X90347800Y-112986421D01*
X90347800Y-113665000D01*
X90386469Y-113859403D01*
X90496590Y-114024210D01*
X90902989Y-114430610D01*
X91067796Y-114540731D01*
X91100050Y-114547146D01*
X91262200Y-114579400D01*
X92532200Y-114579400D01*
X92726603Y-114540731D01*
X92891410Y-114430610D01*
X93929200Y-113392820D01*
X93929200Y-113563400D01*
X93967869Y-113757803D01*
X94077990Y-113922610D01*
X94662190Y-114506811D01*
X94826997Y-114616931D01*
X95021400Y-114655600D01*
X96824800Y-114655600D01*
X97019203Y-114616931D01*
X97184010Y-114506810D01*
X97743535Y-113947286D01*
X97760990Y-113973410D01*
X98243589Y-114456010D01*
X98352227Y-114528599D01*
X98408397Y-114566131D01*
X98602800Y-114604800D01*
X100787200Y-114604800D01*
X100981603Y-114566131D01*
X101146410Y-114456010D01*
X101934646Y-113667774D01*
X102026579Y-113805361D01*
X102312396Y-113996338D01*
X102649540Y-114063400D01*
X102684060Y-114063400D01*
X103021204Y-113996338D01*
X103307021Y-113805361D01*
X103383836Y-113690400D01*
X103860600Y-113690400D01*
X104055003Y-113651731D01*
X104219810Y-113541610D01*
X104876600Y-112884820D01*
X104876600Y-113639600D01*
X104915269Y-113834003D01*
X105025390Y-113998810D01*
X105533389Y-114506810D01*
X105584156Y-114540731D01*
X105698197Y-114616931D01*
X105892600Y-114655600D01*
X107746800Y-114655600D01*
X107941203Y-114616931D01*
X108106010Y-114506810D01*
X109098886Y-113513934D01*
X109100002Y-113519544D01*
X109290979Y-113805361D01*
X109576796Y-113996338D01*
X109913940Y-114063400D01*
X109948460Y-114063400D01*
X110285604Y-113996338D01*
X110571421Y-113805361D01*
X110648236Y-113690400D01*
X110972600Y-113690400D01*
X111167003Y-113651731D01*
X111331810Y-113541610D01*
X112191800Y-112681621D01*
X112191800Y-113563400D01*
X112230469Y-113757803D01*
X112340590Y-113922610D01*
X112797789Y-114379810D01*
X112962596Y-114489931D01*
X112994850Y-114496346D01*
X113157000Y-114528600D01*
X114960400Y-114528600D01*
X115154803Y-114489931D01*
X115319610Y-114379810D01*
X115323220Y-114376200D01*
X115773501Y-114376200D01*
X115695495Y-114454070D01*
X115505617Y-114911348D01*
X115505260Y-115321082D01*
X115202342Y-115624000D01*
X112390595Y-115624000D01*
X112150054Y-115524118D01*
X111879135Y-115523882D01*
X111628748Y-115627339D01*
X111558966Y-115697000D01*
X108912950Y-115697000D01*
X108742659Y-115526413D01*
X108492454Y-115422518D01*
X108221535Y-115422282D01*
X107971148Y-115525739D01*
X107901366Y-115595400D01*
X105280838Y-115595400D01*
X105161259Y-115475613D01*
X104911054Y-115371718D01*
X104640135Y-115371482D01*
X104389748Y-115474939D01*
X104319966Y-115544600D01*
X101597926Y-115544600D01*
X101529059Y-115475613D01*
X101278854Y-115371718D01*
X101007935Y-115371482D01*
X100757548Y-115474939D01*
X100687766Y-115544600D01*
X97965726Y-115544600D01*
X97896859Y-115475613D01*
X97646654Y-115371718D01*
X97375735Y-115371482D01*
X97125348Y-115474939D01*
X97055566Y-115544600D01*
X94333526Y-115544600D01*
X94264659Y-115475613D01*
X94014454Y-115371718D01*
X93743535Y-115371482D01*
X93493148Y-115474939D01*
X93423366Y-115544600D01*
X90726726Y-115544600D01*
X90657859Y-115475613D01*
X90407654Y-115371718D01*
X90136735Y-115371482D01*
X89886348Y-115474939D01*
X89816566Y-115544600D01*
X87094526Y-115544600D01*
X87025659Y-115475613D01*
X86775454Y-115371718D01*
X86504535Y-115371482D01*
X86254148Y-115474939D01*
X86062413Y-115666341D01*
X85958518Y-115916546D01*
X85958282Y-116187465D01*
X86061739Y-116437852D01*
X86253141Y-116629587D01*
X86503346Y-116733482D01*
X86774265Y-116733718D01*
X87024652Y-116630261D01*
X87094434Y-116560600D01*
X89816474Y-116560600D01*
X89885341Y-116629587D01*
X90135546Y-116733482D01*
X90406465Y-116733718D01*
X90656852Y-116630261D01*
X90726634Y-116560600D01*
X93423274Y-116560600D01*
X93492141Y-116629587D01*
X93742346Y-116733482D01*
X94013265Y-116733718D01*
X94263652Y-116630261D01*
X94333434Y-116560600D01*
X97055474Y-116560600D01*
X97124341Y-116629587D01*
X97374546Y-116733482D01*
X97645465Y-116733718D01*
X97895852Y-116630261D01*
X97965634Y-116560600D01*
X100687674Y-116560600D01*
X100756541Y-116629587D01*
X101006746Y-116733482D01*
X101277665Y-116733718D01*
X101528052Y-116630261D01*
X101597834Y-116560600D01*
X104319874Y-116560600D01*
X104388741Y-116629587D01*
X104638946Y-116733482D01*
X104909865Y-116733718D01*
X105160252Y-116630261D01*
X105179146Y-116611400D01*
X107901274Y-116611400D01*
X107970141Y-116680387D01*
X108220346Y-116784282D01*
X108491265Y-116784518D01*
X108664353Y-116713000D01*
X111558874Y-116713000D01*
X111627741Y-116781987D01*
X111877946Y-116885882D01*
X112148865Y-116886118D01*
X112391171Y-116786000D01*
X115443000Y-116786000D01*
X115665339Y-116741774D01*
X115853829Y-116615829D01*
X116193220Y-116276438D01*
X116501348Y-116404383D01*
X116996480Y-116404815D01*
X117454088Y-116215736D01*
X117456022Y-116213805D01*
X118415800Y-116213805D01*
X118497741Y-116466516D01*
X119058030Y-116670248D01*
X119653635Y-116644058D01*
X120082259Y-116466516D01*
X120164200Y-116213805D01*
X119290000Y-115339605D01*
X118415800Y-116213805D01*
X117456022Y-116213805D01*
X117804505Y-115865930D01*
X117876203Y-115693261D01*
X117983484Y-115952259D01*
X118236195Y-116034200D01*
X119110395Y-115160000D01*
X119096253Y-115145858D01*
X119275858Y-114966253D01*
X119290000Y-114980395D01*
X119304143Y-114966253D01*
X119483748Y-115145858D01*
X119469605Y-115160000D01*
X120343805Y-116034200D01*
X120596516Y-115952259D01*
X120696772Y-115676542D01*
X120774264Y-115864088D01*
X121124070Y-116214505D01*
X121581348Y-116404383D01*
X122076480Y-116404815D01*
X122534088Y-116215736D01*
X122884505Y-115865930D01*
X123074383Y-115408652D01*
X123074815Y-114913520D01*
X122885736Y-114455912D01*
X122806163Y-114376200D01*
X123393501Y-114376200D01*
X123315495Y-114454070D01*
X123125617Y-114911348D01*
X123125185Y-115406480D01*
X123314264Y-115864088D01*
X123664070Y-116214505D01*
X124121348Y-116404383D01*
X124616480Y-116404815D01*
X125074088Y-116215736D01*
X125424505Y-115865930D01*
X125614383Y-115408652D01*
X125614815Y-114913520D01*
X125425736Y-114455912D01*
X125346163Y-114376200D01*
X125933501Y-114376200D01*
X125855495Y-114454070D01*
X125665617Y-114911348D01*
X125665185Y-115406480D01*
X125854264Y-115864088D01*
X126204070Y-116214505D01*
X126661348Y-116404383D01*
X127156480Y-116404815D01*
X127614088Y-116215736D01*
X127964505Y-115865930D01*
X128154383Y-115408652D01*
X128154815Y-114913520D01*
X127965736Y-114455912D01*
X127886163Y-114376200D01*
X128473501Y-114376200D01*
X128395495Y-114454070D01*
X128205617Y-114911348D01*
X128205185Y-115406480D01*
X128394264Y-115864088D01*
X128744070Y-116214505D01*
X129201348Y-116404383D01*
X129696480Y-116404815D01*
X130154088Y-116215736D01*
X130504505Y-115865930D01*
X130694383Y-115408652D01*
X130694384Y-115406480D01*
X130745185Y-115406480D01*
X130934264Y-115864088D01*
X131284070Y-116214505D01*
X131741348Y-116404383D01*
X132236480Y-116404815D01*
X132694088Y-116215736D01*
X133044505Y-115865930D01*
X133234383Y-115408652D01*
X133234384Y-115406480D01*
X133285185Y-115406480D01*
X133474264Y-115864088D01*
X133824070Y-116214505D01*
X134281348Y-116404383D01*
X134776480Y-116404815D01*
X135234088Y-116215736D01*
X135584505Y-115865930D01*
X135774383Y-115408652D01*
X135774384Y-115406480D01*
X135825185Y-115406480D01*
X136014264Y-115864088D01*
X136364070Y-116214505D01*
X136821348Y-116404383D01*
X137316480Y-116404815D01*
X137774088Y-116215736D01*
X138124505Y-115865930D01*
X138314383Y-115408652D01*
X138314384Y-115406480D01*
X138365185Y-115406480D01*
X138554264Y-115864088D01*
X138904070Y-116214505D01*
X139361348Y-116404383D01*
X139856480Y-116404815D01*
X140314088Y-116215736D01*
X140664505Y-115865930D01*
X140854383Y-115408652D01*
X140854384Y-115406480D01*
X140905185Y-115406480D01*
X141094264Y-115864088D01*
X141444070Y-116214505D01*
X141901348Y-116404383D01*
X142396480Y-116404815D01*
X142854088Y-116215736D01*
X143204505Y-115865930D01*
X143394383Y-115408652D01*
X143394384Y-115406480D01*
X143445185Y-115406480D01*
X143634264Y-115864088D01*
X143984070Y-116214505D01*
X144441348Y-116404383D01*
X144936480Y-116404815D01*
X145394088Y-116215736D01*
X145744505Y-115865930D01*
X145934383Y-115408652D01*
X145934384Y-115406480D01*
X145985185Y-115406480D01*
X146174264Y-115864088D01*
X146524070Y-116214505D01*
X146981348Y-116404383D01*
X147476480Y-116404815D01*
X147934088Y-116215736D01*
X148284505Y-115865930D01*
X148474383Y-115408652D01*
X148474384Y-115406480D01*
X148525185Y-115406480D01*
X148714264Y-115864088D01*
X149064070Y-116214505D01*
X149521348Y-116404383D01*
X150016480Y-116404815D01*
X150474088Y-116215736D01*
X150824505Y-115865930D01*
X151014383Y-115408652D01*
X151014384Y-115406480D01*
X151065185Y-115406480D01*
X151254264Y-115864088D01*
X151604070Y-116214505D01*
X152061348Y-116404383D01*
X152556480Y-116404815D01*
X153014088Y-116215736D01*
X153364505Y-115865930D01*
X153554383Y-115408652D01*
X153554384Y-115406480D01*
X153605185Y-115406480D01*
X153794264Y-115864088D01*
X154144070Y-116214505D01*
X154601348Y-116404383D01*
X155096480Y-116404815D01*
X155554088Y-116215736D01*
X155904505Y-115865930D01*
X156094383Y-115408652D01*
X156094384Y-115406480D01*
X156145185Y-115406480D01*
X156334264Y-115864088D01*
X156684070Y-116214505D01*
X157141348Y-116404383D01*
X157636480Y-116404815D01*
X158094088Y-116215736D01*
X158444505Y-115865930D01*
X158634383Y-115408652D01*
X158634815Y-114913520D01*
X158552973Y-114715447D01*
X159349421Y-113919000D01*
X159674287Y-113919000D01*
X159225912Y-114104264D01*
X158875495Y-114454070D01*
X158685617Y-114911348D01*
X158685185Y-115406480D01*
X158874264Y-115864088D01*
X159224070Y-116214505D01*
X159681348Y-116404383D01*
X160176480Y-116404815D01*
X160634088Y-116215736D01*
X160984505Y-115865930D01*
X161174383Y-115408652D01*
X161174815Y-114913520D01*
X160985736Y-114455912D01*
X160635930Y-114105495D01*
X160186799Y-113919000D01*
X161469874Y-113919000D01*
X161538741Y-113987987D01*
X161788946Y-114091882D01*
X161795864Y-114091888D01*
X161765912Y-114104264D01*
X161415495Y-114454070D01*
X161225617Y-114911348D01*
X161225185Y-115406480D01*
X161414264Y-115864088D01*
X161764070Y-116214505D01*
X162221348Y-116404383D01*
X162716480Y-116404815D01*
X163174088Y-116215736D01*
X163524505Y-115865930D01*
X163714383Y-115408652D01*
X163714815Y-114913520D01*
X163525736Y-114455912D01*
X163512500Y-114442653D01*
X163512500Y-112839500D01*
X163473831Y-112645097D01*
X163363710Y-112480290D01*
X162792210Y-111908790D01*
X162627403Y-111798669D01*
X162433000Y-111760000D01*
X161615418Y-111760000D01*
X161613661Y-111755748D01*
X161491126Y-111633000D01*
X163683080Y-111633000D01*
X164502000Y-112451921D01*
X164502000Y-114023242D01*
X164305912Y-114104264D01*
X163955495Y-114454070D01*
X163765617Y-114911348D01*
X163765185Y-115406480D01*
X163954264Y-115864088D01*
X164304070Y-116214505D01*
X164761348Y-116404383D01*
X165256480Y-116404815D01*
X165714088Y-116215736D01*
X166064505Y-115865930D01*
X166254383Y-115408652D01*
X166254384Y-115406480D01*
X166305185Y-115406480D01*
X166494264Y-115864088D01*
X166844070Y-116214505D01*
X167301348Y-116404383D01*
X167796480Y-116404815D01*
X168254088Y-116215736D01*
X168604505Y-115865930D01*
X168794383Y-115408652D01*
X168794384Y-115406480D01*
X168845185Y-115406480D01*
X169034264Y-115864088D01*
X169384070Y-116214505D01*
X169841348Y-116404383D01*
X170336480Y-116404815D01*
X170794088Y-116215736D01*
X171144505Y-115865930D01*
X171334383Y-115408652D01*
X171334384Y-115406480D01*
X171385185Y-115406480D01*
X171574264Y-115864088D01*
X171924070Y-116214505D01*
X172381348Y-116404383D01*
X172876480Y-116404815D01*
X173334088Y-116215736D01*
X173684505Y-115865930D01*
X173874383Y-115408652D01*
X173874384Y-115406480D01*
X173925185Y-115406480D01*
X174114264Y-115864088D01*
X174464070Y-116214505D01*
X174921348Y-116404383D01*
X175416480Y-116404815D01*
X175874088Y-116215736D01*
X176224505Y-115865930D01*
X176414383Y-115408652D01*
X176414384Y-115406480D01*
X176465185Y-115406480D01*
X176654264Y-115864088D01*
X177004070Y-116214505D01*
X177461348Y-116404383D01*
X177956480Y-116404815D01*
X178414088Y-116215736D01*
X178764505Y-115865930D01*
X178954383Y-115408652D01*
X178954384Y-115406480D01*
X179005185Y-115406480D01*
X179194264Y-115864088D01*
X179544070Y-116214505D01*
X180001348Y-116404383D01*
X180496480Y-116404815D01*
X180954088Y-116215736D01*
X181304505Y-115865930D01*
X181494383Y-115408652D01*
X181494815Y-114913520D01*
X181305736Y-114455912D01*
X180955930Y-114105495D01*
X180498652Y-113915617D01*
X180003520Y-113915185D01*
X179545912Y-114104264D01*
X179195495Y-114454070D01*
X179005617Y-114911348D01*
X179005185Y-115406480D01*
X178954384Y-115406480D01*
X178954815Y-114913520D01*
X178765736Y-114455912D01*
X178415930Y-114105495D01*
X177958652Y-113915617D01*
X177463520Y-113915185D01*
X177005912Y-114104264D01*
X176655495Y-114454070D01*
X176465617Y-114911348D01*
X176465185Y-115406480D01*
X176414384Y-115406480D01*
X176414815Y-114913520D01*
X176225736Y-114455912D01*
X175875930Y-114105495D01*
X175418652Y-113915617D01*
X174923520Y-113915185D01*
X174465912Y-114104264D01*
X174115495Y-114454070D01*
X173925617Y-114911348D01*
X173925185Y-115406480D01*
X173874384Y-115406480D01*
X173874815Y-114913520D01*
X173685736Y-114455912D01*
X173335930Y-114105495D01*
X172878652Y-113915617D01*
X172383520Y-113915185D01*
X171925912Y-114104264D01*
X171575495Y-114454070D01*
X171385617Y-114911348D01*
X171385185Y-115406480D01*
X171334384Y-115406480D01*
X171334815Y-114913520D01*
X171145736Y-114455912D01*
X170795930Y-114105495D01*
X170338652Y-113915617D01*
X169843520Y-113915185D01*
X169385912Y-114104264D01*
X169035495Y-114454070D01*
X168845617Y-114911348D01*
X168845185Y-115406480D01*
X168794384Y-115406480D01*
X168794815Y-114913520D01*
X168605736Y-114455912D01*
X168255930Y-114105495D01*
X167798652Y-113915617D01*
X167303520Y-113915185D01*
X166845912Y-114104264D01*
X166495495Y-114454070D01*
X166305617Y-114911348D01*
X166305185Y-115406480D01*
X166254384Y-115406480D01*
X166254815Y-114913520D01*
X166065736Y-114455912D01*
X165715930Y-114105495D01*
X165518000Y-114023307D01*
X165518000Y-112241500D01*
X165479331Y-112047097D01*
X165423273Y-111963200D01*
X165369210Y-111882289D01*
X164252710Y-110765790D01*
X164087903Y-110655669D01*
X163893500Y-110617000D01*
X160789918Y-110617000D01*
X160788161Y-110612748D01*
X160596759Y-110421013D01*
X160346554Y-110317118D01*
X160075635Y-110316882D01*
X159825248Y-110420339D01*
X159633513Y-110611741D01*
X159529618Y-110861946D01*
X159529382Y-111132865D01*
X159632839Y-111383252D01*
X159824241Y-111574987D01*
X160074446Y-111678882D01*
X160345365Y-111679118D01*
X160456980Y-111633000D01*
X160580966Y-111633000D01*
X160459013Y-111754741D01*
X160355118Y-112004946D01*
X160354882Y-112275865D01*
X160458339Y-112526252D01*
X160649741Y-112717987D01*
X160899946Y-112821882D01*
X161170865Y-112822118D01*
X161282480Y-112776000D01*
X161678520Y-112776000D01*
X161539748Y-112833339D01*
X161469966Y-112903000D01*
X159139000Y-112903000D01*
X158944597Y-112941669D01*
X158779790Y-113051789D01*
X157834599Y-113996981D01*
X157638652Y-113915617D01*
X157143520Y-113915185D01*
X156685912Y-114104264D01*
X156335495Y-114454070D01*
X156145617Y-114911348D01*
X156145185Y-115406480D01*
X156094384Y-115406480D01*
X156094815Y-114913520D01*
X155905736Y-114455912D01*
X155555930Y-114105495D01*
X155098652Y-113915617D01*
X154603520Y-113915185D01*
X154145912Y-114104264D01*
X153795495Y-114454070D01*
X153605617Y-114911348D01*
X153605185Y-115406480D01*
X153554384Y-115406480D01*
X153554815Y-114913520D01*
X153365736Y-114455912D01*
X153015930Y-114105495D01*
X152558652Y-113915617D01*
X152063520Y-113915185D01*
X151605912Y-114104264D01*
X151255495Y-114454070D01*
X151065617Y-114911348D01*
X151065185Y-115406480D01*
X151014384Y-115406480D01*
X151014815Y-114913520D01*
X150825736Y-114455912D01*
X150475930Y-114105495D01*
X150018652Y-113915617D01*
X149523520Y-113915185D01*
X149065912Y-114104264D01*
X148715495Y-114454070D01*
X148525617Y-114911348D01*
X148525185Y-115406480D01*
X148474384Y-115406480D01*
X148474815Y-114913520D01*
X148285736Y-114455912D01*
X147935930Y-114105495D01*
X147478652Y-113915617D01*
X146983520Y-113915185D01*
X146525912Y-114104264D01*
X146175495Y-114454070D01*
X145985617Y-114911348D01*
X145985185Y-115406480D01*
X145934384Y-115406480D01*
X145934815Y-114913520D01*
X145745736Y-114455912D01*
X145395930Y-114105495D01*
X144938652Y-113915617D01*
X144443520Y-113915185D01*
X143985912Y-114104264D01*
X143635495Y-114454070D01*
X143445617Y-114911348D01*
X143445185Y-115406480D01*
X143394384Y-115406480D01*
X143394815Y-114913520D01*
X143205736Y-114455912D01*
X142855930Y-114105495D01*
X142398652Y-113915617D01*
X141903520Y-113915185D01*
X141445912Y-114104264D01*
X141095495Y-114454070D01*
X140905617Y-114911348D01*
X140905185Y-115406480D01*
X140854384Y-115406480D01*
X140854815Y-114913520D01*
X140665736Y-114455912D01*
X140315930Y-114105495D01*
X139858652Y-113915617D01*
X139363520Y-113915185D01*
X138905912Y-114104264D01*
X138555495Y-114454070D01*
X138365617Y-114911348D01*
X138365185Y-115406480D01*
X138314384Y-115406480D01*
X138314815Y-114913520D01*
X138125736Y-114455912D01*
X137775930Y-114105495D01*
X137318652Y-113915617D01*
X136823520Y-113915185D01*
X136365912Y-114104264D01*
X136015495Y-114454070D01*
X135825617Y-114911348D01*
X135825185Y-115406480D01*
X135774384Y-115406480D01*
X135774815Y-114913520D01*
X135585736Y-114455912D01*
X135235930Y-114105495D01*
X134778652Y-113915617D01*
X134283520Y-113915185D01*
X133825912Y-114104264D01*
X133475495Y-114454070D01*
X133285617Y-114911348D01*
X133285185Y-115406480D01*
X133234384Y-115406480D01*
X133234815Y-114913520D01*
X133045736Y-114455912D01*
X132695930Y-114105495D01*
X132238652Y-113915617D01*
X131743520Y-113915185D01*
X131285912Y-114104264D01*
X130935495Y-114454070D01*
X130745617Y-114911348D01*
X130745185Y-115406480D01*
X130694384Y-115406480D01*
X130694815Y-114913520D01*
X130505736Y-114455912D01*
X130414009Y-114364025D01*
X130547203Y-114337531D01*
X130712010Y-114227410D01*
X131553820Y-113385600D01*
X133545980Y-113385600D01*
X133574990Y-113414610D01*
X133739796Y-113524731D01*
X133934200Y-113563400D01*
X141937318Y-113563400D01*
X142031541Y-113657787D01*
X142281746Y-113761682D01*
X142552665Y-113761918D01*
X142803052Y-113658461D01*
X142994787Y-113467059D01*
X143098682Y-113216854D01*
X143098918Y-112945935D01*
X143020260Y-112755566D01*
X143147187Y-112628859D01*
X143251082Y-112378654D01*
X143251318Y-112107735D01*
X143147861Y-111857348D01*
X143139514Y-111848986D01*
X143223387Y-111765259D01*
X143294799Y-111593282D01*
X143500946Y-111678882D01*
X143771865Y-111679118D01*
X144014171Y-111579000D01*
X145215000Y-111579000D01*
X145215000Y-111696500D01*
X145259226Y-111918839D01*
X145385171Y-112107329D01*
X145766171Y-112488329D01*
X145954661Y-112614274D01*
X146177000Y-112658500D01*
X147828000Y-112658500D01*
X148050339Y-112614274D01*
X148238829Y-112488329D01*
X151286829Y-109440329D01*
X151412774Y-109251839D01*
X151457000Y-109029500D01*
X151457000Y-107437595D01*
X151556882Y-107197054D01*
X151557118Y-106926135D01*
X151507893Y-106807000D01*
X156718000Y-106807000D01*
X156767410Y-106796994D01*
X156809035Y-106768553D01*
X156815486Y-106758528D01*
X156799118Y-106797946D01*
X156798882Y-107068865D01*
X156902339Y-107319252D01*
X157093741Y-107510987D01*
X157343946Y-107614882D01*
X157614865Y-107615118D01*
X157859663Y-107513970D01*
X161165635Y-107513970D01*
X161325418Y-107832739D01*
X162116187Y-108142723D01*
X162965387Y-108126497D01*
X163674582Y-107832739D01*
X163834365Y-107513970D01*
X162500000Y-106179605D01*
X161165635Y-107513970D01*
X157859663Y-107513970D01*
X157865252Y-107511661D01*
X158056987Y-107320259D01*
X158160882Y-107070054D01*
X158161118Y-106799135D01*
X158061000Y-106556829D01*
X158061000Y-105728532D01*
X158173540Y-105616187D01*
X160357277Y-105616187D01*
X160373503Y-106465387D01*
X160667261Y-107174582D01*
X160986030Y-107334365D01*
X162320395Y-106000000D01*
X162679605Y-106000000D01*
X164013970Y-107334365D01*
X164332739Y-107174582D01*
X164642723Y-106383813D01*
X164626497Y-105534613D01*
X164332739Y-104825418D01*
X164013970Y-104665635D01*
X162679605Y-106000000D01*
X162320395Y-106000000D01*
X160986030Y-104665635D01*
X160667261Y-104825418D01*
X160357277Y-105616187D01*
X158173540Y-105616187D01*
X158183987Y-105605759D01*
X158287882Y-105355554D01*
X158288118Y-105084635D01*
X158184661Y-104834248D01*
X157993259Y-104642513D01*
X157743054Y-104538618D01*
X157472135Y-104538382D01*
X157221748Y-104641839D01*
X157030013Y-104833241D01*
X156926118Y-105083446D01*
X156926007Y-105210726D01*
X156899000Y-105346500D01*
X156899000Y-106557405D01*
X156842437Y-106693624D01*
X156845000Y-106680000D01*
X156845000Y-104486030D01*
X161165635Y-104486030D01*
X162500000Y-105820395D01*
X163834365Y-104486030D01*
X163674582Y-104167261D01*
X162883813Y-103857277D01*
X162034613Y-103873503D01*
X161325418Y-104167261D01*
X161165635Y-104486030D01*
X156845000Y-104486030D01*
X156845000Y-100593500D01*
X160604842Y-100593500D01*
X160879171Y-100867829D01*
X161067661Y-100993774D01*
X161290000Y-101038000D01*
X161973028Y-101038000D01*
X161857248Y-101085839D01*
X161665513Y-101277241D01*
X161561618Y-101527446D01*
X161561382Y-101798365D01*
X161664839Y-102048752D01*
X161856241Y-102240487D01*
X162106446Y-102344382D01*
X162377365Y-102344618D01*
X162627752Y-102241161D01*
X162697534Y-102171500D01*
X162794080Y-102171500D01*
X163978790Y-103356210D01*
X164143597Y-103466331D01*
X164338000Y-103505000D01*
X164635580Y-103505000D01*
X165544500Y-104413920D01*
X165544500Y-108458000D01*
X165583169Y-108652403D01*
X165693290Y-108817210D01*
X167005000Y-110128920D01*
X167005000Y-111114374D01*
X166936013Y-111183241D01*
X166832118Y-111433446D01*
X166831882Y-111704365D01*
X166935339Y-111954752D01*
X167126741Y-112146487D01*
X167376946Y-112250382D01*
X167647865Y-112250618D01*
X167829440Y-112175593D01*
X177974012Y-112175593D01*
X178115478Y-112478782D01*
X178851955Y-112763737D01*
X179641418Y-112745164D01*
X180284522Y-112478782D01*
X180425988Y-112175593D01*
X179200000Y-110949605D01*
X177974012Y-112175593D01*
X167829440Y-112175593D01*
X167898252Y-112147161D01*
X168089987Y-111955759D01*
X168193882Y-111705554D01*
X168194118Y-111434635D01*
X168090661Y-111184248D01*
X168021000Y-111114466D01*
X168021000Y-110421955D01*
X177206263Y-110421955D01*
X177224836Y-111211418D01*
X177491218Y-111854522D01*
X177794407Y-111995988D01*
X179020395Y-110770000D01*
X179379605Y-110770000D01*
X180605593Y-111995988D01*
X180908782Y-111854522D01*
X181193737Y-111118045D01*
X181175164Y-110328582D01*
X180908782Y-109685478D01*
X180605593Y-109544012D01*
X179379605Y-110770000D01*
X179020395Y-110770000D01*
X177794407Y-109544012D01*
X177491218Y-109685478D01*
X177206263Y-110421955D01*
X168021000Y-110421955D01*
X168021000Y-109918500D01*
X167982331Y-109724097D01*
X167872210Y-109559290D01*
X167677327Y-109364407D01*
X177974012Y-109364407D01*
X179200000Y-110590395D01*
X180425988Y-109364407D01*
X180284522Y-109061218D01*
X179548045Y-108776263D01*
X178758582Y-108794836D01*
X178115478Y-109061218D01*
X177974012Y-109364407D01*
X167677327Y-109364407D01*
X166560500Y-108247580D01*
X166560500Y-104401865D01*
X167720882Y-104401865D01*
X167821000Y-104644171D01*
X167821000Y-106874905D01*
X167721118Y-107115446D01*
X167720882Y-107386365D01*
X167824339Y-107636752D01*
X168015741Y-107828487D01*
X168265946Y-107932382D01*
X168536865Y-107932618D01*
X168787252Y-107829161D01*
X168978987Y-107637759D01*
X169082882Y-107387554D01*
X169083118Y-107116635D01*
X168983000Y-106874329D01*
X168983000Y-106265963D01*
X173358802Y-106265963D01*
X173532143Y-106685480D01*
X173852831Y-107006729D01*
X174272045Y-107180802D01*
X174725963Y-107181198D01*
X175145480Y-107007857D01*
X175466729Y-106687169D01*
X175499867Y-106607365D01*
X175532143Y-106685480D01*
X175852831Y-107006729D01*
X176272045Y-107180802D01*
X176725963Y-107181198D01*
X177145480Y-107007857D01*
X177466729Y-106687169D01*
X177640802Y-106267955D01*
X177641198Y-105814037D01*
X177467857Y-105394520D01*
X177147169Y-105073271D01*
X176727955Y-104899198D01*
X176456071Y-104898961D01*
X176847049Y-104879341D01*
X177229941Y-104720742D01*
X177299159Y-104478764D01*
X176500000Y-103679605D01*
X175700841Y-104478764D01*
X175770059Y-104720742D01*
X176271869Y-104899698D01*
X175854520Y-105072143D01*
X175533271Y-105392831D01*
X175500133Y-105472635D01*
X175467857Y-105394520D01*
X175147169Y-105073271D01*
X174727955Y-104899198D01*
X174274037Y-104898802D01*
X173854520Y-105072143D01*
X173533271Y-105392831D01*
X173359198Y-105812045D01*
X173358802Y-106265963D01*
X168983000Y-106265963D01*
X168983000Y-104643595D01*
X169082882Y-104403054D01*
X169083118Y-104132135D01*
X168979661Y-103881748D01*
X168788259Y-103690013D01*
X168538054Y-103586118D01*
X168267135Y-103585882D01*
X168016748Y-103689339D01*
X167825013Y-103880741D01*
X167721118Y-104130946D01*
X167720882Y-104401865D01*
X166560500Y-104401865D01*
X166560500Y-104203500D01*
X166521831Y-104009097D01*
X166411710Y-103844290D01*
X165205210Y-102637790D01*
X165040403Y-102527669D01*
X164846000Y-102489000D01*
X164548420Y-102489000D01*
X164213423Y-102154003D01*
X164345865Y-102154118D01*
X164448705Y-102111626D01*
X164550289Y-102213210D01*
X164715096Y-102323331D01*
X164737584Y-102327804D01*
X164909500Y-102362000D01*
X166223080Y-102362000D01*
X167026789Y-103165710D01*
X167191596Y-103275831D01*
X167212606Y-103280010D01*
X167386000Y-103314500D01*
X172446080Y-103314500D01*
X172990790Y-103859210D01*
X173155596Y-103969331D01*
X173350000Y-104008000D01*
X173475337Y-104008000D01*
X173532143Y-104145480D01*
X173852831Y-104466729D01*
X174272045Y-104640802D01*
X174725963Y-104641198D01*
X175145480Y-104467857D01*
X175360525Y-104253188D01*
X175521236Y-104299159D01*
X176320395Y-103500000D01*
X176679605Y-103500000D01*
X177478764Y-104299159D01*
X177720742Y-104229941D01*
X177907155Y-103707220D01*
X177879341Y-103152951D01*
X177720742Y-102770059D01*
X177478764Y-102700841D01*
X176679605Y-103500000D01*
X176320395Y-103500000D01*
X175521236Y-102700841D01*
X175360379Y-102746854D01*
X175147169Y-102533271D01*
X175118186Y-102521236D01*
X175700841Y-102521236D01*
X176500000Y-103320395D01*
X177299159Y-102521236D01*
X177229941Y-102279258D01*
X176707220Y-102092845D01*
X176152951Y-102120659D01*
X175770059Y-102279258D01*
X175700841Y-102521236D01*
X175118186Y-102521236D01*
X174727955Y-102359198D01*
X174274037Y-102358802D01*
X173854520Y-102532143D01*
X173533271Y-102852831D01*
X173500404Y-102931984D01*
X173015710Y-102447290D01*
X172850903Y-102337169D01*
X172656500Y-102298500D01*
X167596421Y-102298500D01*
X166792710Y-101494790D01*
X166627903Y-101384669D01*
X166433500Y-101346000D01*
X165119921Y-101346000D01*
X164887710Y-101113790D01*
X164722903Y-101003669D01*
X164700225Y-100999158D01*
X164666126Y-100965000D01*
X164771984Y-100965000D01*
X164904241Y-101097487D01*
X165154446Y-101201382D01*
X165425365Y-101201618D01*
X165675752Y-101098161D01*
X165867487Y-100906759D01*
X165971382Y-100656554D01*
X165971618Y-100385635D01*
X165884832Y-100175593D01*
X177974012Y-100175593D01*
X178115478Y-100478782D01*
X178851955Y-100763737D01*
X179641418Y-100745164D01*
X180284522Y-100478782D01*
X180425988Y-100175593D01*
X179200000Y-98949605D01*
X177974012Y-100175593D01*
X165884832Y-100175593D01*
X165868161Y-100135248D01*
X165676759Y-99943513D01*
X165426554Y-99839618D01*
X165155635Y-99839382D01*
X164905248Y-99942839D01*
X164899076Y-99949000D01*
X163269126Y-99949000D01*
X163200259Y-99880013D01*
X162950054Y-99776118D01*
X162679135Y-99775882D01*
X162436829Y-99876000D01*
X161530658Y-99876000D01*
X161256329Y-99601671D01*
X161067839Y-99475726D01*
X160845500Y-99431500D01*
X156845000Y-99431500D01*
X156845000Y-98850400D01*
X174955200Y-98850400D01*
X175082895Y-98825000D01*
X176885600Y-98825000D01*
X177184476Y-98765550D01*
X177213884Y-98745900D01*
X177224836Y-99211418D01*
X177491218Y-99854522D01*
X177794407Y-99995988D01*
X179020395Y-98770000D01*
X179379605Y-98770000D01*
X180605593Y-99995988D01*
X180908782Y-99854522D01*
X181193737Y-99118045D01*
X181175164Y-98328582D01*
X180908782Y-97685478D01*
X180605593Y-97544012D01*
X179379605Y-98770000D01*
X179020395Y-98770000D01*
X179006253Y-98755858D01*
X179185858Y-98576253D01*
X179200000Y-98590395D01*
X180425988Y-97364407D01*
X180284522Y-97061218D01*
X179998102Y-96950398D01*
X180802250Y-96146251D01*
X180971550Y-95892876D01*
X180973117Y-95885000D01*
X180975167Y-95874694D01*
X181304505Y-95545930D01*
X181494383Y-95088652D01*
X181494815Y-94593520D01*
X181305736Y-94135912D01*
X180955930Y-93785495D01*
X180498652Y-93595617D01*
X180003520Y-93595185D01*
X179545912Y-93784264D01*
X179195495Y-94134070D01*
X179123797Y-94306739D01*
X179016516Y-94047741D01*
X178763805Y-93965800D01*
X177889605Y-94840000D01*
X177903748Y-94854143D01*
X177724143Y-95033748D01*
X177710000Y-95019605D01*
X176835800Y-95893805D01*
X176917741Y-96146516D01*
X177475699Y-96349400D01*
X176562100Y-97263000D01*
X174980600Y-97263000D01*
X174852905Y-97288400D01*
X156845000Y-97288400D01*
X156845000Y-95961329D01*
X157141348Y-96084383D01*
X157636480Y-96084815D01*
X158094088Y-95895736D01*
X158444505Y-95545930D01*
X158634383Y-95088652D01*
X158634384Y-95086480D01*
X158685185Y-95086480D01*
X158874264Y-95544088D01*
X159224070Y-95894505D01*
X159681348Y-96084383D01*
X160176480Y-96084815D01*
X160634088Y-95895736D01*
X160984505Y-95545930D01*
X161174383Y-95088652D01*
X161174384Y-95086480D01*
X161225185Y-95086480D01*
X161414264Y-95544088D01*
X161764070Y-95894505D01*
X162221348Y-96084383D01*
X162716480Y-96084815D01*
X163174088Y-95895736D01*
X163524505Y-95545930D01*
X163714383Y-95088652D01*
X163714384Y-95086480D01*
X163765185Y-95086480D01*
X163954264Y-95544088D01*
X164304070Y-95894505D01*
X164761348Y-96084383D01*
X165256480Y-96084815D01*
X165714088Y-95895736D01*
X166064505Y-95545930D01*
X166254383Y-95088652D01*
X166254384Y-95086480D01*
X166305185Y-95086480D01*
X166494264Y-95544088D01*
X166844070Y-95894505D01*
X167301348Y-96084383D01*
X167796480Y-96084815D01*
X168254088Y-95895736D01*
X168604505Y-95545930D01*
X168794383Y-95088652D01*
X168794384Y-95086480D01*
X168845185Y-95086480D01*
X169034264Y-95544088D01*
X169384070Y-95894505D01*
X169841348Y-96084383D01*
X170336480Y-96084815D01*
X170794088Y-95895736D01*
X171144505Y-95545930D01*
X171334383Y-95088652D01*
X171334384Y-95086480D01*
X171385185Y-95086480D01*
X171574264Y-95544088D01*
X171924070Y-95894505D01*
X172381348Y-96084383D01*
X172876480Y-96084815D01*
X173334088Y-95895736D01*
X173684505Y-95545930D01*
X173874383Y-95088652D01*
X173874384Y-95086480D01*
X173925185Y-95086480D01*
X174114264Y-95544088D01*
X174464070Y-95894505D01*
X174921348Y-96084383D01*
X175416480Y-96084815D01*
X175874088Y-95895736D01*
X176224505Y-95545930D01*
X176296203Y-95373261D01*
X176403484Y-95632259D01*
X176656195Y-95714200D01*
X177530395Y-94840000D01*
X176656195Y-93965800D01*
X176403484Y-94047741D01*
X176303228Y-94323458D01*
X176225736Y-94135912D01*
X175876629Y-93786195D01*
X176835800Y-93786195D01*
X177710000Y-94660395D01*
X178584200Y-93786195D01*
X178502259Y-93533484D01*
X177941970Y-93329752D01*
X177346365Y-93355942D01*
X176917741Y-93533484D01*
X176835800Y-93786195D01*
X175876629Y-93786195D01*
X175875930Y-93785495D01*
X175418652Y-93595617D01*
X174923520Y-93595185D01*
X174465912Y-93784264D01*
X174115495Y-94134070D01*
X173925617Y-94591348D01*
X173925185Y-95086480D01*
X173874384Y-95086480D01*
X173874815Y-94593520D01*
X173685736Y-94135912D01*
X173335930Y-93785495D01*
X172878652Y-93595617D01*
X172383520Y-93595185D01*
X171925912Y-93784264D01*
X171575495Y-94134070D01*
X171385617Y-94591348D01*
X171385185Y-95086480D01*
X171334384Y-95086480D01*
X171334815Y-94593520D01*
X171145736Y-94135912D01*
X170795930Y-93785495D01*
X170338652Y-93595617D01*
X169843520Y-93595185D01*
X169385912Y-93784264D01*
X169035495Y-94134070D01*
X168845617Y-94591348D01*
X168845185Y-95086480D01*
X168794384Y-95086480D01*
X168794815Y-94593520D01*
X168605736Y-94135912D01*
X168255930Y-93785495D01*
X167798652Y-93595617D01*
X167303520Y-93595185D01*
X166845912Y-93784264D01*
X166495495Y-94134070D01*
X166305617Y-94591348D01*
X166305185Y-95086480D01*
X166254384Y-95086480D01*
X166254815Y-94593520D01*
X166065736Y-94135912D01*
X165715930Y-93785495D01*
X165258652Y-93595617D01*
X164763520Y-93595185D01*
X164305912Y-93784264D01*
X163955495Y-94134070D01*
X163765617Y-94591348D01*
X163765185Y-95086480D01*
X163714384Y-95086480D01*
X163714815Y-94593520D01*
X163525736Y-94135912D01*
X163175930Y-93785495D01*
X162718652Y-93595617D01*
X162223520Y-93595185D01*
X161765912Y-93784264D01*
X161415495Y-94134070D01*
X161225617Y-94591348D01*
X161225185Y-95086480D01*
X161174384Y-95086480D01*
X161174815Y-94593520D01*
X160985736Y-94135912D01*
X160635930Y-93785495D01*
X160178652Y-93595617D01*
X159683520Y-93595185D01*
X159225912Y-93784264D01*
X158875495Y-94134070D01*
X158685617Y-94591348D01*
X158685185Y-95086480D01*
X158634384Y-95086480D01*
X158634815Y-94593520D01*
X158445736Y-94135912D01*
X158095930Y-93785495D01*
X157638652Y-93595617D01*
X157143520Y-93595185D01*
X156685912Y-93784264D01*
X156335495Y-94134070D01*
X156145617Y-94591348D01*
X156145596Y-94615000D01*
X156094796Y-94615000D01*
X156094815Y-94593520D01*
X155905736Y-94135912D01*
X155555930Y-93785495D01*
X155098652Y-93595617D01*
X154813000Y-93595368D01*
X154813000Y-91642000D01*
X181662000Y-91642000D01*
X181662000Y-117400000D01*
X85800000Y-117400000D01*
X85800000Y-94821126D01*
X87043881Y-94821126D01*
X87170046Y-94996000D01*
X88011000Y-94996000D01*
X88011000Y-94976000D01*
X88265000Y-94976000D01*
X88265000Y-94996000D01*
X89105954Y-94996000D01*
X89232119Y-94821126D01*
X90676081Y-94821126D01*
X90802246Y-94996000D01*
X91643200Y-94996000D01*
X91643200Y-94976000D01*
X91897200Y-94976000D01*
X91897200Y-94996000D01*
X92738154Y-94996000D01*
X92864319Y-94821126D01*
X94308281Y-94821126D01*
X94434446Y-94996000D01*
X95275400Y-94996000D01*
X95275400Y-94976000D01*
X95529400Y-94976000D01*
X95529400Y-94996000D01*
X96370354Y-94996000D01*
X96496519Y-94821126D01*
X97940481Y-94821126D01*
X98066646Y-94996000D01*
X98907600Y-94996000D01*
X98907600Y-94976000D01*
X99161600Y-94976000D01*
X99161600Y-94996000D01*
X100002554Y-94996000D01*
X100128719Y-94821126D01*
X101547281Y-94821126D01*
X101673446Y-94996000D01*
X102514400Y-94996000D01*
X102514400Y-94976000D01*
X102768400Y-94976000D01*
X102768400Y-94996000D01*
X103609354Y-94996000D01*
X103735519Y-94821126D01*
X105179481Y-94821126D01*
X105305646Y-94996000D01*
X106146600Y-94996000D01*
X106146600Y-94976000D01*
X106400600Y-94976000D01*
X106400600Y-94996000D01*
X107241554Y-94996000D01*
X107367719Y-94821126D01*
X108811681Y-94821126D01*
X108937846Y-94996000D01*
X109778800Y-94996000D01*
X109778800Y-94976000D01*
X110032800Y-94976000D01*
X110032800Y-94996000D01*
X110873754Y-94996000D01*
X110999919Y-94821126D01*
X112443881Y-94821126D01*
X112570046Y-94996000D01*
X113411000Y-94996000D01*
X113411000Y-94976000D01*
X113665000Y-94976000D01*
X113665000Y-94996000D01*
X114505954Y-94996000D01*
X114632119Y-94821126D01*
X114543864Y-94608030D01*
X115239752Y-94608030D01*
X115265942Y-95203635D01*
X115443484Y-95632259D01*
X115696195Y-95714200D01*
X116570395Y-94840000D01*
X116929605Y-94840000D01*
X117803805Y-95714200D01*
X118056516Y-95632259D01*
X118156772Y-95356542D01*
X118234264Y-95544088D01*
X118584070Y-95894505D01*
X119041348Y-96084383D01*
X119536480Y-96084815D01*
X119994088Y-95895736D01*
X120344505Y-95545930D01*
X120534383Y-95088652D01*
X120534384Y-95086480D01*
X120585185Y-95086480D01*
X120774264Y-95544088D01*
X121124070Y-95894505D01*
X121581348Y-96084383D01*
X122076480Y-96084815D01*
X122534088Y-95895736D01*
X122884505Y-95545930D01*
X123074383Y-95088652D01*
X123074384Y-95086480D01*
X123125185Y-95086480D01*
X123314264Y-95544088D01*
X123664070Y-95894505D01*
X124121348Y-96084383D01*
X124616480Y-96084815D01*
X125074088Y-95895736D01*
X125424505Y-95545930D01*
X125614383Y-95088652D01*
X125614384Y-95086480D01*
X125665185Y-95086480D01*
X125854264Y-95544088D01*
X126204070Y-95894505D01*
X126661348Y-96084383D01*
X127156480Y-96084815D01*
X127614088Y-95895736D01*
X127964505Y-95545930D01*
X128154383Y-95088652D01*
X128154384Y-95086480D01*
X128205185Y-95086480D01*
X128394264Y-95544088D01*
X128744070Y-95894505D01*
X129201348Y-96084383D01*
X129696480Y-96084815D01*
X130154088Y-95895736D01*
X130504505Y-95545930D01*
X130694383Y-95088652D01*
X130694384Y-95086480D01*
X130745185Y-95086480D01*
X130934264Y-95544088D01*
X131284070Y-95894505D01*
X131741348Y-96084383D01*
X132236480Y-96084815D01*
X132694088Y-95895736D01*
X133044505Y-95545930D01*
X133234383Y-95088652D01*
X133234384Y-95086480D01*
X133285185Y-95086480D01*
X133474264Y-95544088D01*
X133824070Y-95894505D01*
X134281348Y-96084383D01*
X134776480Y-96084815D01*
X135234088Y-95895736D01*
X135584505Y-95545930D01*
X135774383Y-95088652D01*
X135774384Y-95086480D01*
X135825185Y-95086480D01*
X136014264Y-95544088D01*
X136364070Y-95894505D01*
X136821348Y-96084383D01*
X137316480Y-96084815D01*
X137774088Y-95895736D01*
X138124505Y-95545930D01*
X138314383Y-95088652D01*
X138314384Y-95086480D01*
X138365185Y-95086480D01*
X138554264Y-95544088D01*
X138904070Y-95894505D01*
X139361348Y-96084383D01*
X139856480Y-96084815D01*
X140314088Y-95895736D01*
X140664505Y-95545930D01*
X140854383Y-95088652D01*
X140854384Y-95086480D01*
X140905185Y-95086480D01*
X141094264Y-95544088D01*
X141444070Y-95894505D01*
X141901348Y-96084383D01*
X142396480Y-96084815D01*
X142854088Y-95895736D01*
X143204505Y-95545930D01*
X143394383Y-95088652D01*
X143394384Y-95086480D01*
X143445185Y-95086480D01*
X143634264Y-95544088D01*
X143984070Y-95894505D01*
X144441348Y-96084383D01*
X144936480Y-96084815D01*
X145394088Y-95895736D01*
X145744505Y-95545930D01*
X145934383Y-95088652D01*
X145934815Y-94593520D01*
X145745736Y-94135912D01*
X145395930Y-93785495D01*
X144938652Y-93595617D01*
X144443520Y-93595185D01*
X143985912Y-93784264D01*
X143635495Y-94134070D01*
X143445617Y-94591348D01*
X143445185Y-95086480D01*
X143394384Y-95086480D01*
X143394815Y-94593520D01*
X143205736Y-94135912D01*
X142855930Y-93785495D01*
X142398652Y-93595617D01*
X141903520Y-93595185D01*
X141445912Y-93784264D01*
X141095495Y-94134070D01*
X140905617Y-94591348D01*
X140905185Y-95086480D01*
X140854384Y-95086480D01*
X140854815Y-94593520D01*
X140665736Y-94135912D01*
X140315930Y-93785495D01*
X139858652Y-93595617D01*
X139363520Y-93595185D01*
X138905912Y-93784264D01*
X138555495Y-94134070D01*
X138365617Y-94591348D01*
X138365185Y-95086480D01*
X138314384Y-95086480D01*
X138314815Y-94593520D01*
X138125736Y-94135912D01*
X137775930Y-93785495D01*
X137318652Y-93595617D01*
X136823520Y-93595185D01*
X136365912Y-93784264D01*
X136015495Y-94134070D01*
X135825617Y-94591348D01*
X135825185Y-95086480D01*
X135774384Y-95086480D01*
X135774815Y-94593520D01*
X135585736Y-94135912D01*
X135235930Y-93785495D01*
X134778652Y-93595617D01*
X134283520Y-93595185D01*
X133825912Y-93784264D01*
X133475495Y-94134070D01*
X133285617Y-94591348D01*
X133285185Y-95086480D01*
X133234384Y-95086480D01*
X133234815Y-94593520D01*
X133045736Y-94135912D01*
X132695930Y-93785495D01*
X132238652Y-93595617D01*
X131743520Y-93595185D01*
X131285912Y-93784264D01*
X130935495Y-94134070D01*
X130745617Y-94591348D01*
X130745185Y-95086480D01*
X130694384Y-95086480D01*
X130694815Y-94593520D01*
X130505736Y-94135912D01*
X130155930Y-93785495D01*
X129698652Y-93595617D01*
X129203520Y-93595185D01*
X128745912Y-93784264D01*
X128395495Y-94134070D01*
X128205617Y-94591348D01*
X128205185Y-95086480D01*
X128154384Y-95086480D01*
X128154815Y-94593520D01*
X127965736Y-94135912D01*
X127615930Y-93785495D01*
X127158652Y-93595617D01*
X126663520Y-93595185D01*
X126205912Y-93784264D01*
X125855495Y-94134070D01*
X125665617Y-94591348D01*
X125665185Y-95086480D01*
X125614384Y-95086480D01*
X125614815Y-94593520D01*
X125425736Y-94135912D01*
X125075930Y-93785495D01*
X124618652Y-93595617D01*
X124123520Y-93595185D01*
X123665912Y-93784264D01*
X123315495Y-94134070D01*
X123125617Y-94591348D01*
X123125185Y-95086480D01*
X123074384Y-95086480D01*
X123074815Y-94593520D01*
X122885736Y-94135912D01*
X122535930Y-93785495D01*
X122078652Y-93595617D01*
X121583520Y-93595185D01*
X121125912Y-93784264D01*
X120775495Y-94134070D01*
X120585617Y-94591348D01*
X120585185Y-95086480D01*
X120534384Y-95086480D01*
X120534815Y-94593520D01*
X120345736Y-94135912D01*
X119995930Y-93785495D01*
X119538652Y-93595617D01*
X119043520Y-93595185D01*
X118585912Y-93784264D01*
X118235495Y-94134070D01*
X118163797Y-94306739D01*
X118056516Y-94047741D01*
X117803805Y-93965800D01*
X116929605Y-94840000D01*
X116570395Y-94840000D01*
X115696195Y-93965800D01*
X115443484Y-94047741D01*
X115239752Y-94608030D01*
X114543864Y-94608030D01*
X114525127Y-94562791D01*
X114410782Y-94430440D01*
X114426464Y-94353000D01*
X114426464Y-93786195D01*
X115875800Y-93786195D01*
X116750000Y-94660395D01*
X117624200Y-93786195D01*
X117542259Y-93533484D01*
X116981970Y-93329752D01*
X116386365Y-93355942D01*
X115957741Y-93533484D01*
X115875800Y-93786195D01*
X114426464Y-93786195D01*
X114426464Y-93353000D01*
X114399897Y-93211810D01*
X114316454Y-93082135D01*
X114189134Y-92995141D01*
X114038000Y-92964536D01*
X113038000Y-92964536D01*
X112896810Y-92991103D01*
X112767135Y-93074546D01*
X112680141Y-93201866D01*
X112649536Y-93353000D01*
X112649536Y-94353000D01*
X112664306Y-94431496D01*
X112550873Y-94562791D01*
X112443881Y-94821126D01*
X110999919Y-94821126D01*
X110892927Y-94562791D01*
X110778582Y-94430440D01*
X110794264Y-94353000D01*
X110794264Y-93353000D01*
X110767697Y-93211810D01*
X110684254Y-93082135D01*
X110556934Y-92995141D01*
X110405800Y-92964536D01*
X109405800Y-92964536D01*
X109264610Y-92991103D01*
X109134935Y-93074546D01*
X109047941Y-93201866D01*
X109017336Y-93353000D01*
X109017336Y-94353000D01*
X109032106Y-94431496D01*
X108918673Y-94562791D01*
X108811681Y-94821126D01*
X107367719Y-94821126D01*
X107260727Y-94562791D01*
X107146382Y-94430440D01*
X107162064Y-94353000D01*
X107162064Y-93353000D01*
X107135497Y-93211810D01*
X107052054Y-93082135D01*
X106924734Y-92995141D01*
X106773600Y-92964536D01*
X105773600Y-92964536D01*
X105632410Y-92991103D01*
X105502735Y-93074546D01*
X105415741Y-93201866D01*
X105385136Y-93353000D01*
X105385136Y-94353000D01*
X105399906Y-94431496D01*
X105286473Y-94562791D01*
X105179481Y-94821126D01*
X103735519Y-94821126D01*
X103628527Y-94562791D01*
X103514182Y-94430440D01*
X103529864Y-94353000D01*
X103529864Y-93353000D01*
X103503297Y-93211810D01*
X103419854Y-93082135D01*
X103292534Y-92995141D01*
X103141400Y-92964536D01*
X102141400Y-92964536D01*
X102000210Y-92991103D01*
X101870535Y-93074546D01*
X101783541Y-93201866D01*
X101752936Y-93353000D01*
X101752936Y-94353000D01*
X101767706Y-94431496D01*
X101654273Y-94562791D01*
X101547281Y-94821126D01*
X100128719Y-94821126D01*
X100021727Y-94562791D01*
X99907382Y-94430440D01*
X99923064Y-94353000D01*
X99923064Y-93353000D01*
X99896497Y-93211810D01*
X99813054Y-93082135D01*
X99685734Y-92995141D01*
X99534600Y-92964536D01*
X98534600Y-92964536D01*
X98393410Y-92991103D01*
X98263735Y-93074546D01*
X98176741Y-93201866D01*
X98146136Y-93353000D01*
X98146136Y-94353000D01*
X98160906Y-94431496D01*
X98047473Y-94562791D01*
X97940481Y-94821126D01*
X96496519Y-94821126D01*
X96389527Y-94562791D01*
X96275182Y-94430440D01*
X96290864Y-94353000D01*
X96290864Y-93353000D01*
X96264297Y-93211810D01*
X96180854Y-93082135D01*
X96053534Y-92995141D01*
X95902400Y-92964536D01*
X94902400Y-92964536D01*
X94761210Y-92991103D01*
X94631535Y-93074546D01*
X94544541Y-93201866D01*
X94513936Y-93353000D01*
X94513936Y-94353000D01*
X94528706Y-94431496D01*
X94415273Y-94562791D01*
X94308281Y-94821126D01*
X92864319Y-94821126D01*
X92757327Y-94562791D01*
X92642982Y-94430440D01*
X92658664Y-94353000D01*
X92658664Y-93353000D01*
X92632097Y-93211810D01*
X92548654Y-93082135D01*
X92421334Y-92995141D01*
X92270200Y-92964536D01*
X91270200Y-92964536D01*
X91129010Y-92991103D01*
X90999335Y-93074546D01*
X90912341Y-93201866D01*
X90881736Y-93353000D01*
X90881736Y-94353000D01*
X90896506Y-94431496D01*
X90783073Y-94562791D01*
X90676081Y-94821126D01*
X89232119Y-94821126D01*
X89125127Y-94562791D01*
X89010782Y-94430440D01*
X89026464Y-94353000D01*
X89026464Y-93353000D01*
X88999897Y-93211810D01*
X88916454Y-93082135D01*
X88789134Y-92995141D01*
X88638000Y-92964536D01*
X87638000Y-92964536D01*
X87496810Y-92991103D01*
X87367135Y-93074546D01*
X87280141Y-93201866D01*
X87249536Y-93353000D01*
X87249536Y-94353000D01*
X87264306Y-94431496D01*
X87150873Y-94562791D01*
X87043881Y-94821126D01*
X85800000Y-94821126D01*
X85800000Y-91642000D01*
X154305000Y-91642000D01*
X154305000Y-93718530D01*
G36*
X107899200Y-112082980D02*
X107307780Y-112674400D01*
X107016036Y-112674400D01*
X106939221Y-112559439D01*
X106921203Y-112547400D01*
X106939221Y-112535361D01*
X107130198Y-112249544D01*
X107197260Y-111912400D01*
X107130198Y-111575256D01*
X107057795Y-111466897D01*
X107286127Y-111202609D01*
X107393119Y-110944274D01*
X107266954Y-110769400D01*
X106426000Y-110769400D01*
X106426000Y-110789400D01*
X106172000Y-110789400D01*
X106172000Y-110769400D01*
X106152000Y-110769400D01*
X106152000Y-110515400D01*
X106172000Y-110515400D01*
X106172000Y-110495400D01*
X106426000Y-110495400D01*
X106426000Y-110515400D01*
X107266954Y-110515400D01*
X107393119Y-110340526D01*
X107286127Y-110082191D01*
X107171782Y-109949840D01*
X107187464Y-109872400D01*
X107187464Y-108991400D01*
X107518200Y-108991400D01*
X107712603Y-108952731D01*
X107877410Y-108842610D01*
X107899200Y-108820820D01*
X107899200Y-112082980D01*
X107899200Y-112082980D01*
G37*
X107899200Y-112082980D02*
X107307780Y-112674400D01*
X107016036Y-112674400D01*
X106939221Y-112559439D01*
X106921203Y-112547400D01*
X106939221Y-112535361D01*
X107130198Y-112249544D01*
X107197260Y-111912400D01*
X107130198Y-111575256D01*
X107057795Y-111466897D01*
X107286127Y-111202609D01*
X107393119Y-110944274D01*
X107266954Y-110769400D01*
X106426000Y-110769400D01*
X106426000Y-110789400D01*
X106172000Y-110789400D01*
X106172000Y-110769400D01*
X106152000Y-110769400D01*
X106152000Y-110515400D01*
X106172000Y-110515400D01*
X106172000Y-110495400D01*
X106426000Y-110495400D01*
X106426000Y-110515400D01*
X107266954Y-110515400D01*
X107393119Y-110340526D01*
X107286127Y-110082191D01*
X107171782Y-109949840D01*
X107187464Y-109872400D01*
X107187464Y-108991400D01*
X107518200Y-108991400D01*
X107712603Y-108952731D01*
X107877410Y-108842610D01*
X107899200Y-108820820D01*
X107899200Y-112082980D01*
G36*
X100584000Y-112184580D02*
X100094180Y-112674400D01*
X99751636Y-112674400D01*
X99674821Y-112559439D01*
X99656803Y-112547400D01*
X99674821Y-112535361D01*
X99865798Y-112249544D01*
X99932860Y-111912400D01*
X99865798Y-111575256D01*
X99793395Y-111466897D01*
X100021727Y-111202609D01*
X100128719Y-110944274D01*
X100002554Y-110769400D01*
X99161600Y-110769400D01*
X99161600Y-110789400D01*
X98907600Y-110789400D01*
X98907600Y-110769400D01*
X98887600Y-110769400D01*
X98887600Y-110515400D01*
X98907600Y-110515400D01*
X98907600Y-110495400D01*
X99161600Y-110495400D01*
X99161600Y-110515400D01*
X100002554Y-110515400D01*
X100128719Y-110340526D01*
X100021727Y-110082191D01*
X99907382Y-109949840D01*
X99923064Y-109872400D01*
X99923064Y-108991400D01*
X100533200Y-108991400D01*
X100584000Y-108981295D01*
X100584000Y-112184580D01*
X100584000Y-112184580D01*
G37*
X100584000Y-112184580D02*
X100094180Y-112674400D01*
X99751636Y-112674400D01*
X99674821Y-112559439D01*
X99656803Y-112547400D01*
X99674821Y-112535361D01*
X99865798Y-112249544D01*
X99932860Y-111912400D01*
X99865798Y-111575256D01*
X99793395Y-111466897D01*
X100021727Y-111202609D01*
X100128719Y-110944274D01*
X100002554Y-110769400D01*
X99161600Y-110769400D01*
X99161600Y-110789400D01*
X98907600Y-110789400D01*
X98907600Y-110769400D01*
X98887600Y-110769400D01*
X98887600Y-110515400D01*
X98907600Y-110515400D01*
X98907600Y-110495400D01*
X99161600Y-110495400D01*
X99161600Y-110515400D01*
X100002554Y-110515400D01*
X100128719Y-110340526D01*
X100021727Y-110082191D01*
X99907382Y-109949840D01*
X99923064Y-109872400D01*
X99923064Y-108991400D01*
X100533200Y-108991400D01*
X100584000Y-108981295D01*
X100584000Y-112184580D01*
G36*
X103962200Y-108328878D02*
X103962200Y-110939980D01*
X103497780Y-111404400D01*
X103479589Y-111404400D01*
X103653927Y-111202609D01*
X103760919Y-110944274D01*
X103634754Y-110769400D01*
X102793800Y-110769400D01*
X102793800Y-110789400D01*
X102539800Y-110789400D01*
X102539800Y-110769400D01*
X102519800Y-110769400D01*
X102519800Y-110515400D01*
X102539800Y-110515400D01*
X102539800Y-110495400D01*
X102793800Y-110495400D01*
X102793800Y-110515400D01*
X103634754Y-110515400D01*
X103760919Y-110340526D01*
X103653927Y-110082191D01*
X103539582Y-109949840D01*
X103555264Y-109872400D01*
X103555264Y-108872400D01*
X103528697Y-108731210D01*
X103514724Y-108709496D01*
X103813410Y-108410811D01*
X103905864Y-108272444D01*
X103962200Y-108328878D01*
X103962200Y-108328878D01*
G37*
X103962200Y-108328878D02*
X103962200Y-110939980D01*
X103497780Y-111404400D01*
X103479589Y-111404400D01*
X103653927Y-111202609D01*
X103760919Y-110944274D01*
X103634754Y-110769400D01*
X102793800Y-110769400D01*
X102793800Y-110789400D01*
X102539800Y-110789400D01*
X102539800Y-110769400D01*
X102519800Y-110769400D01*
X102519800Y-110515400D01*
X102539800Y-110515400D01*
X102539800Y-110495400D01*
X102793800Y-110495400D01*
X102793800Y-110515400D01*
X103634754Y-110515400D01*
X103760919Y-110340526D01*
X103653927Y-110082191D01*
X103539582Y-109949840D01*
X103555264Y-109872400D01*
X103555264Y-108872400D01*
X103528697Y-108731210D01*
X103514724Y-108709496D01*
X103813410Y-108410811D01*
X103905864Y-108272444D01*
X103962200Y-108328878D01*
G36*
X111582200Y-110762180D02*
X110939980Y-111404400D01*
X110743989Y-111404400D01*
X110918327Y-111202609D01*
X111025319Y-110944274D01*
X110899154Y-110769400D01*
X110058200Y-110769400D01*
X110058200Y-110789400D01*
X109804200Y-110789400D01*
X109804200Y-110769400D01*
X109784200Y-110769400D01*
X109784200Y-110515400D01*
X109804200Y-110515400D01*
X109804200Y-110495400D01*
X110058200Y-110495400D01*
X110058200Y-110515400D01*
X110899154Y-110515400D01*
X111025319Y-110340526D01*
X110918327Y-110082191D01*
X110803982Y-109949840D01*
X110819664Y-109872400D01*
X110819664Y-109016800D01*
X111531400Y-109016800D01*
X111582200Y-109006695D01*
X111582200Y-110762180D01*
X111582200Y-110762180D01*
G37*
X111582200Y-110762180D02*
X110939980Y-111404400D01*
X110743989Y-111404400D01*
X110918327Y-111202609D01*
X111025319Y-110944274D01*
X110899154Y-110769400D01*
X110058200Y-110769400D01*
X110058200Y-110789400D01*
X109804200Y-110789400D01*
X109804200Y-110769400D01*
X109784200Y-110769400D01*
X109784200Y-110515400D01*
X109804200Y-110515400D01*
X109804200Y-110495400D01*
X110058200Y-110495400D01*
X110058200Y-110515400D01*
X110899154Y-110515400D01*
X111025319Y-110340526D01*
X110918327Y-110082191D01*
X110803982Y-109949840D01*
X110819664Y-109872400D01*
X110819664Y-109016800D01*
X111531400Y-109016800D01*
X111582200Y-109006695D01*
X111582200Y-110762180D01*
G36*
X95529400Y-110515400D02*
X95549400Y-110515400D01*
X95549400Y-110769400D01*
X95529400Y-110769400D01*
X95529400Y-110789400D01*
X95275400Y-110789400D01*
X95275400Y-110769400D01*
X95255400Y-110769400D01*
X95255400Y-110515400D01*
X95275400Y-110515400D01*
X95275400Y-110495400D01*
X95529400Y-110495400D01*
X95529400Y-110515400D01*
X95529400Y-110515400D01*
G37*
X95529400Y-110515400D02*
X95549400Y-110515400D01*
X95549400Y-110769400D01*
X95529400Y-110769400D01*
X95529400Y-110789400D01*
X95275400Y-110789400D01*
X95275400Y-110769400D01*
X95255400Y-110769400D01*
X95255400Y-110515400D01*
X95275400Y-110515400D01*
X95275400Y-110495400D01*
X95529400Y-110495400D01*
X95529400Y-110515400D01*
G36*
X91909900Y-110515400D02*
X91929900Y-110515400D01*
X91929900Y-110769400D01*
X91909900Y-110769400D01*
X91909900Y-110789400D01*
X91655900Y-110789400D01*
X91655900Y-110769400D01*
X91635900Y-110769400D01*
X91635900Y-110515400D01*
X91655900Y-110515400D01*
X91655900Y-110495400D01*
X91909900Y-110495400D01*
X91909900Y-110515400D01*
X91909900Y-110515400D01*
G37*
X91909900Y-110515400D02*
X91929900Y-110515400D01*
X91929900Y-110769400D01*
X91909900Y-110769400D01*
X91909900Y-110789400D01*
X91655900Y-110789400D01*
X91655900Y-110769400D01*
X91635900Y-110769400D01*
X91635900Y-110515400D01*
X91655900Y-110515400D01*
X91655900Y-110495400D01*
X91909900Y-110495400D01*
X91909900Y-110515400D01*
G36*
X113690400Y-110502700D02*
X113710400Y-110502700D01*
X113710400Y-110756700D01*
X113690400Y-110756700D01*
X113690400Y-110776700D01*
X113436400Y-110776700D01*
X113436400Y-110756700D01*
X113416400Y-110756700D01*
X113416400Y-110502700D01*
X113436400Y-110502700D01*
X113436400Y-110482700D01*
X113690400Y-110482700D01*
X113690400Y-110502700D01*
X113690400Y-110502700D01*
G37*
X113690400Y-110502700D02*
X113710400Y-110502700D01*
X113710400Y-110756700D01*
X113690400Y-110756700D01*
X113690400Y-110776700D01*
X113436400Y-110776700D01*
X113436400Y-110756700D01*
X113416400Y-110756700D01*
X113416400Y-110502700D01*
X113436400Y-110502700D01*
X113436400Y-110482700D01*
X113690400Y-110482700D01*
X113690400Y-110502700D01*
G36*
X146177000Y-103502081D02*
X146105718Y-103673746D01*
X146105482Y-103944665D01*
X146177000Y-104117753D01*
X146177000Y-106680000D01*
X146187006Y-106729410D01*
X146215447Y-106771035D01*
X146257841Y-106798315D01*
X146278600Y-106802221D01*
X146278600Y-109483547D01*
X146246661Y-109406248D01*
X146055259Y-109214513D01*
X145872200Y-109138500D01*
X145872200Y-103883926D01*
X145941187Y-103815059D01*
X146045082Y-103564854D01*
X146045318Y-103293935D01*
X145941861Y-103043548D01*
X145750459Y-102851813D01*
X145500254Y-102747918D01*
X145229335Y-102747682D01*
X144978948Y-102851139D01*
X144787213Y-103042541D01*
X144683318Y-103292746D01*
X144683082Y-103563665D01*
X144786539Y-103814052D01*
X144856200Y-103883834D01*
X144856200Y-109486700D01*
X144894869Y-109681103D01*
X144987974Y-109820444D01*
X144987882Y-109926365D01*
X145091339Y-110176752D01*
X145282741Y-110368487D01*
X145399572Y-110417000D01*
X144013595Y-110417000D01*
X143851311Y-110349614D01*
X144036187Y-110165059D01*
X144140082Y-109914854D01*
X144140318Y-109643935D01*
X144036861Y-109393548D01*
X143963013Y-109319572D01*
X144063882Y-109076654D01*
X144064031Y-108905243D01*
X144301652Y-108807061D01*
X144493387Y-108615659D01*
X144597282Y-108365454D01*
X144597518Y-108094535D01*
X144494061Y-107844148D01*
X144302659Y-107652413D01*
X144052454Y-107548518D01*
X143781535Y-107548282D01*
X143531148Y-107651739D01*
X143435922Y-107746800D01*
X143200489Y-107746800D01*
X143200518Y-107713535D01*
X143097061Y-107463148D01*
X142905659Y-107271413D01*
X142655454Y-107167518D01*
X142384535Y-107167282D01*
X142134148Y-107270739D01*
X141942413Y-107462141D01*
X141838518Y-107712346D01*
X141838414Y-107832009D01*
X141816996Y-107836269D01*
X141652190Y-107946390D01*
X140454780Y-109143800D01*
X135643220Y-109143800D01*
X135614210Y-109114790D01*
X135449403Y-109004669D01*
X135255000Y-108966000D01*
X129946400Y-108966000D01*
X129751997Y-109004669D01*
X129587190Y-109114790D01*
X128745380Y-109956600D01*
X118980821Y-109956600D01*
X118821200Y-109796980D01*
X118821200Y-107416600D01*
X118782531Y-107222197D01*
X118782531Y-107222196D01*
X118672410Y-107057389D01*
X118364000Y-106748980D01*
X118364000Y-105968800D01*
X118329725Y-105796487D01*
X118325331Y-105774396D01*
X118215210Y-105609590D01*
X117098020Y-104492400D01*
X118250342Y-104492400D01*
X119604171Y-105846229D01*
X119792661Y-105972174D01*
X120015000Y-106016400D01*
X122076805Y-106016400D01*
X122317346Y-106116282D01*
X122588265Y-106116518D01*
X122838652Y-106013061D01*
X123030387Y-105821659D01*
X123134282Y-105571454D01*
X123134518Y-105300535D01*
X123031061Y-105050148D01*
X122839659Y-104858413D01*
X122764442Y-104827180D01*
X122885200Y-104851200D01*
X129389674Y-104851200D01*
X129458541Y-104920187D01*
X129708746Y-105024082D01*
X129979665Y-105024318D01*
X130230052Y-104920861D01*
X130421787Y-104729459D01*
X130525682Y-104479254D01*
X130525918Y-104208335D01*
X130422461Y-103957948D01*
X130231059Y-103766213D01*
X129980854Y-103662318D01*
X129709935Y-103662082D01*
X129459548Y-103765539D01*
X129389766Y-103835200D01*
X123095620Y-103835200D01*
X120983810Y-101723390D01*
X120819003Y-101613269D01*
X120624600Y-101574600D01*
X116440820Y-101574600D01*
X116847220Y-101168200D01*
X120515780Y-101168200D01*
X122627590Y-103280010D01*
X122792396Y-103390131D01*
X122986800Y-103428800D01*
X140124580Y-103428800D01*
X140822367Y-104126587D01*
X140822282Y-104224065D01*
X140925739Y-104474452D01*
X141117141Y-104666187D01*
X141367346Y-104770082D01*
X141638265Y-104770318D01*
X141888652Y-104666861D01*
X142080387Y-104475459D01*
X142184282Y-104225254D01*
X142184518Y-103954335D01*
X142081061Y-103703948D01*
X141889659Y-103512213D01*
X141639454Y-103408318D01*
X141540852Y-103408232D01*
X141028020Y-102895400D01*
X142131180Y-102895400D01*
X142414189Y-103178410D01*
X142578996Y-103288531D01*
X142600187Y-103292746D01*
X142773400Y-103327200D01*
X142970887Y-103327200D01*
X142983139Y-103356852D01*
X143174541Y-103548587D01*
X143424746Y-103652482D01*
X143695665Y-103652718D01*
X143946052Y-103549261D01*
X144137787Y-103357859D01*
X144241682Y-103107654D01*
X144241918Y-102836735D01*
X144232675Y-102814366D01*
X144406865Y-102814518D01*
X144657252Y-102711061D01*
X144848987Y-102519659D01*
X144952882Y-102269454D01*
X144953118Y-101998535D01*
X144849661Y-101748148D01*
X144658259Y-101556413D01*
X144468467Y-101477604D01*
X144569587Y-101376659D01*
X144673482Y-101126454D01*
X144673587Y-101005861D01*
X144911252Y-100907661D01*
X145102987Y-100716259D01*
X145206882Y-100466054D01*
X145207118Y-100195135D01*
X145103661Y-99944748D01*
X144912259Y-99753013D01*
X144698939Y-99664434D01*
X144699118Y-99458535D01*
X144595661Y-99208148D01*
X144404259Y-99016413D01*
X144154054Y-98912518D01*
X143883135Y-98912282D01*
X143850657Y-98925701D01*
X143757461Y-98700148D01*
X143606376Y-98548800D01*
X146177000Y-98548800D01*
X146177000Y-103502081D01*
X146177000Y-103502081D01*
G37*
X146177000Y-103502081D02*
X146105718Y-103673746D01*
X146105482Y-103944665D01*
X146177000Y-104117753D01*
X146177000Y-106680000D01*
X146187006Y-106729410D01*
X146215447Y-106771035D01*
X146257841Y-106798315D01*
X146278600Y-106802221D01*
X146278600Y-109483547D01*
X146246661Y-109406248D01*
X146055259Y-109214513D01*
X145872200Y-109138500D01*
X145872200Y-103883926D01*
X145941187Y-103815059D01*
X146045082Y-103564854D01*
X146045318Y-103293935D01*
X145941861Y-103043548D01*
X145750459Y-102851813D01*
X145500254Y-102747918D01*
X145229335Y-102747682D01*
X144978948Y-102851139D01*
X144787213Y-103042541D01*
X144683318Y-103292746D01*
X144683082Y-103563665D01*
X144786539Y-103814052D01*
X144856200Y-103883834D01*
X144856200Y-109486700D01*
X144894869Y-109681103D01*
X144987974Y-109820444D01*
X144987882Y-109926365D01*
X145091339Y-110176752D01*
X145282741Y-110368487D01*
X145399572Y-110417000D01*
X144013595Y-110417000D01*
X143851311Y-110349614D01*
X144036187Y-110165059D01*
X144140082Y-109914854D01*
X144140318Y-109643935D01*
X144036861Y-109393548D01*
X143963013Y-109319572D01*
X144063882Y-109076654D01*
X144064031Y-108905243D01*
X144301652Y-108807061D01*
X144493387Y-108615659D01*
X144597282Y-108365454D01*
X144597518Y-108094535D01*
X144494061Y-107844148D01*
X144302659Y-107652413D01*
X144052454Y-107548518D01*
X143781535Y-107548282D01*
X143531148Y-107651739D01*
X143435922Y-107746800D01*
X143200489Y-107746800D01*
X143200518Y-107713535D01*
X143097061Y-107463148D01*
X142905659Y-107271413D01*
X142655454Y-107167518D01*
X142384535Y-107167282D01*
X142134148Y-107270739D01*
X141942413Y-107462141D01*
X141838518Y-107712346D01*
X141838414Y-107832009D01*
X141816996Y-107836269D01*
X141652190Y-107946390D01*
X140454780Y-109143800D01*
X135643220Y-109143800D01*
X135614210Y-109114790D01*
X135449403Y-109004669D01*
X135255000Y-108966000D01*
X129946400Y-108966000D01*
X129751997Y-109004669D01*
X129587190Y-109114790D01*
X128745380Y-109956600D01*
X118980821Y-109956600D01*
X118821200Y-109796980D01*
X118821200Y-107416600D01*
X118782531Y-107222197D01*
X118782531Y-107222196D01*
X118672410Y-107057389D01*
X118364000Y-106748980D01*
X118364000Y-105968800D01*
X118329725Y-105796487D01*
X118325331Y-105774396D01*
X118215210Y-105609590D01*
X117098020Y-104492400D01*
X118250342Y-104492400D01*
X119604171Y-105846229D01*
X119792661Y-105972174D01*
X120015000Y-106016400D01*
X122076805Y-106016400D01*
X122317346Y-106116282D01*
X122588265Y-106116518D01*
X122838652Y-106013061D01*
X123030387Y-105821659D01*
X123134282Y-105571454D01*
X123134518Y-105300535D01*
X123031061Y-105050148D01*
X122839659Y-104858413D01*
X122764442Y-104827180D01*
X122885200Y-104851200D01*
X129389674Y-104851200D01*
X129458541Y-104920187D01*
X129708746Y-105024082D01*
X129979665Y-105024318D01*
X130230052Y-104920861D01*
X130421787Y-104729459D01*
X130525682Y-104479254D01*
X130525918Y-104208335D01*
X130422461Y-103957948D01*
X130231059Y-103766213D01*
X129980854Y-103662318D01*
X129709935Y-103662082D01*
X129459548Y-103765539D01*
X129389766Y-103835200D01*
X123095620Y-103835200D01*
X120983810Y-101723390D01*
X120819003Y-101613269D01*
X120624600Y-101574600D01*
X116440820Y-101574600D01*
X116847220Y-101168200D01*
X120515780Y-101168200D01*
X122627590Y-103280010D01*
X122792396Y-103390131D01*
X122986800Y-103428800D01*
X140124580Y-103428800D01*
X140822367Y-104126587D01*
X140822282Y-104224065D01*
X140925739Y-104474452D01*
X141117141Y-104666187D01*
X141367346Y-104770082D01*
X141638265Y-104770318D01*
X141888652Y-104666861D01*
X142080387Y-104475459D01*
X142184282Y-104225254D01*
X142184518Y-103954335D01*
X142081061Y-103703948D01*
X141889659Y-103512213D01*
X141639454Y-103408318D01*
X141540852Y-103408232D01*
X141028020Y-102895400D01*
X142131180Y-102895400D01*
X142414189Y-103178410D01*
X142578996Y-103288531D01*
X142600187Y-103292746D01*
X142773400Y-103327200D01*
X142970887Y-103327200D01*
X142983139Y-103356852D01*
X143174541Y-103548587D01*
X143424746Y-103652482D01*
X143695665Y-103652718D01*
X143946052Y-103549261D01*
X144137787Y-103357859D01*
X144241682Y-103107654D01*
X144241918Y-102836735D01*
X144232675Y-102814366D01*
X144406865Y-102814518D01*
X144657252Y-102711061D01*
X144848987Y-102519659D01*
X144952882Y-102269454D01*
X144953118Y-101998535D01*
X144849661Y-101748148D01*
X144658259Y-101556413D01*
X144468467Y-101477604D01*
X144569587Y-101376659D01*
X144673482Y-101126454D01*
X144673587Y-101005861D01*
X144911252Y-100907661D01*
X145102987Y-100716259D01*
X145206882Y-100466054D01*
X145207118Y-100195135D01*
X145103661Y-99944748D01*
X144912259Y-99753013D01*
X144698939Y-99664434D01*
X144699118Y-99458535D01*
X144595661Y-99208148D01*
X144404259Y-99016413D01*
X144154054Y-98912518D01*
X143883135Y-98912282D01*
X143850657Y-98925701D01*
X143757461Y-98700148D01*
X143606376Y-98548800D01*
X146177000Y-98548800D01*
X146177000Y-103502081D01*
M02*
