G04 #@! TF.FileFunction,Soldermask,Top*
%FSLAX46Y46*%
G04 Gerber Fmt 4.6, Leading zero omitted, Abs format (unit mm)*
G04 Created by KiCad (PCBNEW 4.0.6-e0-6349~53~ubuntu16.04.1) date Thu Jul 27 09:56:00 2017*
%MOMM*%
%LPD*%
G01*
G04 APERTURE LIST*
%ADD10C,0.100000*%
%ADD11C,2.127200*%
%ADD12R,1.150000X1.200000*%
%ADD13R,1.200000X1.150000*%
%ADD14R,1.400000X1.400000*%
%ADD15O,1.400000X1.400000*%
%ADD16C,1.920000*%
%ADD17C,3.100000*%
%ADD18R,1.300000X0.900000*%
%ADD19R,0.900000X1.300000*%
%ADD20O,1.400760X0.648920*%
%ADD21O,0.648920X1.400760*%
%ADD22R,3.400000X3.400000*%
%ADD23C,3.400000*%
%ADD24R,2.400000X4.200000*%
%ADD25R,2.400000X1.900000*%
%ADD26R,1.500000X0.800000*%
G04 APERTURE END LIST*
D10*
D11*
X116750000Y-115160000D03*
X119290000Y-115160000D03*
X121830000Y-115160000D03*
X124370000Y-115160000D03*
X126910000Y-115160000D03*
X129450000Y-115160000D03*
X131990000Y-115160000D03*
X134530000Y-115160000D03*
X137070000Y-115160000D03*
X139610000Y-115160000D03*
X142150000Y-115160000D03*
X144690000Y-115160000D03*
X147230000Y-115160000D03*
X149770000Y-115160000D03*
X152310000Y-115160000D03*
X154850000Y-115160000D03*
X157390000Y-115160000D03*
X159930000Y-115160000D03*
X162470000Y-115160000D03*
X165010000Y-115160000D03*
X167550000Y-115160000D03*
X170090000Y-115160000D03*
X172630000Y-115160000D03*
X175170000Y-115160000D03*
X177710000Y-115160000D03*
X180250000Y-115160000D03*
X180250000Y-94840000D03*
X177710000Y-94840000D03*
X175170000Y-94840000D03*
X172630000Y-94840000D03*
X170090000Y-94840000D03*
X167550000Y-94840000D03*
X165010000Y-94840000D03*
X162470000Y-94840000D03*
X159930000Y-94840000D03*
X157390000Y-94840000D03*
X154850000Y-94840000D03*
X152310000Y-94840000D03*
X149770000Y-94840000D03*
X147230000Y-94840000D03*
X144690000Y-94840000D03*
X142150000Y-94840000D03*
X139610000Y-94840000D03*
X137070000Y-94840000D03*
X134530000Y-94840000D03*
X131990000Y-94840000D03*
X129450000Y-94840000D03*
X126910000Y-94840000D03*
X124370000Y-94840000D03*
X121830000Y-94840000D03*
X119290000Y-94840000D03*
X116750000Y-94840000D03*
D12*
X167000000Y-98750000D03*
X167000000Y-100250000D03*
X167000000Y-103250000D03*
X167000000Y-101750000D03*
X168500000Y-103250000D03*
X168500000Y-101750000D03*
X156083000Y-105969500D03*
X156083000Y-104469500D03*
X161500000Y-98250000D03*
X161500000Y-99750000D03*
X160000000Y-98250000D03*
X160000000Y-99750000D03*
D13*
X151750000Y-104500000D03*
X153250000Y-104500000D03*
X151777000Y-105791000D03*
X153277000Y-105791000D03*
X141744000Y-105283000D03*
X143244000Y-105283000D03*
X144538000Y-105791000D03*
X146038000Y-105791000D03*
X141744000Y-96647000D03*
X143244000Y-96647000D03*
X144538000Y-97282000D03*
X146038000Y-97282000D03*
D14*
X88163400Y-109372400D03*
D15*
X88163400Y-110642400D03*
X88163400Y-111912400D03*
X88163400Y-113182400D03*
D14*
X95402400Y-109372400D03*
D15*
X95402400Y-110642400D03*
X95402400Y-111912400D03*
X95402400Y-113182400D03*
D14*
X102666800Y-109372400D03*
D15*
X102666800Y-110642400D03*
X102666800Y-111912400D03*
X102666800Y-113182400D03*
D14*
X109931200Y-109372400D03*
D15*
X109931200Y-110642400D03*
X109931200Y-111912400D03*
X109931200Y-113182400D03*
D14*
X113563400Y-109359700D03*
D15*
X113563400Y-110629700D03*
X113563400Y-111899700D03*
X113563400Y-113169700D03*
D14*
X106299000Y-109372400D03*
D15*
X106299000Y-110642400D03*
X106299000Y-111912400D03*
X106299000Y-113182400D03*
D14*
X99034600Y-109372400D03*
D15*
X99034600Y-110642400D03*
X99034600Y-111912400D03*
X99034600Y-113182400D03*
D14*
X91782900Y-109372400D03*
D15*
X91782900Y-110642400D03*
X91782900Y-111912400D03*
X91782900Y-113182400D03*
D14*
X99034600Y-93853000D03*
D15*
X99034600Y-95123000D03*
X99034600Y-96393000D03*
X99034600Y-97663000D03*
D14*
X95402400Y-93853000D03*
D15*
X95402400Y-95123000D03*
X95402400Y-96393000D03*
X95402400Y-97663000D03*
D14*
X91770200Y-93853000D03*
D15*
X91770200Y-95123000D03*
X91770200Y-96393000D03*
X91770200Y-97663000D03*
D14*
X88138000Y-93853000D03*
D15*
X88138000Y-95123000D03*
X88138000Y-96393000D03*
X88138000Y-97663000D03*
D14*
X102641400Y-93853000D03*
D15*
X102641400Y-95123000D03*
X102641400Y-96393000D03*
X102641400Y-97663000D03*
D14*
X106273600Y-93853000D03*
D15*
X106273600Y-95123000D03*
X106273600Y-96393000D03*
X106273600Y-97663000D03*
D14*
X109905800Y-93853000D03*
D15*
X109905800Y-95123000D03*
X109905800Y-96393000D03*
X109905800Y-97663000D03*
D14*
X113538000Y-93853000D03*
D15*
X113538000Y-95123000D03*
X113538000Y-96393000D03*
X113538000Y-97663000D03*
D16*
X174500000Y-106040000D03*
X174500000Y-103500000D03*
X176500000Y-103500000D03*
X176500000Y-106040000D03*
D17*
X179200000Y-110770000D03*
X179200000Y-98770000D03*
D18*
X170000000Y-103250000D03*
X170000000Y-101750000D03*
D19*
X163754500Y-112077500D03*
X162254500Y-112077500D03*
D18*
X144589500Y-109105000D03*
X144589500Y-110605000D03*
X146812000Y-108089000D03*
X146812000Y-109589000D03*
X147637500Y-111772000D03*
X147637500Y-113272000D03*
X149733000Y-111772000D03*
X149733000Y-113272000D03*
X128879600Y-109258800D03*
X128879600Y-107758800D03*
D19*
X149530500Y-107442000D03*
X148030500Y-107442000D03*
X149530500Y-108966000D03*
X148030500Y-108966000D03*
X127432500Y-105918000D03*
X125932500Y-105918000D03*
X124765500Y-105918000D03*
X123265500Y-105918000D03*
X127432500Y-109220000D03*
X125932500Y-109220000D03*
X124765500Y-109220000D03*
X123265500Y-109220000D03*
X127432500Y-107569000D03*
X125932500Y-107569000D03*
X124765500Y-107569000D03*
X123265500Y-107569000D03*
X87413400Y-114833400D03*
X88913400Y-114833400D03*
X94652400Y-114833400D03*
X96152400Y-114833400D03*
X101916800Y-114833400D03*
X103416800Y-114833400D03*
X109181200Y-114833400D03*
X110681200Y-114833400D03*
X112813400Y-114820700D03*
X114313400Y-114820700D03*
X105549000Y-114833400D03*
X107049000Y-114833400D03*
X98284600Y-114833400D03*
X99784600Y-114833400D03*
X91032900Y-114833400D03*
X92532900Y-114833400D03*
X87413400Y-116103400D03*
X88913400Y-116103400D03*
X94652400Y-116103400D03*
X96152400Y-116103400D03*
X101916800Y-116103400D03*
X103416800Y-116103400D03*
X109181200Y-116103400D03*
X110681200Y-116103400D03*
X112813400Y-116090700D03*
X114313400Y-116090700D03*
X105549000Y-116103400D03*
X107049000Y-116103400D03*
X98284600Y-116103400D03*
X99784600Y-116103400D03*
X91032900Y-116103400D03*
X92532900Y-116103400D03*
D18*
X129641600Y-99302000D03*
X129641600Y-97802000D03*
X145605500Y-111772000D03*
X145605500Y-113272000D03*
X143637000Y-111772000D03*
X143637000Y-113272000D03*
D19*
X127496000Y-97028000D03*
X125996000Y-97028000D03*
X124829000Y-97028000D03*
X123329000Y-97028000D03*
X127496000Y-100330000D03*
X125996000Y-100330000D03*
X124829000Y-100330000D03*
X123329000Y-100330000D03*
X127496000Y-98679000D03*
X125996000Y-98679000D03*
X124829000Y-98679000D03*
X123329000Y-98679000D03*
X98284600Y-99314000D03*
X99784600Y-99314000D03*
X94652400Y-99314000D03*
X96152400Y-99314000D03*
X91020200Y-99314000D03*
X92520200Y-99314000D03*
X87388000Y-99314000D03*
X88888000Y-99314000D03*
X101891400Y-99314000D03*
X103391400Y-99314000D03*
X105523600Y-99314000D03*
X107023600Y-99314000D03*
X109155800Y-99314000D03*
X110655800Y-99314000D03*
X112788000Y-99314000D03*
X114288000Y-99314000D03*
X98284600Y-100584000D03*
X99784600Y-100584000D03*
X94652400Y-100584000D03*
X96152400Y-100584000D03*
X91020200Y-100584000D03*
X92520200Y-100584000D03*
X87388000Y-100584000D03*
X88888000Y-100584000D03*
X101891400Y-100584000D03*
X103391400Y-100584000D03*
X105523600Y-100584000D03*
X107023600Y-100584000D03*
X109155800Y-100584000D03*
X110655800Y-100584000D03*
X112788000Y-100838000D03*
X114288000Y-100838000D03*
D20*
X164999360Y-107501140D03*
X164999360Y-107000760D03*
X164999360Y-106500380D03*
X164999360Y-106000000D03*
X164999360Y-105499620D03*
X164999360Y-104999240D03*
X164999360Y-104498860D03*
D21*
X164001140Y-103500640D03*
X163500760Y-103500640D03*
X163000380Y-103500640D03*
X162500000Y-103500640D03*
X161999620Y-103500640D03*
X161499240Y-103500640D03*
X160998860Y-103500640D03*
D20*
X160000640Y-104498860D03*
X160000640Y-104999240D03*
X160000640Y-105499620D03*
X160000640Y-106000000D03*
X160000640Y-106500380D03*
X160000640Y-107000760D03*
X160000640Y-107501140D03*
D21*
X160998860Y-108499360D03*
X161499240Y-108499360D03*
X161999620Y-108499360D03*
X162500000Y-108499360D03*
X163000380Y-108499360D03*
X163500760Y-108499360D03*
X164001140Y-108499360D03*
D22*
X162500000Y-106000000D03*
D23*
X162500000Y-106000000D03*
D24*
X151350000Y-100000000D03*
D25*
X157650000Y-100000000D03*
X157650000Y-97700000D03*
X157650000Y-102300000D03*
D26*
X134183000Y-105772000D03*
X134183000Y-106422000D03*
X134183000Y-107072000D03*
X134183000Y-107722000D03*
X134183000Y-108372000D03*
X134183000Y-109022000D03*
X134183000Y-109672000D03*
X134183000Y-110322000D03*
X134183000Y-110972000D03*
X134183000Y-111622000D03*
X134183000Y-112272000D03*
X134183000Y-112922000D03*
X139883000Y-112922000D03*
X139883000Y-112272000D03*
X139883000Y-111622000D03*
X139883000Y-110972000D03*
X139883000Y-110322000D03*
X139883000Y-109672000D03*
X139883000Y-109022000D03*
X139883000Y-108372000D03*
X139883000Y-107722000D03*
X139883000Y-107072000D03*
X139883000Y-106422000D03*
X139883000Y-105772000D03*
X134183000Y-97136000D03*
X134183000Y-97786000D03*
X134183000Y-98436000D03*
X134183000Y-99086000D03*
X134183000Y-99736000D03*
X134183000Y-100386000D03*
X134183000Y-101036000D03*
X134183000Y-101686000D03*
X134183000Y-102336000D03*
X134183000Y-102986000D03*
X134183000Y-103636000D03*
X134183000Y-104286000D03*
X139883000Y-104286000D03*
X139883000Y-103636000D03*
X139883000Y-102986000D03*
X139883000Y-102336000D03*
X139883000Y-101686000D03*
X139883000Y-101036000D03*
X139883000Y-100386000D03*
X139883000Y-99736000D03*
X139883000Y-99086000D03*
X139883000Y-98436000D03*
X139883000Y-97786000D03*
X139883000Y-97136000D03*
D13*
X87413400Y-107721400D03*
X88913400Y-107721400D03*
X94652400Y-107848400D03*
X96152400Y-107848400D03*
X101916800Y-107848400D03*
X103416800Y-107848400D03*
X109181200Y-107848400D03*
X110681200Y-107848400D03*
X112813400Y-107835700D03*
X114313400Y-107835700D03*
X105549000Y-107848400D03*
X107049000Y-107848400D03*
X98284600Y-107848400D03*
X99784600Y-107848400D03*
X91032900Y-107848400D03*
X92532900Y-107848400D03*
X98284600Y-92329000D03*
X99784600Y-92329000D03*
X94652400Y-92329000D03*
X96152400Y-92329000D03*
X91020200Y-92329000D03*
X92520200Y-92329000D03*
X87388000Y-92329000D03*
X88888000Y-92329000D03*
X101891400Y-92329000D03*
X103391400Y-92329000D03*
X105523600Y-92329000D03*
X107023600Y-92329000D03*
X109155800Y-92329000D03*
X110655800Y-92329000D03*
X112788000Y-92329000D03*
X114288000Y-92329000D03*
M02*
